<?xml version="1.0" encoding="UTF-8"?>
<COLLADA xmlns="http://www.collada.org/2005/11/COLLADASchema" version="1.4.1">
	<asset>
		<contributor>
			<author>DENSO WAVE</author>
		</contributor>
		<unit/>
		<up_axis>Y_UP</up_axis>
	</asset>
	<library_materials>
		<material id="blinn20.material" name="blinn20">
			<instance_effect url="#blinn20.effect"/>
		</material>
		<material id="blinn21.material" name="blinn21">
			<instance_effect url="#blinn21.effect"/>
		</material>
		<material id="blinn22.material" name="blinn22">
			<instance_effect url="#blinn22.effect"/>
		</material>
		<material id="blinn23.material" name="blinn23">
			<instance_effect url="#blinn23.effect"/>
		</material>
		<material id="blinn24.material" name="blinn24">
			<instance_effect url="#blinn24.effect"/>
		</material>
		<material id="blinn25.material" name="blinn25">
			<instance_effect url="#blinn25.effect"/>
		</material>
	</library_materials>
	<library_effects>
		<effect id="blinn20.effect">
			<profile_COMMON>
				<technique sid="common">
					<phong>
						<emission>
							<color>0.04 0.04 0.04 1</color>
						</emission>
						<diffuse>
							<color>1 1 1 1</color>
						</diffuse>
						<specular>
							<color>0.2 0.2 0.2 1</color>
						</specular>
					</phong>
				</technique>
			</profile_COMMON>
		</effect>
		<effect id="blinn21.effect">
			<profile_COMMON>
				<technique sid="common">
					<phong>
						<emission>
							<color>0.04 0.04 0.04 1</color>
						</emission>
						<diffuse>
							<color>0.2 0.2 0.2 1</color>
						</diffuse>
						<specular>
							<color>0.2 0.2 0.2 1</color>
						</specular>
					</phong>
				</technique>
			</profile_COMMON>
		</effect>
		<effect id="blinn22.effect">
			<profile_COMMON>
				<technique sid="common">
					<phong>
						<emission>
							<color>0.04 0.04 0.04 1</color>
						</emission>
						<diffuse>
							<color>0.4 0.4 0.4 1</color>
						</diffuse>
						<specular>
							<color>0.2 0.2 0.2 1</color>
						</specular>
					</phong>
				</technique>
			</profile_COMMON>
		</effect>
		<effect id="blinn23.effect">
			<profile_COMMON>
				<technique sid="common">
					<phong>
						<emission>
							<color>0.04 0.04 0.04 1</color>
						</emission>
						<diffuse>
							<color>1 1 1 1</color>
						</diffuse>
						<specular>
							<color>0.2 0.2 0.2 1</color>
						</specular>
					</phong>
				</technique>
			</profile_COMMON>
		</effect>
		<effect id="blinn24.effect">
			<profile_COMMON>
				<technique sid="common">
					<phong>
						<emission>
							<color>0.04 0.04 0.04 1</color>
						</emission>
						<diffuse>
							<color>1 1 1 1</color>
						</diffuse>
						<specular>
							<color>0.2 0.2 0.2 1</color>
						</specular>
					</phong>
				</technique>
			</profile_COMMON>
		</effect>
		<effect id="blinn25.effect">
			<profile_COMMON>
				<technique sid="common">
					<phong>
						<emission>
							<color>0.04 0.04 0.04 1</color>
						</emission>
						<diffuse>
							<color>1 1 1 1</color>
						</diffuse>
						<specular>
							<color>0.2 0.2 0.2 1</color>
						</specular>
					</phong>
				</technique>
			</profile_COMMON>
		</effect>
	</library_effects>
	<library_geometries>
		<geometry id="base2_M1KShape0" name="base2_M1KShape0">
			<mesh>
				<source id="base2_M1KShape0.positions">
					<float_array id="base2_M1KShape0.positions-array" count="189">-0.157381 0.0654376 0.179137 -0.154012 0.0655161 0.184614 -0.157777 0.0165232 0.184982 -0.157381 -0.0654376 0.179137 -0.157175 -0.0319422 0.18453 -0.154012 -0.0655161 0.184614 -0.153697 0.0311803 0.186895 -0.154215 -0.0140674 0.187388 -0.159444 0.0169756 0.181252 -0.158988 -0.0327299 0.180745 -0.09619 -0.067042 0.194717 -0.0986977 -0.0494142 0.195575 -0.0878802 -0.0688056 0.195054 -0.118609 -0.036716 0.192935 -0.1098 -0.0106018 0.195583 -0.140116 -0.0367147 0.189681 -0.118773 2.5e-08 0.193611 -0.14044 4.2e-08 0.190412 -0.118609 0.0367161 0.192935 -0.140116 0.0367148 0.189681 -0.107978 0.020059 0.195627 -0.102552 0.0392969 0.195566 -0.0962198 0.0670415 0.194736 -0.0937234 0.0572264 0.195371 -0.130432 0.0661448 0.190829 -0.0878802 0.0688056 0.195054 -0.0816701 0.0733764 0.194965 -0.130851 -0.0661307 0.190773 -0.08167 -0.0733764 0.194965 -0.157381 -0.0654376 0.179137 -0.154012 -0.0655161 0.184614 -0.155 -0.0655 0.179133 -0.0988785 -0.0669696 0.0040487 -0.157959 -0.0654203 0.00400362 -0.0988785 -0.0669696 0.015 -0.09619 -0.067042 0.194717 -0.0796736 -0.0674725 0.015 -0.0791413 -0.0674865 0.0264928 -0.130851 -0.0661307 0.190773 -0.0745724 0.0735381 0.111701 -0.0816701 0.0733764 0.194965 -0.0789689 0.0698452 0.107626 -0.0664157 0.0725299 0.029 -0.0791413 0.0674865 0.0264924 -0.0881255 0.0676364 0.140971 -0.0962198 0.0670415 0.194736 -0.0878802 0.0688056 0.195054 -0.0727867 0.0688037 0.0283068 -0.157381 0.0654376 0.179137 -0.155185 0.0654921 0.178655 -0.154012 0.0655161 0.184614 -0.0988785 0.0669696 0.0040487 -0.0988785 0.0669696 0.015 -0.130432 0.0661448 0.190829 -0.0747499 0.0680756 0.0150022 -0.155148 0.0654757 0.00400171 -0.0744136 -0.0737091 0.111973 -0.0664157 -0.0725299 0.029 -0.0778392 -0.0707518 0.10983 -0.08167 -0.0733764 0.194965 -0.0847731 -0.0681005 0.124075 -0.0724591 -0.0688434 0.0282609 -0.0878802 -0.0688056 0.195054</float_array>
					<technique_common>
						<accessor count="63" source="#base2_M1KShape0.positions-array" stride="3">
							<param name="X" type="float"/>
							<param name="Y" type="float"/>
							<param name="Z" type="float"/>
						</accessor>
					</technique_common>
				</source>
				<source id="base2_M1KShape0.normals">
					<float_array id="base2_M1KShape0.normals-array" count="189">-0.981389 0.075893 0.176396 -0.431696 0.077477 0.898686 -0.76259 0.025514 0.646379 -0.981389 -0.075896 0.176397 -0.750032 -0.046334 0.659777 -0.431684 -0.077477 0.898691 -0.328598 0.042607 0.943508 -0.329809 -0.021538 0.943802 -0.982932 0.020797 0.182792 -0.98347 -0.038 0.17704 -0.107209 -0.061385 0.99234 -0.108452 -0.045879 0.993043 -0.084888 -0.060592 0.994546 -0.13217 -0.037706 0.99051 -0.117502 -0.010265 0.99302 -0.17266 -0.04224 0.984075 -0.128902 0 0.991657 -0.169132 0 0.985593 -0.13217 0.037706 0.99051 -0.17266 0.04224 0.984075 -0.116044 0.01948 0.993053 -0.111355 0.037155 0.993086 -0.107451 0.061434 0.992311 -0.099607 0.051801 0.993678 -0.149484 0.072351 0.986114 -0.084888 0.060592 0.994546 -0.031363 0.063391 0.997496 -0.149328 -0.072688 0.986112 -0.031361 -0.063391 0.997496 -0.026178 -0.999657 0 -0.026178 -0.999657 0 -0.026178 -0.999657 0 -0.026178 -0.999657 0 -0.026177 -0.999657 1e-06 -0.026178 -0.999657 0 -0.027336 -0.999626 -9e-05 -0.026178 -0.999657 0 -0.026178 -0.999657 0 -0.026178 -0.999657 0 -0.710052 0.700726 -0.069352 -0.742832 0.667389 -0.052842 -0.470451 0.881331 -0.043946 -0.673076 0.735043 -0.081734 -0.026177 0.999657 0 -0.220281 0.975308 -0.015832 -0.027731 0.999615 -0.000108 -0.418018 0.907943 -0.030002 -0.336559 0.940688 -0.042832 -0.026177 0.999657 0 -0.026177 0.999657 0 -0.026177 0.999657 0 -0.026177 0.999657 0 -0.026177 0.999657 0 -0.026177 0.999657 -0 -0.276641 0.960915 0.010605 -0.026177 0.999657 0 -0.709733 -0.701066 -0.069177 -0.673047 -0.735009 -0.082281 -0.536535 -0.842359 -0.050608 -0.742823 -0.667361 -0.053323 -0.290418 -0.956613 -0.023413 -0.350354 -0.935554 -0.044628 -0.418011 -0.907942 -0.030149</float_array>
					<technique_common>
						<accessor count="63" source="#base2_M1KShape0.normals-array" stride="3">
							<param name="X" type="float"/>
							<param name="Y" type="float"/>
							<param name="Z" type="float"/>
						</accessor>
					</technique_common>
				</source>
				<vertices id="base2_M1KShape0.vertices">
					<input semantic="POSITION" source="#base2_M1KShape0.positions"/>
				</vertices>
				<triangles count="71" material="blinn20.material">
					<input offset="0" semantic="VERTEX" source="#base2_M1KShape0.vertices" set="0"/>
					<input offset="1" semantic="NORMAL" source="#base2_M1KShape0.normals" set="0"/>
					<p>0 0 2 2 1 1 3 3 5 5 4 4 6 6 1 1 2 2 7 7 6 6 2 2 4 4 7 7 2 2 5 5 7 7 4 4 8 8 2 2 0 0 9 9 2 2 8 8 4 4 2 2 9 9 3 3 4 4 9 9 10 10 12 12 11 11 11 11 14 14 13 13 13 13 16 16 15 15 17 17 15 15 16 16 16 16 18 18 17 17 19 19 17 17 18 18 19 19 6 6 17 17 13 13 14 14 16 16 18 18 16 16 20 20 20 20 21 21 18 18 14 14 20 20 16 16 22 22 24 24 23 23 22 22 23 23 25 25 18 18 24 24 19 19 18 18 21 21 24 24 23 23 24 24 21 21 24 24 1 1 19 19 6 6 19 19 1 1 26 26 25 25 23 23 15 15 17 17 7 7 7 7 17 17 6 6 7 7 5 5 15 15 5 5 27 27 15 15 13 13 15 15 27 27 27 27 10 10 13 13 28 28 11 11 12 12 13 13 10 10 11 11 29 29 31 31 30 30 32 32 34 34 33 33 33 33 35 35 31 31 36 36 37 37 34 34 37 37 35 35 34 34 33 33 34 34 35 35 35 35 38 38 31 31 38 38 30 30 31 31 39 39 41 41 40 40 42 42 41 41 39 39 43 43 45 45 44 44 46 46 40 40 41 41 44 44 46 46 41 41 46 46 44 44 45 45 47 47 41 41 42 42 44 44 41 41 47 47 43 43 44 44 47 47 48 48 50 50 49 49 51 51 49 49 52 52 45 45 49 49 53 53 50 50 53 53 49 49 54 54 52 52 43 43 55 55 49 49 51 51 45 45 43 43 49 49 43 43 52 52 49 49 56 56 58 58 57 57 59 59 58 58 56 56 35 35 37 37 60 60 61 61 57 57 58 58 60 60 61 61 58 58 61 61 60 60 37 37 62 62 58 58 59 59 60 60 58 58 62 62 35 35 60 60 62 62</p>
				</triangles>
			</mesh>
		</geometry>
		<geometry id="base2_M1KShape1" name="base2_M1KShape1">
			<mesh>
				<source id="base2_M1KShape1.positions">
					<float_array id="base2_M1KShape1.positions-array" count="432">-0.1836 0.0490017 0.0245773 -0.1836 0.0450524 0.0187153 -0.1643 0.0490017 0.0245773 -0.1643 0.050455 0.031775 -0.1836 0.050455 0.0317749 -0.1836 0.0391957 0.014758 -0.1643 0.0391957 0.014758 -0.1643 0.0450524 0.0187153 -0.1836 0.032025 0.0133 -0.1836 0.0248504 0.0147386 -0.1643 0.0248504 0.0147386 -0.1643 0.032025 0.0133 -0.1836 0.018983 0.0186799 -0.1836 0.0150178 0.0245313 -0.1643 0.018983 0.0186799 -0.1643 0.0150178 0.0245313 -0.1643 0.013545 0.0317251 -0.1836 0.013545 0.0317251 -0.1836 0.018983 0.0186799 -0.1836 0.0248504 0.0147386 -0.1836 0.0150178 0.0245313 -0.1836 0.0489822 0.0389687 -0.1836 0.013545 0.0317251 -0.1836 0.050455 0.0317749 -0.1836 0.0149983 0.0389227 -0.1836 0.0189476 0.0447847 -0.1836 0.0248043 0.048742 -0.1836 0.031975 0.0502 -0.1836 0.0391496 0.0487614 -0.1836 0.045017 0.0448201 -0.1836 0.0490017 0.0245773 -0.1836 0.0450524 0.0187153 -0.1836 0.0391957 0.014758 -0.1836 0.032025 0.0133 -0.1836 0.0181141 0.0670611 -0.1836 0.0234729 0.0634628 -0.1836 0.014492 0.0724038 -0.1836 0.045508 0.0855962 -0.1836 0.013145 0.0789751 -0.1836 0.046855 0.0790249 -0.1836 0.0144725 0.0855501 -0.1836 0.0180787 0.0909036 -0.1836 0.0234269 0.0945178 -0.1836 0.029975 0.09585 -0.1836 0.0393929 0.0931974 -0.1836 0.0455275 0.0724499 -0.1836 0.0419213 0.0670964 -0.1836 0.0333298 0.0623121 -0.1836 0.046855 0.0790249 -0.1836 0.0455275 0.0724499 -0.1643 0.046855 0.0790249 -0.1836 0.0419213 0.0670964 -0.1643 0.044186 0.0695888 -0.1836 0.0333298 0.0623121 -0.1643 0.0365731 0.0634822 -0.1836 0.0234729 0.0634628 -0.1643 0.030025 0.06215 -0.1836 0.0181141 0.0670611 -0.1643 0.0234729 0.0634628 -0.1836 0.014492 0.0724038 -0.1643 0.0158418 0.0695469 -0.1643 0.013145 0.078975 -0.1836 0.013145 0.0789751 -0.1836 0.0393929 0.0931974 -0.1836 0.045508 0.0855962 -0.1643 0.0418859 0.0909389 -0.1643 0.0365271 0.0945372 -0.1643 0.045508 0.0855962 -0.1643 0.029975 0.09585 -0.1836 0.029975 0.09585 -0.1643 0.0234269 0.0945178 -0.1836 0.0234269 0.0945178 -0.1643 0.0180787 0.0909036 -0.1836 0.0180787 0.0909036 -0.1643 0.0144725 0.0855501 -0.1836 0.0144725 0.0855501 -0.1836 0.0489822 0.0389687 -0.1643 0.045017 0.0448201 -0.1836 0.045017 0.0448201 -0.1643 0.0489822 0.0389687 -0.1643 0.0391496 0.0487614 -0.1643 0.031975 0.0502 -0.1836 0.031975 0.0502 -0.1836 0.0391496 0.0487614 -0.1643 0.0248043 0.048742 -0.1836 0.0248043 0.048742 -0.1643 0.0189476 0.0447847 -0.1836 0.0189476 0.0447847 -0.1643 0.0149983 0.0389227 -0.1836 0.0149983 0.0389227 -0.164292 0.0115943 0.0113342 -0.164292 0.0114804 0.0521451 -0.161491 0.0114133 0.0110448 -0.161539 0.0116042 0.0522699 -0.161573 0.0527699 0.0111296 -0.161543 0.0526298 0.0523816 -0.164291 0.0525115 0.0112398 -0.164292 0.0523951 0.0522696 -0.1643 0.0490017 0.0245773 -0.164291 0.0525115 0.0112398 -0.1643 0.050455 0.031775 -0.164292 0.0523951 0.0522696 -0.1643 0.0489822 0.0389687 -0.1643 0.045017 0.0448201 -0.164292 0.0114804 0.0521451 -0.1643 0.031975 0.0502 -0.1643 0.0391496 0.0487614 -0.1643 0.0248043 0.048742 -0.1643 0.0189476 0.0447847 -0.1643 0.0149983 0.0389227 -0.1643 0.013545 0.0317251 -0.164292 0.0115943 0.0113342 -0.1643 0.0150178 0.0245313 -0.1643 0.018983 0.0186799 -0.1643 0.032025 0.0133 -0.1643 0.0248504 0.0147386 -0.1643 0.0391957 0.014758 -0.1643 0.0450524 0.0187153 -0.1643 0.044186 0.0695888 -0.16429 0.0489111 0.0600905 -0.1643 0.046855 0.0790249 -0.16429 0.0487864 0.0979191 -0.1643 0.045508 0.0855962 -0.1643 0.0418859 0.0909389 -0.164291 0.011082 0.0977827 -0.1643 0.029975 0.09585 -0.1643 0.0365271 0.0945372 -0.1643 0.0234269 0.0945178 -0.1643 0.0180787 0.0909036 -0.1643 0.0144725 0.0855501 -0.1643 0.013145 0.078975 -0.164291 0.0111946 0.0601905 -0.1643 0.0158418 0.0695469 -0.1643 0.030025 0.06215 -0.1643 0.0234729 0.0634628 -0.1643 0.0365731 0.0634822 -0.161583 0.0490726 0.0979651 -0.160657 0.0106126 0.0981949 -0.16429 0.0487864 0.0979191 -0.164291 0.011082 0.0977827 -0.161555 0.048964 0.0600252 -0.16429 0.0489111 0.0600905 -0.160639 0.0106746 0.0597377 -0.164291 0.0111946 0.0601905</float_array>
					<technique_common>
						<accessor count="144" source="#base2_M1KShape1.positions-array" stride="3">
							<param name="X" type="float"/>
							<param name="Y" type="float"/>
							<param name="Z" type="float"/>
						</accessor>
					</technique_common>
				</source>
				<source id="base2_M1KShape1.normals">
					<float_array id="base2_M1KShape1.normals-array" count="432">0 0.921186 -0.389123 0 0.707595 -0.706619 0 0.921186 -0.389123 -0 0.999999 0.001373 -0 0.999999 0.001386 0 0.390347 -0.920668 0 0.390347 -0.920668 0 0.707595 -0.706619 0 0.001384 -0.999999 0 -0.387866 -0.921716 0 -0.387866 -0.921716 0 0.001384 -0.999999 0 -0.705665 -0.708546 0 -0.920134 -0.391603 0 -0.705665 -0.708546 0 -0.920134 -0.391603 -0 -0.999999 -0.001379 -0 -0.999999 -0.001379 -1 0 0 -1 0 0 -1 0 0 -1 0 0 -1 0 0 -1 0 0 -1 0 0 -1 0 0 -1 0 0 -1 0 0 -1 0 0 -1 0 0 -1 0 0 -1 0 0 -1 0 0 -1 0 0 -1 0 0 -1 0 0 -1 0 0 -1 0 0 -1 0 0 -1 0 0 -1 0 0 -1 0 0 -1 0 0 -1 0 0 -1 0 0 -1 0 0 -1 0 0 -1 0 0 -0 0.999999 0.001512 0 0.921198 -0.389094 -0 0.999999 0.001512 0 0.707641 -0.706572 0 0.833114 -0.553101 0 0.195935 -0.980617 0 0.390434 -0.920631 0 -0.387718 -0.921778 0 0.001515 -0.999999 0 -0.705527 -0.708683 0 -0.387718 -0.921778 -0 -0.920047 -0.391809 0 -0.831479 -0.555557 -0 -0.999999 -0.001505 -0 -0.999999 -0.001518 0 0.552056 0.833807 0 0.920047 0.391809 0 0.705527 0.708683 0 0.387718 0.921778 0 0.920047 0.391809 -0 -0.001515 0.999999 -0 -0.001515 0.999999 -0 -0.390434 0.920631 -0 -0.390434 0.920631 -0 -0.707641 0.706572 -0 -0.707641 0.706572 -0 -0.921198 0.389094 -0 -0.921198 0.389094 0 0.920134 0.391603 0 0.705665 0.708546 0 0.705665 0.708546 0 0.920134 0.391603 -0 0.387866 0.921716 -0 -0.001384 0.999999 -0 -0.001384 0.999999 -0 0.387866 0.921716 -0 -0.390347 0.920668 -0 -0.390347 0.920668 -0 -0.707595 0.706619 -0 -0.707595 0.706619 -0 -0.921186 0.389123 -0 -0.921186 0.389123 -0 -0.703854 -0.710344 -0 -0.879263 0.476336 -0 -0.707825 -0.706388 -0 -0.476715 0.879058 0 0.707693 -0.70652 -0 0.879851 0.47525 0 0.707325 -0.706888 -0 0.476336 0.879263 -1 0 0 -1 0 0 -1 0 0 -1 0 0 -1 0 0 -1 0 0 -1 0 0 -1 0 0 -1 0 0 -1 0 0 -1 0 0 -1 0 0 -1 0 0 -1 0 0 -1 0 0 -1 0 0 -1 0 0 -1 0 0 -1 0 0 -1 0 0 -1 0 0 -1 0 0 -1 0 0 -1 0 0 -1 0 0 -1 0 0 -1 0 0 -1 0 0 -1 0 0 -1 0 0 -1 0 0 -1 0 0 -1 0 0 -1 0 0 -1 0 0 -1 0 0 -1 0 0 -1 0 0 -0 0.871056 0.491183 -0 -0.437688 0.899127 -0 0.477807 0.878465 -0 -0.882206 0.470864 0 0.69794 -0.716156 0 0.707297 -0.706917 -0 -0.708131 -0.706081 -0 -0.712404 -0.70177</float_array>
					<technique_common>
						<accessor count="144" source="#base2_M1KShape1.normals-array" stride="3">
							<param name="X" type="float"/>
							<param name="Y" type="float"/>
							<param name="Z" type="float"/>
						</accessor>
					</technique_common>
				</source>
				<vertices id="base2_M1KShape1.vertices">
					<input semantic="POSITION" source="#base2_M1KShape1.positions"/>
				</vertices>
				<triangles count="140" material="blinn21.material">
					<input offset="0" semantic="VERTEX" source="#base2_M1KShape1.vertices" set="0"/>
					<input offset="1" semantic="NORMAL" source="#base2_M1KShape1.normals" set="0"/>
					<p>0 0 2 2 1 1 3 3 2 2 4 4 5 5 1 1 6 6 7 7 1 1 2 2 5 5 6 6 8 8 7 7 6 6 1 1 9 9 8 8 10 10 11 11 8 8 6 6 9 9 10 10 12 12 11 11 10 10 8 8 12 12 14 14 13 13 14 14 12 12 10 10 15 15 16 16 13 13 15 15 13 13 14 14 17 17 13 13 16 16 0 0 4 4 2 2 18 18 20 20 19 19 21 21 23 23 22 22 20 20 22 22 23 23 22 22 24 24 21 21 24 24 25 25 21 21 25 25 26 26 21 21 26 26 27 27 21 21 27 27 28 28 21 21 29 29 21 21 28 28 23 23 30 30 20 20 30 30 31 31 20 20 31 31 32 32 20 20 32 32 33 33 20 20 33 33 19 19 20 20 34 34 36 36 35 35 36 36 38 38 37 37 37 37 39 39 36 36 38 38 40 40 37 37 40 40 41 41 37 37 41 41 42 42 37 37 42 42 43 43 37 37 43 43 44 44 37 37 39 39 45 45 36 36 45 45 46 46 36 36 46 46 47 47 36 36 47 47 35 35 36 36 48 48 50 50 49 49 51 51 49 49 52 52 52 52 49 49 50 50 53 53 51 51 54 54 52 52 54 54 51 51 53 53 56 56 55 55 54 54 56 56 53 53 55 55 58 58 57 57 58 58 55 55 56 56 57 57 60 60 59 59 60 60 57 57 58 58 60 60 61 61 59 59 62 62 59 59 61 61 63 63 65 65 64 64 48 48 64 64 50 50 66 66 65 65 63 63 50 50 64 64 67 67 67 67 64 64 65 65 68 68 66 66 69 69 70 70 68 68 71 71 63 63 69 69 66 66 72 72 70 70 73 73 69 69 71 71 68 68 74 74 72 72 75 75 71 71 73 73 70 70 61 61 74 74 62 62 73 73 75 75 72 72 75 75 62 62 74 74 4 4 76 76 3 3 77 77 79 79 78 78 79 79 3 3 76 76 77 77 78 78 80 80 76 76 78 78 79 79 81 81 80 80 82 82 83 83 80 80 78 78 84 84 81 81 85 85 83 83 82 82 80 80 86 86 84 84 87 87 82 82 85 85 81 81 86 86 87 87 88 88 85 85 87 87 84 84 88 88 89 89 16 16 89 89 88 88 87 87 17 17 16 16 89 89 90 90 92 92 91 91 93 93 91 91 92 92 94 94 96 96 95 95 97 97 95 95 96 96 91 91 93 93 97 97 95 95 97 97 93 93 98 98 100 100 99 99 99 99 100 100 101 101 100 100 102 102 101 101 102 102 103 103 101 101 104 104 101 101 105 105 106 106 101 101 103 103 105 105 107 107 104 104 106 106 105 105 101 101 107 107 108 108 104 104 109 109 110 110 104 104 109 109 104 104 108 108 104 104 110 110 111 111 110 110 112 112 111 111 112 112 113 113 111 111 99 99 111 111 114 114 115 115 111 111 113 113 114 114 116 116 99 99 115 115 114 114 111 111 98 98 99 99 117 117 116 116 117 117 99 99 118 118 120 120 119 119 119 119 120 120 121 121 120 120 122 122 121 121 122 122 123 123 121 121 124 124 121 121 125 125 126 126 121 121 123 123 125 125 127 127 124 124 126 126 125 125 121 121 127 127 128 128 124 124 129 129 130 130 124 124 129 129 124 124 128 128 124 124 130 130 131 131 130 130 132 132 131 131 119 119 131 131 133 133 134 134 131 131 132 132 133 133 135 135 119 119 134 134 133 133 131 131 135 135 118 118 119 119 136 136 138 138 137 137 139 139 137 137 138 138 140 140 141 141 136 136 138 138 136 136 141 141 140 140 142 142 141 141 143 143 141 141 142 142 143 143 142 142 139 139 137 137 139 139 142 142 90 90 96 96 92 92 94 94 92 92 96 96</p>
				</triangles>
			</mesh>
		</geometry>
		<geometry id="base2_M1KShape2" name="base2_M1KShape2">
			<mesh>
				<source id="base2_M1KShape2.positions">
					<float_array id="base2_M1KShape2.positions-array" count="267">-0.164475 -0.0511899 0.0131071 -0.160408 -0.0485261 0.0119637 -0.1645 -0.026499 0.0137124 -0.161665 -0.0235378 0.0134681 -0.161519 -0.0516948 0.102463 -0.1645 -0.0514 0.0304654 -0.1645 -0.0514 0.0885346 -0.164474 -0.0503087 0.106334 -0.2005 -0.0514 0.0304654 -0.2005 -0.0514 0.0885346 -0.161511 -0.0516931 0.0165298 -0.1645 -0.0431773 0.0197574 -0.1645 -0.0389346 0.018 -0.2005 -0.0389346 0.018 -0.2005 -0.0431773 0.0197574 -0.2005 -0.0496426 0.0262227 -0.1645 -0.0496426 0.0262227 -0.1645 -0.0389346 0.018 -0.1645 -0.026499 0.0137124 -0.1645 -0.016579 0.018 -0.164473 -0.000733779 0.0127381 -0.1645 -0.0431773 0.0197574 -0.164475 -0.0511899 0.0131071 -0.1645 -0.0496426 0.0262227 -0.1645 -0.0514 0.0304654 -0.1645 -0.0010104 0.0252353 -0.1645 -0.010079 0.0197417 -0.1645 0.0004 0.0292558 -0.2005 -0.0431773 0.0992426 -0.1645 -0.0431773 0.0992426 -0.2005 -0.0496426 0.0927773 -0.1645 -0.0496426 0.0927773 -0.2005 -0.016579 0.018 -0.1645 -0.016579 0.018 -0.1645 -0.010079 0.0197417 -0.2005 -0.010079 0.0197417 -0.1645 -0.0010104 0.0252353 -0.2005 -0.000904289 0.0252089 -0.2005 -0.0389346 0.101 -0.1645 -0.0389346 0.101 -0.2005 -0.016579 0.101 -0.1645 -0.016579 0.101 -0.1645 0.0004 0.0897442 -0.164491 -0.000646776 0.106291 -0.1645 -0.000826759 0.0936289 -0.164474 -0.0503087 0.106334 -0.1645 -0.0389346 0.101 -0.1645 -0.0255 0.105317 -0.1645 -0.010079 0.0992583 -0.1645 -0.0431773 0.0992426 -0.1645 -0.016579 0.101 -0.1645 -0.0496426 0.0927773 -0.1645 -0.0514 0.0885346 -0.1645 -0.0255 0.105317 -0.1615 -0.0255 0.105247 -0.160385 -0.0476918 0.107243 -0.2005 -0.010079 0.0992583 -0.2005 -0.00110822 0.0939293 -0.1645 -0.010079 0.0992583 -0.1645 -0.000826759 0.0936289 -0.2005 0.0004 0.0897442 -0.1645 0.0004 0.0897442 -0.160279 -0.0501776 0.106189 -0.164491 -0.000646776 0.106291 -0.160813 -0.00323786 0.107039 -0.164473 -0.000733779 0.0127381 -0.160813 -0.00318571 0.0119557 -0.160279 -0.0501719 0.0128091 -0.161502 0.000582027 0.0168309 -0.160724 0.0003567 0.105117 -0.1645 0.0004 0.0292558 -0.2005 0.0004 0.0292558 -0.160713 0.00136658 0.0145098 -0.2005 -0.010079 0.0992583 -0.2005 -0.0431773 0.0197574 -0.2005 -0.016579 0.018 -0.2005 -0.0496426 0.0262227 -0.2005 -0.000904289 0.0252089 -0.2005 0.0004 0.0292558 -0.2005 -0.010079 0.0197417 -0.2005 -0.0514 0.0304654 -0.2005 -0.016579 0.101 -0.2005 -0.0514 0.0885346 -0.2005 -0.0496426 0.0927773 -0.2005 -0.0431773 0.0992426 -0.2005 -0.0389346 0.101 -0.2005 -0.00110822 0.0939293 -0.2005 0.0004 0.0897442 -0.2005 -0.0389346 0.018</float_array>
					<technique_common>
						<accessor count="89" source="#base2_M1KShape2.positions-array" stride="3">
							<param name="X" type="float"/>
							<param name="Y" type="float"/>
							<param name="Z" type="float"/>
						</accessor>
					</technique_common>
				</source>
				<source id="base2_M1KShape2.normals">
					<float_array id="base2_M1KShape2.normals-array" count="267">-0 -0.956027 -0.293279 -0.007752 0.044311 -0.998988 0 0.047414 -0.998875 0 0.029632 -0.999561 -0 -0.999999 0.001467 0 -1 0 0 -1 0 -0 -0.377685 0.925934 0 -1 0 0 -1 0 -0 -0.999996 -0.00293 0 -0.707107 -0.707107 0 -0 -1 0 -0 -1 0 -0.707107 -0.707107 0 -0.707109 -0.707105 0 -0.707109 -0.707105 -1 0 0 -1 0 0 -1 0 0 -1 0 0 -1 0 0 -1 0 0 -1 0 0 -1 0 0 -1 0 0 -1 0 0 -1 0 0 -0 -0.707107 0.707107 -0 -0.707107 0.707107 -0 -0.707107 0.707107 -0 -0.707107 0.707107 0 -0 -1 0 -0 -1 0 0.5 -0.866025 0 0.5 -0.866025 0 0.660575 -0.75076 0 0.634526 -0.772901 0 0 1 0 0 1 0 0 1 0 0 1 -1 0 0 -1 0 0 -1 0 0 -1 0 0 -1 0 0 -1 0 0 -1 0 0 -1 0 0 -1 0 0 -1 0 0 -1 0 0 0 0.039263 0.999229 0 0.04161 0.999134 -0.012347 0.061892 0.998006 -0 0.5 0.866026 -0 0.605983 0.795477 -0 0.5 0.866026 -0 0.691633 0.722249 0 1 -0 0 1 -0 -0.010691 -0.643158 0.765659 0 0.375923 0.926651 -0.007574 -0.027607 0.99959 0 0.377673 -0.925939 -0.008663 -0.037599 -0.999255 -0.010889 -0.639407 -0.768791 0 1 -0.001074 2.5e-05 0.998304 0.058213 0 1 -0 0 1 -0 -0.018456 0.992731 -0.118932 -1 0 0 -1 0 0 -1 0 0 -1 0 0 -1 0 0 -1 0 0 -1 0 0 -1 0 0 -1 0 0 -1 0 0 -1 0 0 -1 0 0 -1 0 0 -1 0 0 -1 0 0 -1 0 0</float_array>
					<technique_common>
						<accessor count="89" source="#base2_M1KShape2.normals-array" stride="3">
							<param name="X" type="float"/>
							<param name="Y" type="float"/>
							<param name="Z" type="float"/>
						</accessor>
					</technique_common>
				</source>
				<vertices id="base2_M1KShape2.vertices">
					<input semantic="POSITION" source="#base2_M1KShape2.positions"/>
				</vertices>
				<triangles count="87" material="blinn22.material">
					<input offset="0" semantic="VERTEX" source="#base2_M1KShape2.vertices" set="0"/>
					<input offset="1" semantic="NORMAL" source="#base2_M1KShape2.normals" set="0"/>
					<p>0 0 2 2 1 1 3 3 1 1 2 2 4 4 6 6 5 5 0 0 4 4 5 5 7 7 6 6 4 4 8 8 5 5 9 9 10 10 4 4 0 0 9 9 5 5 6 6 11 11 13 13 12 12 14 14 13 13 11 11 14 14 11 11 15 15 16 16 15 15 11 11 17 17 19 19 18 18 18 18 19 19 20 20 21 21 17 17 22 22 18 18 22 22 17 17 21 21 22 22 23 23 24 24 23 23 22 22 25 25 20 20 26 26 26 26 20 20 19 19 27 27 20 20 25 25 28 28 30 30 29 29 31 31 29 29 30 30 32 32 34 34 33 33 35 35 34 34 32 32 36 36 34 34 37 37 35 35 37 37 34 34 30 30 6 6 31 31 9 9 6 6 30 30 38 38 29 29 39 39 28 28 29 29 38 38 40 40 38 38 41 41 39 39 41 41 38 38 42 42 44 44 43 43 45 45 47 47 46 46 44 44 48 48 43 43 46 46 49 49 45 45 46 46 47 47 50 50 51 51 45 45 49 49 52 52 45 45 51 51 48 48 50 50 43 43 47 47 43 43 50 50 53 53 7 7 54 54 55 55 54 54 7 7 56 56 58 58 57 57 59 59 57 57 58 58 60 60 59 59 61 61 57 57 59 59 60 60 62 62 55 55 7 7 4 4 62 62 7 7 53 53 54 54 63 63 64 64 63 63 54 54 2 2 65 65 3 3 66 66 3 3 65 65 0 0 1 1 67 67 0 0 67 67 10 10 56 56 41 41 58 58 40 40 41 41 56 56 68 68 70 70 69 69 71 71 61 61 70 70 63 63 69 69 61 61 65 65 70 70 68 68 60 60 61 61 71 71 61 61 69 69 70 70 65 65 68 68 72 72 65 65 72 72 66 66 63 63 64 64 69 69 73 73 75 75 74 74 74 74 76 76 73 73 77 77 79 79 78 78 76 76 80 80 73 73 81 81 73 73 82 82 82 82 83 83 81 81 80 80 82 82 73 73 84 84 85 85 83 83 81 81 83 83 85 85 79 79 75 75 73 73 73 73 86 86 79 79 87 87 78 78 86 86 79 79 86 86 78 78 88 88 74 74 75 75 8 8 16 16 5 5 15 15 16 16 8 8 32 32 33 33 13 13 12 12 13 13 33 33 37 37 70 70 36 36 71 71 70 70 37 37</p>
				</triangles>
			</mesh>
		</geometry>
		<geometry id="base2_M1KShape3" name="base2_M1KShape3">
			<mesh>
				<source id="base2_M1KShape3.positions">
					<float_array id="base2_M1KShape3.positions-array" count="588">-0.161502 0.000582027 0.0168309 -0.160713 0.00136658 0.0145098 -0.160715 0.00144191 0.10212 -0.160212 0.0549421 0.00379229 -0.160713 -0.000162758 0.00293841 -0.157999 0.054543 0.00374578 -0.160212 -0.0549421 0.00379229 -0.158 -0.054543 0.00374577 -0.157959 -0.0654203 0.00400362 -0.157999 0.0652473 0.00432244 -0.155148 0.0654757 0.00400171 -0.160257 -0.0524457 0.102 -0.161519 -0.0516948 0.102463 -0.160279 -0.0501776 0.106189 -0.160002 -0.0653952 0.16531 -0.160002 -0.0653952 0.11869 -0.160204 -0.0556863 0.169508 -0.160212 -0.0549421 0.00379229 -0.160713 -0.000162758 0.00293841 -0.160204 -0.0557059 0.0125065 -0.160212 -0.0549421 0.178527 -0.160715 0 0.180025 -0.160205 -0.0556421 0.114589 -0.160002 -0.0653952 0.0166905 -0.160002 -0.0653952 0.103309 -0.160186 -0.0564295 0.106917 -0.160212 0.0549421 0.178527 -0.160204 0.0556859 0.169508 -0.160212 0.0549421 0.00379229 -0.160205 0.0556413 0.0874115 -0.160204 0.0557064 0.0125069 -0.160002 0.0653952 0.0833095 -0.160002 0.0653952 0.0166905 -0.160002 0.0653952 0.16531 -0.160002 0.0653952 0.0986905 -0.160186 0.0564297 0.0950835 -0.160186 0.0564297 0.0950835 -0.15799 0.0553019 0.0943026 -0.160002 0.0653952 0.0986905 -0.158 0.0654476 0.0986538 -0.160205 0.0556413 0.0874115 -0.160002 0.0653952 0.0833095 -0.158001 0.0566057 0.0868692 -0.158 0.0654476 0.0833462 -0.160204 0.0557064 0.0125069 -0.158 0.0568255 0.0132955 -0.160002 0.0653952 0.0166905 -0.158 0.0654476 0.0166538 -0.158 0.0654476 0.0166538 -0.158 0.0568255 0.0132955 -0.157999 0.0652473 0.00432244 -0.157999 0.054543 0.00374578 -0.158 0.055 0.178581 -0.158 0.0654476 0.165346 -0.157999 0.0654324 0.177666 -0.157999 0.0555624 0.169449 -0.160204 0.0556859 0.169508 -0.157999 0.0555624 0.169449 -0.160212 0.0549421 0.178527 -0.158 0.055 0.178581 -0.160002 -0.0653952 0.11869 -0.160002 -0.0653952 0.16531 -0.158 -0.0654476 0.118654 -0.156 -0.0655 0.176126 -0.155549 -0.0654395 0.00594602 -0.157999 -0.0654305 0.177693 -0.158 -0.0654476 0.0166538 -0.158 -0.0654476 0.165346 -0.158 -0.0654476 0.103346 -0.160002 -0.0653952 0.103309 -0.160002 -0.0653952 0.0166905 -0.160002 0.0653952 0.16531 -0.158 0.0654476 0.165346 -0.160204 -0.0556863 0.169508 -0.160212 -0.0549421 0.178527 -0.157999 -0.0555624 0.169449 -0.158 -0.055 0.178581 -0.155185 0.0654921 0.178655 -0.155211 0.000396242 0.180215 -0.158 0.055 0.178581 -0.160212 0.0549421 0.178527 -0.155559 -0.0650765 0.177882 -0.158 -0.055 0.178581 -0.160715 0 0.180025 -0.160212 -0.0549421 0.178527 -0.157999 0.0654324 0.177666 -0.155559 -0.0650765 0.177882 -0.156 -0.0655 0.176126 -0.157999 -0.0654305 0.177693 -0.157999 -0.0555624 0.169449 -0.158 -0.055 0.178581 -0.158 -0.0654476 0.165346 -0.15799 -0.0553017 0.107698 -0.160205 -0.0556421 0.114589 -0.158001 -0.0566055 0.11513 -0.160186 -0.0564295 0.106917 -0.160204 -0.0557059 0.0125065 -0.157999 -0.0568255 0.0132955 -0.158 -0.054543 0.00374577 -0.158 -0.0654476 0.0166538 -0.160002 -0.0653952 0.0166905 -0.158 0.0654476 0.165346 -0.160002 0.0653952 0.16531 -0.158 0.0654476 0.0986538 -0.155148 0.0654757 0.00400171 -0.158 0.0654476 0.0166538 -0.155185 0.0654921 0.178655 -0.158 0.0654476 0.0833462 -0.160002 0.0653952 0.0833095 -0.160002 0.0653952 0.0166905 -0.160002 0.0653952 0.0986905 -0.157999 0.054543 0.00374578 -0.160212 0.0549421 0.00379229 -0.158 0.0654476 0.0833462 -0.15799 0.0553019 0.0943026 -0.158001 0.0566057 0.0868692 -0.158 0.0654476 0.0986538 -0.158 -0.0654476 0.165346 -0.160002 -0.0653952 0.16531 -0.158 -0.0654476 0.118654 -0.160002 -0.0653952 0.11869 -0.158 -0.0654476 0.118654 -0.15799 -0.0553017 0.107698 -0.158001 -0.0566055 0.11513 -0.158 -0.0654476 0.103346 -0.158 -0.0654476 0.103346 -0.160002 -0.0653952 0.103309 -0.160212 -0.0549421 0.00379229 -0.157959 -0.0654203 0.00400362 -0.158 -0.054543 0.00374577 -0.158 -0.0654476 0.0166538 -0.157999 -0.0568255 0.0132955 -0.159444 0.0169756 0.181252 -0.155 0.0327595 0.180744 -0.155185 0.0654921 0.178655 -0.157381 0.0654376 0.179137 -0.155004 -0.0178931 0.181235 -0.158988 -0.0327299 0.180745 -0.157381 -0.0654376 0.179137 -0.155 -0.0655 0.179133 -0.161583 0.0490726 0.0979651 -0.16031 0.0497033 0.0982956 -0.160657 0.0106126 0.0981949 -0.161555 0.048964 0.0600252 -0.16031 0.0496748 0.0597406 -0.160639 0.0106746 0.0597377 -0.162001 -0.00484207 0.168412 -0.162026 -0.0240251 0.158354 -0.162 -0.00259652 0.158615 -0.161991 -0.0107963 0.149919 -0.161999 -0.0168478 0.171308 -0.160763 -0.0235826 0.158892 -0.160752 -0.0188285 0.152184 -0.162026 -0.0240251 0.158354 -0.16075 -0.0118655 0.150264 -0.161991 -0.0107963 0.149919 -0.160711 -0.00514954 0.153977 -0.161034 -0.00259745 0.163226 -0.162 -0.00259652 0.158615 -0.160709 -0.00599707 0.168868 -0.162001 -0.00484207 0.168412 -0.16081 -0.0125964 0.171698 -0.160469 -0.0221611 0.16938 -0.161999 -0.0168478 0.171308 -0.155 0.0327595 0.180744 -0.155004 -0.0178931 0.181235 -0.155211 0.000396242 0.180215 -0.155185 0.0654921 0.178655 -0.155 -0.0655 0.179133 -0.155559 -0.0650765 0.177882 -0.155549 -0.0654395 0.00594602 -0.161543 0.0526298 0.0523816 -0.160246 0.0534404 0.0527622 -0.160711 0.0105543 0.0525657 -0.160247 0.0534721 0.0106969 -0.161573 0.0527699 0.0111296 -0.160698 0.0106459 0.0109357 -0.161491 0.0114133 0.0110448 -0.160711 0.0105543 0.0525657 -0.161539 0.0116042 0.0522699 -0.161543 0.0526298 0.0523816 -0.161491 0.0114133 0.0110448 -0.160591 -0.0241312 0.106468 -0.160385 -0.0476918 0.107243 -0.1615 -0.0255 0.105247 -0.160715 0.00144191 0.10212 -0.160724 0.0003567 0.105117 -0.161502 0.000582027 0.0168309 -0.160813 -0.00323786 0.107039 -0.160591 -0.0241624 0.0125315 -0.160813 -0.00318571 0.0119557 -0.161665 -0.0235378 0.0134681 -0.161511 -0.0516931 0.0165298 -0.160257 -0.0524457 0.017 -0.160279 -0.0501719 0.0128091 -0.160408 -0.0485261 0.0119637</float_array>
					<technique_common>
						<accessor count="196" source="#base2_M1KShape3.positions-array" stride="3">
							<param name="X" type="float"/>
							<param name="Y" type="float"/>
							<param name="Z" type="float"/>
						</accessor>
					</technique_common>
				</source>
				<source id="base2_M1KShape3.normals">
					<float_array id="base2_M1KShape3.normals-array" count="588">-0.026076 0.99965 -0.004532 -0.018456 0.992731 -0.118932 -0.026182 0.999657 0.000562 -0.026178 0.027462 -0.99928 -0.028427 -0.002023 -0.999594 -0.026182 0.027262 -0.999285 -0.026177 -0.027462 -0.99928 -0.026178 -0.027262 -0.999285 -0.026821 -0.110184 -0.993549 0.028726 0.818042 -0.574441 -0.022896 0.107438 -0.993948 -0.026218 -0.999656 0 -0.02607 -0.999636 0.006885 -0.010691 -0.643158 0.765659 -0.999762 -0.021798 -0 -0.999762 -0.021798 -0 -0.999828 -0.018562 -0 -0.999832 -0.018314 -0 -1 -5.4e-05 -0 -0.999828 -0.018569 -0 -0.999832 -0.018314 -0 -1 -0 -0 -0.999828 -0.018547 -0 -0.999762 -0.021798 -0 -0.999762 -0.021798 -0 -0.999823 -0.01881 -0 -0.999832 0.018314 -0 -0.999828 0.018562 -0 -0.999832 0.018314 -0 -0.999828 0.018547 -0 -0.999828 0.018569 -0 -0.999762 0.021798 -0 -0.999762 0.021798 -0 -0.999762 0.021798 -0 -0.999762 0.021798 -0 -0.999823 0.01881 -0 -0.02686 0.580608 -0.81374 -0.02556 0.732094 -0.680724 -0.026167 0.341911 -0.939368 -0.026167 0.341911 -0.939368 -0.026791 0.683602 0.729363 -0.026167 0.341911 0.939368 -0.026697 0.553523 0.832406 -0.026167 0.341911 0.939368 -0.02817 0.782151 -0.622452 -0.026759 0.505942 -0.862152 -0.026176 0.341905 -0.93937 -0.026176 0.341905 -0.93937 -1 -0 -0 -1 -0 -0 -1 -0 -0 -1 -0 -0 -1 -0 -0 -1 -0 -0 -1 -0 -0 -1 -0 -0 -0.028208 0.788015 0.615009 -0.0292 0.799752 0.59962 -0.026166 0.999658 -0 -0.026166 0.999658 -0 -0.016657 -0.999861 -0.000112 -0.016657 -0.999861 -0.000112 -0.016657 -0.999861 -0.000112 -0.016657 -0.999861 -0.000112 -0.016657 -0.999861 -0.000112 -0.018415 -0.995627 0.091583 -0.016657 -0.999861 -0.000112 -0.016657 -0.999861 -0.000112 -0.016657 -0.999861 -0.000112 -0.016657 -0.999861 -0.000112 -0.016657 -0.999861 -0.000112 -0.026076 0.341911 0.939371 -0.026076 0.341911 0.939371 -0.028292 -0.787979 0.615052 -0.026166 -0.999658 0 -0.029313 -0.799756 0.599609 -0.026166 -0.999658 0 -0.026501 0.05221 0.998285 -0.026094 0.000392 0.999659 -0.026196 0.054974 0.998144 -0.026181 0.054918 0.998148 -0.026168 -0.065061 0.997538 -0.026198 -0.054975 0.998144 -0.026152 -4e-06 0.999658 -0.026181 -0.05492 0.998147 0.021767 0.997487 0.067418 -0.007187 -0.643485 0.765425 -0.030863 -0.97588 0.216113 -1 -0 -0 -1 -0 -0 -1 -0 -0 -1 -0 -0 -0.025541 -0.732141 0.680674 -0.026897 -0.68352 -0.729436 -0.026821 -0.553482 -0.832429 -0.026858 -0.580629 0.813725 -0.028171 -0.782188 -0.622405 -0.02676 -0.505941 -0.862153 -0.023471 -0.971473 0.235985 -0.026176 -0.341905 -0.93937 -0.026176 -0.341905 -0.93937 0.016955 0.999856 -0.000176 0.016955 0.999856 -0.000176 0.016955 0.999856 -0.000176 0.017171 0.999852 -0.001372 0.016955 0.999856 -0.000176 0.016746 0.999855 -0.003083 0.016955 0.999856 -0.000176 0.016955 0.999856 -0.000176 0.016955 0.999856 -0.000176 0.016955 0.999856 -0.000176 -0.023471 0.971473 0.235984 -0.026166 0.999658 -0 -1 -0 -0 -1 -0 -0 -1 -0 -0 -1 -0 -0 -0.026076 -0.341911 0.939371 -0.026076 -0.341911 0.939371 -0.026076 -0.341911 -0.939371 -0.026076 -0.341911 -0.939371 -1 -0 -0 -1 -0 -0 -1 -0 -0 -1 -0 -0 -0.026167 -0.341911 0.939368 -0.026167 -0.341911 0.939368 -0.026166 -0.999658 0 -1 -0 -0 -1 -0 -0 -1 -0 -0 -1 -0 -0 6.4e-05 -0.016984 -0.999856 5.4e-05 -0.032774 -0.999463 4e-05 -0.065516 -0.997852 3.9e-05 -0.06544 -0.997856 6.3e-05 0.017902 -0.99984 5.3e-05 0.032742 -0.999464 3.9e-05 0.06544 -0.997856 4e-05 0.0655 -0.997853 -0.034153 0.9038 0.42659 -0.034927 0.544184 0.838239 -0.032705 -0.798584 0.600994 -0.035555 0.711414 -0.701873 -0.035914 0.767128 -0.640488 -0.036544 -0.700279 -0.712933 -1 -0 -0 -1 -0 -0 -1 -0 -0 -1 -0 -0 -1 -0 -0 -0.025873 -0.980712 -0.19374 -0.02609 -0.548407 -0.835805 -0.02413 -0.973227 -0.228576 -0.025517 0.117399 -0.992757 -0.024308 0.199153 -0.979667 -0.026162 0.744777 -0.666801 -0.02603 0.980278 0.195904 -0.025759 0.974322 -0.223679 -0.026181 0.66492 0.746455 -0.024945 0.739732 0.672439 -0.025821 0.045772 0.998618 -0.024517 -0.738674 0.673617 -0.024989 -0.349928 0.936443 -1 -0 -0 -1 -0 -0 -1 -0 -0 -1 -0 -0 -1 -0 -0 -1 -0 -0 -1 -0 -0 -0.035704 0.7116 0.701677 -0.035902 0.773575 0.632687 -0.033171 -0.69711 0.716197 -0.035037 0.549528 -0.83474 -0.034314 0.900998 -0.432463 -0.034313 -0.886607 -0.461248 -0.03369 -0.393058 -0.918896 -1 -0 -0 -1 -0 -0 -1 -0 -0 -1 -0 -0 -1 -0 -0 -1 -0 -0 -1 -0 -0 -1 -0 -0 -1 -0 -0 -1 -0 -0 -1 -0 -0 -0.026185 -0.04534 -0.998628 -0.008663 -0.037599 -0.999255 -0.0192 -0.045125 -0.998797 -0.025941 -0.999576 -0.013221 -0.026218 -0.999656 0 -0.010889 -0.639407 -0.768791 -0.007752 0.044311 -0.998988</float_array>
					<technique_common>
						<accessor count="196" source="#base2_M1KShape3.normals-array" stride="3">
							<param name="X" type="float"/>
							<param name="Y" type="float"/>
							<param name="Z" type="float"/>
						</accessor>
					</technique_common>
				</source>
				<vertices id="base2_M1KShape3.vertices">
					<input semantic="POSITION" source="#base2_M1KShape3.positions"/>
				</vertices>
				<triangles count="143" material="blinn23.material">
					<input offset="0" semantic="VERTEX" source="#base2_M1KShape3.vertices" set="0"/>
					<input offset="1" semantic="NORMAL" source="#base2_M1KShape3.normals" set="0"/>
					<p>0 0 2 2 1 1 3 3 5 5 4 4 6 6 4 4 7 7 8 8 7 7 4 4 9 9 10 10 5 5 10 10 4 4 5 5 11 11 13 13 12 12 14 14 16 16 15 15 17 17 19 19 18 18 20 20 21 21 18 18 19 19 22 22 18 18 20 20 18 18 16 16 16 16 18 18 22 22 23 23 24 24 19 19 22 22 19 19 25 25 25 25 19 19 24 24 26 26 27 27 21 21 18 18 21 21 28 28 27 27 29 29 21 21 28 28 21 21 30 30 30 30 21 21 29 29 29 29 31 31 30 30 32 32 30 30 31 31 33 33 34 34 27 27 29 29 27 27 35 35 35 35 27 27 34 34 22 22 15 15 16 16 36 36 38 38 37 37 39 39 37 37 38 38 40 40 42 42 41 41 43 43 41 41 42 42 44 44 46 46 45 45 47 47 45 45 46 46 48 48 50 50 49 49 50 50 51 51 49 49 52 52 54 54 53 53 53 53 55 55 52 52 56 56 58 58 57 57 59 59 57 57 58 58 60 60 62 62 61 61 63 63 65 65 64 64 8 8 64 64 66 66 67 67 61 61 62 62 68 68 69 69 66 66 65 65 67 67 64 64 67 67 62 62 64 64 66 66 64 64 68 68 62 62 68 68 64 64 70 70 66 66 69 69 56 56 57 57 71 71 72 72 71 71 57 57 73 73 75 75 74 74 76 76 74 74 75 75 77 77 79 79 78 78 80 80 78 78 79 79 81 81 78 78 82 82 83 83 78 78 80 80 65 65 81 81 82 82 84 84 82 82 78 78 83 83 84 84 78 78 85 85 79 79 77 77 86 86 65 65 87 87 88 88 90 90 89 89 89 89 91 91 88 88 92 92 94 94 93 93 95 95 92 92 93 93 96 96 98 98 97 97 99 99 100 100 97 97 96 96 97 97 100 100 101 101 103 103 102 102 9 9 105 105 104 104 106 106 104 104 85 85 103 103 104 104 107 107 108 108 107 107 109 109 110 110 102 102 103 103 85 85 104 104 101 101 109 109 107 107 105 105 105 105 107 107 104 104 103 103 101 101 104 104 44 44 45 45 111 111 44 44 111 111 112 112 113 113 115 115 114 114 116 116 113 113 114 114 40 40 36 36 37 37 42 42 40 40 37 37 117 117 75 75 118 118 73 73 118 118 75 75 119 119 120 120 94 94 93 93 94 94 120 120 121 121 123 123 122 122 121 121 122 122 124 124 125 125 92 92 126 126 95 95 126 126 92 92 96 96 127 127 98 98 128 128 130 130 129 129 130 130 131 131 129 129 132 132 134 134 133 133 135 135 134 134 132 132 132 132 133 133 136 136 132 132 136 136 137 137 138 138 136 136 139 139 137 137 136 136 138 138 140 140 142 142 141 141 143 143 140 140 144 144 141 141 144 144 140 140 143 143 144 144 145 145 146 146 148 148 147 147 148 148 149 149 147 147 147 147 150 150 146 146 151 151 153 153 152 152 152 152 155 155 154 154 155 155 152 152 153 153 156 156 154 154 155 155 157 157 156 156 158 158 155 155 158 158 156 156 159 159 157 157 160 160 158 158 160 160 157 157 161 161 159 159 160 160 162 162 161 161 163 163 160 160 163 163 161 161 163 163 153 153 162 162 151 151 162 162 153 153 164 164 166 166 165 165 166 166 164 164 167 167 168 168 165 165 169 169 166 166 169 169 165 165 168 168 170 170 128 128 171 171 173 173 172 172 174 174 175 175 172 172 171 171 172 172 175 175 176 176 177 177 174 174 175 175 174 174 177 177 177 177 176 176 173 173 178 178 180 180 179 179 179 179 181 181 178 178 182 182 184 184 183 183 185 185 187 187 186 186 182 182 188 188 184 184 189 189 191 191 190 190 192 192 193 193 12 12 11 11 12 12 193 193 192 192 194 194 193 193 189 189 195 195 191 191</p>
				</triangles>
			</mesh>
		</geometry>
		<geometry id="base2_M1KShape4" name="base2_M1KShape4">
			<mesh>
				<source id="base2_M1KShape4.positions">
					<float_array id="base2_M1KShape4.positions-array" count="978">-0.0740002 -0.08005 0 -0.0740002 -0.08005 0.015 -0.0757848 -0.0842682 0 -0.0859998 -0.07995 -0 -0.0842505 -0.084208 -0 -0.0859998 -0.07995 0.015 -0.080025 -0.0859999 0 -0.0842505 -0.084208 0.015 -0.0757848 -0.0842682 0.015 -0.080025 -0.0859999 0.015 0.07995 -0.0859998 0 0.07995 -0.0859998 0.015 0.0757318 -0.0842152 0 0.08005 -0.0740002 0 0.075792 -0.0757494 0 0.08005 -0.0740002 0.015 0.0740001 -0.079975 0 0.075792 -0.0757494 0.015 0.0743296 -0.0822975 0.015 0.0842682 -0.0757848 0 0.084208 -0.0842505 0 0.0859999 -0.080025 0 0.084208 -0.0842505 0.015 0.0842682 -0.0757848 0.015 0.0859999 -0.080025 0.015 0.0859998 0.07995 0 0.0859998 0.07995 0.015 0.0842152 0.0757318 0 0.0740002 0.08005 0 0.0757494 0.075792 0 0.0740002 0.08005 0.015 0.079975 0.0740001 0 0.0757494 0.075792 0.015 0.0822975 0.0743296 0.015 0.0757848 0.0842682 0 0.0842505 0.084208 0 0.080025 0.0859999 0 0.0842505 0.084208 0.015 0.0777025 0.0856704 0.015 -0.155148 0.0654757 0.00400171 -0.1 0 0.00292715 -0.0988785 0.0669696 0.0040487 -0.160713 -0.000162758 0.00293841 -0.0988785 -0.0669696 0.0040487 -0.157959 -0.0654203 0.00400362 0.0988774 -0.0670014 0.02 0.100002 -0 0 0.0988774 -0.0670014 0.015 0.0988774 0.0670014 0.0199999 0.0988774 0.0670014 0.015 0.0984297 -0.0792378 0 0.0982371 -0.0830037 0.0149981 0.0976963 0.0843091 0.015 0.0984297 0.0792378 0 0.1 -0 0.02 -0.0925855 0.0925855 0.015 -0.084208 0.0842505 0.015 -0.0978201 0.0844128 0.015 -0.0843091 0.0976963 0.015 -0.0670014 0.0988774 0.015 -0.07995 0.0859998 0.015 -0.0678026 0.0764307 0.0149992 -0.0743296 0.0822975 0.015 -0.0747499 0.0680756 0.0150022 -0.075792 0.0757494 0.015 -0.08005 0.0740002 0.015 -0.0988785 0.0669696 0.015 -0.0842682 0.0757848 0.015 -0.0859999 0.080025 0.015 0.0967217 0.0865734 0 0.0925855 0.0925855 0.015 0.0925855 0.0925855 0 0.0865734 0.0967217 0.015 0.0865734 0.0967217 0 0.0792378 0.0984297 0.015 0.0792378 0.0984297 0 0.0925855 -0.0925855 0.015 0.084208 -0.0842505 0.015 0.0982371 -0.0830037 0.0149981 0.0545422 -0.0992434 0.0150013 0.0743296 -0.0822975 0.015 0.0842984 -0.0978756 0.015 0.07995 -0.0859998 0.015 0.0568313 -0.0839055 0.0149998 0.0751324 -0.0680093 0.0149997 0.08005 -0.0740002 0.015 0.075792 -0.0757494 0.015 0.0988774 -0.0670014 0.015 0.0842682 -0.0757848 0.015 0.0859999 -0.080025 0.015 0.0988774 0.0670014 0.015 0.0988774 0.0670014 0.0199999 0.0752822 0.0678832 0.0150038 0.0747125 0.0683931 0.0277422 0.0837225 0.0673982 0.0250436 0.055 0.0992436 0.02 0 0.100002 -0 0.0545244 0.0992262 0.0149989 -0.0670014 0.0988774 0.02 -0.0670014 0.0988774 0.015 -0.0081554 0.0999646 0.0203593 -0.0843091 0.0976963 0.015 -0.0792378 0.0984297 -0 0.0600422 -0.0807636 0.0278374 0.0756734 -0.0678772 0.0276453 0.0751324 -0.0680093 0.0149997 0.0568313 -0.0839055 0.0149998 0.055241 -0.0871505 0.0264819 0.0548935 -0.0915631 0.0241419 0.0545422 -0.0992434 0.0150013 0.055 -0.0992436 0.02 -0.0984297 0.0792378 -0 -0.0978201 0.0844128 0.015 -0.0988785 0.0669696 0.0040487 -0.0976973 -0.0843068 0.015 -0.0984297 -0.0792378 -0 -0.0988785 -0.0669696 0.015 -0.0988785 -0.0669696 0.0040487 -0.100002 0 -0 -0.1 0 0.00292715 -0.0988785 0.0669696 0.015 -0.0670014 0.0988774 0.02 -0.0081554 0.0999646 0.0203593 -0.0283389 0.097838 0.0226491 -0.0473143 0.0900805 0.026258 -0.067573 0.0781503 0.0270629 -0.0512104 0.0939269 0.0225419 -0.00784758 0.0984417 0.0267426 0.00745991 0.098029 0.028618 0.025635 0.0984515 0.0221828 0.0450521 0.0874651 0.0289955 0.0547944 0.0922179 0.02359 -0.0314104 0.0932274 0.029 -0.0664157 0.0725299 0.029 0.0571275 0.0835133 0.0276732 0.0766062 0.0616694 0.029 0.0747125 0.0683931 0.0277422 0.055 0.0992436 0.02 0.0837225 0.0673982 0.0250436 -0.0727867 0.0688037 0.0283068 -0.0670014 -0.0988774 0.02 -0.0670014 -0.0988774 0.015 -0.067704 -0.0772108 0.0271345 -0.0678183 -0.0763786 0.0150003 0.0967217 -0.0865734 0 0.0925855 -0.0925855 0.015 0.0925855 -0.0925855 0 0.0842984 -0.0978756 0.015 0.0865734 -0.0967217 0 0.0792378 -0.0984297 0 0.0547944 0.0922179 0.02359 0.055 0.0992436 0.02 0.0545244 0.0992262 0.0149989 -0.0792378 -0.0984297 0 -0.0865734 -0.0967217 0 -0.0847944 -0.0976261 0.015 -0.0925855 -0.0925855 -0 -0.0925855 -0.0925855 0.015 -0.0967217 -0.0865734 -0 -0.0865734 0.0967217 -0 -0.0925855 0.0925855 0.015 -0.0925855 0.0925855 -0 -0.0967217 0.0865734 -0 -0.0727867 0.0688037 0.0283068 -0.0747499 0.0680756 0.0150022 -0.0678026 0.0764307 0.0149992 -0.067573 0.0781503 0.0270629 -0.0791413 0.0674865 0.0264924 -0.0925855 -0.0925855 0.015 -0.0842505 -0.084208 0.015 -0.0847944 -0.0976261 0.015 -0.0976973 -0.0843068 0.015 -0.0988785 -0.0669696 0.015 -0.0859998 -0.07995 0.015 -0.0796736 -0.0674725 0.015 -0.0822975 -0.0743296 0.015 -0.0740002 -0.08005 0.015 -0.0757494 -0.075792 0.015 -0.0678183 -0.0763786 0.0150003 -0.0729306 -0.0695171 0.0149996 -0.0670014 -0.0988774 0.015 -0.0757848 -0.0842682 0.015 -0.080025 -0.0859999 0.015 0.0970634 -0.0305243 0.0247398 0.0910494 -0.0529527 0.0248475 0.0941593 -0.0283952 0.029 0.0822975 -0.0538292 0.029 0.0756734 -0.0678772 0.0276453 0.0637992 -0.0748383 0.029 0.0548935 -0.0915631 0.0241419 0.0181302 -0.0975187 0.024518 0.055241 -0.0871505 0.0264819 -0.0161018 -0.0969443 0.0277228 -0.0235721 -0.0978163 0.0228929 -0.0539428 -0.0873037 0.0264829 -0.0563438 -0.0912339 0.0241281 0.0989028 -0.0347741 0.0218048 0.0176476 -0.0983815 0.022 -0.0587988 -0.0952525 0.0219612 0.1 -0 0.02 0.0983444 1.4232e-05 0.029 -0.00600358 -0.099991 0.0200001 0.0600422 -0.0807636 0.0278374 0.0988774 -0.0670014 0.02 0.0122413 -0.0975783 0.029 0.055 -0.0992436 0.02 0.0397048 -0.0899731 0.029 -0.0425976 -0.0886473 0.029 -0.067704 -0.0772108 0.0271345 -0.0670014 -0.0988774 0.02 -0.0664157 -0.0725299 0.029 -0.0728861 -0.0692755 0.0292157 -0.0670014 0.0988774 0.015 -0.0670014 0.0988774 0.02 0.0822975 0.0743296 0.015 0.0752822 0.0678832 0.0150038 0.0757494 0.075792 0.015 0.0568605 0.0838755 0.0149996 0.0740002 0.08005 0.015 0.0545244 0.0992262 0.0149989 0.0792378 0.0984297 0.015 0.0777025 0.0856704 0.015 0.0865734 0.0967217 0.015 0.0842505 0.084208 0.015 0.0925855 0.0925855 0.015 0.0976963 0.0843091 0.015 0.0988774 0.0670014 0.015 0.0859998 0.07995 0.015 -0.0796736 -0.0674725 0.015 -0.0728861 -0.0692755 0.0292157 -0.0729306 -0.0695171 0.0149996 -0.0796736 -0.0674725 0.0263258 0.0859999 -0.080025 0 0.084208 -0.0842505 0 0.0967217 -0.0865734 0 0.100002 -0 0 0.08005 -0.0740002 0 0.0984297 -0.0792378 0 0.075792 -0.0757494 0 0.0842682 -0.0757848 0 -0 -0.100002 0 -0.0740002 -0.08005 0 -0.0792378 -0.0984297 0 0.0792378 -0.0984297 0 0.0740001 -0.079975 0 -0.0757494 -0.075792 -0 -0.0757848 -0.0842682 0 -0.0859999 0.080025 -0 -0.0984297 0.0792378 -0 -0.0842682 0.0757848 -0 -0.100002 0 -0 -0.0984297 -0.0792378 -0 -0.079975 -0.0740001 -0 -0.0967217 0.0865734 -0 -0.08005 0.0740002 -0 -0.075792 0.0757494 -0 0 0.100002 -0 0.0740002 0.08005 0 0.0792378 0.0984297 0 -0.0757318 0.0842152 -0 -0.0740001 0.079975 -0 -0.0792378 0.0984297 -0 0.0757494 0.075792 0 0.0757848 0.0842682 0 0.0984297 0.0792378 0 0.079975 0.0740001 0 0.0842152 0.0757318 0 0.0859998 0.07995 0 0.0967217 0.0865734 0 0.0842505 0.084208 0 0.080025 0.0859999 0 0.0865734 0.0967217 0 0.0925855 0.0925855 0 -0.084208 0.0842505 -0 -0.07995 0.0859998 -0 -0.0865734 0.0967217 -0 -0.0925855 0.0925855 -0 -0.0842152 -0.0757318 -0 -0.0859998 -0.07995 -0 -0.0967217 -0.0865734 -0 -0.0842505 -0.084208 -0 -0.080025 -0.0859999 0 -0.0865734 -0.0967217 0 -0.0925855 -0.0925855 -0 0.0757318 -0.0842152 0 0.07995 -0.0859998 0 0.0865734 -0.0967217 0 0.0925855 -0.0925855 0 0.0571275 0.0835133 0.0276732 0.0568605 0.0838755 0.0149996 -0 -0.100002 0 0.0545422 -0.0992434 0.0150013 -0.00600358 -0.099991 0.0200001 -0.0670014 -0.0988774 0.02 0.055 -0.0992436 0.02 -0.0670014 -0.0988774 0.015 0.0988774 0.0670014 0.0199999 0.0982298 0.0250994 0.0220005 0.0969225 0.0166516 0.029 0.0935119 0.0539571 0.0224585 0.0947606 0.0350003 0.0253916 0.0892439 0.0499383 0.0261383 0.0859343 0.0478199 0.029 0.0927461 0.0327004 0.029 0.0988774 -0.0670014 0.015 0.0988774 -0.0670014 0.02 -0.08005 0.0740002 -0 -0.08005 0.0740002 0.015 -0.0842682 0.0757848 -0 -0.07995 0.0859998 -0 -0.084208 0.0842505 -0 -0.07995 0.0859998 0.015 -0.0859999 0.080025 -0 -0.084208 0.0842505 0.015 -0.0842682 0.0757848 0.015 -0.0859999 0.080025 0.015 -0.0757318 0.0842152 -0 -0.075792 0.0757494 -0 -0.0740001 0.079975 -0 -0.075792 0.0757494 0.015 -0.0743296 0.0822975 0.015 -0.0842152 -0.0757318 -0 -0.0757494 -0.075792 -0 -0.079975 -0.0740001 -0 -0.0757494 -0.075792 0.015 -0.0822975 -0.0743296 0.015</float_array>
					<technique_common>
						<accessor count="326" source="#base2_M1KShape4.positions-array" stride="3">
							<param name="X" type="float"/>
							<param name="Y" type="float"/>
							<param name="Z" type="float"/>
						</accessor>
					</technique_common>
				</source>
				<source id="base2_M1KShape4.normals">
					<float_array id="base2_M1KShape4.normals-array" count="978">-0.999965 0.008333 0 -0.999965 0.008333 0 -0.702518 0.711666 0 0.999965 -0.008333 0 0.710906 0.703287 0 0.999965 -0.008333 0 0.003509 0.999994 0 0.710906 0.703287 0 -0.702518 0.711666 0 0.003509 0.999994 0 0.008333 0.999965 0 0.008333 0.999965 0 0.711666 0.702518 0 -0.008333 -0.999965 0 0.703287 -0.710906 0 -0.008333 -0.999965 0 0.999994 -0.003509 0 0.703287 -0.710906 0 0.926615 0.376012 0 -0.711666 -0.702518 0 -0.703287 0.710906 0 -0.999994 0.003509 0 -0.703287 0.710906 0 -0.711666 -0.702518 0 -0.999994 0.003509 0 -0.999965 0.008333 0 -0.999965 0.008333 0 -0.702518 0.711666 0 0.999965 -0.008333 0 0.710906 0.703287 0 0.999965 -0.008333 0 0.003509 0.999994 0 0.710906 0.703287 0 -0.376012 0.926615 0 0.702518 -0.711666 0 -0.710906 -0.703287 0 -0.003509 -0.999994 0 -0.710906 -0.703287 0 0.376012 -0.926615 0 -2.9e-05 0.032738 -0.999464 4.7e-05 -0 -1 -1e-05 0.033485 -0.999439 -0.028427 -0.002023 -0.999594 -1e-05 -0.033485 -0.999439 -0.026821 -0.110184 -0.993549 0.999439 -0.033501 0 1 -0 0 0.999439 -0.033501 0 0.999439 0.033501 -0 0.999439 0.033501 -0 0.999215 -0.039619 0 0.996146 -0.087708 0 0.974926 0.222527 0 0.999215 0.039619 0 1 -0 0 -0 0 1 -0 0 1 -0 0 1 -0 0 1 -0 0 1 -0 0 1 -0 0 1 -0 0 1 -0 0 1 -0 0 1 -0 0 1 -0 0 1 -0 0 1 -0 0 1 0.913457 0.406936 0 0.707107 0.707107 -0 0.707107 0.707107 -0 0.406936 0.913457 -0 0.406936 0.913457 -0 0.039619 0.999215 0 0.039619 0.999215 0 -0 0 1 -0 0 1 -0 0 1 -0 0 1 -0 0 1 -0 0 1 -0 0 1 -0 0 1 -0 0 1 -0 0 1 -0 0 1 -0 0 1 -0 0 1 -0 0 1 0.026179 0.999657 3e-06 0.026179 0.999657 3e-06 0.41588 0.90942 1e-05 0.525205 0.850976 1.9e-05 0.026179 0.999657 3e-06 0.0275 0.999622 0 0 1 0 0.027263 0.999628 0 -0.033501 0.999439 0 -0.033501 0.999439 0 -0.004078 0.999992 0 -0.222527 0.974926 0 -0.039619 0.999215 0 0.596623 -0.802522 0 0.327518 -0.944845 -8.6e-05 0.471902 -0.881651 -0.000106 0.752156 -0.658985 0.000407 0.955302 -0.295629 0.00088 0.999355 0.035913 -6.1e-05 0.989034 0.147688 -0.000214 1 -0 0 -0.999215 0.039619 0 -0.978413 0.20666 -0 -0.999439 0.033485 -0 -0.974977 -0.222308 -0 -0.999215 -0.039619 0 -0.999439 -0.033485 0 -0.999439 -0.033485 0 -1 0 -0 -1 0 -0 -0.999439 0.033485 -0 -0.009029 0.271514 0.962392 -0.009565 0.965145 0.261542 -0.09733 0.843679 0.527952 -0.221283 0.577231 0.786027 -0.225479 0.300809 0.926646 -0.098348 0.493019 0.864442 -0.062487 0.979833 0.189796 0.092191 0.976271 0.195948 0.079566 0.881397 0.465626 0.280321 0.55291 0.784672 0.134844 0.478697 0.867563 -0.25767 0.764248 0.591212 -0.281037 0.3081 0.908896 0.235208 0.395263 0.887944 0.344797 0.27751 0.896718 0.280204 0.243657 0.928503 0.010218 0.370491 0.92878 0.328627 0.149658 0.932527 -0.292136 0.267684 0.918151 -0.999657 -0.026176 0 -0.999657 -0.026176 0 -0.994337 -0.10627 0.000154 -0.984533 -0.1752 0.000284 0.913457 -0.406936 0 0.707107 -0.707107 0 0.707107 -0.707107 0 0.195044 -0.980794 -0 0.406936 -0.913457 -0 0.039619 -0.999215 -0 0.997817 -0.066047 -0.000124 1 -0 0 0.988163 -0.15341 -0.000249 -0.039619 -0.999215 0 -0.406936 -0.913457 0 -0.251159 -0.967946 0 -0.707107 -0.707107 0 -0.707107 -0.707107 0 -0.913457 -0.406936 -0 -0.406936 0.913457 0 -0.707107 0.707107 -0 -0.707107 0.707107 -0 -0.913457 0.406936 -0 -0.540695 0.841011 0.018709 -0.276641 0.960915 0.010605 -0.985449 0.169952 0.002608 -0.997061 0.076612 0.000923 -0.026177 0.999657 0 -0 0 1 -0 0 1 -0 0 1 -0 0 1 -0 0 1 -0 0 1 -0 0 1 -0 0 1 -0 0 1 -0 0 1 -0 0 1 -0 0 1 -0 0 1 -0 0 1 -0 0 1 0.860361 -0.137657 0.490745 0.487453 -0.191396 0.851914 0.71214 -0.213838 0.668678 0.414852 -0.279718 0.865826 0.302075 -0.242874 0.921826 0.280279 -0.327727 0.902241 0.124414 -0.459481 0.879431 0.094245 -0.977342 0.189525 0.208775 -0.422763 0.881864 -0.116618 -0.904398 0.410444 -0.062265 -0.935146 0.348749 -0.196149 -0.440629 0.875998 -0.115852 -0.433752 0.893553 0.722337 -0.045063 0.690072 0.035085 -0.906383 0.420998 -0.051178 -0.4345 0.899217 0.974191 -0.000314 0.225727 0.990774 0.000385 0.135524 -0.002276 -0.682052 0.7313 0.23768 -0.360416 0.902002 0.225592 -0.029719 0.973769 0.087461 -0.840666 0.534445 0.012266 -0.450677 0.892603 0.245015 -0.606255 0.756586 -0.265439 -0.579019 0.770895 -0.235774 -0.275392 0.931971 -0.016123 -0.391263 0.920138 -0.294309 -0.316753 0.901693 -0.293849 -0.27191 0.916361 -0.999657 0.026176 -0 -0.999657 0.026176 -0 -0 0 1 -0 0 1 -0 0 1 -0 0 1 -0 0 1 -0 0 1 -0 0 1 -0 0 1 -0 0 1 -0 0 1 -0 0 1 -0 0 1 -0 0 1 -0 0 1 -0.026178 -0.999657 0 -0.550416 -0.834889 0.001238 -0.561914 -0.827195 0.001107 -0.026177 -0.999657 0 0 -0 -1 0 -0 -1 0 -0 -1 0 -0 -1 0 -0 -1 0 -0 -1 0 -0 -1 0 -0 -1 0 -0 -1 0 -0 -1 0 -0 -1 0 -0 -1 0 -0 -1 0 -0 -1 0 -0 -1 0 -0 -1 0 -0 -1 0 -0 -1 0 -0 -1 0 -0 -1 0 -0 -1 0 -0 -1 0 -0 -1 0 -0 -1 0 -0 -1 0 -0 -1 0 -0 -1 0 -0 -1 0 -0 -1 0 -0 -1 0 -0 -1 0 -0 -1 0 -0 -1 0 -0 -1 0 -0 -1 0 -0 -1 0 -0 -1 0 -0 -1 0 -0 -1 0 -0 -1 0 -0 -1 0 -0 -1 0 -0 -1 0 -0 -1 0 -0 -1 0 -0 -1 0 -0 -1 0 -0 -1 0 -0 -1 0 -0 -1 0 -0 -1 0 -0 -1 0 -0 -1 0 -0 -1 0 -0 -1 0 -0 -1 0.685546 0.728029 0.00031 0.749075 0.662485 0.000427 -0 -1 0 0.027271 -0.999628 0 -0.003002 -0.999996 0 -0.033501 -0.999439 0 0.0275 -0.999622 0 -0.033501 -0.999439 0 0.254836 0.009397 0.966939 0.888469 0.08552 0.450897 0.895113 0.153771 0.418481 0.458394 0.090969 0.884081 0.813483 0.199195 0.546413 0.546102 0.225064 0.806919 0.510273 0.284064 0.811744 0.706932 0.249439 0.661836 0.026177 -0.999657 0 0.026177 -0.999657 0 0.008333 0.999965 0 0.008333 0.999965 0 0.711666 0.702518 0 -0.008333 -0.999965 0 0.703287 -0.710906 0 -0.008333 -0.999965 0 0.999994 -0.003509 0 0.703287 -0.710906 0 0.711666 0.702518 0 0.999994 -0.003509 0 -0.711666 -0.702518 0 -0.703287 0.710906 0 -0.999994 0.003509 0 -0.703287 0.710906 0 -0.926615 -0.376012 0 0.702518 -0.711666 0 -0.710906 -0.703287 0 -0.003509 -0.999994 0 -0.710906 -0.703287 0 0.376012 -0.926615 0</float_array>
					<technique_common>
						<accessor count="326" source="#base2_M1KShape4.normals-array" stride="3">
							<param name="X" type="float"/>
							<param name="Y" type="float"/>
							<param name="Z" type="float"/>
						</accessor>
					</technique_common>
				</source>
				<vertices id="base2_M1KShape4.vertices">
					<input semantic="POSITION" source="#base2_M1KShape4.positions"/>
				</vertices>
				<triangles count="338" material="blinn24.material">
					<input offset="0" semantic="VERTEX" source="#base2_M1KShape4.vertices" set="0"/>
					<input offset="1" semantic="NORMAL" source="#base2_M1KShape4.normals" set="0"/>
					<p>0 0 2 2 1 1 3 3 5 5 4 4 4 4 7 7 6 6 7 7 4 4 5 5 2 2 6 6 8 8 9 9 6 6 7 7 8 8 1 1 2 2 9 9 8 8 6 6 10 10 12 12 11 11 13 13 15 15 14 14 14 14 17 17 16 16 17 17 14 14 15 15 12 12 16 16 18 18 18 18 16 16 17 17 18 18 11 11 12 12 13 13 19 19 15 15 10 10 11 11 20 20 20 20 22 22 21 21 22 22 20 20 11 11 19 19 21 21 23 23 24 24 21 21 22 22 23 23 15 15 19 19 24 24 23 23 21 21 25 25 27 27 26 26 28 28 30 30 29 29 29 29 32 32 31 31 32 32 29 29 30 30 27 27 31 31 33 33 33 33 31 31 32 32 33 33 26 26 27 27 28 28 34 34 30 30 25 25 26 26 35 35 35 35 37 37 36 36 37 37 35 35 26 26 34 34 36 36 38 38 38 38 36 36 37 37 38 38 30 30 34 34 39 39 41 41 40 40 42 42 39 39 40 40 42 42 40 40 43 43 44 44 42 42 43 43 45 45 47 47 46 46 48 48 46 46 49 49 50 50 46 46 51 51 52 52 49 49 53 53 54 54 45 45 46 46 54 54 46 46 48 48 53 53 49 49 46 46 51 51 46 46 47 47 55 55 57 57 56 56 58 58 60 60 59 59 55 55 56 56 58 58 60 60 58 58 56 56 59 59 62 62 61 61 62 62 59 59 60 60 63 63 61 61 64 64 65 65 63 63 64 64 62 62 64 64 61 61 66 66 63 63 67 67 57 57 66 66 68 68 65 65 67 67 63 63 68 68 56 56 57 57 67 67 68 68 66 66 52 52 53 53 69 69 70 70 69 69 71 71 52 52 69 69 70 70 72 72 71 71 73 73 70 70 71 71 72 72 74 74 73 73 75 75 72 72 73 73 74 74 76 76 78 78 77 77 79 79 81 81 80 80 76 76 77 77 81 81 82 82 81 81 77 77 82 82 80 80 81 81 83 83 80 80 84 84 80 80 83 83 79 79 85 85 84 84 86 86 86 86 84 84 80 80 87 87 84 84 88 88 78 78 87 87 89 89 85 85 88 88 84 84 89 89 77 77 78 78 88 88 89 89 87 87 90 90 92 92 91 91 93 93 94 94 92 92 94 94 91 91 92 92 95 95 97 97 96 96 98 98 100 100 99 99 75 75 96 96 74 74 101 101 99 99 102 102 102 102 100 100 96 96 102 102 99 99 100 100 74 74 96 96 97 97 95 95 96 96 100 100 103 103 105 105 104 104 106 106 105 105 103 103 106 106 103 103 107 107 106 106 107 107 108 108 109 109 106 106 108 108 108 108 110 110 109 109 111 111 113 113 112 112 114 114 116 116 115 115 116 116 117 117 115 115 115 115 117 117 118 118 111 111 118 118 113 113 119 119 118 118 117 117 120 120 112 112 113 113 119 119 113 113 118 118 121 121 123 123 122 122 124 124 126 126 125 125 126 126 124 124 123 123 127 127 122 122 123 123 128 128 129 129 127 127 122 122 127 127 129 129 130 130 131 131 128 128 129 129 128 128 131 131 132 132 124 124 133 133 130 130 135 135 134 134 136 136 134 134 135 135 137 137 129 129 131 131 131 131 130 130 134 134 122 122 129 129 137 137 138 138 136 136 135 135 125 125 139 139 133 133 123 123 132 132 127 127 123 123 124 124 132 132 125 125 133 133 124 124 128 128 127 127 132 132 121 121 125 125 126 126 126 126 123 123 121 121 140 140 142 142 141 141 143 143 141 141 142 142 144 144 50 50 51 51 144 144 51 51 145 145 146 146 144 144 145 145 146 146 145 145 147 147 148 148 146 146 147 147 149 149 148 148 147 147 150 150 152 152 151 151 153 153 155 155 154 154 156 156 155 155 157 157 154 154 155 155 156 156 158 158 157 157 114 114 156 156 157 157 158 158 158 158 114 114 115 115 101 101 102 102 159 159 160 160 159 159 161 161 101 101 159 159 160 160 112 112 161 161 162 162 160 160 161 161 112 112 112 112 162 162 111 111 163 163 165 165 164 164 166 166 165 165 163 163 163 163 164 164 167 167 168 168 170 170 169 169 171 171 173 173 172 172 168 168 169 169 171 171 173 173 171 171 169 169 172 172 175 175 174 174 175 175 172 172 173 173 176 176 178 178 177 177 179 179 174 174 177 177 175 175 177 177 174 174 180 180 178 178 181 181 179 179 177 177 178 178 170 170 180 180 182 182 176 176 181 181 178 178 182 182 169 169 170 170 181 181 182 182 180 180 183 183 185 185 184 184 186 186 188 188 187 187 189 189 191 191 190 190 192 192 193 193 190 190 194 194 195 195 192 192 193 193 192 192 195 195 184 184 196 196 183 183 190 190 197 197 189 189 197 197 190 190 193 193 195 195 198 198 193 193 199 199 200 200 196 196 193 193 201 201 197 197 202 202 187 187 188 188 187 187 203 203 184 184 199 199 196 196 203 203 186 186 187 187 184 184 196 196 184 184 203 203 190 190 191 191 204 204 197 197 205 205 189 189 205 205 197 197 201 201 188 188 206 206 202 202 191 191 202 202 206 206 190 190 204 204 192 192 206 206 204 204 191 191 207 207 194 194 192 192 208 208 209 209 194 194 194 194 207 207 208 208 210 210 208 208 207 207 201 201 193 193 209 209 194 194 209 209 195 195 198 198 195 195 209 209 198 198 209 209 193 193 210 210 211 211 208 208 200 200 185 185 183 183 196 196 200 200 183 183 186 186 184 184 185 185 165 165 166 166 212 212 213 213 212 212 166 166 214 214 216 216 215 215 217 217 215 215 218 218 216 216 218 218 215 215 219 219 221 221 220 220 219 219 217 217 221 221 221 221 217 217 218 218 221 221 223 223 222 222 220 220 221 221 222 222 224 224 222 222 223 223 225 225 227 227 226 226 224 224 223 223 225 225 227 227 225 225 223 223 226 226 214 214 215 215 214 214 226 226 227 227 228 228 230 230 229 229 231 231 228 228 229 229 142 142 229 229 143 143 230 230 143 143 229 229 232 232 234 234 233 233 235 235 237 237 236 236 236 236 238 238 235 235 239 239 236 236 237 237 240 240 242 242 241 241 240 240 244 244 243 243 241 241 245 245 240 240 246 246 241 241 242 242 247 247 249 249 248 248 250 250 252 252 251 251 248 248 253 253 247 247 250 250 248 248 254 254 254 254 255 255 250 250 249 249 254 254 248 248 256 256 258 258 257 257 259 259 261 261 260 260 257 257 262 262 256 256 263 263 257 257 258 258 256 256 262 262 255 255 235 235 265 265 264 264 240 240 245 245 238 238 260 260 256 256 255 255 265 265 252 252 262 262 262 262 252 252 255 255 250 250 255 255 252 252 244 244 240 240 238 238 252 252 265 265 245 245 245 245 265 265 238 238 235 235 238 238 265 265 266 266 267 267 264 264 266 266 264 264 265 265 267 267 269 269 268 268 258 258 271 271 270 270 264 264 267 267 268 268 272 272 268 268 269 269 263 263 258 258 270 270 272 272 269 269 271 271 270 270 271 271 269 269 256 256 260 260 261 261 247 247 253 253 273 273 274 274 273 273 275 275 276 276 273 273 253 253 275 275 261 261 274 274 276 276 275 275 273 273 259 259 274 274 261 261 277 277 278 278 251 251 277 277 251 251 252 252 278 278 280 280 279 279 242 242 282 282 281 281 251 251 278 278 279 279 283 283 279 279 280 280 246 246 242 242 281 281 283 283 280 280 282 282 281 281 282 282 280 280 284 284 285 285 243 243 284 284 243 243 244 244 285 285 233 233 286 286 237 237 234 234 232 232 243 243 285 285 286 286 287 287 286 286 233 233 239 239 237 237 232 232 287 287 233 233 234 234 288 288 92 92 289 289 93 93 92 92 288 288 149 149 291 291 290 290 292 292 293 293 290 290 294 294 290 290 291 291 153 153 290 290 295 295 155 155 153 153 295 295 293 293 295 295 290 290 147 147 291 291 149 149 292 292 290 290 294 294 150 150 289 289 152 152 288 288 289 289 150 150 296 296 297 297 199 199 298 298 200 200 297 297 299 299 301 301 300 300 300 300 297 297 299 299 199 199 297 297 200 200 138 138 135 135 301 301 301 301 299 299 138 138 296 296 138 138 299 299 135 135 302 302 301 301 301 301 302 302 300 300 303 303 298 298 300 300 303 303 300 300 302 302 297 297 300 300 298 298 299 299 297 297 296 296 105 105 304 304 104 104 305 305 104 104 304 304 306 306 308 308 307 307 309 309 311 311 310 310 310 310 313 313 312 312 313 313 310 310 311 311 308 308 312 312 314 314 315 315 312 312 313 313 314 314 307 307 308 308 315 315 314 314 312 312 309 309 316 316 311 311 306 306 307 307 317 317 317 317 319 319 318 318 319 319 317 317 307 307 316 316 318 318 320 320 320 320 318 318 319 319 320 320 311 311 316 316 3 3 321 321 5 5 0 0 1 1 322 322 322 322 324 324 323 323 324 324 322 322 1 1 321 321 323 323 325 325 325 325 323 323 324 324 325 325 5 5 321 321</p>
				</triangles>
			</mesh>
		</geometry>
		<geometry id="base2_M1KShape5" name="base2_M1KShape5">
			<mesh>
				<source id="base2_M1KShape5.positions">
					<float_array id="base2_M1KShape5.positions-array" count="240">0.0777544 -0.0777272 0.1985 0.0428008 -0.101317 0.1985 0.101328 -0.0427593 0.1985 -0.101328 0.0427593 0.1985 0.109975 3.1829e-05 0.1985 -0.109975 -3.1829e-05 0.1985 0.101316 0.0428155 0.1985 0.0777319 0.0777656 0.1985 0.0427715 0.101335 0.1985 -1.5914e-05 0.109975 0.1985 -0.0428008 0.101317 0.1985 -0.0777544 0.0777272 0.1985 -0.101316 -0.0428155 0.1985 -0.0778434 -0.0778066 0.198499 -0.0427715 -0.101335 0.1985 1.5914e-05 -0.109975 0.1985 0.0637992 -0.074836 0.029 0.0719985 -0.0719568 0.0713364 0.0822975 -0.0538221 0.029 -0.0778434 -0.0778066 0.198499 -0.0413938 -0.0981546 0.137611 -0.0744136 -0.0737091 0.111973 0.0751513 -0.0751659 0.134322 0.098054 -0.0414343 0.136121 0.0938039 -0.0395948 0.0713364 0.0414489 -0.0980298 0.135962 0.0396491 -0.093781 0.0713364 3.3521e-05 -0.106358 0.135278 2.9461e-05 -0.101792 0.0713364 -0.0395948 -0.0938039 0.0713364 0.0941593 -0.0283832 0.029 0.0983444 2.8463e-05 0.029 -0.08167 -0.0733764 0.194965 -0.0425976 -0.0886473 0.029 -0.0664157 -0.0725299 0.029 -0.0161018 -0.0969443 0.0277228 0.104885 3.0356e-05 0.1137 0.109975 3.1829e-05 0.1985 0.101328 -0.0427593 0.1985 0.0777544 -0.0777272 0.1985 0.0428008 -0.101317 0.1985 1.5914e-05 -0.109975 0.1985 -0.0427715 -0.101335 0.1985 -0.0986977 -0.0494142 0.195575 -0.101316 -0.0428155 0.1985 -0.1098 -0.0106018 0.195583 -0.109975 -3.1829e-05 0.1985 0.0122413 -0.0975783 0.029 0.0397048 -0.0899731 0.029 -0.102552 0.0392969 0.195566 -0.101328 0.0427593 0.1985 -0.107978 0.020059 0.195627 -0.0745724 0.0735381 0.111701 -0.0414489 0.0980298 0.135962 -0.0761119 0.0760678 0.15609 -0.0396491 0.093781 0.0713364 -3.3521e-05 0.106358 0.135278 -2.9461e-05 0.101792 0.0713364 0.0413797 0.0980242 0.135491 0.0395948 0.0938039 0.0713364 0.0752177 0.0752579 0.135929 0.0719568 0.0719985 0.0713364 0.0981263 0.0414914 0.13767 0.093781 0.0396491 0.0713364 0.0450521 0.0874651 0.0289955 0.0969225 0.0166636 0.029 0.0927461 0.0327075 0.029 0.0859343 0.0478221 0.029 0.0766062 0.0616694 0.029 0.00745991 0.098029 0.028618 -0.0314104 0.0932274 0.029 -0.0664157 0.0725299 0.029 -0.0937234 0.0572264 0.195371 -0.0816701 0.0733764 0.194965 -0.0777544 0.0777272 0.1985 -0.0428008 0.101317 0.1985 -1.5914e-05 0.109975 0.1985 0.0427715 0.101335 0.1985 0.0777319 0.0777656 0.1985 0.101316 0.0428155 0.1985</float_array>
					<technique_common>
						<accessor count="80" source="#base2_M1KShape5.positions-array" stride="3">
							<param name="X" type="float"/>
							<param name="Y" type="float"/>
							<param name="Z" type="float"/>
						</accessor>
					</technique_common>
				</source>
				<source id="base2_M1KShape5.normals">
					<float_array id="base2_M1KShape5.normals-array" count="240">-0 0 1 -0 0 1 -0 0 1 -0 0 1 -0 0 1 -0 0 1 -0 0 1 -0 0 1 -0 0 1 -0 0 1 -0 0 1 -0 0 1 -0 0 1 -0 0 1 -0 0 1 -0 0 1 0.646752 -0.757905 -0.085391 0.705215 -0.704807 -0.076927 0.833347 -0.546113 -0.085399 -0.707728 -0.704606 -0.051488 -0.388688 -0.919165 -0.063696 -0.709733 -0.701066 -0.069177 0.705299 -0.705985 -0.064329 0.919261 -0.388411 -0.064002 0.918386 -0.388131 -0.076946 0.389053 -0.918988 -0.06402 0.388663 -0.918161 -0.076946 0.000313 -0.997941 -0.064141 0.000289 -0.997037 -0.076926 -0.388131 -0.918386 -0.076946 0.954057 -0.287195 -0.085412 0.996348 0.000288 -0.085389 -0.742823 -0.667361 -0.053323 -0.432177 -0.897735 -0.085409 -0.673047 -0.735009 -0.082281 -0.161974 -0.983071 -0.085654 0.997654 0.000289 -0.068457 0.998673 0.000289 -0.051499 0.919932 -0.388679 -0.051512 0.706292 -0.706045 -0.051499 0.389034 -0.919782 -0.051512 0.000148 -0.998673 -0.051499 -0.388753 -0.919901 -0.051512 -0.892546 -0.44798 -0.051718 -0.919732 -0.389151 -0.051512 -0.994126 -0.095011 -0.051838 -0.998673 -0.000289 -0.051499 0.122779 -0.988753 -0.085398 0.402748 -0.911317 -0.085411 -0.932448 0.357529 -0.0521 -0.919932 0.388679 -0.051512 -0.982051 0.18128 -0.052083 -0.710052 0.700726 -0.069352 -0.389053 0.918988 -0.06402 -0.706038 0.705629 -0.059981 -0.388663 0.918161 -0.076946 -0.000313 0.997941 -0.064141 -0.000289 0.997037 -0.076926 0.388515 0.919209 -0.064115 0.388131 0.918386 -0.076946 0.705467 0.705847 -0.06401 0.704807 0.705215 -0.076927 0.919322 0.388317 -0.063687 0.918161 0.388663 -0.076946 0.457002 0.885356 -0.085404 0.98214 0.16765 -0.085403 0.93963 0.331362 -0.085413 0.870174 0.485286 -0.085405 0.775725 0.625267 -0.085392 0.074562 0.993547 -0.085474 -0.318009 0.944232 -0.085412 -0.673076 0.735043 -0.081734 -0.851824 0.521227 -0.052133 -0.742832 0.667389 -0.052842 -0.706292 0.706045 -0.051499 -0.389034 0.919782 -0.051512 -0.000148 0.998673 -0.051499 0.388753 0.919901 -0.051512 0.706015 0.706322 -0.051499 0.919732 0.389151 -0.051512</float_array>
					<technique_common>
						<accessor count="80" source="#base2_M1KShape5.normals-array" stride="3">
							<param name="X" type="float"/>
							<param name="Y" type="float"/>
							<param name="Z" type="float"/>
						</accessor>
					</technique_common>
				</source>
				<vertices id="base2_M1KShape5.vertices">
					<input semantic="POSITION" source="#base2_M1KShape5.positions"/>
				</vertices>
				<triangles count="100" material="blinn25.material">
					<input offset="0" semantic="VERTEX" source="#base2_M1KShape5.vertices" set="0"/>
					<input offset="1" semantic="NORMAL" source="#base2_M1KShape5.normals" set="0"/>
					<p>0 0 2 2 1 1 2 2 4 4 3 3 3 3 5 5 2 2 4 4 6 6 3 3 6 6 7 7 3 3 7 7 8 8 3 3 8 8 9 9 3 3 9 9 10 10 3 3 11 11 3 3 10 10 5 5 12 12 2 2 12 12 13 13 2 2 13 13 14 14 2 2 14 14 15 15 2 2 15 15 1 1 2 2 16 16 18 18 17 17 19 19 21 21 20 20 22 22 17 17 23 23 24 24 23 23 17 17 25 25 26 26 22 22 17 17 22 22 26 26 27 27 28 28 25 25 26 26 25 25 28 28 20 20 29 29 27 27 28 28 27 27 29 29 20 20 21 21 29 29 30 30 31 31 24 24 32 32 21 21 19 19 33 33 29 29 34 34 34 34 29 29 21 21 28 28 29 29 35 35 23 23 24 24 36 36 31 31 36 36 24 24 37 37 38 38 23 23 37 37 23 23 36 36 22 22 23 23 39 39 22 22 39 39 25 25 38 38 39 39 23 23 25 25 40 40 27 27 40 40 25 25 39 39 27 27 41 41 20 20 41 41 27 27 40 40 20 20 42 42 19 19 42 42 20 20 41 41 19 19 44 44 43 43 43 43 44 44 45 45 32 32 19 19 43 43 46 46 45 45 44 44 35 35 47 47 28 28 33 33 35 35 29 29 28 28 47 47 26 26 17 17 26 26 16 16 48 48 26 26 47 47 24 24 17 17 18 18 48 48 16 16 26 26 30 30 24 24 18 18 49 49 51 51 50 50 52 52 54 54 53 53 53 53 55 55 52 52 56 56 57 57 53 53 55 55 53 53 57 57 58 58 59 59 56 56 57 57 56 56 59 59 60 60 61 61 58 58 59 59 58 58 61 61 62 62 63 63 60 60 61 61 60 60 63 63 59 59 61 61 64 64 62 62 36 36 63 63 37 37 36 36 62 62 31 31 65 65 63 63 31 31 63 63 36 36 65 65 66 66 63 63 66 66 67 67 63 63 67 67 68 68 63 63 61 61 63 63 68 68 57 57 59 59 69 69 68 68 64 64 61 61 55 55 57 57 70 70 64 64 69 69 59 59 70 70 71 71 55 55 69 69 70 70 57 57 71 71 52 52 55 55 72 72 74 74 73 73 73 73 54 54 52 52 46 46 50 50 51 51 54 54 74 74 53 53 49 49 50 50 72 72 50 50 74 74 72 72 54 54 73 73 74 74 53 53 75 75 56 56 75 75 53 53 74 74 56 56 76 76 58 58 76 76 56 56 75 75 58 58 77 77 60 60 77 77 58 58 76 76 60 60 78 78 62 62 78 78 60 60 77 77 37 37 62 62 79 79 79 79 62 62 78 78 45 45 46 46 51 51</p>
				</triangles>
			</mesh>
		</geometry>
	</library_geometries>
	<library_visual_scenes>
		<visual_scene id="VisualSceneNode" name="base1d_med">
			<node id="base_link.dae" name="base_link.dae">
				<instance_geometry url="#base2_M1KShape0">
					<bind_material>
						<technique_common>
							<instance_material symbol="blinn20.material" target="#blinn20.material"/>
						</technique_common>
					</bind_material>
				</instance_geometry>
				<instance_geometry url="#base2_M1KShape1">
					<bind_material>
						<technique_common>
							<instance_material symbol="blinn21.material" target="#blinn21.material"/>
						</technique_common>
					</bind_material>
				</instance_geometry>
				<instance_geometry url="#base2_M1KShape2">
					<bind_material>
						<technique_common>
							<instance_material symbol="blinn22.material" target="#blinn22.material"/>
						</technique_common>
					</bind_material>
				</instance_geometry>
				<instance_geometry url="#base2_M1KShape3">
					<bind_material>
						<technique_common>
							<instance_material symbol="blinn23.material" target="#blinn23.material"/>
						</technique_common>
					</bind_material>
				</instance_geometry>
				<instance_geometry url="#base2_M1KShape4">
					<bind_material>
						<technique_common>
							<instance_material symbol="blinn24.material" target="#blinn24.material"/>
						</technique_common>
					</bind_material>
				</instance_geometry>
				<instance_geometry url="#base2_M1KShape5">
					<bind_material>
						<technique_common>
							<instance_material symbol="blinn25.material" target="#blinn25.material"/>
						</technique_common>
					</bind_material>
				</instance_geometry>
			</node>
		</visual_scene>
	</library_visual_scenes>
	<scene>
		<instance_visual_scene url="#VisualSceneNode"/>
	</scene>
</COLLADA>
