<?xml version="1.0" encoding="UTF-8"?>
<COLLADA xmlns="http://www.collada.org/2005/11/COLLADASchema" version="1.4.1">
	<asset>
		<contributor>
			<author>DENSO WAVE</author>
		</contributor>
		<unit/>
		<up_axis>Y_UP</up_axis>
	</asset>
	<library_materials>
		<material id="blinn20.material" name="blinn20">
			<instance_effect url="#blinn20.effect"/>
		</material>
	</library_materials>
	<library_effects>
		<effect id="blinn20.effect">
			<profile_COMMON>
				<technique sid="common">
					<phong>
						<emission>
							<color>0.04 0.04 0.04 1</color>
						</emission>
						<diffuse>
							<color>1 1 1 1</color>
						</diffuse>
						<specular>
							<color>0.2 0.2 0.2 1</color>
						</specular>
					</phong>
				</technique>
			</profile_COMMON>
		</effect>
	</library_effects>
	<library_geometries>
		<geometry id="base2_M1KShape0" name="base2_M1KShape0">
			<mesh>
				<source id="base2_M1KShape0.positions">
					<float_array id="base2_M1KShape0.positions-array" count="513">-0.0670617 -0.0472882 0.0299113 -0.0635032 -0.0535555 0.130091 -0.0600372 -0.0554404 0.041144 -0.0740413 -0.0361249 0.000598073 -0.0721291 -0.0382649 0.196483 -0.0629511 -0.0514729 0.1965 -0.0721291 -0.0382649 0.196483 -0.0747509 -0.00997151 0.117628 -0.0735825 -0.0153086 0.1965 -0.0736572 0.0397891 0.0565181 -0.0734754 0.0189048 0.196497 -0.0749461 -0.000643181 -0.00284028 -0.0709304 0.0451439 0.196499 -0.0736304 0.038186 0.00101072 -0.0740413 -0.0361249 0.000598073 -0.0511766 -0.0585 -0.051399 -0.0673268 -0.0584781 -0.0275652 -0.0281723 -0.0584985 -0.0671352 0.0473049 -0.0584907 0.0560685 0 -0.0585 -0.07253 -0.0235327 -0.0585098 0.0691883 0.0278335 -0.0584967 -0.0672024 0.0511766 -0.0585 -0.051399 0.0672422 -0.0584925 -0.0279278 0.072614 -0.0584985 -2.98023e-05 0.0670644 -0.0585 0.027626 -0.0649278 -0.0584898 0.0353442 -0.0725303 -0.0585 0 0.0424182 -0.00320556 0.146431 0.0396406 -0.0375283 0.156135 0.038172 0.00658268 0.196499 0.055828 -0.0364985 0.0717771 0.0607464 -0.00261469 0.0598776 0.072769 -0.0335087 0.0169548 0.0694024 0.0354116 0.0271366 0.0547281 0.039608 0.0751383 0.0505101 0.000923537 0.100877 0.0464417 -0.0372101 0.112935 0.0447479 0.0418183 0.120597 0.0397204 0.0201287 0.166814 0.0363829 -0.0381129 0.196503 0.0753126 -0.00365328 -0.00194192 0.073727 0.038164 0.000453532 0.0393141 0.0435182 0.152229 0.0356378 0.0429561 0.1965 -0.0709304 0.0451439 0.196499 -0.0736572 0.0397891 0.0565181 -0.0634109 0.0562169 0.141135 -0.0669838 0.0471482 0.0287981 -0.0736304 0.038186 0.00101072 -0.0629512 0.0565875 0.1965 -0.0592051 0.0545772 0.0427854 0.0396406 -0.0375283 0.156135 0.0299002 -0.0557235 0.119891 0.0363829 -0.0381129 0.196503 0.0250353 -0.0528956 0.1965 0.0464417 -0.0372101 0.112935 0.05159 -0.0452396 0.0530655 0.0380238 -0.0566653 0.0619304 0.055828 -0.0364985 0.0717771 0.0685279 -0.0376861 0.0283282 0.072769 -0.0335087 0.0169548 -0.0189841 -0.053946 0.1965 -0.0629511 -0.0514729 0.1965 -0.0721291 -0.0382649 0.196483 -0.0189811 0.0589508 0.1965 0.0250353 -0.0528956 0.1965 -0.0629512 0.0565875 0.1965 0.0363829 -0.0381129 0.196503 0.038172 0.00658268 0.196499 0.0356378 0.0429561 0.1965 0.0254713 0.0577565 0.196506 -0.0709304 0.0451439 0.196499 -0.0734754 0.0189048 0.196497 -0.0735825 -0.0153086 0.1965 0.0385095 0.0559172 0.0609143 0.0286426 0.0578681 0.13299 0.0094929 0.0577604 0.0719243 -0.0251902 0.0578491 0.0679329 -0.0634109 0.0562169 0.141135 -0.0629512 0.0565875 0.1965 -0.0189811 0.0589508 0.1965 0.0254713 0.0577565 0.196506 -0.0592051 0.0545772 0.0427854 0.072614 -0.0584985 -2.98023e-05 0.0685279 -0.0376861 0.0283282 0.074382 -0.0292761 0 0.0672422 -0.0584925 -0.0279278 0.0690242 -0.00273887 -0.0310007 0.0526018 -0.0191283 -0.0532085 0.0278335 -0.0584967 -0.0672024 0.0305654 -0.00530955 -0.0690235 3.33823e-05 0.00091206 -0.0754466 0 -0.0585 -0.07253 0.0274369 0.00321754 -0.0703091 0.0527379 0.0152763 -0.0532053 0.0670644 -0.0585 0.027626 0.05159 -0.0452396 0.0530655 0.0473049 -0.0584907 0.0560685 0.0511766 -0.0585 -0.051399 0.0380238 -0.0566653 0.0619304 -0.0235327 -0.0585098 0.0691883 0.00120294 -0.0582671 0.0750895 0.0690525 0.0165911 -0.0290644 -0.043132 0.0584946 0.057687 0.027235 0.0584979 -0.0665746 0.0147498 0.0584967 0.0721617 1.57803e-05 0.0584987 -0.071732 0.0507003 0.0585001 0.0504529 0.0661667 0.0584996 0.0273715 0.0716137 0.0584995 1.81794e-05 0.0661161 0.0584994 -0.0274386 0.0504577 0.0584953 -0.0508184 -0.0273397 0.0584917 -0.0665261 -0.050504 0.0585 -0.0506809 -0.0661612 0.0584996 -0.0273989 -0.0716134 0.0584995 -1.8239e-05 -0.0663073 0.0584531 0.0264615 0.0254713 0.0577565 0.196506 0.0393141 0.0435182 0.152229 0.0356378 0.0429561 0.1965 0.0547281 0.039608 0.0751383 0.0447479 0.0418183 0.120597 0.0523002 0.0456869 0.0507471 0.0694024 0.0354116 0.0271366 0.0385095 0.0559172 0.0609143 0.0286426 0.0578681 0.13299 -0.0273397 0.0584917 -0.0665261 -0.0528744 0.0195913 -0.0528801 -0.0274571 0.00325412 -0.0702525 -0.0692511 0.0151318 -0.0286461 -0.0661612 0.0584996 -0.0273989 -0.0716134 0.0584995 -1.8239e-05 -0.0669838 0.0471482 0.0287981 -0.050504 0.0585 -0.0506809 -0.0663073 0.0584531 0.0264615 -0.0592051 0.0545772 0.0427854 -0.043132 0.0584946 0.057687 -0.0251902 0.0578491 0.0679329 0.0147498 0.0584967 0.0721617 0.0094929 0.0577604 0.0719243 1.57803e-05 0.0584987 -0.071732 -0.0309561 -0.0054944 -0.06893 -0.0690833 -0.00496955 -0.0304684 0.027235 0.0584979 -0.0665746 0.0661667 0.0584996 0.0273715 0.0523002 0.0456869 0.0507471 0.0716137 0.0584995 1.81794e-05 0.0504577 0.0584953 -0.0508184 0.0507003 0.0585001 0.0504529 0.0661161 0.0584994 -0.0274386 0.0385095 0.0559172 0.0609143 -0.0725303 -0.0585 0 -0.0649278 -0.0584898 0.0353442 -0.0529715 -0.0191212 -0.0528399 -0.0281723 -0.0584985 -0.0671352 -0.0673268 -0.0584781 -0.0275652 -0.0363532 -0.0572137 0.0640781 -0.0600372 -0.0554404 0.041144 -0.0670617 -0.0472882 0.0299113 -0.0511766 -0.0585 -0.051399 0.00120294 -0.0582671 0.0750895 0.0299002 -0.0557235 0.119891 0.0380238 -0.0566653 0.0619304 0.0250353 -0.0528956 0.1965 -0.0635032 -0.0535555 0.130091 -0.0398573 -0.0558044 0.120109 -0.0600372 -0.0554404 0.041144 -0.0363532 -0.0572137 0.0640781 -0.0189841 -0.053946 0.1965 -0.0629511 -0.0514729 0.1965</float_array>
					<technique_common>
						<accessor count="171" source="#base2_M1KShape0.positions-array" stride="3">
							<param name="X" type="float"/>
							<param name="Y" type="float"/>
							<param name="Z" type="float"/>
						</accessor>
					</technique_common>
				</source>
				<source id="base2_M1KShape0.normals">
					<float_array id="base2_M1KShape0.normals-array" count="513">-0.800203 -0.599471 -0.017598 -0.753092 -0.65791 0.002764 -0.70271 -0.711116 -0.022636 -0.881301 -0.472541 -0.003644 -0.937647 -0.347095 0.0185 -0.7099 -0.703557 0.032406 -0.992763 -0.119463 0.012291 -0.999817 -0.018278 0.005701 -0.999515 -0.026232 0.016788 -0.996507 0.083457 0.002928 -0.999055 0.040301 0.016288 -0.999943 -0.001232 -0.010582 -0.985754 0.166524 0.023619 -0.99709 0.075992 0.006076 -0.998097 -0.061067 0.008593 -0 -1 0 -0 -1 0 -0 -1 0 -0 -1 0 -0 -1 0 -0 -1 0 -0 -1 0 -0 -1 0 -0 -1 0 -0 -1 0 -0 -1 0 -0 -1 0 -0 -1 0 0.990992 -0.003747 0.133872 0.988773 -0.095044 0.115305 0.999121 0.017303 0.038179 0.963659 -0.073502 0.256826 0.962419 -0.005763 0.271509 0.963035 -0.063645 0.261751 0.94603 0.070562 0.316306 0.96492 0.084729 0.248495 0.977531 0.001144 0.210787 0.978174 -0.078189 0.192516 0.978506 0.098728 0.181048 0.994866 0.037036 0.094181 0.993157 -0.109301 0.041138 0.999715 -0.006302 -0.023021 0.997087 0.075922 0.007366 0.984033 0.126469 0.125238 0.987917 0.148543 0.044211 -0.926828 0.375087 0.017321 -0.847857 0.530066 -0.012961 -0.728599 0.68466 -0.01961 -0.726836 0.685713 -0.03883 -0.792291 0.609504 -0.027918 -0.715447 0.698661 0.002796 -0.636342 0.7698 -0.049767 0.860543 -0.499751 0.098564 0.761851 -0.640103 0.099258 0.887789 -0.458872 0.035583 0.696449 -0.715234 0.058296 0.791492 -0.592118 0.15145 0.6771 -0.717682 0.162688 0.692577 -0.711875 0.116494 0.71072 -0.67778 0.18839 0.63103 -0.749406 0.200478 0.644466 -0.757467 0.104439 0 -0 1 0 -0 1 0 -0 1 0 -0 1 0 -0 1 0 -0 1 0 -0 1 0 -0 1 0 -0 1 0 -0 1 0 -0 1 0 -0 1 0 -0 1 0.073643 0.997087 -0.019849 0.065156 0.997856 -0.006245 0.025 0.999472 -0.020764 -0.035136 0.999074 -0.024818 -0.097582 0.995152 -0.0123 -0.09364 0.995606 -0.001052 -0.013666 0.999903 0.002557 0.067042 0.997726 0.006896 -0.095459 0.994929 -0.031699 0.996441 -0.084286 -0.001294 0.921084 -0.055716 0.385358 0.99911 -0.042179 -0 0.92016 -0.08427 -0.382367 0.91211 -0.003715 -0.40993 0.703439 -0.027658 -0.710217 0.380778 -0.084266 -0.920819 0.404876 -0.007603 -0.91434 0.00039 0.000873 -1 -0 -0.084285 -0.996442 0.36337 0.006207 -0.931624 0.703643 0.028676 -0.709975 0.921281 -0.084287 0.379655 0.695951 -0.064792 0.715161 0.641491 -0.083018 0.762625 0.703021 -0.084287 -0.706157 0.521112 -0.08162 0.849576 -0.317106 -0.084496 0.944619 0.015835 -0.081758 0.996526 0.921087 0.030573 -0.388154 0 1 -0 0 1 -0 0 1 -0 0 1 -0 0 1 -0 0 1 -0 0 1 -0 0 1 -0 0 1 -0 0 1 -0 0 1 -0 0 1 -0 0 1 -0 0 1 -0 0.718637 0.695169 0.017356 0.831645 0.548458 0.086956 0.911507 0.408986 0.043424 0.661861 0.738313 0.129744 0.75785 0.642277 0.114642 0.626057 0.771605 0.112601 0.598434 0.789023 0.138993 0.647407 0.757845 0.080842 0.716508 0.695045 0.059407 -0.376442 0.123143 -0.91822 -0.706765 0.033917 -0.706635 -0.363789 0.006537 -0.931459 -0.923413 0.0279 -0.382792 -0.916421 0.125293 -0.380098 -0.992168 0.124907 -0.000297 -0.914648 0.093372 0.393319 -0.699577 0.131911 -0.702276 -0.920851 0.130005 0.367602 -0.804343 0.108536 0.584168 -0.593118 0.135047 0.793709 -0.346123 0.130163 0.929116 0.198244 0.131575 0.971281 0.129724 0.12886 0.983141 0.000555 0.123032 -0.992403 -0.409875 -0.007881 -0.912108 -0.914745 -0.006788 -0.403975 0.375336 0.122569 -0.918749 0.916536 0.12646 0.379434 0.714659 0.090707 0.693567 0.992231 0.124407 0.000107 0.698953 0.124368 -0.704271 0.703163 0.128876 0.699252 0.916145 0.126624 -0.380321 0.531276 0.11573 0.839257 -0.996442 -0.084285 0 -0.875384 -0.082601 0.476319 -0.706953 -0.027647 -0.70672 -0.385905 -0.084276 -0.918681 -0.922061 -0.083645 -0.377899 -0.492627 -0.081051 0.866458 -0.822345 -0.079878 0.563354 -0.911173 -0.068066 0.406362 -0.703021 -0.084287 -0.706157 0.008538 -0.999799 0.018166 0.063386 -0.99749 0.031562 0.070667 -0.997315 0.019197 0.063757 -0.996774 0.048752 -0.100812 -0.994567 0.025942 -0.05952 -0.997912 0.025092 -0.099306 -0.995036 0.006388 -0.057275 -0.998274 0.012964 -0.016138 -0.998874 0.044604 -0.096054 -0.994536 0.040887</float_array>
					<technique_common>
						<accessor count="171" source="#base2_M1KShape0.normals-array" stride="3">
							<param name="X" type="float"/>
							<param name="Y" type="float"/>
							<param name="Z" type="float"/>
						</accessor>
					</technique_common>
				</source>
				<vertices id="base2_M1KShape0.vertices">
					<input semantic="POSITION" source="#base2_M1KShape0.positions"/>
				</vertices>
				<triangles count="178" material="blinn20.material">
					<input offset="0" semantic="VERTEX" source="#base2_M1KShape0.vertices" set="0"/>
					<input offset="1" semantic="NORMAL" source="#base2_M1KShape0.normals" set="0"/>
					<p>0 0 2 2 1 1 0 0 1 1 3 3 4 4 3 3 1 1 5 5 4 4 1 1 6 6 8 8 7 7 9 9 7 7 10 10 7 7 9 9 11 11 8 8 10 10 7 7 12 12 9 9 10 10 13 13 11 11 9 9 14 14 7 7 11 11 14 14 6 6 7 7 15 15 17 17 16 16 17 17 19 19 18 18 18 18 20 20 17 17 19 19 21 21 18 18 21 21 22 22 18 18 22 22 23 23 18 18 23 23 24 24 18 18 24 24 25 25 18 18 20 20 26 26 17 17 26 26 27 27 17 17 27 27 16 16 17 17 28 28 30 30 29 29 31 31 33 33 32 32 34 34 32 32 33 33 32 32 34 34 35 35 32 32 36 36 31 31 35 35 36 36 32 32 37 37 31 31 36 36 35 35 38 38 36 36 36 36 28 28 37 37 28 28 36 36 38 38 38 38 39 39 28 28 30 30 28 28 39 39 40 40 29 29 30 30 37 37 28 28 29 29 34 34 33 33 41 41 41 41 42 42 34 34 39 39 38 38 43 43 44 44 30 30 39 39 44 44 39 39 43 43 45 45 47 47 46 46 48 48 49 49 47 47 50 50 47 47 45 45 48 48 47 47 51 51 49 49 46 46 47 47 52 52 54 54 53 53 55 55 53 53 54 54 52 52 53 53 56 56 56 56 53 53 57 57 58 58 57 57 53 53 57 57 59 59 56 56 59 59 57 57 60 60 60 60 61 61 59 59 62 62 64 64 63 63 62 62 66 66 65 65 65 65 67 67 62 62 68 68 69 69 66 66 65 65 66 66 69 69 69 69 70 70 65 65 65 65 70 70 71 71 67 67 72 72 62 62 72 72 73 73 62 62 73 73 74 74 62 62 74 74 64 64 62 62 75 75 77 77 76 76 76 76 77 77 78 78 79 79 80 80 78 78 78 78 81 81 76 76 80 80 81 81 78 78 82 82 76 76 81 81 78 78 83 83 79 79 84 84 86 86 85 85 86 86 84 84 87 87 87 87 88 88 86 86 41 41 86 86 88 88 88 88 87 87 89 89 90 90 91 91 89 89 90 90 92 92 91 91 93 93 92 92 90 90 92 92 94 94 91 91 95 95 89 89 91 91 85 85 97 97 96 96 98 98 96 96 97 97 96 96 84 84 85 85 89 89 87 87 99 99 99 99 90 90 89 89 97 97 100 100 98 98 101 101 98 98 102 102 102 102 98 98 100 100 85 85 86 86 33 33 86 86 41 41 33 33 95 95 88 88 89 89 103 103 41 41 88 88 104 104 106 106 105 105 105 105 107 107 104 104 106 106 108 108 105 105 108 108 109 109 105 105 109 109 110 110 105 105 110 110 111 111 105 105 112 112 105 105 111 111 107 107 113 113 104 104 113 113 114 114 104 104 114 114 115 115 104 104 115 115 116 116 104 104 116 116 117 117 104 104 118 118 120 120 119 119 121 121 123 123 122 122 124 124 123 123 121 121 123 123 125 125 122 122 119 119 126 126 118 118 126 126 119 119 122 122 122 122 125 125 126 126 127 127 129 129 128 128 130 130 131 131 128 128 13 13 132 132 130 130 131 131 130 130 132 132 132 132 13 13 133 133 128 128 134 134 127 127 134 134 128 128 131 131 133 133 135 135 132 132 13 13 130 130 11 11 135 135 133 133 136 136 136 136 138 138 137 137 135 135 136 136 137 137 139 139 137 137 138 138 138 138 140 140 139 139 141 141 92 92 127 127 127 127 92 92 129 129 129 129 142 142 128 128 130 130 128 128 143 143 94 94 144 144 95 95 145 145 146 146 34 34 42 42 147 147 34 34 145 145 34 34 147 147 147 147 42 42 103 103 95 95 148 148 103 103 148 148 95 95 144 144 149 149 146 146 145 145 103 103 150 150 147 147 150 150 103 103 148 148 149 149 139 139 151 151 92 92 141 141 144 144 94 94 92 92 144 144 140 140 151 151 139 139 149 149 151 151 146 146 41 41 103 103 42 42 103 103 88 88 95 95 95 95 91 91 94 94 152 152 153 153 14 14 142 142 155 155 154 154 156 156 143 143 154 154 143 143 156 156 14 14 129 129 92 92 142 142 157 157 158 158 153 153 159 159 153 153 158 158 153 153 159 159 14 14 130 130 143 143 11 11 143 143 14 14 11 11 102 102 157 157 101 101 101 101 157 157 153 153 155 155 142 142 92 92 93 93 155 155 92 92 154 154 155 155 160 160 160 160 156 156 154 154 14 14 156 156 152 152 128 128 154 154 143 143 128 128 142 142 154 154 161 161 163 163 162 162 162 162 164 164 161 161 165 165 167 167 166 166 166 166 168 168 161 161 167 167 168 168 166 166 161 161 169 169 166 166 164 164 169 169 161 161 165 165 166 166 170 170 170 170 166 166 169 169</p>
				</triangles>
			</mesh>
		</geometry>
	</library_geometries>
	<library_visual_scenes>
		<visual_scene id="VisualSceneNode" name="base1d_med">
			<node id="J3.dae" name="J3.dae">
				<instance_geometry url="#base2_M1KShape0">
					<bind_material>
						<technique_common>
							<instance_material symbol="blinn20.material" target="#blinn20.material"/>
						</technique_common>
					</bind_material>
				</instance_geometry>
			</node>
		</visual_scene>
	</library_visual_scenes>
	<scene>
		<instance_visual_scene url="#VisualSceneNode"/>
	</scene>
</COLLADA>
