<?xml version="1.0" encoding="UTF-8"?>
<COLLADA xmlns="http://www.collada.org/2005/11/COLLADASchema" version="1.4.1">
	<asset>
		<contributor>
			<author>DENSO WAVE</author>
		</contributor>
		<unit/>
		<up_axis>Y_UP</up_axis>
	</asset>
	<library_materials>
		<material id="blinn20.material" name="blinn20">
			<instance_effect url="#blinn20.effect"/>
		</material>
		<material id="blinn21.material" name="blinn21">
			<instance_effect url="#blinn21.effect"/>
		</material>
		<material id="blinn22.material" name="blinn22">
			<instance_effect url="#blinn22.effect"/>
		</material>
		<material id="blinn23.material" name="blinn23">
			<instance_effect url="#blinn23.effect"/>
		</material>
		<material id="blinn24.material" name="blinn24">
			<instance_effect url="#blinn24.effect"/>
		</material>
		<material id="blinn25.material" name="blinn25">
			<instance_effect url="#blinn25.effect"/>
		</material>
	</library_materials>
	<library_effects>
		<effect id="blinn20.effect">
			<profile_COMMON>
				<technique sid="common">
					<phong>
						<emission>
							<color>0.04 0.04 0.04 1</color>
						</emission>
						<diffuse>
							<color>0 0 1 1</color>
						</diffuse>
						<specular>
							<color>0.2 0.2 0.2 1</color>
						</specular>
					</phong>
				</technique>
			</profile_COMMON>
		</effect>
		<effect id="blinn21.effect">
			<profile_COMMON>
				<technique sid="common">
					<phong>
						<emission>
							<color>0.04 0.04 0.04 1</color>
						</emission>
						<diffuse>
							<color>0 0 1 1</color>
						</diffuse>
						<specular>
							<color>0.2 0.2 0.2 1</color>
						</specular>
					</phong>
				</technique>
			</profile_COMMON>
		</effect>
		<effect id="blinn22.effect">
			<profile_COMMON>
				<technique sid="common">
					<phong>
						<emission>
							<color>0.04 0.04 0.04 1</color>
						</emission>
						<diffuse>
							<color>1 1 1 1</color>
						</diffuse>
						<specular>
							<color>0.2 0.2 0.2 1</color>
						</specular>
					</phong>
				</technique>
			</profile_COMMON>
		</effect>
		<effect id="blinn23.effect">
			<profile_COMMON>
				<technique sid="common">
					<phong>
						<emission>
							<color>0.04 0.04 0.04 1</color>
						</emission>
						<diffuse>
							<color>0.501961 0.501961 0.501961 1</color>
						</diffuse>
						<specular>
							<color>0.2 0.2 0.2 1</color>
						</specular>
					</phong>
				</technique>
			</profile_COMMON>
		</effect>
		<effect id="blinn24.effect">
			<profile_COMMON>
				<technique sid="common">
					<phong>
						<emission>
							<color>0.04 0.04 0.04 1</color>
						</emission>
						<diffuse>
							<color>0.5 0.5 0.5 1</color>
						</diffuse>
						<specular>
							<color>0.2 0.2 0.2 1</color>
						</specular>
					</phong>
				</technique>
			</profile_COMMON>
		</effect>
		<effect id="blinn25.effect">
			<profile_COMMON>
				<technique sid="common">
					<phong>
						<emission>
							<color>0.04 0.04 0.04 1</color>
						</emission>
						<diffuse>
							<color>0 0 1 1</color>
						</diffuse>
						<specular>
							<color>0.2 0.2 0.2 1</color>
						</specular>
					</phong>
				</technique>
			</profile_COMMON>
		</effect>
	</library_effects>
	<library_geometries>
		<geometry id="base2_M1KShape0" name="base2_M1KShape0">
			<mesh>
				<source id="base2_M1KShape0.positions">
					<float_array id="base2_M1KShape0.positions-array" count="120">-0.102555 -0.000308182 0.132159 -0.0995872 0.000145862 0.138311 -0.096245 -0.0305333 0.1336 -0.0998424 -0.0255797 0.130691 -0.099259 0.0264009 0.130667 -0.0964515 0.0304656 0.133386 -0.0913863 -0.0363636 0.135476 -0.0746371 -0.066553 0.122926 -0.0969696 -6.25e-07 0.13966 -0.0913867 0.0363627 0.135476 -0.0746371 0.066553 0.122926 -0.091197 -0.0501479 0.12624 -0.0911883 0.0501571 0.126237 -0.0746828 0.0665109 0.023687 -0.0785502 0.0629024 0.0225427 -0.0993481 0.0563898 0.0195569 -0.0868557 0.0583176 0.0222306 -0.0929522 0.0566289 0.119654 -0.0822487 0.0601509 0.119404 -0.100323 -0.0564497 0.00297704 -0.140008 -0.054974 0.00303133 -0.0993611 -0.056389 0.0195532 -0.142293 -0.0549057 0.115043 -0.0929523 -0.0566288 0.119655 -0.127884 0.000573979 0.125828 -0.102555 -0.000308182 0.132159 -0.0998424 -0.0255797 0.130691 -0.120423 -0.0245066 0.126601 -0.12018 0.024463 0.126651 -0.099259 0.0264009 0.130667 -0.142277 -0.0490844 0.122473 -0.142281 0.0490879 0.122471 -0.142293 -0.0549057 0.115043 -0.0868558 -0.0583176 0.0222306 -0.0746357 -0.0665546 0.0236703 -0.0785501 -0.0629024 0.0225427 -0.0819885 -0.0602833 0.119201 -0.142283 0.0549064 0.115043 -0.140008 0.0549732 0.0030305 -0.0994213 0.0565663 0.00291504</float_array>
					<technique_common>
						<accessor count="40" source="#base2_M1KShape0.positions-array" stride="3">
							<param name="X" type="float"/>
							<param name="Y" type="float"/>
							<param name="Z" type="float"/>
						</accessor>
					</technique_common>
				</source>
				<source id="base2_M1KShape0.normals">
					<float_array id="base2_M1KShape0.normals-array" count="120">-0.622085 0.022848 0.782616 -0.882453 0.002911 0.470392 -0.904047 -0.321249 0.281954 -0.410186 -0.188302 0.892351 -0.586835 0.254931 0.768528 -0.895114 0.330386 0.29936 0.172593 -0.180009 0.968405 -0.746138 -0.665792 0 0.271827 -3e-06 0.962346 0.172605 0.179999 0.968405 -0.746138 0.665792 0 -0.070571 -0.300154 0.951277 -0.070616 0.302499 0.95053 -0.746028 0.665915 -4e-06 -0.622588 0.775258 0.10658 -0.048819 0.998487 0.025326 -0.34264 0.938464 0.043401 -0.075117 0.995656 0.055018 -0.489592 0.87194 0.004555 -0.162586 -0.986692 0.002264 -0.046948 -0.998897 -1e-06 -0.049485 -0.99844 0.025857 -0.048014 -0.998667 0.018944 -0.076796 -0.99552 0.055164 -0.252562 0.001005 0.96758 -0.238611 0.002338 0.971112 -0.190749 -0.154903 0.96934 -0.198148 -0.075303 0.977275 -0.191319 0.074981 0.97866 -0.184638 0.163996 0.969028 0.026346 -0.115156 0.992998 0.026397 0.11467 0.993053 -0.002747 -0.995354 0.096247 -0.34281 -0.938402 0.043396 -0.746148 -0.66578 -1.2e-05 -0.619041 -0.778256 0.105384 -0.497464 -0.867482 0.001952 -0.04679 0.998733 0.018499 -0.046922 0.998899 -2e-06 -0.725159 0.683494 -0.083551</float_array>
					<technique_common>
						<accessor count="40" source="#base2_M1KShape0.normals-array" stride="3">
							<param name="X" type="float"/>
							<param name="Y" type="float"/>
							<param name="Z" type="float"/>
						</accessor>
					</technique_common>
				</source>
				<vertices id="base2_M1KShape0.vertices">
					<input semantic="POSITION" source="#base2_M1KShape0.positions"/>
				</vertices>
				<triangles count="49" material="blinn20.material">
					<input offset="0" semantic="VERTEX" source="#base2_M1KShape0.vertices" set="0"/>
					<input offset="1" semantic="NORMAL" source="#base2_M1KShape0.normals" set="0"/>
					<p>0 0 2 2 1 1 3 3 2 2 0 0 4 4 1 1 5 5 0 0 1 1 4 4 6 6 2 2 7 7 8 8 2 2 6 6 1 1 2 2 8 8 9 9 1 1 8 8 5 5 1 1 9 9 10 10 5 5 9 9 11 11 7 7 2 2 3 3 11 11 2 2 12 12 5 5 10 10 5 5 12 12 4 4 13 13 14 14 10 10 15 15 17 17 16 16 16 16 18 18 14 14 18 18 16 16 17 17 10 10 14 14 18 18 19 19 21 21 20 20 22 22 20 20 21 21 23 23 22 22 21 21 24 24 26 26 25 25 27 27 26 26 24 24 28 28 25 25 29 29 24 24 25 25 28 28 24 24 30 30 27 27 31 31 30 30 24 24 27 27 11 11 26 26 30 30 11 11 27 27 28 28 29 29 12 12 31 31 28 28 12 12 28 28 31 31 24 24 30 30 32 32 23 23 30 30 23 23 11 11 21 21 33 33 23 23 34 34 7 7 35 35 7 7 36 36 35 35 33 33 35 35 36 36 36 36 23 23 33 33 12 12 10 10 18 18 17 17 12 12 18 18 17 17 37 37 31 31 17 17 31 31 12 12 23 23 36 36 11 11 7 7 11 11 36 36 37 37 15 15 38 38 39 39 38 38 15 15 17 17 15 15 37 37</p>
				</triangles>
			</mesh>
		</geometry>
		<geometry id="base2_M1KShape1" name="base2_M1KShape1">
			<mesh>
				<source id="base2_M1KShape1.positions">
					<float_array id="base2_M1KShape1.positions-array" count="1008">-0.11473 0.0110735 0.191477 -0.112908 0.0112329 0.185515 -0.111512 0.0119069 0.192023 -0.10677 0.0138604 0.185973 -0.108825 0.0136791 0.192503 -0.109837 0.0120472 0.186408 -0.10445 0.0161634 0.184718 -0.106846 0.0161925 0.192873 -0.105484 0.0194484 0.192299 0.00973113 -0.0230354 0.185 0.00973113 -0.0230354 0.203 0 -0.025 0.203 0 -0.025 0.185 0.0176777 -0.0176777 0.185 0.0176777 -0.0176777 0.203 0.0230354 -0.00973113 0.185 0.0230354 -0.00973113 0.203 0.025 -0 0.185 0.025 0 0.203 0.0230354 0.00973113 0.185 0.0230354 0.00973113 0.203 0.0176777 0.0176777 0.185 0.0176777 0.0176777 0.203 0.00973113 0.0230354 0.185 0.00973113 0.0230354 0.203 0 0.025 0.185 0 0.025 0.203 -0.0176777 -0.0176777 0.185 -0.0230354 -0.00973113 0.185 -0.00973113 -0.0230354 0.185 0.00973113 0.0230354 0.185 0 -0.025 0.185 0 0.025 0.185 0.00973113 -0.0230354 0.185 0.0176777 -0.0176777 0.185 0.0230354 -0.00973113 0.185 0.025 -0 0.185 0.0230354 0.00973113 0.185 0.0176777 0.0176777 0.185 -0.00973113 0.0230354 0.185 -0.0176777 0.0176777 0.185 -0.0230354 0.00973113 0.185 -0.025 0 0.185 -0.00973113 0.0230354 0.185 -0.00973113 0.0230354 0.203 -0.0176777 0.0176777 0.185 -0.0176777 0.0176777 0.203 -0.0230354 0.00973113 0.185 -0.0230354 0.00973113 0.203 -0.025 0 0.185 -0.025 -0 0.203 -0.0230354 -0.00973113 0.185 -0.0230354 -0.00973113 0.203 -0.0176777 -0.0176777 0.185 -0.0176777 -0.0176777 0.203 -0.00973113 -0.0230354 0.185 -0.00973113 -0.0230354 0.203 -0 -0.025 0.185 -0.11037 0.0106353 0.1823 -0.108408 0.0120683 0.184009 -0.102421 0.0172578 0.179051 -0.105306 0.0130047 0.181378 -0.10677 0.0138604 0.185973 -0.110499 -0.00884487 0.180683 -0.11037 -0.0106353 0.1823 -0.107222 -0.00932329 0.179725 -0.104963 -0.0081674 0.177268 -0.110402 -0.00650901 0.180073 -0.102421 -0.0172574 0.179052 -0.10185 -0.0128874 0.173299 -0.10321 -0.013423 0.178055 -0.104885 -0.0112757 0.178958 -0.103017 -0.0100141 0.175352 -0.102157 -0.00796947 0.171893 -0.105306 -0.0130047 0.181378 -0.107388 -0.0107652 0.180926 -0.110402 0.00650901 0.180073 -0.119788 -0.00554524 0.181726 -0.122968 6.7709e-05 0.182289 -0.119685 0.0055574 0.181703 -0.105658 -0.0195221 0.193743 -0.105488 -0.019436 0.192299 -0.106846 -0.0161929 0.192874 -0.11473 -0.0110735 0.191477 -0.111513 -0.011907 0.192028 -0.112908 -0.0112329 0.185515 -0.108826 -0.0136795 0.192507 -0.10923 -0.0121214 0.185198 -0.106703 -0.0138682 0.185674 -0.104284 -0.0162287 0.184232 -0.106703 -0.0138682 0.185674 -0.117518 -0.00938633 0.182788 -0.117038 -0.0108716 0.186244 0 0.1 0.0193338 0 0.1 0.143 -0.0181114 0.0983917 0.0231338 0 -0.1 0.0193338 -0.0181109 -0.0983917 0.0231337 -0 -0.1 0.143 -0.0482844 -0.0875707 0.0244335 -0.0389245 -0.0921415 0.143 -0.0317296 -0.0948327 0.0244335 -0.0746371 -0.066553 0.122926 -0.0707107 -0.0707107 0.143 -0.0746357 -0.0665546 0.0236703 -0.0913887 -0.0363623 0.135478 -0.0708084 -0.0706986 0.0222443 -0.0667793 -0.0744347 0.0235519 -0.0632613 -0.0774468 0.0244335 -0.0921415 -0.0389245 0.143 -0.0969728 -6.25e-07 0.139662 -0.1 0 0.143 -0.0913891 0.0363614 0.135478 -0.0921415 0.0389245 0.143 -0.0746371 0.066553 0.122926 -0.0707107 0.0707107 0.143 -0.0482844 0.0875707 0.0244335 -0.0389245 0.0921415 0.143 -0.0632613 0.0774468 0.0244335 -0.0317296 0.0948327 0.0244335 -0.0667793 0.0744347 0.0235519 -0.0708089 0.0706981 0.0222444 -0.0746828 0.0665109 0.023687 0.0181114 -0.0983917 0.0231338 0.0181113 0.0983917 0.0231338 0.0482844 0.0875707 0.0244335 0.0389245 0.0921415 0.143 0.0317296 0.0948327 0.0244335 0.0707107 0.0707107 0.143 0.0744347 0.0667793 0.0235519 0.0875707 0.0482844 0.0244335 0.0921415 0.0389245 0.143 0.0707121 0.0707943 0.0222329 0.0670667 0.0742332 0.022642 0.0632613 0.0774468 0.0244335 0.0983917 0.0181114 0.0231338 0.1 -0 0.143 0.0774468 0.0632613 0.0244335 0.0948327 0.0317296 0.0244335 0.0921415 -0.0389245 0.143 0.0948327 -0.0317296 0.0244335 0.1 0 0.0193338 0.0707934 -0.070713 0.0222325 0.0707107 -0.0707107 0.143 0.0743003 -0.0669344 0.0227555 0.0983917 -0.0181113 0.0231338 0.0482844 -0.0875707 0.0244335 0.0389245 -0.0921415 0.143 0.0632613 -0.0774468 0.0244335 0.0774468 -0.0632613 0.0244335 0.0875707 -0.0482844 0.0244335 0.0317296 -0.0948327 0.0244335 0.0667793 -0.0744347 0.0235519 -0.0390898 -0.0925682 0.155476 -0.0710274 -0.0710407 0.155476 -0.0370198 0.100711 0.192298 -0.0405133 0.0959389 0.180224 -1e-09 0.107286 0.192298 -0.0736137 -0.0736275 0.180224 -0.0405132 -0.095939 0.180224 -0.071999 -0.0720125 0.167917 -0.0396246 -0.0938346 0.167917 -0.0959314 -0.0405312 0.180224 -0.0938271 -0.0396422 0.167917 -0.101832 -2.74e-07 0.167917 -0.0938273 0.0396418 0.167917 -0.0959315 0.0405309 0.180224 -0.0736139 0.0736274 0.180224 -0.0719992 0.0720124 0.167917 -0.0396247 0.0938345 0.167917 -0.0925609 -0.0391072 0.155476 -0.100457 -2.7e-07 0.155476 -0.092561 0.0391069 0.155476 -0.0710275 0.0710405 0.155476 -0.0390899 0.0925682 0.155476 -0 0.101831 0.167917 0 -0.101831 0.167917 0 -0.107286 0.192298 -0.0370198 -0.100711 0.192298 -0.0686756 -0.0824256 0.192298 -0.0923746 -0.0545904 0.192298 -0.102157 0.00796624 0.171893 -0.10186 0.0129529 0.173417 -0.0923746 0.0545904 0.192298 -0.0686756 0.0824256 0.192298 0.0720056 -0.0720056 0.167917 0.0710353 -0.0710353 0.1555 0.0391032 -0.0925645 0.1555 0.0396373 -0.0938289 0.167917 0.0938289 -0.0396373 0.167917 0.0925645 -0.0391032 0.1555 0.101831 1e-09 0.167917 0.100459 1e-09 0.1555 0.0938289 0.0396373 0.167917 0.0925645 0.0391032 0.1555 0.0720056 0.0720056 0.167917 0.0710353 0.0710353 0.1555 0.0396373 0.0938289 0.167917 0.0391032 0.0925645 0.1555 0.0736165 -0.0736165 0.180199 0.0405241 -0.095928 0.180199 0.095928 -0.0405241 0.180199 0.104109 1e-09 0.180199 0.095928 0.0405241 0.180199 0.0736165 0.0736165 0.180199 0.0405241 0.095928 0.180199 0 -0.1 0.143 0.0417606 -0.0988549 0.192298 0.0758627 -0.0758627 0.192298 0.0988549 -0.0417606 0.192298 0.107378 -4.592e-06 0.192629 0.0988549 0.0417606 0.192298 0.0758627 0.0758627 0.192298 0.0417606 0.0988549 0.192298 -0.11473 0.0110735 0.203 -0.117038 0.0108716 0.203 -0.117038 0.0108716 0.186244 0.00829342 0.107163 0.192628 -0.0831227 -0.0683407 0.193744 -0.0643856 -0.0861243 0.193402 0.00830228 0.107277 0.193402 -0.0643852 0.0861246 0.193402 -0.0643209 0.086031 0.192628 0.0803595 0.0715131 0.193402 0.0802658 0.0714506 0.192628 0.0803592 -0.0715134 0.193402 0.0802722 -0.0714404 0.192628 0.00832906 -0.107286 0.193403 0.00829301 -0.107163 0.192628 -0.0643173 -0.0860329 0.192628 -0.105705 0.0194409 0.193744 -0.0421197 0.0989046 0.193744 0.1075 2.72e-07 0.193744 0.0592802 0.0896775 0.193744 0.0592807 -0.0896772 0.193744 -0.0421195 -0.0989047 0.193744 -0.117518 0.00938633 0.182788 -0.120254 0.00691365 0.182202 -0.120732 -0.00833158 0.183355 -0.120254 -0.00691365 0.182202 -0.123465 -0.00619929 0.183837 -0.123686 -0.00371144 0.182778 -0.121426 -0.00950388 0.185828 -0.12477 -0.00658939 0.186215 -0.125363 -0.00331393 0.184171 -0.126091 -0.00377253 0.185888 -0.126074 0 0.184296 -0.1247 0 0.182985 -0.126862 0 0.186024 -0.125363 0.00331394 0.184171 -0.123402 0.00418099 0.182736 -0.126091 0.00377254 0.185888 -0.123465 0.0061993 0.183837 -0.124011 0.00700458 0.185522 -0.120732 0.00833159 0.183355 -0.120976 0.009349 0.184987 -0.126705 -0.00252915 0.187167 -0.126796 0.00209316 0.187176 -0.125562 0.00541257 0.187058 -0.123389 0.00810751 0.186851 -0.120481 0.00998989 0.186573 -0.11473 -0.0110735 0.203 -0.117038 -0.0108716 0.203 -0.120973 0.00976064 0.203 -0.124133 0.0073729 0.203 -0.126236 0.00401665 0.203 -0.127 1.49e-07 0.203 -0.124133 -0.00737279 0.203 -0.126236 -0.00401645 0.203 -0.120973 -0.0097606 0.203 -0.104879 0.0113713 0.179055 -0.107388 0.0107678 0.180929 -0.104714 0.0091671 0.177496 -0.103195 0.0131858 0.17783 -0.103017 0.0100201 0.175355 -0.105393 0.00875136 0.177358 -0.104945 0.00743478 0.177233 -0.106873 -0.0161534 0.203 -0.105763 -0.0192452 0.203 -0.108866 -0.0136443 0.203 -0.111549 -0.0118926 0.203 -0.107222 0.00932328 0.179724 -0.110499 0.00884487 0.180683 0.0176777 -0.0176777 0.203 0.0230354 -0.00973113 0.203 0.0592357 -0.0897069 0.203 0.00824749 -0.107293 0.203 0.00973113 -0.0230354 0.203 -0.0422186 -0.0988624 0.203 0 -0.025 0.203 -0.0832072 -0.0682383 0.203 -0.0176777 -0.0176777 0.203 -0.00973113 -0.0230354 0.203 -0.105763 -0.0192452 0.203 -0.0230354 -0.00973113 0.203 -0.111549 0.0118926 0.203 -0.108866 0.0136443 0.203 -0.108866 -0.0136443 0.203 -0.0230354 0.00973113 0.203 -0.025 -0 0.203 -0.105763 0.0192452 0.203 -0.111549 -0.0118926 0.203 -0.106873 -0.0161534 0.203 -0.11473 -0.0110735 0.203 -0.11473 0.0110735 0.203 -0.117038 0.0108716 0.203 -0.120973 0.00976064 0.203 -0.124133 0.0073729 0.203 -0.126236 0.00401665 0.203 -0.127 1.49e-07 0.203 -0.126236 -0.00401645 0.203 -0.124133 -0.00737279 0.203 -0.120973 -0.0097606 0.203 -0.117038 -0.0108716 0.203 -0.0422187 0.0988624 0.203 -0.106873 0.0161534 0.203 -0.0176777 0.0176777 0.203 -0.00973113 0.0230354 0.203 0 0.025 0.203 0.0592354 0.0897071 0.203 0.00973113 0.0230354 0.203 0.0176777 0.0176777 0.203 0.1075 1.73e-07 0.203 0.0230354 0.00973113 0.203 0.025 0 0.203 -0.111549 0.0118926 0.203 -0.108866 0.0136443 0.203 -0.106873 0.0161534 0.203 -0.105763 0.0192452 0.203 -0.0422187 0.0988624 0.203 -0.0832072 -0.0682383 0.203 -0.0422186 -0.0988624 0.203 0.00824749 -0.107293 0.203 0.0592357 -0.0897069 0.203 0.1075 1.73e-07 0.203 0.0592354 0.0897071 0.203</float_array>
					<technique_common>
						<accessor count="336" source="#base2_M1KShape1.positions-array" stride="3">
							<param name="X" type="float"/>
							<param name="Y" type="float"/>
							<param name="Z" type="float"/>
						</accessor>
					</technique_common>
				</source>
				<source id="base2_M1KShape1.normals">
					<float_array id="base2_M1KShape1.normals-array" count="1008">-0.087216 0.996189 -2e-05 -0.087156 0.996195 -0 -0.403667 0.914212 -0.03563 -0.660705 0.7325 -0.164051 -0.671245 0.739183 -0.055125 -0.393871 0.914827 -0.089203 -0.846646 0.473713 -0.242457 -0.867657 0.489268 -0.088246 -0.941181 0.17524 -0.28891 -0.389552 0.921004 -0 -0.389552 0.921004 -0 0 1 0 0 1 0 -0.707107 0.707107 -0 -0.707107 0.707107 -0 -0.921004 0.389552 -0 -0.921004 0.389552 -0 -1 0 0 -1 0 0 -0.921004 -0.389552 0 -0.921004 -0.389552 0 -0.707107 -0.707107 0 -0.707107 -0.707107 0 -0.389552 -0.921004 0 -0.389552 -0.921004 0 0 -1 0 0 -1 0 0 0 1 0 0 1 0 0 1 0 0 1 0 0 1 0 0 1 0 0 1 0 0 1 0 0 1 0 0 1 0 0 1 0 0 1 0 0 1 0 0 1 0 0 1 0 0 1 0.389552 -0.921004 -0 0.389552 -0.921004 -0 0.707107 -0.707107 -0 0.707107 -0.707107 -0 0.921004 -0.389552 -0 0.921004 -0.389552 -0 1 0 0 1 0 0 0.921004 0.389552 0 0.921004 0.389552 0 0.707107 0.707107 0 0.707107 0.707107 0 0.389552 0.921004 0 0.389552 0.921004 0 0 1 0 -0.167313 0.825258 -0.539403 -0.417032 0.860724 -0.291956 -0.964248 0.160474 -0.21089 -0.664609 0.546583 -0.509453 -0.626069 0.73124 -0.270788 -0.183395 -0.467997 -0.864491 -0.167314 -0.825264 -0.539394 -0.428882 -0.499781 -0.752515 -0.707489 -0.109211 -0.698236 -0.173671 1e-06 -0.984804 -0.964231 -0.160529 -0.210922 -0.983571 -0.102966 -0.14828 -0.857203 -0.339839 -0.386926 -0.688931 -0.457811 -0.561946 -0.881352 -0.207875 -0.424271 -0.982509 -0.077052 -0.169526 -0.673737 -0.588311 -0.447179 -0.446057 -0.642807 -0.622762 -0.17367 -3e-06 -0.984804 -0.173656 -0.000888 -0.984806 -0.174625 -0.001495 -0.984634 -0.17511 0.002859 -0.984545 -0.983476 -0.181037 -4.3e-05 -0.941199 -0.175104 -0.288934 -0.867654 -0.488674 -0.091509 -0.087307 -0.996181 -2.4e-05 -0.403774 -0.914566 -0.023152 -0.087096 -0.9962 1.7e-05 -0.670918 -0.7397 -0.052094 -0.400359 -0.906085 -0.136832 -0.658566 -0.732697 -0.1716 -0.85194 -0.458322 -0.253259 -0.635228 -0.723785 -0.269483 -0.183032 -0.699203 -0.691097 -0.087112 -0.996199 0.000252 1.1e-05 1 0 1.1e-05 1 0 -0.179906 0.983684 0 1.1e-05 -1 0 -0.179902 -0.983685 0 1.1e-05 -1 0 -0.483636 -0.875269 0 -0.389555 -0.921003 0 -0.317173 -0.948368 0 -0.746138 -0.665792 0 -0.707106 -0.707108 0 -0.746148 -0.66578 -1.2e-05 -0.92904 -0.36998 0 -0.707651 -0.706562 0 -0.668039 -0.744126 0 -0.633065 -0.774099 0 -0.921004 -0.389552 0 -1 -6e-06 0 -1 0 0 -0.929044 0.36997 0 -0.921004 0.389552 -0 -0.746138 0.665792 0 -0.707106 0.707108 0 -0.483636 0.875269 0 -0.389555 0.921003 0 -0.633065 0.774099 0 -0.317173 0.948368 0 -0.668039 0.744126 0 -0.707656 0.706558 0 -0.746028 0.665915 -4e-06 0.179906 -0.983684 0 0.179905 0.983684 0 0.483636 0.875269 0 0.389555 0.921003 0 0.317173 0.948368 0 0.707106 0.707108 0 0.744125 0.668041 0 0.87527 0.483635 0 0.921004 0.389552 0 0.706697 0.707516 0 0.675706 0.73711 0.009553 0.633065 0.774099 0 0.983684 0.179904 0 1 0 0 0.774097 0.633067 0 0.948369 0.317169 0 0.921004 -0.389552 -0 0.948369 -0.317169 0 1 0 0 0.707505 -0.706708 0 0.707106 -0.707108 0 0.738636 -0.674056 0.008082 0.983684 -0.179903 0 0.483636 -0.875269 0 0.389555 -0.921003 0 0.633065 -0.774099 0 0.774097 -0.633067 0 0.87527 -0.483635 0 0.317173 -0.948368 0 0.668039 -0.744126 0 -0.38838 -0.918585 -0.073232 -0.705143 -0.705275 -0.073213 -0.330351 0.898421 -0.289324 -0.380018 0.898804 -0.218488 4e-06 0.957245 -0.289278 -0.689967 -0.690096 -0.218434 -0.380017 -0.898805 -0.218488 -0.699441 -0.699572 -0.14622 -0.385238 -0.911153 -0.146257 -0.898733 -0.380186 -0.218488 -0.911081 -0.385409 -0.146257 -0.989252 -3e-06 -0.14622 -0.911082 0.385406 -0.146257 -0.898735 0.380183 -0.218488 -0.689968 0.690095 -0.218434 -0.699443 0.699571 -0.14622 -0.385239 0.911153 -0.146257 -0.918512 -0.388553 -0.073232 -0.997316 -3e-06 -0.073213 -0.918513 0.388549 -0.073232 -0.705145 0.705274 -0.073213 -0.388381 0.918584 -0.073232 4e-06 0.989252 -0.146219 4e-06 -0.989252 -0.146219 4e-06 -0.957245 -0.289278 -0.330351 -0.898421 -0.289324 -0.61314 -0.735102 -0.289281 -0.823626 -0.487788 -0.289314 -0.98262 0.075561 -0.169554 -0.976394 0.122197 -0.178109 -0.823626 0.487788 -0.289314 -0.61314 0.735102 -0.289281 0.699508 -0.699508 -0.146205 0.705202 -0.705202 -0.073347 0.388502 -0.918522 -0.073366 0.385364 -0.911103 -0.146242 0.911103 -0.385364 -0.146242 0.918522 -0.388502 -0.073366 0.989254 0 -0.146205 0.997306 0 -0.073347 0.911103 0.385364 -0.146242 0.918522 0.388502 -0.073366 0.699508 0.699508 -0.146205 0.705202 0.705202 -0.073347 0.385364 0.911103 -0.146242 0.388502 0.918522 -0.073366 0.690056 -0.690056 -0.21828 0.380154 -0.898784 -0.218334 0.898784 -0.380154 -0.218334 0.975886 0 -0.21828 0.898784 0.380154 -0.218334 0.690056 0.690056 -0.21828 0.380154 0.898784 -0.218334 0 -1 0 0.372889 -0.881608 -0.289347 0.676874 -0.676874 -0.289279 0.881608 -0.372889 -0.289347 0.965758 9e-06 -0.259445 0.881608 0.372889 -0.289347 0.676874 0.676874 -0.289279 0.372889 0.881608 -0.289347 -0.087146 0.996196 0 -0.087146 0.996196 0 -0.087146 0.996196 0 0.073757 0.972032 -0.222967 -0.771553 -0.636165 6e-05 -0.594978 -0.800855 -0.068068 0.075589 0.994812 -0.06809 -0.59506 0.800795 -0.068048 -0.581621 0.782336 -0.222861 0.743134 0.665671 -0.068074 0.725983 0.650581 -0.222919 0.743131 -0.665674 -0.068074 0.726163 -0.650381 -0.222917 0.075975 -0.996653 -0.030179 0.073919 -0.97202 -0.222967 -0.581438 -0.782456 -0.222917 -0.98356 0.180583 4e-05 -0.391817 0.920043 6e-05 1 2e-06 6e-05 0.551439 0.834215 6e-05 0.551443 -0.834213 6e-05 -0.391815 -0.920044 6e-05 -0.206264 0.696919 -0.686847 -0.3451 0.352444 -0.869879 -0.446961 -0.610458 -0.653886 -0.345101 -0.352444 -0.869878 -0.622345 -0.474951 -0.622181 -0.489332 -0.205123 -0.847632 -0.503277 -0.859794 -0.086411 -0.794735 -0.599351 -0.09579 -0.754256 -0.280884 -0.593467 -0.89461 -0.352873 -0.274143 -0.814753 -0 -0.579809 -0.540201 -0 -0.841536 -0.972087 -0 -0.234621 -0.754256 0.280884 -0.593467 -0.480279 0.229795 -0.846479 -0.89461 0.352872 -0.274143 -0.622345 0.47495 -0.622181 -0.721014 0.609385 -0.329831 -0.446961 0.610458 -0.653886 -0.483029 0.798475 -0.359333 -0.970669 -0.239768 -0.017689 -0.979881 0.199193 -0.012469 -0.865296 0.498011 -0.057 -0.675977 0.733618 -0.06971 -0.411337 0.910839 -0.034279 -0.087146 -0.996196 0 -0.087146 -0.996196 0 -0.447937 0.894065 0 -0.737258 0.675611 0 -0.929704 0.368308 0 -1 1.3e-05 0 -0.737267 -0.675601 0 -0.929711 -0.368289 0 -0.447943 -0.894062 0 -0.691278 0.465299 -0.55284 -0.446024 0.643125 -0.622457 -0.711633 0.293643 -0.638241 -0.857398 0.336042 -0.389801 -0.881281 0.208141 -0.424289 -0.676515 0.270083 -0.685115 -0.710887 0.040486 -0.70214 -0.872644 -0.488356 0 -0.983854 -0.178976 0 -0.673553 -0.739139 0 -0.405423 -0.914129 0 -0.428897 0.499775 -0.75251 -0.183394 0.467997 -0.864491 0 0 1 0 0 1 0 0 1 0 0 1 0 0 1 0 0 1 0 0 1 0 0 1 0 0 1 0 0 1 0 0 1 0 0 1 0 0 1 0 0 1 0 0 1 0 0 1 0 0 1 0 0 1 0 0 1 0 0 1 0 0 1 0 0 1 0 0 1 0 0 1 0 0 1 0 0 1 0 0 1 0 0 1 0 0 1 0 0 1 0 0 1 0 0 1 0 0 1 0 0 1 0 0 1 0 0 1 0 0 1 0 0 1 0 0 1 0 0 1 0 0 1 0 0 1 -0.405423 0.914129 0 -0.673553 0.739139 0 -0.872644 0.488356 0 -0.983854 0.178976 0 -0.392739 0.91965 0 -0.772335 -0.635216 0 -0.392737 -0.919651 0 0.075245 -0.997165 0 0.551024 -0.834489 0 1 2e-06 0 0.551022 0.834491 0</float_array>
					<technique_common>
						<accessor count="336" source="#base2_M1KShape1.normals-array" stride="3">
							<param name="X" type="float"/>
							<param name="Y" type="float"/>
							<param name="Z" type="float"/>
						</accessor>
					</technique_common>
				</source>
				<vertices id="base2_M1KShape1.vertices">
					<input semantic="POSITION" source="#base2_M1KShape1.positions"/>
				</vertices>
				<triangles count="502" material="blinn21.material">
					<input offset="0" semantic="VERTEX" source="#base2_M1KShape1.vertices" set="0"/>
					<input offset="1" semantic="NORMAL" source="#base2_M1KShape1.normals" set="0"/>
					<p>0 0 2 2 1 1 3 3 5 5 4 4 5 5 1 1 2 2 6 6 3 3 7 7 2 2 4 4 5 5 4 4 7 7 3 3 7 7 8 8 6 6 9 9 11 11 10 10 12 12 11 11 9 9 13 13 10 10 14 14 9 9 10 10 13 13 15 15 14 14 16 16 13 13 14 14 15 15 17 17 16 16 18 18 15 15 16 16 17 17 19 19 18 18 20 20 17 17 18 18 19 19 21 21 20 20 22 22 19 19 20 20 21 21 23 23 22 22 24 24 21 21 22 22 23 23 25 25 24 24 26 26 23 23 24 24 25 25 27 27 29 29 28 28 29 29 31 31 30 30 30 30 32 32 29 29 31 31 33 33 30 30 33 33 34 34 30 30 34 34 35 35 30 30 35 35 36 36 30 30 36 36 37 37 30 30 38 38 30 30 37 37 32 32 39 39 29 29 39 39 40 40 29 29 40 40 41 41 29 29 41 41 42 42 29 29 42 42 28 28 29 29 43 43 26 26 44 44 25 25 26 26 43 43 45 45 44 44 46 46 43 43 44 44 45 45 47 47 46 46 48 48 45 45 46 46 47 47 49 49 48 48 50 50 47 47 48 48 49 49 51 51 50 50 52 52 49 49 50 50 51 51 53 53 52 52 54 54 51 51 52 52 53 53 55 55 54 54 56 56 53 53 54 54 55 55 57 57 56 56 11 11 55 55 56 56 57 57 1 1 59 59 58 58 8 8 60 60 6 6 61 61 58 58 59 59 62 62 61 61 59 59 6 6 61 61 62 62 61 61 6 6 60 60 5 5 59 59 1 1 62 62 59 59 5 5 63 63 65 65 64 64 65 65 67 67 66 66 66 66 64 64 65 65 63 63 67 67 65 65 68 68 70 70 69 69 66 66 72 72 71 71 70 70 71 71 72 72 73 73 69 69 72 72 73 73 72 72 66 66 72 72 69 69 70 70 71 71 70 70 74 74 64 64 66 66 75 75 75 75 66 66 71 71 64 64 75 75 74 74 68 68 74 74 70 70 71 71 74 74 75 75 76 76 67 67 77 77 77 77 78 78 76 76 76 76 78 78 79 79 80 80 82 82 81 81 83 83 85 85 84 84 84 84 87 87 86 86 87 87 84 84 85 85 86 86 88 88 82 82 88 88 86 86 87 87 82 82 89 89 81 81 89 89 82 82 88 88 64 64 87 87 85 85 68 68 81 81 89 89 74 74 87 87 64 64 90 90 87 87 74 74 89 89 90 90 74 74 68 68 89 89 74 74 64 64 91 91 63 63 77 77 63 63 91 91 92 92 91 91 85 85 67 67 63 63 77 77 85 85 91 91 64 64 93 93 95 95 94 94 96 96 98 98 97 97 99 99 101 101 100 100 101 101 97 97 98 98 102 102 104 104 103 103 98 98 100 100 101 101 102 102 103 103 105 105 103 103 104 104 106 106 100 100 103 103 107 107 99 99 100 100 108 108 106 106 107 107 103 103 107 107 108 108 100 100 109 109 111 111 110 110 109 109 105 105 103 103 111 111 113 113 112 112 105 105 109 109 110 110 112 112 110 110 111 111 114 114 112 112 115 115 116 116 118 118 117 117 113 113 115 115 112 112 116 116 117 117 119 119 118 118 120 120 117 117 117 117 120 120 115 115 121 121 122 122 115 115 121 121 115 115 120 120 115 115 122 122 114 114 119 119 94 94 95 95 94 94 119 119 117 117 96 96 123 123 98 98 93 93 94 94 124 124 125 125 127 127 126 126 127 127 124 124 94 94 128 128 129 129 126 126 94 94 126 126 127 127 128 128 131 131 130 130 132 132 133 133 126 126 132 132 126 126 129 129 125 125 126 126 134 134 133 133 134 134 126 126 131 131 136 136 135 135 129 129 128 128 137 137 138 138 130 130 131 131 130 130 137 137 128 128 139 139 140 140 136 136 138 138 131 131 135 135 141 141 135 135 136 136 142 142 144 144 143 143 141 141 136 136 145 145 145 145 136 136 140 140 146 146 148 148 147 147 144 144 149 149 143 143 149 149 150 150 143 143 140 140 139 139 150 150 143 143 150 150 139 139 146 146 147 147 151 151 148 148 152 152 147 147 142 142 143 143 152 152 147 147 152 152 143 143 151 151 98 98 123 123 98 98 151 151 147 147 153 153 154 154 100 100 155 155 157 157 156 156 158 158 160 160 159 159 161 161 159 159 160 160 162 162 163 163 158 158 160 160 158 158 163 163 163 163 162 162 164 164 165 165 164 164 166 166 167 167 168 168 166 166 165 165 166 166 168 168 156 156 169 169 167 167 168 168 167 167 169 169 160 160 154 154 161 161 153 153 161 161 154 154 163 163 170 170 160 160 154 154 160 160 170 170 164 164 171 171 163 163 170 170 163 163 171 171 165 165 172 172 164 164 171 171 164 164 172 172 168 168 173 173 165 165 172 172 165 165 173 173 169 169 174 174 168 168 173 173 168 168 174 174 100 100 98 98 153 153 169 169 156 156 175 175 169 169 175 175 174 174 157 157 175 175 156 156 94 94 117 117 174 174 94 94 174 174 175 175 115 115 173 173 117 117 174 174 117 117 173 173 173 173 115 115 172 172 161 161 153 153 176 176 161 161 176 176 159 159 98 98 176 176 153 153 177 177 178 178 159 159 177 177 159 159 176 176 158 158 159 159 179 179 162 162 158 158 180 180 178 178 179 179 159 159 180 180 81 81 162 162 179 179 180 180 158 158 81 81 68 68 162 162 68 68 69 69 162 162 162 162 69 69 164 164 73 73 181 181 164 164 73 73 164 164 69 69 166 166 164 164 182 182 181 181 182 182 164 164 182 182 60 60 166 166 60 60 8 8 166 166 8 8 183 183 166 166 166 166 183 183 167 167 155 155 156 156 184 184 184 184 167 167 183 183 167 167 184 184 156 156 172 172 113 113 171 171 113 113 172 172 115 115 170 170 171 171 109 109 111 111 171 171 113 113 154 154 170 170 103 103 111 111 109 109 171 171 103 103 100 100 154 154 109 109 103 103 170 170 185 185 187 187 186 186 188 188 187 187 185 185 189 189 186 186 190 190 185 185 186 186 189 189 191 191 190 190 192 192 189 189 190 190 191 191 193 193 192 192 194 194 191 191 192 192 193 193 195 195 194 194 196 196 193 193 194 194 195 195 197 197 196 196 198 198 195 195 196 196 197 197 199 199 188 188 185 185 200 200 188 188 199 199 201 201 185 185 189 189 199 199 185 185 201 201 202 202 189 189 191 191 201 201 189 189 202 202 203 203 191 191 193 193 202 202 191 191 203 203 204 204 193 193 195 195 203 203 193 193 204 204 205 205 195 195 197 197 204 204 195 195 205 205 147 147 187 187 206 206 143 143 187 187 147 147 186 186 187 187 143 143 139 139 186 186 143 143 190 190 186 186 139 139 136 136 190 190 139 139 192 192 190 190 136 136 131 131 192 192 136 136 194 194 192 192 131 131 128 128 194 194 131 131 196 196 194 194 128 128 126 126 196 196 128 128 198 198 196 196 126 126 94 94 198 198 126 126 207 207 177 177 200 200 199 199 207 207 200 200 208 208 207 207 199 199 201 201 208 208 199 199 209 209 208 208 201 201 202 202 209 209 201 201 210 210 209 209 202 202 203 203 210 210 202 202 211 211 210 210 203 203 204 204 211 211 203 203 212 212 211 211 204 204 205 205 212 212 204 204 213 213 212 212 205 205 157 157 213 213 205 205 176 176 206 206 187 187 188 188 176 176 187 187 200 200 176 176 188 188 176 176 200 200 177 177 175 175 198 198 94 94 197 197 198 198 175 175 205 205 197 197 175 175 157 157 205 205 175 175 214 214 0 0 215 215 1 1 216 216 0 0 216 216 215 215 0 0 157 157 155 155 217 217 218 218 80 80 219 219 220 220 217 217 221 221 222 222 221 221 217 217 223 223 224 224 220 220 217 217 220 220 224 224 224 224 223 223 210 210 225 225 226 226 210 210 227 227 228 228 225 225 226 226 225 225 228 228 228 228 227 227 219 219 219 219 229 229 228 228 184 184 183 183 222 222 80 80 81 81 219 219 81 81 180 180 229 229 229 229 219 219 81 81 180 180 179 179 229 229 179 179 178 178 229 229 177 177 228 228 178 178 229 229 178 178 228 228 177 177 207 207 228 228 183 183 8 8 222 222 8 8 230 230 222 222 230 230 231 231 221 221 221 221 222 222 230 230 221 221 231 231 220 220 210 210 223 223 232 232 223 223 220 220 233 233 233 233 220 220 231 231 210 210 232 232 225 225 233 233 232 232 223 223 225 225 234 234 227 227 234 234 225 225 232 232 219 219 227 227 235 235 218 218 219 219 235 235 228 228 207 207 226 226 208 208 209 209 226 226 208 208 226 226 207 207 226 226 209 209 210 210 224 224 210 210 211 211 211 211 212 212 224 224 217 217 224 224 213 213 213 213 157 157 217 217 212 212 213 213 224 224 222 222 217 217 155 155 184 184 222 222 155 155 79 79 237 237 236 236 238 238 240 240 239 239 241 241 239 239 240 240 242 242 243 243 238 238 240 240 238 238 243 243 240 240 244 244 241 241 243 243 245 245 240 240 244 244 240 240 245 245 244 244 246 246 241 241 247 247 241 241 246 246 245 245 248 248 244 244 246 246 244 244 248 248 246 246 249 249 247 247 250 250 247 247 249 249 248 248 251 251 246 246 249 249 246 246 251 251 249 249 252 252 250 250 251 251 253 253 249 249 252 252 249 249 253 253 252 252 254 254 250 250 237 237 250 250 254 254 253 253 255 255 252 252 254 254 252 252 255 255 250 250 237 237 79 79 245 245 256 256 248 248 256 256 245 245 243 243 257 257 258 258 251 251 251 251 248 248 257 257 257 257 248 248 256 256 251 251 258 258 253 253 253 253 259 259 255 255 259 259 253 253 258 258 260 260 216 216 255 255 260 260 255 255 259 259 216 216 236 236 255 255 254 254 255 255 236 236 254 254 236 236 237 237 250 250 78 78 247 247 78 78 250 250 79 79 247 247 78 78 241 241 239 239 241 241 77 77 77 77 241 241 78 78 238 238 239 239 91 91 238 238 91 91 242 242 77 77 91 91 239 239 92 92 242 242 91 91 85 85 83 83 92 92 261 261 262 262 83 83 262 262 92 92 83 83 215 215 260 260 263 263 263 263 259 259 264 264 259 259 263 263 260 260 264 264 258 258 265 265 258 258 264 264 259 259 257 257 256 256 266 266 257 257 265 265 258 258 267 267 268 268 243 243 265 265 257 257 266 266 268 268 266 266 256 256 267 267 243 243 269 269 256 256 243 243 268 268 92 92 262 262 242 242 242 242 269 269 243 243 269 269 242 242 262 262 216 216 260 260 215 215 270 270 271 271 61 61 270 270 273 273 272 272 274 274 272 272 273 273 272 272 274 274 275 275 270 270 61 61 273 273 58 58 61 61 271 271 60 60 182 182 273 273 60 60 273 273 61 61 274 274 273 273 182 182 275 275 58 58 272 272 181 181 275 275 274 274 270 270 272 272 271 271 58 58 271 271 272 272 181 181 274 274 182 182 181 181 73 73 66 66 276 276 181 181 66 66 276 276 66 66 67 67 76 76 276 276 67 67 83 83 84 84 261 261 86 86 82 82 277 277 80 80 278 278 82 82 277 277 279 279 86 86 278 278 277 277 82 82 84 84 86 86 280 280 280 280 261 261 84 84 279 279 280 280 86 86 281 281 275 275 76 76 282 282 58 58 281 281 181 181 76 76 275 275 275 275 281 281 58 58 282 282 281 281 76 76 276 276 76 76 181 181 58 58 236 236 1 1 79 79 236 236 282 282 216 216 1 1 236 236 76 76 79 79 282 282 58 58 282 282 236 236 283 283 285 285 284 284 285 285 287 287 286 286 286 286 289 289 288 288 289 289 286 286 287 287 290 290 288 288 291 291 292 292 288 288 289 289 293 293 290 290 294 294 292 292 291 291 288 288 295 295 297 297 296 296 291 291 294 294 290 290 298 298 300 300 299 299 297 297 295 295 301 301 296 296 302 302 299 299 302 302 296 296 297 297 302 302 293 293 299 299 294 294 299 299 293 293 301 301 304 304 303 303 304 304 301 301 295 295 305 305 306 306 303 303 305 305 303 303 304 304 306 306 307 307 303 303 307 307 308 308 303 303 308 308 309 309 303 303 309 309 310 310 303 303 310 310 311 311 303 303 311 311 312 312 303 303 313 313 303 303 312 312 300 300 298 298 314 314 296 296 299 299 315 315 315 315 299 299 300 300 316 316 317 317 314 314 316 316 314 314 298 298 317 317 318 318 314 314 314 314 318 318 319 319 320 320 321 321 319 319 320 320 319 319 318 318 322 322 319 319 323 323 323 323 324 324 322 322 321 321 323 323 319 319 324 324 284 284 322 322 322 322 284 284 285 285 287 287 285 285 283 283 325 325 2 2 214 214 2 2 325 325 4 4 0 0 214 214 2 2 326 326 327 327 4 4 326 326 4 4 325 325 4 4 327 327 7 7 230 230 7 7 328 328 328 328 7 7 327 327 8 8 7 7 230 230 231 231 230 230 329 329 278 278 80 80 330 330 218 218 330 330 80 80 330 330 218 218 331 331 331 331 235 235 332 332 235 235 331 331 218 218 332 332 227 227 333 333 227 227 332 332 235 235 333 333 234 234 334 334 234 234 333 333 227 227 335 335 334 334 233 233 232 232 334 334 234 234 329 329 335 335 231 231 232 232 233 233 334 334 328 328 329 329 230 230 233 233 231 231 335 335</p>
				</triangles>
			</mesh>
		</geometry>
		<geometry id="base2_M1KShape2" name="base2_M1KShape2">
			<mesh>
				<source id="base2_M1KShape2.positions">
					<float_array id="base2_M1KShape2.positions-array" count="60">-0.1423 -0.0549245 0.00300257 -0.142293 -0.0549057 0.115043 -0.140008 -0.054974 0.00303133 -0.1423 0.0549621 0.00300262 -0.142283 0.0549064 0.115043 -0.1423 0.0392173 0.0617827 -0.1423 0.0393025 0.112209 -0.142281 0.0490879 0.122471 -0.142277 -0.0490844 0.122473 -0.1423 -0.011298 0.112298 -0.142293 -0.0549057 0.115043 -0.1423 -0.0112093 0.0616975 -0.1423 -0.0332465 0.0512465 -0.1423 -0.0549245 0.00300257 -0.1423 -0.033361 0.016769 -0.1423 0.00123096 0.016639 -0.1423 0.00135188 0.0513519 -0.140008 0.0549732 0.0030305 -0.142283 0.0549064 0.115043 -0.1423 0.0549621 0.00300262</float_array>
					<technique_common>
						<accessor count="20" source="#base2_M1KShape2.positions-array" stride="3">
							<param name="X" type="float"/>
							<param name="Y" type="float"/>
							<param name="Z" type="float"/>
						</accessor>
					</technique_common>
				</source>
				<source id="base2_M1KShape2.normals">
					<float_array id="base2_M1KShape2.normals-array" count="60">0 -1 0 -0.002747 -0.995354 0.096247 0 -1 0 -1 0 0 -1 0 0 -1 0 0 -1 0 0 -1 0 0 -1 0 0 -1 0 0 -1 0 0 -1 0 0 -1 0 0 -1 0 0 -1 0 0 -1 0 0 -1 0 0 0 1 0 -0.04679 0.998733 0.018499 0 1 1e-06</float_array>
					<technique_common>
						<accessor count="20" source="#base2_M1KShape2.normals-array" stride="3">
							<param name="X" type="float"/>
							<param name="Y" type="float"/>
							<param name="Z" type="float"/>
						</accessor>
					</technique_common>
				</source>
				<vertices id="base2_M1KShape2.vertices">
					<input semantic="POSITION" source="#base2_M1KShape2.positions"/>
				</vertices>
				<triangles count="18" material="blinn22.material">
					<input offset="0" semantic="VERTEX" source="#base2_M1KShape2.vertices" set="0"/>
					<input offset="1" semantic="NORMAL" source="#base2_M1KShape2.normals" set="0"/>
					<p>0 0 2 2 1 1 3 3 5 5 4 4 6 6 4 4 5 5 6 6 7 7 4 4 8 8 7 7 9 9 6 6 9 9 7 7 8 8 9 9 10 10 11 11 10 10 9 9 10 10 11 11 12 12 10 10 12 12 13 13 14 14 13 13 12 12 3 3 13 13 15 15 14 14 15 15 13 13 12 12 11 11 16 16 3 3 15 15 5 5 16 16 5 5 15 15 5 5 16 16 11 11 17 17 19 19 18 18</p>
				</triangles>
			</mesh>
		</geometry>
		<geometry id="base2_M1KShape3" name="base2_M1KShape3">
			<mesh>
				<source id="base2_M1KShape3.positions">
					<float_array id="base2_M1KShape3.positions-array" count="168">-0.145 0.0334748 0.0989919 -0.1656 0.0347318 0.095758 -0.1656 0.0365 0.087 -0.145 0.0365 0.087 -0.1656 0.0259917 0.106475 -0.145 0.0192971 0.109248 -0.1656 0.00870287 0.109248 -0.145 0.00200837 0.106475 -0.1656 -0.00547491 0.0989918 -0.145 -0.00673184 0.095758 -0.145 -0.0085 0.087 -0.1656 -0.0085 0.087 -0.1656 0.0334748 0.0750081 -0.145 0.0347318 0.078242 -0.145 0.0259919 0.0675252 -0.1656 0.022758 0.0662682 -0.1656 0.014 0.0645 -0.145 0.014 0.0645 -0.1656 0.00200817 0.0675251 -0.145 0.00524198 0.0662682 -0.145 -0.00547493 0.0750082 -0.1656 -0.00673184 0.078242 -0.1656 0.0347318 0.095758 -0.1656 -0.00673184 0.078242 -0.1656 0.0365 0.087 -0.1656 -0.0085 0.087 -0.1656 0.0334748 0.0750081 -0.1656 0.022758 0.0662682 -0.1656 0.014 0.0645 -0.1656 0.00200817 0.0675251 -0.1656 -0.00547491 0.0989918 -0.1656 0.00870287 0.109248 -0.1656 0.0259917 0.106475 -0.1423 0.0393025 0.112209 -0.1423 -0.011298 0.112298 -0.145 0.0392092 0.112303 -0.145 -0.0112173 0.112217 -0.145 0.0347318 0.078242 -0.145 0.0392981 0.0617019 -0.145 0.0365 0.087 -0.145 0.0334748 0.0989919 -0.145 0.0392092 0.112303 -0.145 0.0192971 0.109248 -0.145 0.00200837 0.106475 -0.145 -0.0112173 0.112217 -0.145 -0.00673184 0.095758 -0.145 -0.0085 0.087 -0.145 -0.00547493 0.0750082 -0.145 -0.0113025 0.0617907 -0.145 0.00524198 0.0662682 -0.145 0.014 0.0645 -0.145 0.0259919 0.0675252 -0.145 0.0392981 0.0617019 -0.1423 0.0392173 0.0617827 -0.145 -0.0113025 0.0617907 -0.1423 -0.0112093 0.0616975</float_array>
					<technique_common>
						<accessor count="56" source="#base2_M1KShape3.positions-array" stride="3">
							<param name="X" type="float"/>
							<param name="Y" type="float"/>
							<param name="Z" type="float"/>
						</accessor>
					</technique_common>
				</source>
				<source id="base2_M1KShape3.normals">
					<float_array id="base2_M1KShape3.normals-array" count="168">0 0.851298 0.524682 0 0.921004 0.389552 0 1 0 0 1 0 0 0.524672 0.851305 0 0.231929 0.972733 -0 -0.23193 0.972732 -0 -0.52467 0.851306 -0 -0.851301 0.524678 -0 -0.921004 0.389552 0 -1 0 0 -1 0 0 0.851299 -0.52468 0 0.921004 -0.389552 0 0.524681 -0.851299 0 0.389552 -0.921004 -0 -0 -1 -0 -0 -1 -0 -0.524679 -0.8513 -0 -0.389552 -0.921004 -0 -0.851302 -0.524677 -0 -0.921004 -0.389552 -1 0 0 -1 0 0 -1 0 0 -1 0 0 -1 0 0 -1 0 0 -1 0 0 -1 0 0 -1 0 0 -1 0 0 -1 0 0 0 0.880666 0.473738 -0 -0.704365 0.709838 0 0.479088 0.877767 -0 -0.705867 0.708345 -1 0 0 -1 0 0 -1 0 0 -1 0 0 -1 0 0 -1 0 0 -1 0 0 -1 0 0 -1 0 0 -1 0 0 -1 0 0 -1 0 0 -1 0 0 -1 0 0 -1 0 0 0 0.704405 -0.709798 0 0.705872 -0.708339 -0 -0.879948 -0.47507 -0 -0.475449 -0.879743</float_array>
					<technique_common>
						<accessor count="56" source="#base2_M1KShape3.normals-array" stride="3">
							<param name="X" type="float"/>
							<param name="Y" type="float"/>
							<param name="Z" type="float"/>
						</accessor>
					</technique_common>
				</source>
				<vertices id="base2_M1KShape3.vertices">
					<input semantic="POSITION" source="#base2_M1KShape3.positions"/>
				</vertices>
				<triangles count="54" material="blinn23.material">
					<input offset="0" semantic="VERTEX" source="#base2_M1KShape3.vertices" set="0"/>
					<input offset="1" semantic="NORMAL" source="#base2_M1KShape3.normals" set="0"/>
					<p>0 0 2 2 1 1 3 3 2 2 0 0 0 0 1 1 4 4 0 0 4 4 5 5 5 5 4 4 6 6 5 5 6 6 7 7 7 7 6 6 8 8 7 7 8 8 9 9 10 10 8 8 11 11 9 9 8 8 10 10 12 12 3 3 13 13 2 2 3 3 12 12 12 12 13 13 14 14 12 12 14 14 15 15 16 16 14 14 17 17 15 15 14 14 16 16 18 18 17 17 19 19 16 16 17 17 18 18 18 18 19 19 20 20 18 18 20 20 21 21 11 11 20 20 10 10 21 21 20 20 11 11 22 22 24 24 23 23 23 23 25 25 22 22 24 24 26 26 23 23 26 26 27 27 23 23 27 27 28 28 23 23 28 28 29 29 23 23 25 25 30 30 22 22 30 30 31 31 22 22 31 31 32 32 22 22 33 33 35 35 34 34 36 36 34 34 35 35 37 37 39 39 38 38 40 40 41 41 39 39 38 38 39 39 41 41 42 42 41 41 40 40 43 43 44 44 42 42 41 41 42 42 44 44 45 45 46 46 44 44 45 45 44 44 43 43 47 47 48 48 46 46 44 44 46 46 48 48 49 49 50 50 48 48 49 49 48 48 47 47 51 51 38 38 50 50 48 48 50 50 38 38 37 37 38 38 51 51 35 35 33 33 52 52 53 53 52 52 33 33 54 54 52 52 55 55 53 53 55 55 52 52 36 36 54 54 34 34 55 55 34 34 54 54</p>
				</triangles>
			</mesh>
		</geometry>
		<geometry id="base2_M1KShape4" name="base2_M1KShape4">
			<mesh>
				<source id="base2_M1KShape4.positions">
					<float_array id="base2_M1KShape4.positions-array" count="132">-0.1548 -0.0308319 0.030469 -0.1548 -0.00116816 0.0375311 -0.1548 -0.0289833 0.0419945 -0.1548 -0.019531 0.0488319 -0.1548 -0.00800547 0.0469833 -0.1548 -0.00301668 0.0260055 -0.1548 -0.012469 0.0191681 -0.1548 -0.0239945 0.0210167 -0.1548 -0.00116816 0.0375311 -0.1548 -0.00301668 0.0260055 -0.1443 -0.00116816 0.0304689 -0.1443 -0.00800547 0.0210167 -0.1548 -0.012469 0.0191681 -0.1443 -0.019531 0.0191681 -0.1548 -0.0239945 0.0210167 -0.1443 -0.0289833 0.0260055 -0.1548 -0.0308319 0.030469 -0.1443 -0.0308319 0.037531 -0.1548 -0.0289833 0.0419945 -0.1443 -0.0239945 0.0469833 -0.1548 -0.019531 0.0488319 -0.1443 -0.012469 0.0488319 -0.1548 -0.00800547 0.0469833 -0.1443 -0.00301669 0.0419945 -0.1443 0.0012465 0.0512465 -0.1423 0.00135188 0.0513519 -0.1443 -0.0333519 0.0513519 -0.1423 -0.0332465 0.0512465 -0.1423 -0.033361 0.016769 -0.1443 -0.033231 0.016639 -0.1443 -0.0289833 0.0260055 -0.1443 -0.0308319 0.037531 -0.1443 -0.033231 0.016639 -0.1443 -0.0333519 0.0513519 -0.1443 -0.019531 0.0191681 -0.1443 -0.00800547 0.0210167 -0.1443 0.00136096 0.016769 -0.1443 -0.00116816 0.0304689 -0.1443 -0.00301669 0.0419945 -0.1443 0.0012465 0.0512465 -0.1443 -0.012469 0.0488319 -0.1443 -0.0239945 0.0469833 -0.1443 0.00136096 0.016769 -0.1423 0.00123096 0.016639</float_array>
					<technique_common>
						<accessor count="44" source="#base2_M1KShape4.positions-array" stride="3">
							<param name="X" type="float"/>
							<param name="Y" type="float"/>
							<param name="Z" type="float"/>
						</accessor>
					</technique_common>
				</source>
				<source id="base2_M1KShape4.normals">
					<float_array id="base2_M1KShape4.normals-array" count="132">-1 0 0 -1 0 0 -1 0 0 -1 0 0 -1 0 0 -1 0 0 -1 0 0 -1 0 0 0 0.972737 0.231911 -0 0.851304 -0.524673 -0 0.972737 -0.231911 -0 0.524676 -0.851302 -0 0.231904 -0.972739 0 -0.231904 -0.972739 0 -0.524677 -0.851301 0 -0.851301 -0.524677 0 -0.972739 -0.231904 -0 -0.972739 0.231904 -0 -0.851301 0.524677 -0 -0.524677 0.851301 -0 -0.231904 0.972739 0 0.231904 0.972739 0 0.524676 0.851302 0 0.851304 0.524673 0 0.70935 0.704857 0 0.710748 0.703447 -0 -0.70521 0.708998 -0 -0.70935 0.704856 0 -0.872904 -0.487893 0 -0.49053 -0.871424 -1 0 0 -1 0 0 -1 0 0 -1 0 0 -1 0 0 -1 0 0 -1 0 0 -1 0 0 -1 0 0 -1 0 0 -1 0 0 -1 0 0 -0 0.871424 -0.490531 -0 0.487893 -0.872904</float_array>
					<technique_common>
						<accessor count="44" source="#base2_M1KShape4.normals-array" stride="3">
							<param name="X" type="float"/>
							<param name="Y" type="float"/>
							<param name="Z" type="float"/>
						</accessor>
					</technique_common>
				</source>
				<vertices id="base2_M1KShape4.vertices">
					<input semantic="POSITION" source="#base2_M1KShape4.positions"/>
				</vertices>
				<triangles count="42" material="blinn24.material">
					<input offset="0" semantic="VERTEX" source="#base2_M1KShape4.vertices" set="0"/>
					<input offset="1" semantic="NORMAL" source="#base2_M1KShape4.normals" set="0"/>
					<p>0 0 2 2 1 1 2 2 3 3 1 1 3 3 4 4 1 1 1 1 5 5 0 0 5 5 6 6 0 0 6 6 7 7 0 0 8 8 10 10 9 9 9 9 10 10 11 11 9 9 11 11 12 12 12 12 11 11 13 13 12 12 13 13 14 14 14 14 13 13 15 15 14 14 15 15 16 16 16 16 15 15 17 17 16 16 17 17 18 18 18 18 17 17 19 19 18 18 19 19 20 20 20 20 19 19 21 21 20 20 21 21 22 22 22 22 21 21 23 23 22 22 23 23 8 8 8 8 23 23 10 10 24 24 26 26 25 25 27 27 25 25 26 26 27 27 26 26 28 28 29 29 28 28 26 26 30 30 32 32 31 31 33 33 31 31 32 32 34 34 32 32 30 30 35 35 36 36 34 34 32 32 34 34 36 36 37 37 36 36 35 35 38 38 39 39 37 37 36 36 37 37 39 39 40 40 39 39 38 38 41 41 33 33 40 40 39 39 40 40 33 33 31 31 33 33 41 41 24 24 25 25 42 42 43 43 42 42 25 25 42 42 43 43 29 29 28 28 29 29 43 43</p>
				</triangles>
			</mesh>
		</geometry>
		<geometry id="base2_M1KShape5" name="base2_M1KShape5">
			<mesh>
				<source id="base2_M1KShape5.positions">
					<float_array id="base2_M1KShape5.positions-array" count="1635">0.0703851 0.070501 0.0223406 0.0762145 0.0679241 0.0150623 0.0764713 0.0670372 0.0214721 0.068361 0.07462 0.0151118 0.0676378 0.0740494 0.0225342 0.0757609 0.0842462 0.015037 0.0819004 0.0859782 0.0149836 0.0740299 0.0824706 -1.65e-07 0.0743485 0.077661 0.0150476 0.0780946 0.0740246 -2.5e-08 0.0819003 0.0740218 0.0149853 0.0828793 0.0855729 3.6e-08 0.0678778 0.0896314 0.0151867 0.0656547 0.0888921 0.0200548 0.0649064 0.089007 -1.54e-07 0.0690676 0.0936531 -2.945e-06 0.0678778 0.0896314 0.0151867 0.0629939 0.093779 0.019645 0.0689962 0.0935079 0.015213 0.0656547 0.0888921 0.0200548 0.0986887 0.0669586 0.014562 0.0819003 0.0740218 0.0149853 0.0973901 0.084679 0.0143981 0.0743485 0.077661 0.0150476 0.0689962 0.0935079 0.015213 0.0757609 0.0842462 0.015037 0.0843775 0.0973814 0.0146135 0.0819004 0.0859782 0.0149836 0.086 0.08 0.0149476 0.0630478 0.0931632 -2.73e-07 0.0245693 0.0996861 0.0215438 0.0629939 0.093779 0.019645 0.0487242 0.0886032 0.0219238 0.086 0.08 0.0149476 0.0856516 0.0776585 -5.9e-08 0.0630478 0.0931632 -2.73e-07 0.0690676 0.0936531 -2.945e-06 0.0452031 0.0994885 4.853e-06 0.0839365 0.0980586 -9.17e-07 0.0649064 0.089007 -1.54e-07 0.046145 0.0809395 -5.39e-06 0.0740299 0.0824706 -1.65e-07 0.0601847 0.0717526 -2.391e-05 0.0780946 0.0740246 -2.5e-08 0.0718075 0.06029 -4.0219e-05 0.0856516 0.0776585 -5.9e-08 0.0984297 0.0792378 0 0.0994905 0.0451622 1.892e-06 0.0807007 0.0467772 -9.01e-07 0.095602 0.0892779 -9.3e-08 0.0828793 0.0855729 3.6e-08 0.0743485 -0.077661 0.0150476 0.0819003 -0.0740218 0.0149854 0.0780946 -0.0740246 1.48e-07 0.0757609 -0.0842462 0.015037 0.0740299 -0.0824706 -1.2e-08 0.0819004 -0.0859782 0.0149839 0.0828793 -0.0855729 3e-08 0.0671583 -0.0764319 0.0214749 0.0678778 -0.0896314 0.0151867 0.065668 -0.0889015 0.0200729 0.0819003 -0.0740218 0.0149854 0.0743485 -0.077661 0.0150476 0.0762132 -0.0679247 0.0150623 0.0986953 -0.0669727 0.0145638 0.0683612 -0.07462 0.0151117 0.0973974 -0.0842804 0.0145355 0.086 -0.08 0.0149476 0.0819004 -0.0859782 0.0149839 0.0689933 -0.0935634 0.0152246 0.0757609 -0.0842462 0.015037 0.0847021 -0.0973871 0.0144641 0.0690677 -0.0936531 -2.068e-06 0.0631039 -0.0938118 0.0196669 0.063016 -0.0931358 -2.85e-07 0.065668 -0.0889015 0.0200729 0.0649163 -0.0890159 -3.91e-07 0.0678778 -0.0896314 0.0151867 0.0689933 -0.0935634 0.0152246 0.0250436 -0.0996656 0.0214031 0.0486987 -0.0886205 0.0219191 0.0631039 -0.0938118 0.0196669 0.0856516 -0.0776585 -8.2e-08 0.086 -0.08 0.0149476 0.0828793 -0.0855729 3e-08 0.0740299 -0.0824706 -1.2e-08 0.0690677 -0.0936531 -2.068e-06 0.0467777 -0.0806973 -1.367e-06 0.0649163 -0.0890159 -3.91e-07 0.063016 -0.0931358 -2.85e-07 0.0451616 -0.0994906 4.612e-06 0.0833282 -0.098117 -7.63e-07 0.0925876 -0.0925876 0 0.0980563 -0.0839415 -4.54e-07 0.0856516 -0.0776585 -8.2e-08 0.0809425 -0.0461348 -1.903e-06 0.0994885 -0.0452032 3.397e-06 0.0780946 -0.0740246 1.48e-07 0.0718163 -0.0602531 -3.3307e-05 0.0601181 -0.0717765 -2.2804e-05 -0.1423 -0.0549245 0.00300257 -0.0942953 -0.00059108 0.00300977 -0.1423 0.0549621 0.00300262 -0.100108 -0.0441962 0.00297349 -0.140008 -0.054974 0.00303133 -0.100323 -0.0564497 0.00297704 -0.0823715 -0.0438614 0.00298039 -0.0994213 0.0565663 0.00291504 -0.140008 0.0549732 0.0030305 -0.0999581 0.0441966 0.00297093 -0.0823692 0.0438632 0.00297986 -0.0757609 -0.0842462 0.015037 -0.0819004 -0.0859782 0.0149839 -0.0740299 -0.0824706 5.5e-08 -0.0743485 -0.077661 0.0150451 -0.0780946 -0.0740246 1.29e-07 -0.0819003 -0.0740218 0.0149854 -0.0828793 -0.0855729 4e-08 -0.086 -0.08 0.0149476 -0.0856516 -0.0776585 -7e-09 -0.0856516 -0.0776585 -7e-09 -0.082953 -0.0452652 1.9924e-05 -0.0996075 -0.0455162 8.983e-06 -0.0646771 -0.0691352 2.211e-05 -0.0780946 -0.0740246 1.29e-07 -0.0980196 -0.0835812 -3.63e-07 -0.0828793 -0.0855729 4e-08 -0.0925876 -0.0925876 0 -0.0839365 -0.0980586 -4.21e-07 -0.0740299 -0.0824706 5.5e-08 -0.0467785 -0.0807018 -5.3e-07 -0.0451619 -0.0994897 2.908e-06 -0.0576721 -0.0742994 -8.175e-06 -0.0673933 -0.0987865 0.0148552 -0.0757609 -0.0842462 0.015037 -0.0681793 -0.0748786 0.0151193 -0.0843651 -0.0973763 0.0146459 -0.0819004 -0.0859782 0.0149839 -0.0986303 -0.0670345 0.0145828 -0.0819003 -0.0740218 0.0149854 -0.097391 -0.0846775 0.0143978 -0.086 -0.08 0.0149476 -0.0763266 -0.0678648 0.0150615 -0.0743485 -0.077661 0.0150451 -0.0828793 0.0855729 4e-08 -0.0819004 0.0859782 0.0149841 -0.0740299 0.0824706 -8.4e-08 -0.0780946 0.0740246 4.9e-08 -0.0743485 0.077661 0.0150451 -0.0819003 0.0740218 0.0149855 -0.0757609 0.0842462 0.015037 -0.0856516 0.0776585 -4.4e-08 -0.086 0.08 0.0149476 -0.0674192 0.0986772 0.0148272 -0.0757609 0.0842462 0.015037 -0.0847053 0.0973789 0.0145017 -0.0949104 0.0895409 0.0145958 -0.0819004 0.0859782 0.0149841 -0.0681788 0.0748804 0.0151193 -0.0743485 0.077661 0.0150451 -0.0819003 0.0740218 0.0149855 -0.0763262 0.0678651 0.0150615 -0.0984665 0.0670225 0.0145988 -0.086 0.08 0.0149476 -0.0740299 0.0824706 -8.4e-08 -0.0792378 0.0984297 0 -0.0828793 0.0855729 4e-08 -0.0897506 0.0951697 -1.04e-07 -0.0978403 0.0843709 -1.035e-06 -0.0856516 0.0776585 -4.4e-08 -0.0992858 0.0452692 2.748e-06 -0.0780946 0.0740246 4.9e-08 -0.0646757 0.0691276 1.5889e-05 -0.0829458 0.0452623 3.6724e-05 -0.0576744 0.0742982 -1.1039e-05 -0.0451622 0.0994897 1.893e-06 -0.0467798 0.0806966 -8.81e-07 0.0987475 0.0654768 0.0184343 0.0886354 0.0487848 0.0218409 0.0996899 0.0245669 0.0215126 0.0925012 0.0925913 0.0129575 0.0994885 -0.0452032 3.397e-06 0.0980563 -0.0839415 -4.54e-07 0.0995298 0.0439409 0.00297896 0.1 0 0.0193338 0.0984297 0.0792378 0 0.0994905 0.0451622 1.892e-06 0.0995321 -0.0437937 0.00298394 0.0996897 -0.0245658 0.0215127 0.0987535 -0.0654711 0.0184332 0.0596669 0.0678968 0.0046142 0.0483197 0.0537208 0.00591278 0.0499571 0.0550683 0.0126089 0.0618554 0.0688239 0.0130896 0.046145 0.0809395 -5.39e-06 0.0470111 0.0772806 0.00453605 0.0489579 0.0784421 0.0132641 0.0553903 0.0707497 0.0141084 0.0459332 0.0595571 0.014005 0.0582386 0.0736045 0.00544257 0.0445657 0.0563279 0.00500215 0.0601847 0.0717526 -2.391e-05 0.037711 0.0612203 0.00500064 0.0403024 0.0637788 0.0138513 0.0737832 0.0460904 0.0148328 0.079351 0.0493768 0.0100279 0.0725916 0.0568632 0.0131548 0.0718075 0.06029 -4.0219e-05 0.070529 0.0564657 0.0046261 -0.00295334 0.09058 0.0138166 -0.00246317 0.0942571 0.00301745 -0.0123314 0.0901701 0.01395 -0.0139568 0.0926085 0.00435178 0.0275642 0.0846646 0.0144187 0.0229473 0.0718631 0.0138482 0.0301521 0.0897967 0.00348129 0.0225693 0.0683308 0.0051717 -0.0378092 -0.061063 0.00500263 -0.0482175 -0.0537178 0.0050016 0.0536251 0.0476844 0.00500211 0.0633303 0.0342098 0.00500704 0.066721 0.0265165 0.0050086 0.0710291 0.0104891 0.00500231 0.0718459 0.00213927 0.00500921 0.071015 -0.0103853 0.00500363 0.0667227 -0.0265214 0.00501274 0.0633488 -0.0341104 0.00501388 0.0536478 -0.047702 0.00500483 0.0445668 -0.05633 0.00500558 0.0343587 -0.0636173 0.00509635 0.0265301 -0.0667312 0.00503366 0.0104886 -0.0710355 0.00501082 -0.00206683 -0.0722309 0.00522423 -0.0144618 -0.0702522 0.00503153 -0.0266001 -0.0667711 0.00514434 -0.0265143 0.0667192 0.00500305 -0.0104884 0.0710368 0.00501247 0.00211283 0.0718892 0.00506195 0.0144439 0.0703486 0.00502363 0.0268455 0.0667356 0.00553869 -0.063291 -0.0523933 0.00508768 -0.0837434 -0.0334369 0.00497709 -0.0480458 0.0530552 0.00500447 -0.0377738 0.0609006 0.00502827 -0.0342953 0.0638836 0.00569369 -0.0458252 0.0772223 0.0044587 -0.0697361 -0.0589004 0.00474615 -0.0901492 -0.000296368 0.00499396 -0.0838501 0.0332723 0.00497604 -0.0694107 0.0597625 0.00467263 -0.0640447 0.0528137 0.00507513 0.00305741 0.0755892 0.0141098 0.0101318 0.0743915 0.0137257 0.0102373 0.0720756 0.00653363 0.06861 0.0616126 0.0131311 0.0571061 0.0547605 0.0162666 0.0553083 0.0502039 0.0129333 0.0942877 -0.00243283 0.00301493 0.0935085 0.00242731 0.00464751 0.0730634 -0.00234846 0.00641515 0.0694585 0.0227814 0.00641463 0.0712306 0.0150313 0.00653302 0.0774468 0.0632613 0.0244335 0.068369 0.0604635 0.00521682 -0.00346034 0.0754595 0.0141923 -0.00225305 0.0730469 0.0061816 0.0568616 0.044457 0.00594799 0.0595604 0.0459394 0.0140073 0.0561777 0.0586457 0.0168522 0.0875707 0.0482844 0.0244335 0.0977146 0.0234559 0.0241806 0.0482844 0.0875707 0.0244335 0.0234556 0.0977146 0.0241806 0.0632613 0.0774468 0.0244335 0.0668544 0.0988378 0.0153294 -0.0839365 -0.0980586 -4.21e-07 -0.0925012 -0.0925913 0.0129575 -0.0980196 -0.0835812 -3.63e-07 -0.0925876 -0.0925876 0 0.095602 0.0892779 -9.3e-08 0.0839365 0.0980586 -9.17e-07 0.0452031 0.0994885 4.853e-06 -0.0659783 0.098718 0.0183551 -0.0451622 0.0994897 1.893e-06 -0.0792378 0.0984297 0 -0.0250745 0.0996714 0.0213584 -0.0439421 0.0995312 0.00297895 0 0.1 0.0193338 0.0437936 0.099532 0.00298394 -0.0996075 -0.0455162 8.983e-06 -0.0993611 -0.056389 0.0195532 -0.100323 -0.0564497 0.00297704 -0.0977505 -0.065691 0.0184372 -0.0773321 -0.0674022 0.0200959 -0.0705155 -0.0704154 0.0223508 -0.066969 -0.0766834 0.0214352 -0.0596528 -0.0679168 0.00459275 -0.0576721 -0.0742994 -8.175e-06 -0.0582383 -0.0736048 0.0054455 -0.0785501 -0.0629024 0.0225427 -0.0646771 -0.0691352 2.211e-05 -0.0618865 -0.068873 0.0124207 -0.0868558 -0.0583176 0.0222306 -0.0746357 -0.0665546 0.0236703 -0.0632613 -0.0774468 0.0244335 -0.0443274 -0.0824616 0.00300394 -0.0343599 -0.0639016 0.0055856 -0.0470123 -0.0772821 0.00453618 -0.0576584 -0.0587514 0.0151082 -0.0675562 -0.0622483 0.0124482 -0.0589252 -0.0541324 0.0120613 -0.0482844 -0.0875707 0.0244335 -0.0234556 -0.0977149 0.0241807 -0.0487843 -0.088636 0.0218401 -0.0250735 -0.0996711 0.0213586 -0.0589252 -0.0541324 0.0120613 -0.0576584 -0.0587514 0.0151082 -0.0564731 -0.0562792 0.0195912 -0.0338556 -0.0839377 0.0140288 -0.0433671 -0.0810422 0.0132783 -0.0343487 -0.0877345 0.00336475 -0.0344695 -0.0667763 0.0141058 -0.0140435 -0.0931626 0.00303473 -0.0102374 -0.0720758 0.00653346 -0.0184636 -0.0920741 0.00365709 -0.00243515 -0.0942884 0.00301511 -0.012611 -0.0909716 0.013578 0 -0.1 0.0193338 -0.0298817 -0.0900177 0.00313959 -0.0275642 -0.0846646 0.0144187 -0.0228727 -0.0694159 0.0061341 -0.0229473 -0.0718632 0.0138482 0.00236585 -0.0730563 0.00642132 0.00312097 -0.0944089 0.00457853 0.00293518 -0.0891683 0.0142344 0.00346035 -0.0754595 0.0141923 0.0150313 -0.0712305 0.00653314 0.0139557 -0.0925938 0.00435368 0.0186281 -0.0923937 0.00303237 0.063379 0.039987 0.0132054 0.0611816 0.038189 0.0058304 0.0101618 -0.0743947 0.0137184 0.0123317 -0.0901343 0.0139614 -0.0439417 -0.0995312 0.0029795 0.0300692 -0.0891059 0.00359431 0.0439416 -0.0995299 0.00297887 0.0443763 -0.0824593 0.00298512 0.0341529 -0.0874835 0.00323537 0.02232 -0.0685829 0.00583467 0.0229515 -0.0718696 0.0138512 0.0165226 -0.0732722 0.0141013 0.0280206 -0.0860685 0.014029 0.0188404 -0.0897541 0.0133814 0.0234559 -0.0977146 0.0241806 0.0451616 -0.0994906 4.612e-06 0.0467777 -0.0806973 -1.367e-06 0.0432639 -0.080853 0.0133934 0.0343516 -0.0851064 0.0135651 0.0285772 -0.0696706 0.0138118 0.0460942 -0.0737649 0.014837 0.0493717 -0.0793502 0.0100263 0.0568709 -0.0725869 0.0131534 0.038189 -0.0611816 0.00583042 0.0459394 -0.0595604 0.0140073 0.039987 -0.063379 0.0132054 0.0564653 -0.0705074 0.00462524 0.0601181 -0.0717765 -2.2804e-05 0.0604635 -0.068369 0.00521686 -0.0983513 0.0793326 0.0130451 0.0664011 -0.0988434 0.0156094 0.0618595 -0.0688555 0.0129694 -0.0625962 0.0694485 0.0113852 -0.0646757 0.0691276 1.5889e-05 0.0482535 -0.0536306 0.00589165 0.0502594 -0.0553914 0.0129613 -0.0993481 0.0563898 0.0195569 -0.0785502 0.0629024 0.0225427 -0.0868557 0.0583176 0.0222306 0.0482844 -0.0875707 0.0244335 0.0632613 -0.0774468 0.0244335 0.0685687 -0.0615953 0.0132505 0.0718163 -0.0602531 -3.3307e-05 -0.0642475 0.0549945 0.0120724 -0.0663501 0.0614317 0.0131582 -0.0532686 0.0576991 0.0148263 -0.0596734 0.0679293 0.00458083 -0.0583372 0.055106 0.0131312 -0.0583372 0.055106 0.0131312 -0.0532686 0.0576991 0.0148263 -0.0565716 0.0562907 0.0196159 -0.0582299 0.0736113 0.00549299 -0.0576744 0.0742982 -1.1039e-05 -0.0444823 0.0568869 0.00596011 -0.0978403 0.0843709 -1.035e-06 -0.0897506 0.0951697 -1.04e-07 0.0611818 -0.0381888 0.00583016 0.0568617 -0.0444567 0.0059483 0.0807007 0.0467772 -9.01e-07 -0.0459394 0.0595604 0.0140073 -0.0551905 0.0705411 0.0142114 -0.0705171 0.0704158 0.022351 -0.077337 0.0674 0.0200954 -0.0669688 0.0766847 0.0214325 0.0767597 -0.0670306 0.0214126 0.070494 -0.0703903 0.0223421 0.0762134 -0.0618643 0.0237666 0.0736045 -0.0582387 0.00544256 0.0784422 -0.0489579 0.0132641 0.0809425 -0.0461348 -1.903e-06 -0.0460942 0.0737649 0.014837 -0.039987 0.063379 0.0132054 0.0772806 -0.0470111 0.00453609 0.0637788 -0.0403024 0.0138513 -0.0493716 0.0793502 0.0100263 -0.0443746 0.0824562 0.00298608 -0.0350778 0.0666447 0.0140014 -0.0428159 0.0811073 0.013499 -0.0227815 0.0694587 0.00641481 -0.0346769 0.0875919 0.00501791 0.0876358 -0.0341527 0.00332196 0.0813261 -0.0429025 0.0133951 0.0816748 -0.0444473 0.00351912 0.0696778 -0.0285779 0.0138144 0.0839377 -0.0338556 0.0140288 -0.0451622 0.0994897 1.893e-06 -0.0439421 0.0995312 0.00297895 0.0994885 -0.0452032 3.397e-06 0.0995321 -0.0437937 0.00298394 0.068583 -0.0223198 0.00583487 0.0894377 -0.0297761 0.0048373 0.0718632 -0.0229473 0.0138482 0.0846661 -0.0275654 0.0144181 -0.0487841 0.0886359 0.0218401 0.0886354 -0.0487848 0.0218409 -0.0285772 0.0696707 0.0138118 -0.033306 0.0825768 0.0144181 0.0559335 -0.0510286 0.0138177 0.0567667 -0.0571483 0.0154248 0.067851 -0.0596311 0.00462522 0.0567667 -0.0571483 0.0154248 0.0565252 -0.0565369 0.0196173 0.0559335 -0.0510286 0.0138177 -0.00307632 -0.0906124 0.013837 -0.00305742 -0.0755892 0.0141098 -0.0444567 -0.0568617 0.00594828 -0.0661232 -0.0976705 0.0185971 -0.0467785 -0.0807018 -5.3e-07 -0.0451619 -0.0994897 2.908e-06 -0.082953 -0.0452652 1.9924e-05 -0.0489579 -0.0784422 0.0132641 -0.0522532 -0.0564757 0.0137806 -0.0553903 -0.0707497 0.0141084 -0.0459332 -0.0595571 0.014005 -0.0403024 -0.0637788 0.0138513 -0.0285779 -0.0696778 0.0138144 -0.0192075 -0.089059 0.0137607 -0.0159662 -0.0735648 0.0139954 -0.0101318 -0.0743915 0.0137257 -0.0992858 0.0452692 2.748e-06 -0.0994213 0.0565663 0.00291504 -0.0829458 0.0452623 3.6724e-05 -0.0992858 0.0452692 2.748e-06 -0.0857786 -0.0345715 0.00368119 -0.0857783 0.0345724 0.00368054 0.0458478 -0.0772835 0.00440375 -0.09811 0.0658126 0.0183105 0.0344833 -0.0667793 0.014105 -0.0451619 -0.0994897 2.908e-06 0.0439416 -0.0995299 0.00297887 -0.0439417 -0.0995312 0.0029795 0.0833282 -0.098117 -7.63e-07 0.0451616 -0.0994906 4.612e-06 -0.0823715 -0.0438614 0.00298039 -0.0823692 0.0438632 0.00297986 -0.0694107 0.0597625 0.00467263 0.0925876 -0.0925876 0 0.0926081 -0.0924953 0.0129253 0.0707497 -0.0553903 0.0141084 0.0595571 -0.0459332 0.014005 0.082112 0.0445883 0.00343513 0.0875894 0.0346759 0.00501959 0.0894302 0.0299563 0.00301511 0.0338582 0.0839424 0.0140295 0.0430282 0.0804186 0.013579 0.0341619 0.0875516 0.00348015 0.0446515 0.0821827 0.0034331 -0.0746828 0.0665109 0.023687 -0.0467798 0.0806966 -8.81e-07 -0.0632613 0.0774468 0.0244335 0.0666434 -0.03506 0.0140015 0.0666447 0.0350778 0.0140014 0.0805841 0.0425155 0.0137667 -0.0299577 0.0894291 0.0030151 0.0706063 -0.0149839 0.00595171 -0.0150313 0.0712305 0.00653319 0.0915473 -0.0184751 0.0043799 0.0772831 0.0458477 0.00440381 0.00222166 0.0942729 0.00316007 -0.0186281 0.0923937 0.00303238 0.0030763 0.0906125 0.0138369 0.0916657 0.00296953 0.0133838 0.0754595 0.00346027 0.0141923 0.0743947 0.0101618 0.0137184 0.0897541 0.0188404 0.0133814 0.0860685 0.0280206 0.014029 0.0732722 0.0165226 0.0141013 0.0718696 0.0229515 0.0138512 0.0193375 0.0896726 0.0134898 0.0184834 0.0915468 0.0043825 0.0140938 0.0932213 0.00302877 0.0923937 0.0186281 0.00303236 -0.0234559 0.0977146 0.0241806 0.0977146 -0.0234556 0.0241806 0.0825764 0.0333058 0.014418 0.0696707 0.0285772 0.0138118 0.0159662 0.0735648 0.0139954 0.0339488 0.0637658 0.0058766 0.0344695 0.0667763 0.0141058 0.0285779 0.0696778 0.0138144 0.0929395 -0.0142828 0.00325645 0.0909723 -0.0126129 0.0135779 0.0906125 -0.00307629 0.0138369 -0.0101618 0.0743947 0.0137184 0.0755892 -0.00305747 0.0141098 0.0925938 0.0139557 0.00435368 0.012611 0.0909716 0.013578 0.0901343 0.0123317 0.0139614 0.0743915 -0.0101318 0.0137257 0.0452031 0.0994885 4.853e-06 0.0437936 0.099532 0.00298394 0.0994905 0.0451622 1.892e-06 0.0995298 0.0439409 0.00297896 0.0668544 0.0988378 0.0153294 0.0897115 -0.0188275 0.0134042 0.073283 -0.016514 0.0141004 -0.0482844 0.0875707 0.0244335 0.0875707 -0.0482844 0.0244335 -0.0188404 0.0897541 0.0133814 -0.0280207 0.0860687 0.0140289 -0.0165226 0.0732722 0.0141013 -0.0229515 0.0718696 0.0138512 -0.0583372 0.055106 0.0131312 -0.0532686 0.0576991 0.0148263 -0.0522532 -0.0564757 0.0137806 -0.0522532 -0.0564757 0.0137806</float_array>
					<technique_common>
						<accessor count="545" source="#base2_M1KShape5.positions-array" stride="3">
							<param name="X" type="float"/>
							<param name="Y" type="float"/>
							<param name="Z" type="float"/>
						</accessor>
					</technique_common>
				</source>
				<source id="base2_M1KShape5.normals">
					<float_array id="base2_M1KShape5.normals-array" count="1635">0.72501 0.687717 0.037495 0.108489 0.491037 0.864357 0.239369 0.652298 0.719173 0.487706 0.175296 0.855228 0.73672 0.399098 0.545861 0.706506 -0.707707 0 -0.303064 -0.95297 0 0.924005 -0.382381 0 0.923989 0.382419 0 0.30368 0.952774 0 -0.303043 0.952977 0 -0.459063 -0.888404 0 0.649808 -0.016379 0.759922 0.35903 0.132407 0.923886 0.343504 0.939151 0 -0.885969 -0.463745 0 -0.619918 0.784666 0 0.898363 -0.439255 0 -0.907323 -0.420434 0 0.122943 0.992414 0 0.798695 0.23082 0.555705 0.009263 0.033958 0.99938 0.796684 0.190484 0.573594 0.016391 -0.037815 0.99915 0.100435 -0.139372 0.985134 0.008728 -1e-06 0.999962 0.152941 0.777522 0.609974 0.007009 -0.000398 0.999975 0.008728 -1e-06 0.999962 0.930291 -0.366822 0 0.031742 0.862162 0.505638 0.078563 0.038129 0.99618 0.216548 0.386369 0.896564 -1 0 0 -0.923837 0.382786 0 0 -0 -1 0 -0 -1 0 -0 -1 0 -0 -1 0 -0 -1 0 -0 -1 0 -0 -1 0 -0 -1 0 -0 -1 0 -0 -1 0 -0 -1 0 -0 -1 0 -0 -1 0 -0 -1 0 -0 -1 0 -0 -1 0.923989 -0.382419 0 -0.303043 -0.952977 0 0.30368 -0.952774 0 0.706506 0.707707 0 0.924005 0.382381 0 -0.303065 0.95297 0 -0.459063 0.888404 0 0.640703 -0.291966 0.71011 0.650687 0.016407 0.759169 0.214152 -0.140067 0.966706 0.009441 -0.035145 0.999338 0.016245 0.037831 0.999152 0.112022 -0.487037 0.866168 0.79912 -0.231137 0.554962 0.490887 -0.170088 0.854459 0.736005 -0.144297 0.661419 0.008728 1e-06 0.999962 0.007694 0.000687 0.99997 0.108214 0.133386 0.985139 0.008728 1e-06 0.999962 0.209178 -0.808567 0.549967 -0.887812 0.460206 0 0.903728 0.428108 0 0.934487 0.355998 0 0.116202 -0.993226 0 0.341311 -0.939951 0 -0.619892 -0.784687 0 -0.901706 0.432349 0 0.040274 -0.875588 0.481378 0.214861 -0.382001 0.898838 0.098417 -0.008911 0.995106 -0.923837 -0.382786 0 -1 0 0 0 -0 -1 0 -0 -1 0 -0 -1 0 -0 -1 0 -0 -1 0 -0 -1 0 -0 -1 0 -0 -1 0 -0 -1 0 -0 -1 0 -0 -1 0 -0 -1 0 -0 -1 0 -0 -1 0 -0 -1 0 -0 -1 -4.1e-05 2.1e-05 -1 0.040523 -0.002893 -0.999174 -3.7e-05 -1.5e-05 -1 -0.036228 0.043013 -0.998417 0.000615 -9.8e-05 -1 -0.063823 -0.001788 -0.99796 0.020149 0.122265 -0.992293 -0.760952 0.106862 -0.639947 -4.7e-05 3e-06 -1 -0.043487 -0.042087 -0.998167 0.020009 -0.123244 -0.992175 -0.706506 0.707707 0 0.303065 0.95297 0 -0.924005 0.382381 0 -0.923989 -0.38242 0 -0.30368 -0.952774 0 0.303043 -0.952977 0 0.459063 0.888404 0 1 0 0 0.923837 -0.382786 0 0 -0 -1 0 -0 -1 0 -0 -1 0 -0 -1 0 -0 -1 0 -0 -1 0 -0 -1 0 -0 -1 0 -0 -1 0 -0 -1 0 -0 -1 0 -0 -1 0 -0 -1 -0.157605 -0.916208 0.368407 -0.008728 1e-06 0.999962 -0.441454 -0.12678 0.888282 -0.155497 -0.732038 0.663281 -0.007637 0.001124 0.99997 -0.780688 -0.272396 0.562429 -0.009426 -0.041443 0.999096 -0.793874 -0.201217 0.573825 -0.008728 1e-06 0.999962 -0.103488 -0.507767 0.855256 0.005422 0.072029 0.997388 0.459063 -0.888404 0 0.303065 -0.95297 0 -0.924005 -0.382381 0 -0.30368 0.952774 0 -0.923989 0.38242 0 0.303043 0.952977 0 -0.706506 -0.707707 0 0.923837 0.382786 0 1 0 0 -0.205713 0.824647 0.526914 -0.008728 -1e-06 0.999962 -0.201397 0.789636 0.579581 -0.598504 0.375643 0.707592 -0.007067 -0.001385 0.999974 -0.442891 0.122687 0.888142 0.005907 -0.07165 0.997412 -0.009569 0.04215 0.999065 -0.103962 0.504882 0.856905 -0.573143 0.261212 0.776708 -0.008728 -1e-06 0.999962 0 -0 -1 0 -0 -1 0 -0 -1 0 -0 -1 0 -0 -1 0 -0 -1 0 -0 -1 0 -0 -1 0 -0 -1 0 -0 -1 0 -0 -1 0 -0 -1 0 -0 -1 0.73673 0.175061 0.653133 0.319436 0.180688 0.930222 0.874889 0.027903 0.483519 0.700413 0.703298 0.12163 0.999745 -0.022602 0 0.989584 -0.143956 6.2e-05 0.999759 0.021972 2e-05 1 0 0 0.999215 0.039619 0 0.999745 0.022581 0 0.99976 -0.021898 3.1e-05 0.872301 -0.019635 0.488576 0.754818 -0.181224 0.630403 0.616466 -0.629314 -0.473215 0.892263 -0.290435 -0.345709 0.904256 -0.235481 -0.356188 -0.123646 -0.833078 -0.53916 -0.559923 -0.788727 -0.253763 0.739072 -0.496774 -0.45496 -0.037883 -0.80824 -0.587633 -0.693363 0.165909 -0.701229 -0.212755 0.726611 -0.653277 -0.979869 0.152947 -0.128311 -0.036085 0.050182 -0.998088 -0.650213 -0.723648 -0.231425 0.024458 -0.006559 -0.999679 0.777596 -0.081258 -0.623492 -0.359429 0.506423 -0.783803 -0.966222 0.23672 -0.101872 -0.135597 -0.803673 -0.579417 -0.740024 -0.646325 -0.186088 0.479762 -0.713918 -0.510049 -0.726284 -0.385245 -0.569295 -0.53222 -0.715441 -0.452644 0.430661 -0.430552 -0.793193 0.85588 -0.237549 -0.459392 -0.704795 0.063398 -0.706572 -0.544988 0.592948 -0.59279 -0.664583 -0.187021 -0.723432 -0.541112 0.447174 -0.712203 -0.014113 0.002304 -0.999898 -0.010462 0.000319 -0.999945 -0.024909 0.067019 -0.997441 0.054327 -0.051252 -0.997207 0.001856 0.067861 -0.997693 0.034498 -0.067802 -0.997102 0.029514 0.107961 -0.993717 0.0397 0.096715 -0.99452 0.002116 -0.093016 -0.995662 0.087308 0.101297 -0.991018 -0.060344 -0.132566 -0.989336 -0.090274 -0.125562 -0.98797 -0.260625 -0.22318 -0.93929 0.258508 -0.006575 -0.965987 -0.286028 -0.144957 -0.947194 -0.655322 -0.156597 -0.738939 -0.538004 -0.057211 -0.840999 -0.691772 -0.006386 -0.722088 -0.023726 0.000654 -0.999718 0.290513 0.144424 -0.945909 0.445465 0.146434 -0.883243 0.570035 0.080149 -0.817702 0.812949 0.128266 -0.568034 0.092367 -0.348361 -0.932798 0.049544 0.016798 -0.998631 -0.033251 0.000643 -0.999447 -0.085653 -0.005958 -0.996307 0.536246 0.560602 -0.631004 -0.169805 -0.340457 -0.9248 0.562211 0.108167 -0.819889 0.01675 -0.000363 -0.99986 0.057002 -0.021169 -0.99815 0.699994 -0.005641 -0.714126 0.075243 0.256881 -0.96351 0.639504 0.348165 -0.685431 -0.6535 0.550698 -0.519296 -0.897923 0.364258 -0.247084 -0.832772 0.021489 -0.553199 -0.079378 0.199993 -0.976577 -0.26462 0.863948 -0.428452 -0.23007 -0.155755 -0.960629 -0.405168 0.854552 -0.324931 0.370236 -0.833337 -0.410457 0.597721 -0.685492 -0.415728 0.040016 0.965943 -0.255642 0.774097 0.633067 0 -0.668692 0.71262 -0.212187 -0.380037 0.431338 -0.818242 -0.786645 0.312346 -0.532569 0.822582 -0.440294 -0.359861 0.758057 -0.216778 -0.615107 -0.195724 0.141112 -0.970453 0.87527 0.483635 0 0.971789 0.235816 0.004078 0.483636 0.875269 0 0.23613 0.971701 0.006363 0.633065 0.774099 0 0.075262 0.996685 0.030898 -0.142432 -0.989805 -1.1e-05 -0.700225 -0.703096 0.123858 -0.989792 -0.142495 -0.002779 -0.707107 -0.707107 0 0.845221 0.534335 0.00935 0.142476 0.989798 -0.00011 0.022601 0.999745 0 -0.184803 0.724753 0.663763 -0.022581 0.999745 0 -0.039619 0.999215 0 -0.029878 0.887623 0.4596 -0.021971 0.999759 0 1.1e-05 1 0 0.021896 0.99976 3.1e-05 -0.991267 -0.127636 0.033136 -0.049485 -0.99844 0.025857 -0.162586 -0.986692 0.002264 -0.304263 -0.414853 0.857509 -0.140873 -0.946673 0.289768 -0.691225 -0.719577 0.066461 -0.670348 -0.2256 0.706922 -0.581851 0.621937 -0.524065 0.714252 0.692291 -0.102847 0.980344 -0.148806 -0.129548 -0.619041 -0.778256 0.105384 0.593628 0.801225 -0.075132 -0.007576 0.935667 -0.352802 -0.34281 -0.938402 0.043396 -0.746148 -0.66578 -1.2e-05 -0.633065 -0.774099 0 0.680488 0.118509 -0.723113 0.646614 -0.594056 -0.478526 -0.696188 0.499813 -0.515277 0.01785 -0.307555 -0.951363 0.814209 0.172215 -0.554442 -0.016585 -0.838219 -0.545082 -0.483636 -0.875269 0 -0.236169 -0.971692 0.006286 -0.175373 -0.317241 0.931989 -0.020561 -0.888576 0.458268 0.635912 -0.771761 0 0.468238 0.883602 0 -0.873016 -0.487691 0 -0.348464 0.508755 -0.787236 0.88019 0.129191 -0.4567 -0.500656 0.597299 -0.62656 0.034735 -0.624208 -0.780485 0.371367 0.273661 -0.887241 0.904198 -0.353981 -0.239004 -0.483302 0.44984 -0.751042 -0.155906 0.24009 -0.958149 0.509486 0.603797 -0.613069 1.1e-05 -1 0 0.456857 0.432132 -0.777524 0.712156 -0.072824 -0.698233 0.732586 -0.609781 -0.302464 0.537858 -0.580837 -0.611013 0.851874 -0.340359 -0.398077 0.38879 0.899971 -0.197217 0.833978 0.18966 -0.51818 0.334988 -0.448166 -0.828813 0.965962 -0.0425 -0.255168 -0.848801 0.318115 -0.422303 0.174204 0.315585 -0.932769 -0.079343 0.860807 -0.502709 -0.141928 0.909806 -0.390012 -0.715822 -0.536904 -0.446466 -0.440027 0.397811 -0.805061 0.064837 -3.9e-05 -0.997896 -0.668786 0.125744 -0.732744 -0.066426 -7.6e-05 -0.997791 -0.71232 0.117636 -0.691927 0.511329 0.431399 -0.743261 -0.656081 -0.646453 -0.38943 -0.549427 -0.562293 -0.618027 0.412127 -0.463041 -0.784694 -0.584589 0.174182 -0.792412 0.672782 0.610866 -0.417381 0.236532 -0.971603 0.006366 -0.993595 -0.010648 0.112499 -0.492996 0.820881 -0.288288 -0.911291 0.026628 -0.410902 0.302679 0.786439 -0.538422 0.804062 -0.074853 -0.589815 0.523511 0.353995 -0.775 0.271608 0.958652 -0.084949 -0.821378 0.133443 -0.554555 0.910711 0.140336 -0.388472 -0.226972 -0.754671 -0.615594 0.863511 0.087227 -0.49673 -0.717785 -0.491426 -0.49324 -0.643403 0.730153 -0.23002 0.710142 0.670693 -0.214172 -0.99385 0.043067 0.102015 0.054944 -0.996363 0.065131 -0.125732 0.860453 -0.493774 0.126777 -0.954367 -0.270392 0.606154 -0.79098 -0.083233 0.917338 0.209813 -0.338333 0.859987 0.262397 -0.437687 -0.048819 0.998487 0.025326 -0.622588 0.775258 0.10658 -0.34264 0.938464 0.043401 0.483636 -0.875269 0 0.633065 -0.774099 0 -0.809053 0.001594 -0.587734 -0.757272 0.626153 -0.185665 0.302639 0.727478 -0.61578 0.675826 -0.078835 -0.732833 -0.373746 0.328601 -0.867373 -0.574558 -0.629521 -0.523055 -0.017287 0.808977 -0.587586 0.81535 0.578969 0 -0.953731 -0.300661 0 -0.151258 0.988494 0 0.981295 0.139299 -0.132876 0.71413 -0.692536 -0.102043 0.437289 0.82696 -0.353435 -0.978944 0.204028 0.006498 -0.56029 0.828288 0.003786 -0.138406 -0.909127 -0.392851 0.823094 0.43882 -0.36049 -0.82127 -0.491521 -0.289694 0.220114 0.747224 -0.627061 0.68345 0.234942 -0.691157 -0.685552 0.726897 0.040492 -0.119576 0.951488 0.283501 -0.666135 0.227562 0.710267 0.224164 -0.659058 0.717909 0.688103 -0.725461 0.014844 0.789076 -0.611561 -0.057894 0.154877 0.979515 -0.128701 -0.805555 0.047477 -0.590616 -0.738123 0.635086 -0.227684 -0.523794 -0.354208 -0.77471 -0.868321 -0.08281 -0.489041 -0.495956 -0.738747 -0.456377 -0.081992 -0.777482 -0.623537 -0.257918 -0.961997 -0.089668 0.764055 -0.059881 -0.642366 0.45216 0.689164 -0.566219 0.6275 -0.399969 -0.668033 0.685342 0.598092 -0.415442 -0.559372 -0.781315 -0.276857 -0.452419 -0.416697 -0.788467 -0.520843 0.637432 -0.567806 0.096738 0.793443 -0.600908 0.088557 -0.787838 -0.609482 -0.504348 -0.369421 -0.780488 0.993523 0.01067 0.113127 0.06599 7.9e-05 -0.99782 0.030206 0.982196 0.185413 0.002349 0.044072 -0.999026 0.644694 0.659333 -0.386846 -0.312978 0.912767 -0.26249 0.591161 0.528706 -0.609096 0.078474 0.690876 -0.718702 -0.179608 0.316869 0.931308 0.318605 -0.18012 0.930617 -0.793195 0.073687 -0.604494 -0.572614 -0.378214 -0.727371 -0.229256 -0.8457 -0.481905 0.088208 0.120825 -0.988747 -0.627625 -0.616443 -0.475484 -0.396298 0.918122 0 0.699675 -0.714461 0 -0.393491 -0.919329 0 -0.619769 0.37763 -0.687955 -0.647648 -0.34515 -0.679282 0.436116 -0.823687 -0.362412 -0.236042 -0.264721 0.93499 0.506227 0.812228 -0.289861 0.993714 -0.011462 0.111362 0.503306 0.862677 -0.049705 0.032873 0.809613 -0.586043 -0.769715 0.05306 -0.636179 0.695805 -0.168519 -0.69818 0.212833 -0.726436 -0.653447 -0.777934 0.08156 -0.623031 -0.783361 -0.092994 -0.614572 -0.338887 0.543363 -0.768057 -0.798946 -0.233989 -0.554017 0.647327 -0.553386 -0.524148 -0.999772 0.014785 -0.015425 -0.725159 0.683494 -0.083551 0.504884 -0.861402 -0.055486 -0.25014 -0.957368 -0.144485 0.692926 0.238514 -0.680415 0.645586 -0.244712 -0.723419 0.162387 0.361611 -0.918079 -0.372618 0.462035 0.804786 -0.046881 -0.630122 -0.77508 -0.022581 -0.999745 0 0.021973 -0.999759 -1.1e-05 -0.021968 -0.999759 -9e-06 0.115873 -0.993262 0.001823 0.022581 -0.999745 -0 0.722751 0.35333 -0.593961 0.723437 -0.353287 -0.593151 0.410729 -0.203442 -0.888771 0.707107 -0.707107 0 0.705752 -0.699248 0.113865 0.16798 0.694743 -0.699368 0.726341 0.212841 -0.653549 0.040556 -0.845486 -0.532455 -0.80922 0.52724 -0.259192 -0.224506 -0.303176 -0.926111 0.340321 -0.509886 -0.790062 -0.845926 -0.025395 -0.532695 0.421936 -0.549303 -0.721274 -0.807988 0.005866 -0.58917 -0.746028 0.665915 -4e-06 0.4881 -0.822664 -0.291516 -0.633065 0.774099 0 0.712607 0.443862 -0.543303 0.68374 -0.45037 -0.574166 -0.249483 -0.571307 -0.7819 0.309991 -0.228465 -0.922881 0.134205 -0.935088 -0.328025 -0.965594 0.044083 -0.256291 -0.478366 -0.735182 -0.480285 -0.375613 0.159259 -0.91299 0.40702 -0.261032 -0.875327 -0.189096 -0.307867 -0.932449 0.620274 -0.37789 -0.687357 -0.536495 0.71322 -0.451099 0.439543 0.351395 -0.826634 0.53296 -0.721717 -0.441677 -0.610568 0.672578 -0.418146 -0.172396 -0.598245 -0.782548 0.463174 0.412509 -0.784414 0.563396 -0.542204 -0.623378 0.243662 -0.666066 -0.704972 0.720744 -0.516997 -0.461782 -0.276901 -0.201985 -0.93943 -0.30995 0.192587 -0.931043 -0.236532 0.971603 0.006366 0.971684 -0.236248 0.004073 -0.382077 0.566482 -0.730148 0.07343 0.791896 -0.606225 0.805181 0.253604 -0.536067 -0.626724 0.701137 -0.340036 -0.034215 0.624772 -0.780057 0.782373 0.093517 -0.615749 -0.121548 0.483423 -0.866907 -0.584193 0.460722 -0.668172 -0.377919 -0.61872 -0.68874 0.717306 0.536741 -0.444275 0.347916 -0.640047 -0.685051 -0.317425 -0.849813 -0.420784 -0.479804 -0.544248 -0.688173 -0.398221 -0.438649 -0.80561 0.550893 0.652565 -0.520265 -0.982151 0.030629 0.185582 -0.044038 0.002379 -0.999027 0.010671 -0.993523 0.11313 -2.6e-05 -0.065982 -0.997821 0.072746 0.955653 0.28537 -0.574262 -0.710945 -0.405932 0.453897 -0.421865 -0.784861 -0.483636 0.875269 0 0.87527 -0.483635 0 -0.673732 -0.610171 -0.416864 0.5993 -0.1735 -0.781497 -0.40092 0.467298 -0.787969 0.540955 0.563327 -0.624524 0.048431 0.713646 -0.69883 -0.609667 -0.055373 -0.790722 -0.541816 -0.639444 -0.545479 -0.987968 -0.154657 0</float_array>
					<technique_common>
						<accessor count="545" source="#base2_M1KShape5.normals-array" stride="3">
							<param name="X" type="float"/>
							<param name="Y" type="float"/>
							<param name="Z" type="float"/>
						</accessor>
					</technique_common>
				</source>
				<vertices id="base2_M1KShape5.vertices">
					<input semantic="POSITION" source="#base2_M1KShape5.positions"/>
				</vertices>
				<triangles count="842" material="blinn25.material">
					<input offset="0" semantic="VERTEX" source="#base2_M1KShape5.vertices" set="0"/>
					<input offset="1" semantic="NORMAL" source="#base2_M1KShape5.normals" set="0"/>
					<p>0 0 2 2 1 1 1 1 3 3 0 0 0 0 3 3 4 4 5 5 7 7 6 6 8 8 10 10 9 9 8 8 7 7 5 5 9 9 7 7 8 8 11 11 6 6 7 7 12 12 13 13 4 4 14 14 16 16 15 15 17 17 15 15 18 18 19 19 16 16 14 14 18 18 15 15 16 16 20 20 22 22 21 21 20 20 21 21 1 1 3 3 1 1 23 23 21 21 23 23 1 1 24 24 12 12 25 25 26 26 24 24 27 27 3 3 23 23 12 12 25 25 12 12 23 23 27 27 24 24 25 25 28 28 21 21 22 22 26 26 27 27 22 22 28 28 22 22 27 27 15 15 17 17 29 29 17 17 19 19 14 14 14 14 29 29 17 17 30 30 32 32 31 31 32 32 4 4 31 31 13 13 31 31 4 4 6 6 11 11 33 33 10 10 33 33 34 34 34 34 33 33 11 11 34 34 9 9 10 10 35 35 37 37 36 36 38 38 36 36 37 37 39 39 40 40 35 35 41 41 43 43 42 42 35 35 40 40 37 37 44 44 42 42 43 43 41 41 42 42 39 39 40 40 39 39 42 42 45 45 46 46 43 43 47 47 43 43 46 46 44 44 43 43 48 48 47 47 48 48 43 43 45 45 50 50 49 49 46 46 45 45 49 49 50 50 41 41 36 36 36 36 41 41 39 39 49 49 50 50 38 38 50 50 36 36 38 38 51 51 53 53 52 52 54 54 56 56 55 55 51 51 54 54 55 55 57 57 55 55 56 56 53 53 51 51 55 55 58 58 60 60 59 59 61 61 63 63 62 62 64 64 63 63 61 61 65 65 62 62 63 63 64 64 61 61 66 66 67 67 68 68 66 66 67 67 66 66 61 61 68 68 70 70 69 69 66 66 68 68 71 71 70 70 62 62 59 59 71 71 68 68 69 69 69 69 70 70 59 59 65 65 59 59 62 62 72 72 74 74 73 73 73 73 76 76 75 75 76 76 73 73 74 74 75 75 76 76 77 77 76 76 72 72 77 77 78 78 77 77 72 72 73 73 78 78 72 72 79 79 81 81 80 80 58 58 80 80 60 60 60 60 80 80 81 81 82 82 52 52 53 53 82 82 57 57 83 83 56 56 83 83 57 57 52 52 82 82 83 83 84 84 86 86 85 85 86 86 88 88 87 87 88 88 89 89 87 87 90 90 87 87 89 89 91 91 90 90 86 86 89 89 86 86 90 90 92 92 91 91 84 84 86 86 84 84 91 91 92 92 84 84 93 93 94 94 93 93 84 84 93 93 94 94 95 95 96 96 93 93 95 95 97 97 98 98 94 94 95 95 94 94 98 98 99 99 98 98 97 97 87 87 99 99 86 86 85 85 99 99 97 97 99 99 85 85 86 86 100 100 102 102 101 101 101 101 103 103 100 100 104 104 100 100 103 103 103 103 105 105 104 104 106 106 103 103 101 101 107 107 109 109 108 108 110 110 101 101 109 109 108 108 109 109 102 102 101 101 102 102 109 109 111 111 113 113 112 112 114 114 116 116 115 115 114 114 113 113 111 111 115 115 113 113 114 114 117 117 112 112 113 113 112 112 117 117 118 118 116 116 118 118 119 119 119 119 118 118 117 117 119 119 115 115 116 116 120 120 122 122 121 121 121 121 123 123 120 120 124 124 120 120 123 123 120 120 126 126 125 125 122 122 120 120 125 125 127 127 125 125 126 126 126 126 129 129 128 128 127 127 126 126 128 128 128 128 129 129 130 130 129 129 124 124 123 123 131 131 128 128 130 130 130 130 129 129 132 132 123 123 132 132 129 129 133 133 135 135 134 134 133 133 134 134 136 136 137 137 136 136 134 134 138 138 140 140 139 139 136 136 137 137 140 140 141 141 140 140 137 137 138 138 139 139 142 142 141 141 139 139 140 140 135 135 142 142 143 143 139 139 143 143 142 142 143 143 134 134 135 135 144 144 146 146 145 145 147 147 148 148 146 146 148 148 147 147 149 149 150 150 145 145 146 146 148 148 150 150 146 146 151 151 149 149 147 147 151 151 144 144 152 152 145 145 152 152 144 144 149 149 151 151 152 152 153 153 155 155 154 154 156 156 157 157 155 155 153 153 154 154 158 158 157 157 154 154 155 155 159 159 158 158 154 154 160 160 161 161 159 159 162 162 161 161 160 160 158 158 159 159 161 161 162 162 160 160 156 156 163 163 157 157 156 156 163 163 156 156 160 160 164 164 166 166 165 165 165 165 166 166 167 167 167 167 166 166 168 168 169 169 168 168 166 166 169 169 171 171 170 170 170 170 168 168 169 169 171 171 172 172 170 170 172 172 173 173 170 170 174 174 172 172 164 164 164 164 172 172 171 171 175 175 164 164 165 165 174 174 164 164 176 176 175 175 176 176 164 164 2 2 178 178 177 177 179 179 177 177 178 178 3 3 12 12 4 4 180 180 26 26 22 22 181 181 64 64 182 182 179 179 183 183 177 177 179 179 184 184 183 183 22 22 20 20 185 185 177 177 183 183 20 20 183 183 186 186 185 185 185 185 20 20 183 183 183 183 184 184 187 187 188 188 187 187 184 184 189 189 64 64 181 181 181 181 187 187 189 189 188 188 189 189 187 187 66 66 182 182 64 64 190 190 192 192 191 191 193 193 192 192 190 190 194 194 196 196 195 195 197 197 199 199 198 198 200 200 198 198 199 199 190 190 199 199 201 201 195 195 203 203 202 202 196 196 203 203 195 195 204 204 206 206 205 205 207 207 206 206 208 208 209 209 211 211 210 210 212 212 210 210 211 211 213 213 215 215 214 214 216 216 214 214 215 215 217 217 218 218 202 202 202 202 200 200 217 217 200 200 219 219 217 217 219 219 220 220 217 217 220 220 221 221 217 217 221 221 222 222 217 217 222 222 223 223 217 217 223 223 224 224 217 217 224 224 225 225 217 217 225 225 226 226 217 217 226 226 227 227 217 217 227 227 228 228 217 217 228 228 229 229 217 217 229 229 230 230 217 217 230 230 231 231 217 217 231 231 232 232 217 217 232 232 233 233 217 217 234 234 217 217 233 233 218 218 235 235 202 202 235 235 236 236 202 202 236 236 237 237 202 202 237 237 238 238 202 202 216 216 239 239 238 238 202 202 238 238 239 239 240 240 241 241 218 218 242 242 243 243 218 218 244 244 235 235 243 243 218 218 243 243 235 235 243 243 245 245 244 244 246 246 241 241 240 240 247 247 248 248 242 242 242 242 218 218 247 247 247 247 218 218 241 241 249 249 250 250 248 248 250 250 242 242 248 248 251 251 252 252 237 237 253 253 237 237 252 252 254 254 256 256 255 255 257 257 259 259 258 258 260 260 261 261 222 222 221 221 260 260 222 222 1 1 2 2 20 20 0 0 262 262 2 2 207 207 208 208 263 263 209 209 265 265 264 264 210 210 265 265 209 209 199 199 197 197 196 196 208 208 267 267 266 266 206 206 267 267 208 208 201 201 193 193 190 190 254 254 193 193 207 207 201 201 207 207 193 193 263 263 219 219 256 256 256 256 254 254 263 263 193 193 268 268 192 192 269 269 178 178 262 262 270 270 178 178 269 269 2 2 262 262 178 178 179 179 178 178 270 270 271 271 32 32 272 272 273 273 32 32 271 271 30 30 272 272 32 32 4 4 32 32 273 273 24 24 274 274 31 31 136 136 276 276 275 275 277 277 278 278 140 140 275 275 276 276 278 278 140 140 278 278 276 276 180 180 22 22 279 279 185 185 279 279 22 22 26 26 180 180 280 280 279 279 280 280 180 180 281 281 274 274 280 280 282 282 283 283 153 153 155 155 153 153 284 284 285 285 286 286 282 282 284 284 153 153 283 283 285 285 287 287 286 286 286 286 283 283 282 282 286 286 287 287 288 288 30 30 288 288 287 287 281 281 288 288 274 274 30 30 274 274 288 288 26 26 280 280 274 274 289 289 105 105 103 103 140 140 138 138 277 277 289 289 277 277 138 138 290 290 289 289 138 138 289 289 290 290 291 291 290 290 138 138 292 292 293 293 138 138 142 142 294 294 293 293 142 142 142 142 135 135 294 294 294 294 135 135 295 295 296 296 298 298 297 297 292 292 138 138 293 293 293 293 299 299 292 292 300 300 301 301 296 296 290 290 299 299 302 302 299 299 294 294 303 303 293 293 294 294 299 299 304 304 294 294 295 295 297 297 300 300 296 296 305 305 307 307 306 306 308 308 301 301 309 309 240 240 310 310 246 246 309 309 246 246 310 310 310 310 308 308 309 309 311 311 313 313 312 312 304 304 313 313 311 311 314 314 312 312 313 313 295 295 313 313 304 304 315 315 317 317 316 316 318 318 320 320 319 319 319 319 305 305 306 306 319 319 306 306 321 321 322 322 324 324 323 323 322 322 326 326 325 325 327 327 312 312 314 314 328 328 330 330 329 329 329 329 330 330 331 331 233 233 330 330 234 234 232 232 332 332 325 325 233 233 323 323 324 324 333 333 332 332 334 334 334 334 332 332 335 335 336 336 338 338 337 337 204 204 205 205 339 339 340 340 339 339 205 205 341 341 342 342 335 335 334 334 335 335 342 342 305 305 320 320 343 343 344 344 345 345 338 338 343 343 320 320 328 328 328 328 324 324 343 343 324 324 322 322 343 343 322 322 325 325 343 343 345 345 343 343 325 325 325 325 338 338 345 345 346 346 345 345 347 347 345 345 344 344 347 347 348 348 336 336 231 231 230 230 348 348 231 231 349 349 351 351 350 350 352 352 350 350 351 351 336 336 348 348 350 350 349 349 350 350 348 348 351 351 349 349 344 344 344 344 349 349 348 348 327 327 79 79 353 353 346 346 355 355 354 354 354 354 345 345 346 346 356 356 346 346 357 357 347 347 357 357 346 346 230 230 358 358 347 347 357 357 347 347 358 358 359 359 361 361 360 360 228 228 363 363 362 362 364 364 362 362 363 363 359 359 364 364 363 363 363 363 365 365 361 361 228 228 365 365 363 363 365 365 367 367 366 366 156 156 368 368 162 162 71 71 69 69 369 369 208 208 219 219 263 263 366 366 367 367 370 370 371 371 249 249 372 372 65 65 58 58 59 59 208 208 266 266 219 219 190 190 200 200 199 199 373 373 374 374 367 367 370 370 367 367 374 374 375 375 377 377 376 376 378 378 80 80 379 379 353 353 80 80 378 378 58 58 379 379 80 80 79 79 80 80 353 353 380 380 381 381 370 370 366 366 370 370 381 381 250 250 249 249 382 382 382 382 249 249 383 383 383 383 249 249 371 371 384 384 382 382 383 383 372 372 385 385 371 371 384 384 242 242 386 386 387 387 389 389 388 388 371 371 384 384 383 383 385 385 391 391 390 390 242 242 385 385 390 390 392 392 242 242 390 390 156 156 393 393 368 368 393 393 156 156 394 394 155 155 394 394 156 156 394 394 155 155 284 284 395 395 396 396 227 227 226 226 395 395 227 227 206 206 207 207 205 205 397 397 205 205 207 207 390 390 398 398 392 392 398 398 390 390 399 399 400 400 161 161 401 401 161 161 400 400 158 158 400 400 402 402 158 158 403 403 405 405 404 404 406 406 407 407 381 381 408 408 381 381 407 407 409 409 410 410 398 398 410 410 243 243 398 398 392 392 398 398 243 243 408 408 407 407 411 411 411 411 412 412 395 395 412 412 411 411 407 407 411 411 395 395 226 226 413 413 245 245 243 243 414 414 244 244 245 245 158 158 402 402 153 153 414 414 415 415 244 244 415 415 414 414 416 416 153 153 402 402 282 282 403 403 64 64 189 189 417 417 235 235 418 418 419 419 421 421 420 420 416 416 414 414 418 418 419 419 422 422 225 225 422 422 419 419 423 423 424 424 425 425 414 414 408 408 421 421 426 426 426 426 421 421 427 427 428 428 430 430 429 429 431 431 429 429 430 430 219 219 200 200 191 191 282 282 402 402 432 432 285 285 282 282 432 432 188 188 433 433 189 189 189 189 433 433 403 403 199 199 196 196 201 201 194 194 201 201 196 196 434 434 415 415 435 435 416 416 435 435 415 415 235 235 434 434 418 418 435 435 418 418 434 434 227 227 436 436 373 373 374 374 436 436 437 437 374 374 373 373 436 436 380 380 370 370 437 437 438 438 436 436 227 227 436 436 438 438 380 380 439 439 441 441 440 440 69 69 81 81 369 369 338 338 336 336 352 352 352 352 336 336 350 350 351 351 344 344 352 352 442 442 443 443 232 232 232 232 325 325 442 442 217 217 444 444 218 218 314 314 313 313 445 445 295 295 445 445 313 313 136 136 140 140 276 276 135 135 133 133 295 295 305 305 447 447 446 446 295 295 133 133 445 445 289 289 103 103 448 448 448 448 103 103 106 106 309 309 301 301 300 300 447 447 305 305 343 343 298 298 449 449 297 297 446 446 297 297 449 449 446 446 449 449 307 307 320 320 305 305 319 319 446 446 307 307 305 305 308 308 450 450 301 301 300 300 246 246 309 309 330 330 328 328 320 320 298 298 451 451 449 449 301 301 450 450 296 296 296 296 450 450 218 218 218 218 298 298 296 296 444 444 298 298 218 218 444 444 452 452 298 298 451 451 298 298 452 452 453 453 449 449 452 452 451 451 452 452 449 449 306 306 307 307 217 217 449 449 453 453 307 307 307 307 453 453 217 217 133 133 314 314 445 445 453 453 452 452 217 217 444 444 217 217 452 452 454 454 318 318 321 321 319 319 321 321 318 318 324 324 328 328 455 455 329 329 455 455 328 328 234 234 330 330 320 320 318 318 454 454 320 320 320 320 454 454 234 234 306 306 234 234 321 321 454 454 321 321 234 234 455 455 329 329 456 456 331 331 456 456 329 329 197 197 198 198 196 196 203 203 196 196 198 198 456 456 324 324 455 455 324 324 456 456 233 233 233 233 456 456 330 330 331 331 330 330 456 456 206 206 204 204 267 267 332 332 333 333 325 325 338 338 325 325 333 333 337 337 338 338 333 333 442 442 325 325 326 326 322 322 323 323 326 326 326 326 323 323 457 457 442 442 326 326 443 443 457 457 443 443 326 326 443 443 457 457 232 232 323 323 232 232 457 457 337 337 333 333 342 342 334 334 342 342 333 333 231 231 332 332 232 232 352 352 344 344 338 338 231 231 336 336 337 337 230 230 344 344 348 348 458 458 109 109 459 459 460 460 110 110 109 109 461 461 460 460 109 109 462 462 106 106 101 101 463 463 101 101 110 110 347 347 344 344 230 230 346 346 229 229 464 464 360 360 355 355 464 464 355 355 360 360 366 366 361 361 366 366 360 360 362 362 364 364 360 360 359 359 360 360 364 364 375 375 162 162 459 459 458 458 459 459 393 393 368 368 459 459 162 162 465 465 162 162 375 375 393 393 459 459 368 368 229 229 466 466 230 230 358 358 230 230 466 466 356 356 357 357 466 466 358 358 466 466 357 357 355 355 346 346 464 464 356 356 466 466 229 229 229 229 346 346 356 356 362 362 360 360 464 464 229 229 362 362 464 464 369 369 81 81 79 79 467 467 133 133 275 275 79 79 327 327 468 468 79 79 468 468 369 369 314 314 469 469 327 327 468 468 327 327 469 469 71 71 369 369 470 470 468 468 471 471 470 470 470 470 369 369 468 468 467 467 469 469 133 133 314 314 133 133 469 469 136 136 275 275 133 133 228 228 362 362 229 229 366 366 361 361 365 365 247 247 101 101 248 248 463 463 248 248 101 101 241 241 462 462 247 247 101 101 247 247 462 462 462 462 241 241 246 246 246 246 300 300 472 472 448 448 472 472 300 300 472 472 462 462 246 246 473 473 474 474 463 463 463 463 474 474 248 248 460 460 372 372 473 473 474 474 473 473 372 372 376 376 465 465 375 375 367 367 228 228 373 373 365 365 228 228 367 367 401 401 161 161 162 162 401 401 465 465 376 376 162 162 465 465 401 401 227 227 373 373 228 228 370 370 374 374 437 437 381 381 380 380 438 438 441 441 439 439 440 440 380 380 437 437 436 436 404 404 379 379 58 58 391 391 385 385 372 372 438 438 406 406 381 381 406 406 227 227 396 396 438 438 227 227 406 406 243 243 242 242 392 392 470 470 475 475 71 71 66 66 476 476 182 182 71 71 475 475 476 476 182 182 476 476 475 475 477 477 406 406 478 478 396 396 478 478 406 406 479 479 481 481 480 480 482 482 484 484 483 483 485 485 483 483 484 484 65 65 63 63 404 404 404 404 58 58 65 65 404 404 63 63 403 403 376 376 486 486 400 400 401 401 376 376 400 400 66 66 71 71 476 476 487 487 413 413 391 391 390 390 391 391 413 413 400 400 488 488 402 402 487 487 414 414 245 245 411 411 226 226 421 421 63 63 64 64 403 403 489 489 420 420 421 421 226 226 489 489 421 421 479 479 490 490 220 220 490 490 479 479 491 491 422 422 489 489 225 225 226 226 225 225 489 489 414 414 487 487 424 424 435 435 416 416 418 418 492 492 417 417 418 418 224 224 428 428 225 225 493 493 428 428 224 224 236 236 235 235 417 417 494 494 236 236 417 417 223 223 259 259 224 224 212 212 236 236 494 494 495 495 493 493 224 224 419 419 225 225 428 428 429 429 419 419 428 428 256 256 219 219 192 192 191 191 192 192 219 219 192 192 255 255 256 256 397 397 479 479 496 496 259 259 223 223 258 258 497 497 237 237 265 265 210 210 212 212 498 498 497 497 210 210 498 498 499 499 251 251 497 497 237 237 497 497 251 251 500 500 223 223 501 501 223 223 500 500 258 258 222 222 502 502 223 223 501 501 223 223 502 502 340 340 219 219 266 266 220 220 219 219 340 340 503 503 505 505 504 504 506 506 504 504 505 505 213 213 507 507 215 215 507 507 508 508 215 215 481 481 260 260 480 480 215 215 508 508 509 509 503 503 481 481 510 510 496 496 479 479 220 220 287 287 285 285 511 511 184 184 512 512 188 188 508 508 238 238 253 253 513 513 480 480 514 514 221 221 514 514 480 480 260 260 221 221 480 480 484 484 239 239 216 216 507 507 213 213 515 515 214 214 515 515 213 213 220 220 490 490 221 221 514 514 221 221 490 490 516 516 239 239 517 517 518 518 517 517 239 239 481 481 504 504 260 260 506 506 260 260 504 504 504 504 481 481 503 503 519 519 520 520 257 257 521 521 257 257 520 520 209 209 264 264 211 211 522 522 211 211 264 264 259 259 257 257 521 521 521 521 523 523 259 259 265 265 210 210 497 497 202 202 239 239 516 516 524 524 222 222 261 261 499 499 525 525 251 251 252 252 251 251 525 525 500 500 501 501 526 526 502 502 526 526 501 501 485 485 202 202 516 516 195 195 202 202 485 485 496 496 220 220 340 340 205 205 496 496 340 340 484 484 518 518 239 239 518 518 484 484 482 482 253 253 238 238 237 237 224 224 527 527 519 519 527 527 520 520 519 519 264 264 265 265 522 522 236 236 522 522 265 265 224 224 259 259 527 527 523 523 527 527 259 259 200 200 202 202 198 198 203 203 198 198 202 202 266 266 267 267 340 340 204 204 339 339 267 267 339 339 340 340 267 267 255 255 192 192 268 268 491 491 513 513 490 490 514 514 490 490 513 513 500 500 524 524 258 258 524 524 500 500 526 526 510 510 257 257 258 258 524 524 510 510 258 258 194 194 195 195 485 485 252 252 525 525 253 253 509 509 253 253 525 525 509 509 525 525 497 497 483 483 517 517 482 482 518 518 482 482 517 517 194 194 485 485 528 528 528 528 485 485 529 529 205 205 397 397 496 496 483 483 516 516 517 517 516 516 483 483 485 485 287 287 272 272 30 30 261 261 260 260 505 505 506 506 505 505 260 260 184 184 179 179 270 270 530 530 531 531 479 479 479 479 397 397 530 530 524 524 502 502 222 222 502 502 524 524 526 526 190 190 191 191 200 200 508 508 515 515 238 238 515 515 508 508 507 507 479 479 480 480 491 491 513 513 491 491 480 480 421 421 419 419 427 427 479 479 531 531 481 481 481 481 531 531 510 510 419 419 519 519 427 427 519 519 257 257 427 427 531 531 427 427 257 257 257 257 510 510 531 531 20 20 2 2 177 177 26 26 532 532 24 24 274 274 30 30 31 31 215 215 484 484 216 216 503 503 261 261 505 505 510 510 261 261 503 503 238 238 515 515 216 216 214 214 216 216 515 515 499 499 497 497 525 525 510 510 524 524 261 261 533 533 495 495 429 429 431 431 533 533 429 429 237 237 236 236 265 265 519 519 419 419 429 429 495 495 519 519 429 429 533 533 431 431 534 534 430 430 534 534 431 431 533 533 534 534 493 493 493 493 495 495 533 533 485 485 484 484 529 529 492 492 425 425 498 498 529 529 484 484 215 215 215 215 509 509 529 529 509 509 497 497 529 529 425 425 529 529 497 497 497 497 498 498 425 425 414 414 425 425 492 492 495 495 224 224 519 519 212 212 522 522 236 236 522 522 212 212 211 211 535 535 432 432 488 488 511 511 432 432 535 535 402 402 488 488 432 432 285 285 432 432 511 511 536 536 433 433 512 512 405 405 433 433 536 536 188 188 512 512 433 433 403 403 433 433 405 405 207 207 263 263 254 254 521 521 520 520 523 523 527 527 523 523 520 520 537 537 539 539 538 538 540 540 538 538 539 539 537 537 492 492 498 498 538 538 492 492 537 537 537 537 494 494 539 539 498 498 494 494 537 537 498 498 212 212 494 494 492 492 538 538 417 417 540 540 417 417 538 538 494 494 417 417 539 539 540 540 539 539 417 417 430 430 428 428 534 534 493 493 534 534 428 428 255 255 268 268 193 193 193 193 254 254 255 255 422 422 423 423 489 489 420 420 489 489 423 423 423 423 419 419 420 420 434 434 235 235 415 415 244 244 415 415 235 235 492 492 418 418 414 414 390 390 413 413 399 399 409 409 399 399 413 413 399 399 409 409 398 398 412 412 478 478 395 395 396 396 395 395 478 478 409 409 413 413 410 410 243 243 410 410 413 413 413 413 487 487 245 245 408 408 411 411 421 421 406 406 477 477 407 407 477 477 478 478 407 407 412 412 407 407 478 478 250 250 382 382 242 242 541 541 242 242 382 382 382 382 384 384 541 541 242 242 542 542 385 385 371 371 385 385 542 542 387 387 388 388 389 389 361 361 359 359 363 363 231 231 341 341 332 332 335 335 332 332 341 341 341 341 337 337 342 342 337 337 341 341 231 231 232 232 323 323 233 233 217 217 234 234 306 306 450 450 310 310 240 240 240 240 218 218 543 543 315 315 544 544 317 317 544 544 316 316 317 317 509 509 508 508 253 253 299 299 290 290 292 292</p>
				</triangles>
			</mesh>
		</geometry>
	</library_geometries>
	<library_visual_scenes>
		<visual_scene id="VisualSceneNode" name="base1d_med">
			<node id="base_link.dae" name="base_link.dae">
				<instance_geometry url="#base2_M1KShape0">
					<bind_material>
						<technique_common>
							<instance_material symbol="blinn20.material" target="#blinn20.material"/>
						</technique_common>
					</bind_material>
				</instance_geometry>
				<instance_geometry url="#base2_M1KShape1">
					<bind_material>
						<technique_common>
							<instance_material symbol="blinn21.material" target="#blinn21.material"/>
						</technique_common>
					</bind_material>
				</instance_geometry>
				<instance_geometry url="#base2_M1KShape2">
					<bind_material>
						<technique_common>
							<instance_material symbol="blinn22.material" target="#blinn22.material"/>
						</technique_common>
					</bind_material>
				</instance_geometry>
				<instance_geometry url="#base2_M1KShape3">
					<bind_material>
						<technique_common>
							<instance_material symbol="blinn23.material" target="#blinn23.material"/>
						</technique_common>
					</bind_material>
				</instance_geometry>
				<instance_geometry url="#base2_M1KShape4">
					<bind_material>
						<technique_common>
							<instance_material symbol="blinn24.material" target="#blinn24.material"/>
						</technique_common>
					</bind_material>
				</instance_geometry>
				<instance_geometry url="#base2_M1KShape5">
					<bind_material>
						<technique_common>
							<instance_material symbol="blinn25.material" target="#blinn25.material"/>
						</technique_common>
					</bind_material>
				</instance_geometry>
			</node>
		</visual_scene>
	</library_visual_scenes>
	<scene>
		<instance_visual_scene url="#VisualSceneNode"/>
	</scene>
</COLLADA>
