<?xml version="1.0" encoding="UTF-8"?>
<COLLADA xmlns="http://www.collada.org/2005/11/COLLADASchema" version="1.4.1">
	<asset>
		<contributor>
			<author>DENSO WAVE</author>
		</contributor>
		<unit/>
		<up_axis>Y_UP</up_axis>
	</asset>
	<library_materials>
		<material id="blinn20.material" name="blinn20">
			<instance_effect url="#blinn20.effect"/>
		</material>
	</library_materials>
	<library_effects>
		<effect id="blinn20.effect">
			<profile_COMMON>
				<technique sid="common">
					<phong>
						<emission>
							<color>0.04 0.04 0.04 1</color>
						</emission>
						<diffuse>
							<color>1 1 1 1</color>
						</diffuse>
						<specular>
							<color>0.2 0.2 0.2 1</color>
						</specular>
					</phong>
				</technique>
			</profile_COMMON>
		</effect>
	</library_effects>
	<library_geometries>
		<geometry id="base2_M1KShape0" name="base2_M1KShape0">
			<mesh>
				<source id="base2_M1KShape0.positions">
					<float_array id="base2_M1KShape0.positions-array" count="2742">-0.0501406 0.154999 0.0680834 -0.0177031 0.155 0.082655 -0.0499581 0.155 0.068769 0.0162753 0.155 0.0829234 -0.0176764 0.155 0.083171 0.047626 0.155 0.069835 0.047761 0.155 0.070348 0.016346 0.155 0.083414 0.0721916 0.154998 0.0440463 0.072219 0.155 0.044827 -0.06435 0.0782288 0.236097 -0.0575254 0.0785601 0.225465 -0.0692991 0.0778766 0.247864 -0.0647498 0.102825 0.250062 -0.0582796 0.103566 0.22564 -0.0288356 0.160663 0.13478 -0.0330722 0.159176 0.159573 -0.0338276 0.161575 0.134569 -0.0308288 0.158648 0.158541 -0.0349386 0.155787 0.180925 -0.0340336 0.155645 0.181043 -0.0395002 0.14874 0.192697 -0.042917 0.144486 0.194585 -0.0452793 0.139452 0.195851 -0.0383176 0.151637 0.193921 -0.0389507 0.153147 0.194355 -0.044272 0.139966 0.180072 -0.0349386 0.155787 0.180925 -0.0366873 0.153301 0.193643 -0.0276271 0.158707 0.181455 -0.0340336 0.155645 0.181043 -0.027495 0.15981 0.158101 -0.0288356 0.160663 0.13478 -0.0308288 0.158648 0.158541 -0.0442766 0.14447 0.208693 -0.0403515 0.15181 0.209734 -0.0435156 0.144151 0.209746 -0.0464543 0.139138 0.207473 -0.0471113 0.13844 0.205946 -0.0389973 0.151307 0.21068 -0.0354629 0.154999 0.194975 -0.0410204 0.155 0.194458 -0.0442703 0.155 0.195707 -0.0467691 0.134712 0.197479 -0.0482639 0.129296 0.201515 -0.0466319 0.155 0.198266 -0.0482138 0.130335 0.202998 -0.0480695 0.129578 0.200179 -0.0475715 0.131316 0.198799 -0.0476019 0.155 0.201792 -0.041431 0.155 0.209475 -0.0446078 0.155 0.20805 -0.046826 0.155 0.205366 -0.0360586 0.154991 0.209259 -0.034648 0.155058 0.210239 -0.0356397 0.154498 0.213278 -0.0389973 0.151307 0.21068 -0.0314432 0.156937 0.196841 -0.0298016 0.157033 0.209993 -0.0300048 0.157292 0.201742 -0.0346294 0.155018 0.193621 -0.0366873 0.153301 0.193643 -0.0313144 0.156767 0.20691 -0.0401128 0.150223 0.216335 -0.05526 0.13772 0.254043 -0.0651862 0.10278 0.251538 -0.0647498 0.102825 0.250062 -0.0555864 0.137702 0.254996 -0.0357959 0.154393 0.214362 -0.0300978 0.156908 0.21131 -0.0391111 0.152965 0.236987 -0.0402397 0.150147 0.21731 -0.043969 0.151301 0.260391 -0.040863 0.152569 0.268978 -0.047371 0.1482 0.25826 -0.03379 0.155177 0.2362 0.072165 0.0940347 0.126479 0.075657 0.0953122 0.084495 0.069094 0.0890994 0.083453 0.063899 0.0878073 0.125949 0.080272 0.100281 0.127 0.082081 0.101542 0.085514 0.071492 0.092752 0.168634 0.064569 0.0865048 0.168779 0.078277 0.0990188 0.168499 0.077452 0.0841626 0.040925 0.086122 0.109038 0.045405 0.067803 0.0789749 0.21181 0.07923 0.104068 0.209125 0.063761 0.0829003 0.082505 0.057551 0.0815946 0.125516 0.05888 0.0802759 0.168953 0.087109 0.107793 0.086409 0.086287 0.106548 0.127417 0.083659 0.105306 0.168349 -0.0451169 0.150809 0.270181 -0.0486701 0.147838 0.269522 0.058575 0.158937 0.166761 0.061792 0.160023 0.131002 0.063648 0.156703 0.167207 0.064386 0.156791 0.167224 0.063648 0.156703 0.167207 0.063868 0.158728 0.149863 0.0652478 0.160594 0.13056 0.061792 0.160023 0.131002 0.077234 0.140327 0.168166 0.064386 0.156791 0.167224 0.07531 0.14878 0.12424 0.076603 0.149799 0.08058 0.070966 0.156703 0.080801 0.075597 0.150619 0.0369 0.06958 0.155942 0.124161 0.065224 0.163517 0.081016 0.082021 0.142987 0.080569 0.061195 0.166272 0.024172 0.0647619 0.163224 0.0371226 0.0641842 0.164592 0.0545211 0.072219 0.155 0.044827 0.0721916 0.154998 0.0440463 0.063404 0.16551 0.056612 0.065202 0.163218 0.093349 0.0652478 0.160594 0.13056 0.08081 0.144318 0.036706 0.080829 0.141655 0.124433 0.0771981 0.14564 -0.0070188 0.0571806 0.167521 -0.00495806 0.0120757 0.161341 0.203969 0.0146929 0.162968 0.182832 0.032456 0.159987 0.211266 -0.0063667 0.163875 0.144614 -0.00687551 0.165596 0.108152 0.015909 0.166693 0.107183 0.038668 0.165192 0.106111 0.0164406 0.164971 0.145032 0.039232 0.16347 0.145323 0.037418 0.161468 0.184485 -0.0080394 0.161872 0.181029 0.050199 0.156327 0.225626 -0.0283068 0.16224 0.107208 -0.0276271 0.158707 0.181455 -0.0298016 0.157033 0.209993 -0.009243 0.160365 0.203593 0.058937 0.161805 0.097874 0.054977 0.163258 0.064827 0.035296 0.166316 0.077394 0.0138699 0.167371 0.083943 -0.0296799 0.163503 0.07965 -0.0081665 0.166431 0.08464 -0.0208066 0.0793244 0.200291 -0.0408925 0.0790348 0.209831 -0.0406518 0.0690002 0.209966 -0.0206546 0.0690001 0.200506 0.00124305 0.0794166 0.197258 0.00128065 0.0690001 0.19751 0.0236698 0.0792968 0.201205 0.0235618 0.0690001 0.201438 0.0437791 0.0789727 0.21188 0.0435529 0.0690001 0.212036 0.0590089 0.069 0.227881 0.0593015 0.0784883 0.227835 0.0689673 0.069 0.247635 0.0692611 0.0778854 0.247695 -0.0571869 0.0690002 0.225436 -0.0575254 0.0785601 0.225465 0.0725 0.069 0.27 0.072757 0.0772007 0.27025 0.064149 0.152785 0.190612 0.0703859 0.138859 0.216921 0.0672067 0.144085 0.212395 0.0613952 0.151894 0.210075 0.0126739 0.16083 0.205239 0.0119483 0.161232 0.205494 -0.00885694 0.159893 0.204615 -0.00943211 0.160255 0.205154 0.0328899 0.159396 0.212771 0.0322617 0.159881 0.212897 0.0500437 0.156219 0.227186 0.068404 0.155 0.214686 0.070267 0.155 0.217819 0.065303 0.155 0.212771 0.0545472 0.154783 0.225578 0.053073 0.155 0.221227 0.057395 0.154991 0.225672 0.0588362 0.155001 0.212463 0.061984 0.155 0.227518 0.0577238 0.154974 0.211345 0.0538177 0.155 0.215699 0.065607 0.155 0.227116 0.068632 0.155 0.225083 0.070394 0.155 0.221663 0.058575 0.158937 0.166761 0.063648 0.156703 0.167207 0.0613952 0.151894 0.210075 0.0545472 0.154783 0.225578 0.050199 0.156327 0.225626 0.0528897 0.156154 0.220037 0.064149 0.152785 0.190612 0.0563609 0.153592 0.226492 0.054183 0.154163 0.230603 0.0545713 0.15615 0.214617 0.0577238 0.154974 0.211345 0.057199 0.150613 0.235111 0.0591302 0.149876 0.229311 -0.0454638 0.143 0.220786 -0.0401128 0.150223 0.216335 -0.0298016 0.157033 0.209993 -0.0170447 0.143 0.205147 0.0120757 0.161341 0.203969 0.0138133 0.143 0.204439 0.032456 0.159987 0.211266 0.041763 0.143 0.217537 -0.009243 0.160365 0.203593 0.050199 0.156327 0.225626 0.061456 0.143 0.243313 0.057199 0.150613 0.235111 0.054183 0.154163 0.230603 -0.0356397 0.154498 0.213278 0.0613022 0.142995 0.244029 0.041573 0.143 0.218024 0.061456 0.143 0.243313 -0.0170447 0.143 0.205147 -0.0170303 0.143 0.205659 -0.0454638 0.143 0.220786 0.0138133 0.143 0.204439 0.0137297 0.143001 0.204917 -0.0455193 0.142998 0.221443 0.041763 0.143 0.217537 0.0391873 0.153097 0.279324 0.027123 0.158408 0.241291 0.0068154 0.159528 0.237978 -0.00196195 0.156593 0.278817 -0.0215783 0.155516 0.275045 -0.013475 0.15853 0.234525 0.0177668 0.155674 0.28237 0.0557481 0.136793 0.284335 0.0662398 0.101776 0.284246 0.065812 0.101732 0.286088 0.0437218 0.147645 0.291402 0.0436613 0.151184 0.281075 0.0473976 0.147811 0.282015 0.0400861 0.150792 0.290586 0.0357108 0.152669 0.288668 0.036118 0.144542 0.305901 0.0393872 0.138884 0.308957 0.0212953 0.147164 0.314047 0.0249119 0.138634 0.319488 0.0077057 0.138533 0.324837 0.00651143 0.147013 0.318717 -0.00938494 0.147012 0.318311 -0.0107347 0.138562 0.324302 -0.0250812 0.147112 0.312162 -0.028961 0.138714 0.317208 -0.0432423 0.139065 0.304552 -0.037752 0.147005 0.301262 -0.0480881 0.14474 0.286728 -0.0523475 0.139464 0.287983 -0.053598 0.136603 0.290856 0.033733 0.147193 0.305408 -0.0452413 0.148056 0.286819 -0.0419463 0.136042 0.309324 -0.0242665 0.135653 0.322141 -0.002297 0.135492 0.327452 0.0144835 0.135547 0.325646 0.029725 0.135742 0.319218 0.042509 0.136061 0.308722 0.051919 0.136486 0.29471 -0.0574829 0.137279 0.268589 0.0657926 0.141823 0.228079 0.061456 0.143 0.243313 0.0591302 0.149876 0.229311 0.062941 0.137709 0.254437 0.0557481 0.136793 0.284335 0.0613022 0.142995 0.244029 0.0570634 0.15048 0.236259 0.0688525 0.138582 0.225501 0.057199 0.150613 0.235111 0.060504 0.152149 0.227235 0.063 0.148097 0.227759 0.0605846 0.149397 0.22807 0.061984 0.155 0.227518 0.065607 0.155 0.227116 0.057395 0.154991 0.225672 0.068632 0.155 0.225083 0.066596 0.142648 0.227059 0.0688525 0.138582 0.225501 0.0704103 0.133863 0.223342 0.070394 0.155 0.221663 0.0712374 0.132361 0.220668 0.070267 0.155 0.217819 0.065303 0.155 0.212771 0.067905 0.144869 0.213715 0.068404 0.155 0.214686 0.062978 0.15304 0.212364 0.0588362 0.155001 0.212463 -0.0346294 0.155018 0.193621 -0.0314432 0.156937 0.196841 -0.0311449 0.155 0.197327 -0.0300048 0.157292 0.201742 -0.0300003 0.155 0.202088 -0.0313144 0.156767 0.20691 -0.034648 0.155058 0.210239 -0.0312284 0.155 0.206828 0.059235 0.166788 0.025162 0.062216 0.16519 0.0564464 0.0493058 0.164523 0.027168 0.0422996 0.165347 -0.00882924 0.0549302 0.168335 -0.0103458 0.0549798 0.163314 0.0635343 0.060312 0.166822 0.024622 -0.033415 0.1676 -0.026657 -0.0402092 0.166831 -0.0145113 -0.0327536 0.167742 -0.0286502 -0.0404481 0.166901 -0.0157174 -0.0230816 0.168124 -0.035994 -0.00991751 0.168343 -0.041596 -0.0100365 0.168363 -0.042095 0.00435949 0.168174 -0.042543 -0.0233688 0.168141 -0.036427 0.0044207 0.168193 -0.043059 0.0178008 0.16764 -0.0388737 0.00720929 0.168156 -0.042905 -0.0432091 0.165815 -0.000432521 -0.0353249 0.167444 -0.023624 -0.0271765 0.167975 -0.032678 -0.0165135 0.168298 -0.039162 -0.000913203 0.168293 -0.0425 0.0143631 0.167821 -0.040002 0.0290422 0.166864 -0.0318382 -0.0063287 0.1684 -0.043042 -0.0210179 0.168257 -0.038101 0.0136721 0.168828 -0.030918 -0.0063464 0.169888 -0.025658 -0.0263284 0.16881 -0.02028 -0.0228541 0.169098 -0.00533438 -0.00259071 0.170204 -0.0103042 0.0178484 0.169142 -0.0149942 0.0383359 0.165855 -0.0198986 -0.0714999 0.096522 0.045763 -0.0657362 0.108602 0.059746 -0.0682054 0.0963206 0.0522 -0.0759428 0.109438 0.032233 -0.0746153 0.0967274 0.039192 -0.0723415 0.0840214 0.045568 -0.0636353 0.0836712 0.057103 -0.0789856 0.084411 0.032734 0.0563609 0.153592 0.226492 -0.040475 0.16552 0.0738487 -0.0396099 0.165768 0.073592 -0.0304952 0.163237 0.0785498 -0.029987 0.163568 0.0782396 0.0557005 0.167684 -0.0122693 0.052933 0.168085 -0.02172 0.075512 0.145962 -0.017438 0.071382 0.146349 -0.03018 0.0508707 0.168916 -0.0237912 0.053073 0.155 0.221227 0.0528897 0.156154 0.220037 0.0538177 0.155 0.215699 0.0577238 0.154974 0.211345 0.0545713 0.15615 0.214617 0.0545472 0.154783 0.225578 0.0617651 0.152085 0.211706 0.054977 0.163258 0.064827 0.063404 0.16551 0.056612 0.060829 0.163328 0.078286 0.065202 0.163218 0.093349 0.058937 0.161805 0.097874 -0.0401128 0.150223 0.216335 -0.0454638 0.143 0.220786 -0.05526 0.13772 0.254043 -0.0500857 0.13842 0.230983 -0.0555864 0.137702 0.254996 -0.0455193 0.142998 0.221443 0.077014 0.145696 -0.00866103 0.0214287 0.168853 -0.00206584 0.000659704 0.169998 0.00262228 -0.0420423 0.16535 0.00989473 -0.0504093 0.169543 -0.018534 -0.0528581 0.170602 -0.0195062 -0.04133 0.170537 -0.034223 0.032675 0.167531 -0.033576 0.0215332 0.168887 -0.0438302 0.0365328 0.168897 -0.0370053 -0.0377066 0.168968 -0.0311833 -0.0459039 0.168062 -0.0169306 -0.0248604 0.169532 -0.0419945 -0.0274359 0.171191 -0.046032 -0.00876928 0.169688 -0.0478585 -0.009715 0.171414 -0.052634 0.00699977 0.169437 -0.0481371 0.0076022 0.171148 -0.053022 0.0237475 0.17047 -0.048098 -0.0566059 0.169058 0.00138 0.0388951 0.170475 -0.040529 0.0245012 0.171722 -0.0510791 0.00755388 0.172584 -0.0564243 -0.0290116 0.172608 -0.0488859 -0.0106366 0.172908 -0.0560014 -0.0434674 0.171802 -0.0362217 0.0820549 0.110718 -0.00857088 0.08495 0.085699 -0.009684 0.0850802 0.0856613 -0.00852808 0.081207 0.0820557 0.026483 0.08079 0.0845518 0.028105 0.0355127 0.0744999 0.0772592 0.035608 0.0808856 0.07763 0.0635322 0.0744999 0.0564604 0.06374 0.0813556 0.056806 0.0808912 0.0744998 0.0261971 0.06307 0.0836524 0.057732 0.035108 0.0830374 0.077986 -1.04308e-07 0.0828096 0.085488 -1.04308e-07 0.0745 0.085 0.084414 0.0744998 -0.00996304 -0.06567 0.0745001 0.0539721 -0.0658629 0.0814264 0.0543253 -0.0473306 0.0745001 0.0705999 -0.0474641 0.0810433 0.0709589 -0.0249868 0.0745 0.0812468 -0.0250539 0.080805 0.0816125 -0.0179063 0.0828671 0.083592 -0.0348417 0.0830348 0.078069 -0.0502651 0.0833052 0.069158 -0.0789856 0.084411 0.032734 -0.0786298 0.0745001 0.032286 0.030897 0.0878291 -0.0797344 0.030606 0.0744999 -0.079308 0.0564455 0.0744999 -0.0635474 0.0569166 0.087351 -0.0637952 0.0751612 0.0744998 -0.0397361 0.075712 0.0866117 -0.03975 -1.04308e-07 0.0745 -0.085 -1.04308e-07 0.0880005 -0.0855 -0.0705647 0.0745 -0.0473911 -0.0845388 0.0745001 -0.00971773 -0.0409637 0.0745 -0.0745592 0.0355127 0.0744999 0.0772592 -1.04308e-07 0.0745 -0.085 -1.04308e-07 0.0745 0.085 0.030606 0.0744999 -0.079308 0.0564455 0.0744999 -0.0635474 0.0751612 0.0744998 -0.0397361 0.084414 0.0744998 -0.00996304 0.0808912 0.0744998 0.0261971 0.0635322 0.0744999 0.0564604 -0.0249868 0.0745 0.0812468 -0.0473306 0.0745001 0.0705999 -0.06567 0.0745001 0.0539721 -0.0786298 0.0745001 0.032286 -0.0714245 0.144519 0.03008 -0.0724037 0.144593 0.02764 -0.0534523 0.167572 0.0229819 -0.0419736 0.165042 0.0729441 -0.0476019 0.155 0.201792 -0.0466319 0.155 0.198266 -0.0410204 0.155 0.194458 -0.0300003 0.155 0.202088 -0.046826 0.155 0.205366 -0.0311449 0.155 0.197327 -0.0446078 0.155 0.20805 -0.041431 0.155 0.209475 -0.0360586 0.154991 0.209259 -0.0312284 0.155 0.206828 -0.034648 0.155058 0.210239 -0.0346294 0.155018 0.193621 -0.0354629 0.154999 0.194975 -0.0442703 0.155 0.195707 -0.0475715 0.131316 0.198799 -0.0452793 0.139452 0.195851 -0.0467691 0.134712 0.197479 -0.0464543 0.139138 0.207473 -0.0482138 0.130335 0.202998 -0.0471113 0.13844 0.205946 -0.0482866 0.128942 0.201265 -0.0500929 0.1566 0.064158 -0.0458037 0.163176 0.063072 -0.0501406 0.154999 0.0680834 -0.0470374 0.166473 0.048699 -0.036866 0.15531 0.141526 -0.040871 0.148169 0.141559 -0.041514 0.156282 0.102535 -0.0455587 0.149201 0.10304 -0.0367475 0.164229 0.102098 -0.0542969 0.149953 0.065215 -0.0709623 0.144486 0.031183 -0.0582169 0.143394 0.067141 -0.0494795 0.14227 0.104169 -0.0448109 0.141124 0.141926 -0.0330722 0.159176 0.159573 -0.0338276 0.161575 0.134569 -0.0499581 0.155 0.068769 -0.0408471 0.16615 0.074542 0.0549542 0.162917 0.0639684 0.016208 0.164169 0.0825979 0.047526 0.161096 0.069646 0.0162753 0.155 0.0829234 0.047588 0.158023 0.069739 -0.0176597 0.164169 0.082332 -0.0177038 0.158023 0.082552 0.047626 0.155 0.069835 -0.0177031 0.155 0.082655 0.0356448 0.165909 0.076276 0.0140069 0.167402 0.0829006 -0.00748478 0.166118 0.0838335 0.041392 0.152074 0.218285 0.0540341 0.154058 0.231847 0.04129 0.156635 0.218419 0.0136278 0.156635 0.205411 -0.0169314 0.156635 0.206135 0.0137297 0.143001 0.204917 -0.0169715 0.152074 0.205971 -0.0170117 0.147512 0.205808 0.041495 0.147512 0.218152 -0.0170303 0.143 0.205659 0.041573 0.143 0.218024 -0.00803432 0.166524 0.0833342 0.0348744 0.1664 0.0761661 -0.0460147 0.167144 0.04877 -0.0547601 0.168505 0.0132272 -0.0513396 0.168123 0.022585 -0.0447246 0.167133 0.048866 -0.0559817 0.167764 0.013441 -0.0575232 0.168133 0.00456798 -0.0706452 0.137753 -0.03488 -0.0744997 0.146081 -0.021382 -0.0787652 0.136791 -0.00313503 -0.0812443 0.119941 -0.00376064 -0.0725311 0.122619 -0.0361905 -0.0519575 0.118653 -0.0630813 -0.0511077 0.129818 -0.061764 -0.050401 0.138534 -0.060664 -0.0203856 0.12584 -0.0781792 -0.0200093 0.139008 -0.076284 0.0141564 0.139048 -0.07759 0.0144966 0.125289 -0.0795894 0.044481 0.138668 -0.06503 0.0455696 0.124193 -0.0669188 0.067147 0.137948 -0.041298 0.0688756 0.122882 -0.0427858 0.069945 0.111746 -0.043812 -0.0632121 0.146793 -0.044833 -0.0773247 0.145274 0.00521299 -0.0448112 0.147352 -0.063238 0.0074214 0.147775 -0.077153 -0.0206463 0.1477 -0.074697 0.033748 0.14755 -0.069763 0.055884 0.147063 -0.05371 0.071382 0.146349 -0.03018 0.075512 0.145962 -0.017438 0.046223 0.112491 -0.068333 0.014635 0.112882 -0.081224 -0.0209593 0.106302 -0.0806712 -0.073754 0.111538 -0.036964 -0.0824384 0.110537 -0.00397 -0.0764335 0.109474 0.031051 -0.0714245 0.144519 0.03008 -0.0724037 0.144593 0.02764 -0.0758298 0.144947 0.016004 0.077014 0.145696 -0.00866103 0.0820802 0.110845 -0.00960022 -0.0344925 0.164686 0.0441387 0.045665 0.166841 -0.01884 0.051105 0.168418 -0.026137 -0.0773247 0.145274 0.00521299 -0.0758298 0.144947 0.016004 -0.0578667 0.168472 -0.000265986 -0.0709623 0.144486 0.031183 0.029331 0.151764 0.301076 -0.0429636 0.15019 0.285287 -0.0405591 0.151555 0.284426 -0.035588 0.150395 0.298015 -0.033585 0.151722 0.29641 -0.0374008 0.148609 0.299462 -0.0245198 0.150727 0.307787 -0.0231442 0.152008 0.305619 -0.0257752 0.148983 0.309719 -0.0106199 0.150958 0.313637 -0.0100285 0.15221 0.311134 -0.0111427 0.149241 0.315864 0.0044103 0.150896 0.314663 0.004155 0.152158 0.312097 0.00466999 0.149171 0.316964 0.0187151 0.150645 0.310943 0.0176497 0.151944 0.308591 0.0196854 0.148886 0.313071 0.031086 0.150424 0.30295 0.032645 0.148628 0.304646 0.025951 0.152595 0.30048 0.0127787 0.152753 0.307599 -0.0022915 0.152918 0.309486 -0.0271802 0.152664 0.299253 -0.0176583 0.152861 0.305514 -0.0343268 0.152485 0.290952 -0.0388554 0.152425 0.281199 -0.0647637 0.110728 0.279244 -0.0594025 0.128261 0.278974 0.051919 0.136486 0.29471 0.0480662 0.127442 0.306043 0.042509 0.136061 0.308722 0.052566 0.109828 0.308922 0.0343241 0.109415 0.32563 0.031257 0.126963 0.321269 0.010169 0.126721 0.329269 0.0112975 0.109053 0.334386 -0.0142538 0.109077 0.333735 -0.0130118 0.126756 0.328777 -0.038703 0.10944 0.322677 -0.0352227 0.127041 0.318731 -0.0512269 0.127569 0.301299 -0.0560962 0.110008 0.303622 -0.0667234 0.101857 0.281955 0.0144835 0.135547 0.325646 0.029725 0.135742 0.319218 -0.002297 0.135492 0.327452 -0.0242665 0.135653 0.322141 -0.0419463 0.136042 0.309324 -0.0574829 0.137279 0.268589 -0.053598 0.136603 0.290856 -0.0554971 0.10104 0.308857 -0.0340562 0.100441 0.328608 -0.0049495 0.100169 0.337567 0.0189186 0.100245 0.335061 0.039856 0.100557 0.324783 0.056081 0.101066 0.308027 0.0129236 0.154108 0.299099 -0.0061034 0.155044 0.294204 -0.0250675 0.154062 0.289088 0.08081 0.144318 0.036706 0.083286 0.134791 0.065861 0.082021 0.142987 0.080569 0.084501 0.126023 0.065534 0.085639 0.117241 0.06521 0.082967 0.123805 0.138851 0.084323 0.115018 0.138637 0.081533 0.132575 0.139059 0.075205 0.121601 0.211721 0.077028 0.112806 0.211697 0.073303 0.130375 0.211732 0.083659 0.105306 0.168349 0.080829 0.141655 0.124433 0.077234 0.140327 0.168166 0.0703859 0.138859 0.216921 0.086287 0.106548 0.127417 0.07923 0.104068 0.209125 0.087109 0.107793 0.086409 0.086122 0.109038 0.045405 0.0771981 0.14564 -0.0070188 0.062941 0.137709 0.254437 0.0704103 0.133863 0.223342 0.073544 0.102931 0.24658 -0.06435 0.0782288 0.236097 -0.0725001 0.0689997 0.27 -0.0719065 0.0775453 0.258972 -0.0727497 0.0772005 0.27025 -0.0637564 0.0690001 0.235488 -0.0685562 0.0689999 0.246425 -0.0692991 0.0778766 0.247864 -0.0714997 0.0689998 0.258009 0.00494813 0.169502 0.0235983 -0.0156416 0.168412 0.0283206 0.0096797 0.1686 0.0517297 0.0256287 0.16838 0.0183225 0.0307479 0.167459 0.0482081 -0.0832441 0.104267 -0.003162 -0.0746954 0.104989 -0.0368975 -0.0759334 0.0928111 -0.037787 -0.0847792 0.0917964 -0.00358033 -0.0532337 0.10521 -0.0642659 -0.0539885 0.0936504 -0.065455 -0.0211958 0.0941559 -0.082118 0.0153069 0.106343 -0.0819582 0.0155612 0.0941953 -0.083408 0.0473605 0.106149 -0.0685094 0.048139 0.0937837 -0.069832 0.0724355 0.0930049 -0.0442018 0.071261 0.105481 -0.043148 -0.0710793 0.0868446 -0.0475148 -0.0413299 0.0876799 -0.074942 -0.0850487 0.0856861 -0.00953078 -0.04947 0.166848 0.00382999 -0.0705647 0.0745 -0.0473911 -0.0409637 0.0745 -0.0745592 -0.0845388 0.0745001 -0.00971773 0.0713629 0.0767925 0.28433 0.0711652 0.069 0.283978 0.0620076 0.069 0.307595 -1.04308e-07 0.0690002 0.3425 -1.04308e-07 0.0749997 0.34275 0.0247589 0.0690002 0.33815 0.0247479 0.0751312 0.338419 0.0459906 0.069 0.326048 0.04601 0.0754977 0.32635 0.062087 0.0760569 0.307931 0.067905 0.144869 0.213715 0.074004 0.0778885 0.247595 0.0692611 0.0778854 0.247695 0.073817 0.0773372 0.265756 -0.0393146 0.0824816 0.096291 -0.0300891 0.0811493 0.140178 -0.0179063 0.0828671 0.083592 0.0236698 0.0792968 0.201205 0.0437791 0.0789727 0.21188 0.05888 0.0802759 0.168953 -0.0361093 0.0798002 0.184617 -0.0208066 0.0793244 0.200291 -0.0636353 0.0836712 0.057103 -0.0502651 0.0833052 0.069158 0.00124305 0.0794166 0.197258 -1.04308e-07 0.0828096 0.085488 0.057551 0.0815946 0.125516 0.063761 0.0829003 0.082505 0.035108 0.0830374 0.077986 0.06307 0.0836524 0.057732 0.077452 0.0841626 0.040925 0.08079 0.0845518 0.028105 0.08163 0.0845171 0.02925 0.084324 0.0848833 0.017187 0.085512 0.0852568 0.004884 0.0850802 0.0856613 -0.00852808 -0.0348417 0.0830348 0.078069 -0.0575254 0.0785601 0.225465 -0.0408925 0.0790348 0.209831 0.0593015 0.0784883 0.227835 0.067803 0.0789749 0.21181 0.071996 0.0784365 0.229545 0.072757 0.0772007 0.27025 0.0713629 0.0767925 0.28433 0.0590089 0.069 0.227881 0.0435529 0.0690001 0.212036 0.0689673 0.069 0.247635 -0.0667845 0.0689997 0.298245 0.0725 0.069 0.27 -0.0725001 0.0689997 0.27 0.0711652 0.069 0.283978 0.0620076 0.069 0.307595 0.0459906 0.069 0.326048 0.0247589 0.0690002 0.33815 -1.04308e-07 0.0690002 0.3425 -0.0282225 0.0690001 0.336801 -0.051263 0.0689999 0.321264 -0.0714997 0.0689998 0.258009 -0.0685562 0.0689999 0.246425 -0.0637564 0.0690001 0.235488 -0.0571869 0.0690002 0.225436 -0.0406518 0.0690002 0.209966 -0.0206546 0.0690001 0.200506 0.00128065 0.0690001 0.19751 0.0235618 0.0690001 0.201438 -0.051263 0.0689999 0.321264 -0.0667845 0.0689997 0.298245 -0.0669607 0.0763449 0.298482 -0.0513558 0.0756419 0.321525 -0.0282225 0.0690001 0.336801 -0.0282573 0.0751708 0.337058 0.064149 0.152785 0.190612 0.052475 0.153032 -0.050301 0.048828 0.158942 -0.046601 -0.0509595 0.166347 -0.035676 -0.0491184 0.170713 -0.031775 -0.0599621 0.164814 -0.016643 -0.0649689 0.158641 -0.018272 -0.0698966 0.152388 -0.019883 -0.0551978 0.159907 -0.038807 -0.0593739 0.153385 -0.041881 -0.0391886 0.16085 -0.054979 -0.0421065 0.154146 -0.059157 -0.036226 0.167468 -0.050707 -0.0180982 0.161376 -0.065062 -0.0193884 0.15458 -0.069936 -0.0167769 0.168086 -0.060078 0.0064675 0.161218 -0.067212 0.00702529 0.154527 -0.072293 0.0059207 0.167825 -0.062031 0.029495 0.160316 -0.060697 0.031751 0.15396 -0.065388 0.027219 0.16659 -0.05593 0.045128 0.164773 -0.042853 0.033748 0.14755 -0.069763 -0.03849 0.171529 -0.044445 -0.0557615 0.169677 -0.016722 -0.024429 0.17207 -0.053747 -0.0025862 0.172134 -0.059085 0.0188767 0.171412 -0.055752 0.03757 0.170105 -0.044514 0.055884 0.147063 -0.05371 0.0074214 0.147775 -0.077153 -0.0206463 0.1477 -0.074697 -0.0448112 0.147352 -0.063238 -0.0744997 0.146081 -0.021382 -0.0632121 0.146793 -0.044833 -0.057481 0.11661 0.085301 -0.0562349 0.125381 0.085232 -0.0474744 0.130752 0.197045 -0.0493926 0.122015 0.196538 -0.0512356 0.113257 0.196042 -0.0481274 0.123708 0.14055 -0.0495956 0.114942 0.140389 -0.0465855 0.132457 0.140707 -0.0549165 0.134139 0.085142 -0.0657362 0.108602 0.059746 -0.0556216 0.107363 0.10057 -0.044272 0.139966 0.180072 -0.0494795 0.14227 0.104169 -0.0448109 0.141124 0.141926 -0.0582169 0.143394 0.067141 -0.0518683 0.104828 0.184073 -0.0509907 0.106099 0.142198 -0.0582796 0.103566 0.22564 -0.0500857 0.13842 0.230983 -0.0346294 0.155018 0.193621 -0.0366873 0.153301 0.193643 -0.0477421 0.0949115 0.098527 -0.0344807 0.087383 0.140656 -0.0428949 0.0886973 0.097321 -0.0408559 0.093618 0.141197 -0.0395541 0.0860536 0.18449 -0.0442737 0.0923123 0.184267 -0.052412 0.101132 0.099671 -0.0470182 0.099856 0.141732 -0.0488089 0.0985714 0.184093 -0.0393146 0.0824816 0.096291 -0.0300891 0.0811493 0.140178 -0.0361093 0.0798002 0.184617 -0.0556216 0.107363 0.10057 -0.0509907 0.106099 0.142198 -0.0518683 0.104828 0.184073 -0.0582796 0.103566 0.22564 0.035296 0.166316 0.077394 0.047761 0.155 0.070348 0.054977 0.163258 0.064827 -0.0499581 0.155 0.068769 -0.0176764 0.155 0.083171 -0.0296799 0.163503 0.07965 -0.0408471 0.16615 0.074542 -0.0081665 0.166431 0.08464 0.0138699 0.167371 0.083943 0.016346 0.155 0.083414 0.072219 0.155 0.044827 0.063404 0.16551 0.056612 -0.0366873 0.153301 0.193643 -0.0322783 0.162965 0.106249 -0.0296799 0.163503 0.07965 -0.0408471 0.16615 0.074542 -0.0367475 0.164229 0.102098 -0.0283068 0.16224 0.107208 0.082773 0.0907394 0.029585 0.083603 0.0969745 0.030011 0.083848 0.104029 0.00443098 0.084334 0.103634 0.017149 0.084518 0.0977772 0.00436497 0.08515 0.0915252 0.00429901 0.084488 0.0973798 0.017058 0.084602 0.0911317 0.016961 0.084394 0.103222 0.030426 0.084324 0.0848833 0.017187 0.085512 0.0852568 0.004884 0.08163 0.0845171 0.02925 0.0245012 0.171722 -0.0510791 0.0400649 0.170257 -0.0413127 0.0253759 0.171448 -0.0523672 0.00755388 0.172584 -0.0564243 0.00816995 0.172288 -0.0579875 -0.0106366 0.172908 -0.0560014 -0.0101102 0.172639 -0.0577595 -0.0290116 0.172608 -0.0488859 -0.0292033 0.172372 -0.0505816 -0.0434674 0.171802 -0.0362217 -0.0444004 0.171558 -0.0374438 -0.0540854 0.170378 -0.0201497 0.0188767 0.171412 -0.055752 -0.0025862 0.172134 -0.059085 -0.024429 0.17207 -0.053747 -0.03849 0.171529 -0.044445 -0.0491184 0.170713 -0.031775 -0.052743 0.142715 0.263264 -0.0712222 0.0832407 0.277642 -0.0719065 0.0775453 0.258972 0.036206 0.0941979 0.328717 0.0561399 0.0947273 0.310157 0.058418 0.0822154 0.311452 0.0377686 0.0816322 0.330836 0.0107582 0.0939102 0.3382 0.0112962 0.0813177 0.340712 -0.0180284 0.0813724 0.339252 -0.0173105 0.0939571 0.336866 -0.0443542 0.0817606 0.326214 -0.0425234 0.094329 0.324393 -0.0601984 0.0949569 0.303687 -0.0626616 0.0824302 0.304658 -0.0685909 0.0957334 0.277706 -0.0669607 0.0763449 0.298482 -0.0513558 0.0756419 0.321525 -0.0727497 0.0772005 0.27025 -0.0282573 0.0751708 0.337058 -1.04308e-07 0.0749997 0.34275 0.0247479 0.0751312 0.338419 0.04601 0.0754977 0.32635 0.062087 0.0760569 0.307931 0.0713629 0.0767925 0.28433 0.073863 0.0904 0.247036 0.074372 0.0909427 0.228675 0.073437 0.0846869 0.229075 0.074265 0.0841461 0.247286 0.07342 0.0966595 0.246788 0.075266 0.0972112 0.228282 0.072067 0.089856 0.265419 0.073197 0.0836004 0.265577 0.070897 0.0961103 0.265258 0.0684469 0.0918298 0.283819 0.0702085 0.0830647 0.283868 0.071996 0.0784365 0.229545 0.074004 0.0778885 0.247595 0.073817 0.0773372 0.265756 0.073544 0.102931 0.24658</float_array>
					<technique_common>
						<accessor count="914" source="#base2_M1KShape0.positions-array" stride="3">
							<param name="X" type="float"/>
							<param name="Y" type="float"/>
							<param name="Z" type="float"/>
						</accessor>
					</technique_common>
				</source>
				<source id="base2_M1KShape0.normals">
					<float_array id="base2_M1KShape0.normals-array" count="2742">0 1 0 0 1 0 0 1 0 0 1 0 0 1 0 0 1 0 0 1 0 0 1 0 0 1 0 0 1 0 -0.925815 0.123446 -0.357251 -0.925815 0.123446 -0.357251 -0.925849 0.123467 -0.357156 -0.925815 0.123446 -0.357251 -0.925815 0.123446 -0.357251 0.134598 0.988458 0.069531 0.180506 0.975269 0.127546 0.217787 0.973259 0.073042 0.131619 0.983872 0.121132 0.137022 0.973895 0.18098 0.121966 0.976307 0.178743 -0.851713 0.522834 -0.035064 -0.458118 0.093041 -0.884009 -0.873505 0.441336 -0.205455 -0.531907 0.38441 -0.754522 0.176656 -0.01081 -0.984213 -0.869864 0.492878 -0.020222 -0.851763 0.523925 -0.001457 -0.843953 0.533608 -0.054831 -0.358886 0.932428 0.042174 -0.358886 0.932428 0.042174 -0.358886 0.932428 0.042174 -0.358886 0.932428 0.042174 -0.358886 0.932428 0.042174 -0.573645 0.053058 0.817384 -0.048007 0.023662 0.998567 -0.85326 0.521435 -0.007264 -0.851835 0.518034 -0.077576 -0.874071 0.025133 0.485148 -0.809902 0.558343 0.179755 -0.047221 0.518698 -0.853652 -0.135388 0.022432 -0.990539 -0.560723 0.022022 -0.827711 -0.831208 0.026229 -0.555342 -0.998022 0.02617 -0.057152 -0.870608 0.024477 -0.491368 -0.992895 0.025857 0.116154 -0.975995 0.025901 -0.216246 -0.921683 0.025609 -0.387098 -0.999284 0.026178 -0.027313 -0.18929 0.022429 0.981665 -0.605086 0.022019 0.795855 -0.896147 0.024474 0.443083 0.024971 0.520453 0.853525 -0.476165 0.878757 -0.032457 -0.467134 0.884053 0.015398 -0.467858 0.883725 0.011768 -0.467134 0.884053 0.015398 -0.467134 0.884053 0.015398 -0.467134 0.884053 0.015398 -0.467575 0.883821 0.015284 -0.470313 0.882379 0.014581 -0.467134 0.884053 0.015398 -0.467134 0.884053 0.015398 -0.926193 0.297289 -0.231916 -0.930022 0.264282 -0.255372 -0.924062 0.26389 -0.276535 -0.923814 0.298323 -0.23994 -0.668547 0.616979 -0.41519 -0.267406 0.959308 -0.090682 -0.539386 0.841241 -0.037102 -0.836237 0.442277 -0.32419 -0.508944 0.858699 -0.060106 -0.212047 0.976818 0.029359 -0.751505 0.645363 -0.136915 -0.211218 0.976812 0.035009 0.598026 -0.80146 0.005228 0.680684 -0.730319 0.057466 0.682324 -0.722871 0.109048 0.615471 -0.788112 0.008686 0.632684 -0.77439 0.005462 0.71199 -0.702137 0.008559 0.66841 -0.742999 -0.034366 0.674668 -0.733893 -0.078896 0.694655 -0.719233 0.012607 0.855249 -0.376575 0.356007 0.949766 -0.308404 -0.053214 0.858218 -0.435229 -0.272098 0.914206 -0.390612 0.107931 0.904936 -0.375159 0.200866 0.921835 -0.385476 0.040349 0.905892 -0.406345 -0.119342 0.941177 -0.337697 -0.012127 0.932113 -0.361063 0.028276 0.923016 -0.378669 0.068206 -0.51125 0.859008 0.026994 -0.755435 0.655132 0.010951 0.341525 0.937764 0.062929 0.341525 0.937764 0.062929 0.341525 0.937764 0.062929 -0.126645 0.983117 0.132068 -0.114348 0.98466 0.131793 -0.131017 0.986616 0.097071 -0.172639 0.982528 0.069535 -0.1176 0.990836 0.066441 0.79384 0.598913 0.105456 0.768232 0.631846 0.102909 0.783897 0.618012 0.059719 0.778849 0.627014 0.015771 0.770224 0.637634 0.01335 0.766247 0.641968 -0.027265 0.774164 0.630292 0.058327 0.758921 0.651089 0.011007 0.785491 0.618593 0.018616 0.732671 0.678513 -0.053036 0.722616 0.68763 -0.070649 0.850756 0.409344 0.329624 0.763509 0.645409 -0.022391 0.891845 0.23545 0.386233 0.748872 0.662512 -0.016404 0.761171 0.648094 0.024326 0.766543 0.638961 0.064346 0.772823 0.634192 -0.023347 0.792347 0.606936 0.061769 0.753339 0.654586 -0.06323 0.708866 0.699672 -0.089271 -0.001004 0.998148 0.060831 0.004542 0.998364 0.056997 0.103363 0.992045 0.071854 -0.10579 0.993177 0.049063 -0.102985 0.993545 0.047566 0.010718 0.999092 0.041233 0.124275 0.991652 0.034377 0.008085 0.998751 0.049313 0.121825 0.991339 0.04905 0.118126 0.990978 0.063323 -0.109154 0.992758 0.050171 0.198255 0.976343 0.086308 -0.210174 0.976201 0.053464 -0.207216 0.977329 0.04346 -0.205551 0.977835 0.039835 -0.106989 0.992948 0.051067 0.228116 0.973336 0.024097 0.221603 0.975106 0.007783 0.118168 0.992701 0.024115 0.009015 0.999298 0.036368 -0.204657 0.977191 0.056693 -0.10058 0.993849 0.046352 -0.285709 -0.024189 -0.958011 -0.561303 -0.02481 -0.827238 -0.560327 -0.024773 -0.827901 -0.284698 -0.024172 -0.958313 0.016791 -0.024206 -0.999566 0.017591 -0.024202 -0.999552 0.324764 -0.024821 -0.945469 0.324965 -0.024822 -0.9454 0.600995 -0.026335 -0.798819 0.600676 -0.026328 -0.799059 0.813553 -0.028056 -0.580814 0.814196 -0.02808 -0.579911 0.950743 -0.029764 -0.308548 0.951149 -0.029815 -0.307289 -0.788517 -0.026056 -0.614461 -0.790075 -0.026117 -0.612454 0.999509 -0.031323 -0 0.999502 -0.031413 0.002952 0.780326 0.612611 0.125696 0.838282 0.542758 0.051928 0.800419 0.595935 0.064742 0.780396 0.612646 0.125088 0.189874 0.188149 -0.963612 0.026492 0.995017 -0.096119 -0.146899 0.150983 -0.977561 -0.10908 0.992151 -0.061139 0.505008 0.157477 -0.848627 0.143644 0.989219 -0.028483 0.227686 0.971856 0.060453 0 1 0 0 1 0 0 1 0 0 1 0 0 1 0 0 1 0 0 1 0 0 1 0 0 1 0 0 1 0 0 1 0 0 1 0 0 1 0 0.481806 0.869838 0.106043 0.481806 0.869838 0.106043 0.481806 0.869838 0.106043 0.478009 0.871018 0.113295 0.481806 0.869838 0.106043 0.481806 0.869838 0.106043 0.481806 0.869838 0.106043 0.481806 0.869838 0.106043 0.481806 0.869838 0.106043 0.478951 0.871593 0.104555 0.481555 0.870238 0.103881 0.481806 0.869838 0.106043 0.481806 0.869838 0.106043 0.678604 1e-06 0.734505 0.601055 1e-06 0.799208 0.446843 0 0.894612 0.253049 -0 0.967453 -0.180262 -1e-06 0.983619 -0.206171 -1e-06 0.978516 -0.481445 -2e-06 0.876476 -0.621887 -2e-06 0.783107 0.135507 -1e-06 0.990776 -0.750442 -2e-06 0.660936 -0.917273 -2e-06 0.398259 -0.855413 -2e-06 0.517946 -0.810612 -2e-06 0.585583 0.534804 0 0.844976 0 1 0 0 1 0 0 1 0 0 1 0 0 1 0 0 1 0 0 1 0 0 1 0 0 1 0 0 1 0 0.182135 0.977238 0.108781 0.093774 0.992296 0.080968 -0.008074 0.997754 0.066496 -0.017274 0.997306 0.071287 -0.114961 0.992069 0.050826 -0.109864 0.992614 0.051458 0.081006 0.992539 0.09113 0.92144 0.297063 0.250403 0.943297 0.256151 0.211135 0.935316 0.263037 0.236633 0.688244 0.634641 0.351497 0.492777 0.852603 0.173894 0.758014 0.619763 0.203246 0.455246 0.853084 0.254948 0.173686 0.978458 0.111591 0.55275 0.618194 0.558842 0.555891 0.611919 0.56262 0.355037 0.5965 0.719817 0.3545 0.599652 0.717459 0.110772 0.583316 0.804657 0.112265 0.597514 0.793961 -0.152994 0.595943 0.788318 -0.155271 0.580125 0.799591 -0.412306 0.604296 0.681785 -0.414502 0.592554 0.690701 -0.605734 0.619679 0.499084 -0.61382 0.605582 0.506454 -0.722273 0.639789 0.262665 -0.725243 0.635983 0.263719 -0.751665 0.581926 0.310423 0.55489 0.591704 0.584794 -0.699675 0.664591 0.262249 -0.592442 0.566954 0.572343 -0.338969 0.572573 0.746498 -0.032407 0.571535 0.819937 0.204597 0.561769 0.801596 0.421346 0.55786 0.715024 0.597027 0.573051 0.561401 0.709369 0.608276 0.356084 -0.776129 0.630574 9.5e-05 0.768256 0.593344 0.240262 0.765232 0.614613 0.191497 0.767648 0.613509 0.185263 0.765232 0.614613 0.191497 0.764578 0.613609 0.19724 0.90802 0.416083 -0.04873 0.848951 0.526626 0.044131 0.810854 0.470191 0.348476 0.765232 0.614613 0.191497 -0.326016 0.026183 0.945002 3e-06 0.026174 0.999657 0.414554 0.374675 0.829315 -0.131955 0.022012 0.991011 0.34305 0.021474 0.939072 -0.539958 0.262702 0.799646 0.741321 0.024238 0.670713 0.451596 0.028252 0.891775 0.905232 0.183564 0.383222 0.913411 0.025992 0.406208 0.975279 0.026181 0.219419 0.970874 0.163451 0.175181 0.957142 0.02424 -0.288602 0.305202 0.022017 -0.952033 0.615951 0.028676 -0.787263 0.712175 0.021478 -0.701674 -0.003673 0.025098 -0.999678 0.010403 0.638317 -0.769703 -0.539996 -2e-06 0.841668 -0.856724 -2e-06 0.515776 -0.885239 -2e-06 0.465136 -0.999684 -2e-06 0.025132 -0.999961 -2e-06 -0.008801 -0.871299 -1e-06 -0.490753 -0.546452 0 -0.837491 -0.876919 -1e-06 -0.480639 -0.210391 0.975491 0.06445 -0.186304 0.978415 0.089417 0.053753 0.998379 0.018721 0.081805 0.996648 0.000643 -0.187062 0.980589 0.058755 0.132208 0.990769 0.029968 0.275279 0.961274 0.013154 -0.082537 0.996572 -0.005702 -0.19002 0.981773 -0.003674 0.113651 0.980707 0.159053 0.131976 0.984287 0.117308 -0.0517 0.998188 -0.0308 -0.013984 0.998871 -0.045398 0.026083 0.992077 0.122897 0.030646 0.998473 -0.045969 0.041316 0.992598 0.114203 0.013091 0.992062 0.125069 -0.001088 0.992466 0.122513 -0.002966 0.979635 0.200766 -0.063829 0.995503 0.070005 -0.170229 0.983982 -0.052935 -0.122734 0.988059 -0.093146 -0.06651 0.990594 -0.119581 0.012633 0.990792 -0.134802 0.093693 0.986536 -0.134046 0.104095 0.994295 -0.023258 0.03422 0.979297 0.199518 0.07866 0.978941 0.18838 0.084899 0.993136 -0.080452 -0.015352 0.998311 -0.056032 -0.115515 0.992818 -0.031134 -0.105346 0.99373 0.037465 0.003276 0.999807 0.019391 0.106334 0.994316 -0.005399 0.115496 0.993181 0.015884 -0.893518 0.075102 0.442702 -0.948703 -0.100139 0.299891 -0.883208 -0.007219 0.468926 -0.911107 0.131304 0.390696 -0.902588 0.114713 0.41494 -0.846231 -0.019425 0.532462 -0.738617 -0.144713 0.658409 -0.917404 0.106519 0.383436 0.254398 0.791639 0.555508 -0.478455 0.046046 0.876904 0.288 0.957609 0.006431 -0.35857 0.175227 0.91691 -0.122371 0.991264 0.049205 0.699474 0.701095 -0.138571 0.703288 0.683852 -0.194247 0.703288 0.683852 -0.194247 0.703288 0.683852 -0.194247 -0.196246 0.965135 0.17321 0.992486 2e-06 -0.122359 0.999995 2e-06 -0.003215 0.905667 1e-06 0.423989 0.518768 -1e-06 0.854915 0.842543 1e-06 0.538629 0.836315 3e-06 -0.548249 0.583224 0.488878 -0.648728 -0.118769 0.991396 0.055018 -0.275624 0.958319 0.075201 -0.187212 0.980173 0.064901 -0.218444 0.973283 0.07073 -0.116379 0.991367 0.060397 -0.802375 0.584373 -0.121252 -0.802375 0.584373 -0.121252 -0.802375 0.584373 -0.121252 -0.802375 0.584373 -0.121252 -0.758749 0.626299 -0.179024 -0.739439 0.132978 -0.65996 0.752001 0.65602 -0.064281 0.105891 0.994238 -0.016678 0.001032 0.999994 0.003266 -0.067039 0.997262 0.0312 0.293484 0.940665 0.170342 0.253273 0.953821 0.161491 0.242236 0.935231 0.258194 -0.1115 0.972564 0.204174 -0.075816 0.961558 0.263928 -0.177078 0.947729 0.265432 0.182314 0.961211 0.206969 0.215625 0.965745 0.14437 0.125383 0.958254 0.256959 0.165726 0.930866 0.325612 0.053206 0.957363 0.283946 0.068088 0.92896 0.363864 -0.012724 0.958852 0.283621 -0.023786 0.930776 0.364816 -0.111883 0.935112 0.336225 0.235337 0.969311 0.07109 -0.161388 0.954832 0.249499 -0.139273 0.906283 0.399066 -0.030343 0.903471 0.427574 0.199242 0.902535 0.381751 0.080481 0.903759 0.420408 0.29731 0.904995 0.304288 0.986294 0.132205 -0.098722 0.988244 0.106777 -0.109417 0.99132 0.089075 -0.096698 0.949658 -0.050935 0.309119 0.943572 -0.048502 0.327597 0.417748 -0.055884 0.906843 0.41706 -0.057798 0.907039 0.74653 -0.054048 0.663153 0.745937 -0.055405 0.663708 0.949521 -0.061277 0.30766 0.737353 -0.050662 0.673605 0.410805 -0.053603 0.910146 -4.4e-05 -0.058631 0.99828 -0 -0.058631 0.99828 0.992121 -0.044544 -0.117095 -0.771394 -0.053095 0.634139 -0.770806 -0.053911 0.634784 -0.556078 -0.055269 0.829291 -0.555572 -0.056632 0.829537 -0.293529 -0.057285 0.954232 -0.293314 -0.058199 0.954243 -0.209308 -0.057175 0.976177 -0.407607 -0.055836 0.911449 -0.587616 -0.054595 0.807296 -0.923174 -0.050389 0.381065 -0.923882 -0.050336 0.379353 0.361149 -0.037733 -0.931744 0.360148 -0.037745 -0.932131 0.663397 -0.038876 -0.747257 0.664581 -0.038814 -0.746207 0.882291 -0.058694 -0.46703 0.883958 -0.041025 -0.465764 0 -0.03701 -0.999315 2e-06 -0.03701 -0.999315 -2e-06 -1 0 -2e-06 -1 0 -2e-06 -1 0 -2e-06 -1 0 -2e-06 -1 0 -2e-06 -1 0 -2e-06 -1 0 -2e-06 -1 0 -2e-06 -1 0 -2e-06 -1 0 -2e-06 -1 0 -2e-06 -1 0 -2e-06 -1 0 -2e-06 -1 0 -2e-06 -1 0 -2e-06 -1 0 -0.717639 0.618028 0.320992 -0.723994 0.623397 0.295311 -0.717178 0.664955 0.208544 -0.805403 0.538733 0.247171 -0 1 -0 -0 1 -0 -0 1 -0 -0 1 -0 -0 1 -0 -0 1 -0 -0 1 -0 -0 1 -0 -0 1 -0 -0 1 -0 -0 1 -0 -0 1 -0 -0 1 -0 -0 1 -0 -0.986835 0.12008 -0.10834 -0.971808 0.221119 -0.081824 -0.984575 0.140158 -0.104724 -0.963147 0.246709 -0.107155 -0.98652 0.127387 -0.102716 -0.988388 0.110713 -0.104072 -0.984575 0.140158 -0.104724 -0.805235 0.549464 0.222906 -0.796378 0.569601 0.203312 -0.702617 0.191696 0.685261 -0.764903 0.610559 0.205285 -0.867258 0.492157 0.075138 -0.870595 0.486402 0.074003 -0.851539 0.501162 0.154008 -0.851656 0.498614 0.161452 -0.837824 0.526757 0.143448 -0.803231 0.545281 0.239768 -0.720317 0.615856 0.319163 -0.792443 0.556347 0.250025 -0.84009 0.516337 0.166269 -0.865504 0.495327 0.074527 -0.858468 0.511126 0.042223 -0.856678 0.508142 0.088855 -0.812859 0.539322 0.219982 -0.80395 0.566964 0.179487 0.650575 0.041451 0.75831 0.192398 0.03654 0.980636 0.562804 0.036903 0.825766 0.192462 0.031245 0.980807 0.562906 0.035392 0.825763 -0.208916 0.036214 0.977263 -0.209086 0.035404 0.977256 0.562684 0.030954 0.826092 -0.208763 0.030955 0.977476 0.423867 0.074588 0.902648 0.060616 0.938507 0.339898 -0.091338 0.076796 0.992854 0.623508 0.037579 -0.780913 0.63948 0.768803 0.002738 0.62342 0.035592 -0.781077 0.206314 0.035802 -0.977831 -0.254723 0.035572 -0.96636 0.20637 0.033316 -0.977907 -0.254872 0.037553 -0.966245 -0.255057 0.035572 -0.966271 0.623687 0.035592 -0.780863 -0.254598 0.02971 -0.966591 0.6234 0.029714 -0.781338 -0.08539 0.993194 0.079205 0.144988 0.983519 0.108021 -0.294131 0.948969 0.113774 0.169207 0.985264 -0.024975 0.32583 0.943312 -0.063224 0.317974 0.947687 -0.027948 -0.710763 0.680844 0.176823 -0.727184 0.673596 0.132184 -0.888879 0.14893 -0.433259 -0.952897 0.138144 -0.270005 -0.987983 0.150089 -0.036927 -0.989394 0.139075 -0.041917 -0.887309 0.142148 -0.438722 -0.633116 0.128437 -0.763327 -0.63422 0.144259 -0.759575 -0.635759 0.149211 -0.757328 -0.250334 0.137535 -0.958341 -0.252119 0.150644 -0.955899 0.180485 0.149975 -0.972076 0.179432 0.140028 -0.973754 0.56106 0.150099 -0.814053 0.559127 0.143473 -0.816574 0.842963 0.150603 -0.516462 0.84254 0.141597 -0.519689 0.84299 0.117753 -0.524883 -0.810387 0.14144 -0.568566 -0.986737 0.145821 0.071313 -0.573047 0.151876 -0.805327 0.09486 0.155214 -0.983316 -0.263853 0.159281 -0.951321 0.43401 0.146103 -0.888982 0.714898 0.142576 -0.684539 0.912514 0.149385 -0.380791 0.963933 0.154964 -0.216379 0.557891 0.118685 -0.821384 0.177033 0.123119 -0.976474 -0.25053 0.124188 -0.960111 -0.88941 0.113924 -0.442687 -0.992361 0.114812 -0.045147 -0.918028 0.123757 0.376708 -0.908234 0.158438 0.38731 -0.920757 0.157189 0.357069 -0.965953 0.151098 0.210008 0.98167 0.158674 -0.105578 0.985996 0.124061 -0.111445 -0.101252 0.993907 0.043551 -0.200621 0.96976 0.138984 0.672286 0.694268 -0.25695 -0.742661 0.655571 0.136681 -0.742661 0.655571 0.136681 -0.740634 0.668692 0.065663 -0.909516 0.15865 0.384201 0.261403 0.923602 0.280405 -0.513225 0.837005 0.189796 -0.367336 0.919935 0.137053 -0.424457 0.844851 0.325673 -0.304189 0.924981 0.227768 -0.538736 0.730238 0.420137 -0.296417 0.850005 0.435463 -0.208626 0.93205 0.29624 -0.37461 0.736484 0.563257 -0.126013 0.853325 0.505922 -0.08648 0.936776 0.339076 -0.160953 0.738835 0.654383 0.060604 0.854239 0.516336 0.044923 0.934625 0.352785 0.073249 0.741568 0.666867 0.225145 0.85097 0.47451 0.162357 0.928827 0.333047 0.285029 0.737695 0.612017 0.367217 0.84264 0.393839 0.470765 0.724725 0.503144 0.138031 0.977696 0.158299 0.071692 0.981429 0.177925 -0.006173 0.985682 0.1685 -0.141135 0.981165 0.131895 -0.087075 0.985134 0.148084 -0.183381 0.9775 0.104237 -0.206467 0.976159 0.066977 -0.950134 0.277206 0.142838 -0.942425 0.29598 0.155662 0.864246 0.279744 0.418118 0.757354 0.29462 0.582763 0.709129 0.261544 0.654775 0.769183 0.275542 0.576571 0.499285 0.280358 0.819826 0.495838 0.2891 0.818881 0.164714 0.2881 0.943328 0.163999 0.273508 0.947786 -0.208452 0.269848 0.940069 -0.205459 0.287519 0.935478 -0.564128 0.276613 0.777974 -0.560429 0.28904 0.776128 -0.813269 0.290484 0.504195 -0.817952 0.283276 0.500708 -0.955446 0.234802 0.17886 0.24034 0.277368 0.930217 0.494851 0.262498 0.828382 -0.038549 0.292949 0.955351 -0.400087 0.292073 0.868691 -0.698303 0.271661 0.662248 -0.960736 0.276955 -0.016781 -0.896709 0.259232 0.358763 -0.792495 0.237866 0.561579 -0.481773 0.255745 0.838146 -0.070946 0.25933 0.963179 0.26965 0.245623 0.931106 0.568384 0.232838 0.78913 0.800446 0.237282 0.550439 0.064272 0.98854 0.136594 -0.031665 0.992786 0.115642 -0.127369 0.987411 0.093795 0.984812 0.166487 -0.049272 0.989061 0.146654 -0.015824 0.983805 0.179168 0.005207 0.991187 0.131305 -0.017532 0.991451 0.129121 -0.018792 0.986069 0.152097 0.067337 0.986374 0.152143 0.062598 0.982853 0.169563 0.072443 0.967535 0.202605 0.151084 0.969233 0.200371 0.142967 0.962951 0.217683 0.159187 0.978593 0.185003 0.090161 0.978663 0.196671 0.059496 0.969201 0.21871 0.113203 0.977621 0.206042 0.042479 0.985312 0.164317 0.046469 0.968746 0.209207 0.133284 0.989076 0.147389 0.002465 0.990049 0.134424 -0.04163 0.981861 0.158803 -0.103587 0.936855 0.27445 0.216749 0.950946 0.29352 0.097709 0.956727 0.234449 0.172356 -0.883994 -0.026601 -0.466741 -0.999537 -0.030423 -0 -0.987875 -0.02928 -0.152467 -0.999532 -0.030499 0.002509 -0.879232 -0.026475 -0.475658 -0.945268 -0.028368 -0.325058 -0.951942 -0.028589 -0.304941 -0.98577 -0.029118 -0.165559 0.006787 0.99961 0.027084 -0.102065 0.993635 0.047677 0.000951 1 -0.000124 0.110059 0.993906 0.006147 0.106625 0.994291 0.003932 -0.991462 0.12552 -0.035317 -0.891042 0.12709 -0.435766 -0.890557 0.115794 -0.439887 -0.99232 0.11746 -0.038789 -0.635723 0.125725 -0.76161 -0.634321 0.113964 -0.764623 -0.249041 0.113297 -0.961843 0.184316 0.125434 -0.97483 0.183336 0.114616 -0.976346 0.566206 0.127831 -0.814291 0.565208 0.116847 -0.816631 0.849095 0.117461 -0.515014 0.849513 0.125971 -0.512308 -0.831164 0.0538 -0.553418 -0.480697 0.104901 -0.87059 -0.993373 0.026057 -0.111947 0.244685 0.969023 0.033533 -0.829258 -0.040428 -0.557401 -0.480989 -0.084398 -0.872655 -0.992371 -0.043464 -0.115376 0.980124 -0.032154 0.195765 0.980751 -0.032085 0.192607 0.854376 -0.035459 0.518444 1e-06 -0.041634 0.999133 1e-06 -0.041634 0.999133 0.341421 -0.040655 0.939031 0.340531 -0.040665 0.939353 0.633852 -0.038528 0.772494 0.632565 -0.03856 0.773547 0.853144 -0.035515 0.520465 0.498617 -0.076817 -0.863412 2e-06 -0.999539 -0.030344 2e-06 -0.999539 -0.030344 2e-06 -0.999539 -0.030344 2e-06 -0.999539 -0.030344 2e-06 -0.999539 -0.030344 2e-06 -0.999539 -0.030344 2e-06 -0.999539 -0.030344 2e-06 -0.999539 -0.030344 2e-06 -0.999539 -0.030344 2e-06 -0.999539 -0.030344 2e-06 -0.999539 -0.030344 2e-06 -0.999539 -0.030344 2e-06 -0.999539 -0.030344 2e-06 -0.999539 -0.030344 2e-06 -0.999539 -0.030344 2e-06 -0.999539 -0.030344 2e-06 -0.999539 -0.030344 2e-06 -0.999539 -0.030344 2e-06 -0.999539 -0.030344 2e-06 -0.999539 -0.030344 2e-06 -0.999539 -0.030344 2e-06 -0.999539 -0.030344 2e-06 -0.999539 -0.030344 2e-06 -0.999539 -0.030344 2e-06 -0.999539 -0.030344 2e-06 -0.999539 -0.030344 2e-06 -0.999539 -0.030344 2e-06 -0.999539 -0.030344 2e-06 -0.999539 -0.030344 2e-06 -0.999539 -0.030344 2e-06 -0.999539 -0.030344 2e-06 -0.999539 -0.030344 2e-06 -0.999539 -0.030344 1e-06 -1 -1e-06 1e-06 -1 -1e-06 1e-06 -1 -1e-06 1e-06 -1 -1e-06 1e-06 -1 -1e-06 1e-06 -1 -1e-06 1e-06 -1 -1e-06 1e-06 -1 -1e-06 1e-06 -1 -1e-06 1e-06 -1 -1e-06 1e-06 -1 -1e-06 1e-06 -1 -1e-06 1e-06 -1 -1e-06 1e-06 -1 -1e-06 1e-06 -1 -1e-06 1e-06 -1 -1e-06 1e-06 -1 -1e-06 1e-06 -1 -1e-06 1e-06 -1 -1e-06 1e-06 -1 -1e-06 1e-06 -1 -1e-06 -0.706672 -0.037517 0.706546 -0.920349 -0.0341 0.38961 -0.919864 -0.034141 0.390748 -0.706012 -0.037539 0.707204 -0.38926 -0.040214 0.92025 -0.388877 -0.040219 0.920412 -0.112766 0.970992 0.210852 0.569145 0.647702 -0.506514 0.566324 0.667127 -0.483962 -0.658948 0.631051 -0.409342 -0.684404 0.619894 -0.383826 -0.746613 0.646353 -0.15747 -0.745029 0.644967 -0.170145 -0.757695 0.625642 -0.185664 -0.652784 0.630257 -0.420297 -0.659557 0.609748 -0.439535 -0.476081 0.612612 -0.630915 -0.476307 0.595971 -0.646491 -0.480047 0.620525 -0.620084 -0.220721 0.60253 -0.766968 -0.221244 0.588961 -0.777288 -0.220557 0.615924 -0.756302 0.091303 0.614464 -0.783644 0.083084 0.59811 -0.797096 0.100991 0.622468 -0.776102 0.363893 0.641816 -0.675022 0.357894 0.621207 -0.697147 0.378236 0.641492 -0.667402 0.576696 0.66679 -0.472032 0.362705 0.576394 -0.732267 -0.541797 0.619798 -0.567721 -0.756461 0.632737 -0.165564 -0.341603 0.623606 -0.703152 -0.018065 0.623424 -0.781675 0.29678 0.625119 -0.721906 0.54425 0.640926 -0.5413 0.58334 0.604799 -0.542156 0.080057 0.572723 -0.81583 -0.222404 0.575218 -0.787185 -0.483574 0.570021 -0.664253 -0.783831 0.5852 -0.207724 -0.680111 0.566625 -0.465172 -0.964036 0.136908 0.227798 -0.962992 0.141718 0.229266 -0.970221 0.225372 -0.088759 -0.972101 0.213249 -0.097701 -0.972158 0.208828 -0.106296 -0.98391 0.166165 0.065654 -0.984774 0.162966 0.060526 -0.98121 0.179434 0.070922 -0.960801 0.153838 0.230641 -0.94339 0.129882 0.305199 -0.973 0.14668 0.178204 -0.972533 0.230509 -0.032316 -0.966982 0.181532 0.178865 -0.976422 0.203036 0.073325 -0.944556 0.166631 0.282926 -0.976074 0.202632 -0.078861 -0.983976 0.17131 0.049429 -0.94915 0.239577 -0.204246 -0.94622 0.274823 -0.170705 -0.663284 0.718523 0.209232 -0.65699 0.625009 -0.421578 -0.753758 -0.62666 0.197853 -0.71596 -0.698113 0.006247 -0.748128 -0.614519 0.250342 -0.695222 -0.718768 0.006309 -0.781065 -0.579503 -0.232622 -0.78278 -0.596827 -0.17622 -0.796269 -0.584802 0.154796 -0.739658 -0.672891 0.01115 -0.82165 -0.556637 -0.122667 -0.925094 -0.105465 0.364798 -0.997065 -0.068544 0.034102 -0.9523 -0.042417 -0.302201 -0.982172 -0.073238 0.173132 -0.997822 -0.049733 0.043341 -0.995685 -0.030583 -0.087612 -0.97582 -0.016583 -0.217945 -0.413859 8e-06 -0.910341 -0.561244 8e-06 -0.82765 -0.647124 8e-06 -0.762385 0.587764 3e-06 -0.809032 0.207341 6e-06 -0.978269 0.349949 5e-06 -0.936769 0.481942 3e-06 -0.876203 0.094897 6e-06 -0.995487 -0.163243 7e-06 -0.986586 -0.192311 8e-06 -0.981334 -0.84965 8e-06 -0.527346 -0.746951 8e-06 -0.664879 0.124191 0.972466 0.197198 0.203866 0.977944 0.045426 0.133994 0.990568 0.028635 0.310073 0.9507 0.004868 0.258226 0.96519 0.041574 0.131217 0.990146 0.048914 0.970043 -0.157031 0.185357 0.987093 -0.128898 0.095039 0.993632 0.099774 -0.052352 0.99969 0.013724 -0.020781 0.993639 0.109087 -0.027942 0.996217 0.086761 -0.004976 0.998934 0.028219 0.036523 0.99561 -0.001615 0.093584 0.991022 -0.133487 0.00746 0.984331 -0.085445 0.154246 0.999085 0.024516 0.035044 0.93804 -0.223661 0.264683 -0.038392 0.986998 0.156078 0.338946 0.909529 -0.240566 0.240836 0.905408 -0.349621 -0.021161 0.982206 0.186611 0.093105 0.912622 -0.39806 0.00647 0.978917 0.204157 -0.06457 0.923282 -0.378657 0.063318 0.974785 0.213972 -0.214338 0.92619 -0.310211 0.115977 0.97541 0.187416 -0.346687 0.911174 -0.222644 -0.422331 0.901758 -0.092029 0.328324 0.416107 -0.847973 -0.033259 0.286633 -0.957463 -0.412033 0.282607 -0.866234 -0.632734 0.364288 -0.683331 -0.758243 0.481331 -0.439759 -0.763736 0.641363 -0.073218 -0.97486 0.193681 0.110162 -0.973873 0.174333 -0.145531 0.511793 0.202385 0.83493 0.791329 0.2066 0.575426 0.797598 0.192902 0.571512 0.513912 0.197353 0.834833 0.154006 0.201813 0.96724 0.153806 0.192027 0.969262 -0.246143 0.188627 0.950702 -0.243978 0.201215 0.948677 -0.604607 0.193793 0.77259 -0.602105 0.202491 0.772313 -0.851979 0.203485 0.482417 -0.854601 0.198821 0.479715 -0.971202 0.207204 0.117615 -0.906117 0.161519 0.390978 -0.693407 0.172269 0.69965 -0.986003 0.166544 0.007894 -0.378409 0.181895 0.907591 -0.000696 0.178041 0.984023 0.334985 0.165487 0.927577 0.621582 0.157052 0.767444 0.839689 0.162747 0.518107 0.963408 0.183555 0.195328 0.994179 0.086066 0.064819 0.991024 -0.133221 -0.011099 0.978333 -0.18067 -0.101111 0.999576 0.028187 0.007319 0.991913 0.0454 0.118525 0.98479 -0.156476 0.075522 0.971635 0.194216 0.134927 0.98181 0.152572 0.113009 0.973853 0.165071 0.156084 0.959373 0.204688 0.194183 0.958205 0.189498 0.214323 0.940681 -0.292661 -0.171668 0.990125 -0.129478 -0.053733 0.99679 0.035406 0.071806 0.981894 -0.089658 0.166873</float_array>
					<technique_common>
						<accessor count="914" source="#base2_M1KShape0.normals-array" stride="3">
							<param name="X" type="float"/>
							<param name="Y" type="float"/>
							<param name="Z" type="float"/>
						</accessor>
					</technique_common>
				</source>
				<vertices id="base2_M1KShape0.vertices">
					<input semantic="POSITION" source="#base2_M1KShape0.positions"/>
				</vertices>
				<triangles count="1290" material="blinn20.material">
					<input offset="0" semantic="VERTEX" source="#base2_M1KShape0.vertices" set="0"/>
					<input offset="1" semantic="NORMAL" source="#base2_M1KShape0.normals" set="0"/>
					<p>0 0 2 2 1 1 1 1 4 4 3 3 4 4 1 1 2 2 5 5 3 3 6 6 7 7 3 3 4 4 8 8 5 5 9 9 7 7 6 6 3 3 6 6 9 9 5 5 10 10 12 12 11 11 13 13 14 14 12 12 14 14 11 11 12 12 15 15 17 17 16 16 18 18 15 15 16 16 18 18 16 16 19 19 20 20 18 18 19 19 21 21 23 23 22 22 22 22 24 24 21 21 24 24 22 22 25 25 26 26 21 21 27 27 28 28 27 27 21 21 23 23 21 21 26 26 29 29 31 31 30 30 32 32 33 33 31 31 33 33 30 30 31 31 34 34 36 36 35 35 36 36 34 34 37 37 38 38 37 37 34 34 39 39 35 35 36 36 40 40 25 25 41 41 41 41 22 22 42 42 22 22 41 41 25 25 23 23 43 43 42 42 23 23 42 42 22 22 44 44 46 46 45 45 47 47 44 44 48 48 42 42 43 43 45 45 48 48 44 44 45 45 49 49 45 45 46 46 48 48 45 45 43 43 46 46 38 38 49 49 50 50 51 51 34 34 49 49 38 38 52 52 51 51 52 52 38 38 34 34 35 35 50 50 38 38 34 34 51 51 53 53 50 50 35 35 54 54 56 56 55 55 29 29 30 30 57 57 58 58 29 29 59 59 57 57 30 30 60 60 61 61 60 60 30 30 59 59 62 62 58 58 57 57 59 59 29 29 58 58 62 62 55 55 54 54 55 55 62 62 63 63 55 55 56 56 64 64 66 66 65 65 67 67 64 64 65 65 68 68 70 70 69 69 71 71 70 70 68 68 72 72 73 73 70 70 74 74 72 72 70 70 75 75 69 69 70 70 73 73 75 75 70 70 74 74 70 70 71 71 76 76 78 78 77 77 79 79 78 78 76 76 80 80 77 77 81 81 76 76 77 77 80 80 82 82 79 79 76 76 83 83 79 79 82 82 84 84 76 76 80 80 82 82 76 76 84 84 77 77 78 78 85 85 86 86 77 77 85 85 77 77 86 86 81 81 82 82 87 87 83 83 88 88 87 87 82 82 84 84 88 88 82 82 89 89 85 85 78 78 79 79 89 89 78 78 90 90 89 89 79 79 83 83 90 90 79 79 91 91 90 90 83 83 87 87 91 91 83 83 92 92 81 81 86 86 93 93 81 81 92 92 80 80 81 81 93 93 94 94 80 80 93 93 84 84 80 80 94 94 88 88 84 84 94 94 72 72 96 96 95 95 74 74 96 96 72 72 72 72 95 95 73 73 97 97 99 99 98 98 100 100 102 102 101 101 103 103 104 104 102 102 104 104 101 101 102 102 103 103 102 102 100 100 105 105 107 107 106 106 108 108 110 110 109 109 109 109 111 111 108 108 107 107 108 108 111 111 109 109 112 112 111 111 108 108 107 107 113 113 114 114 116 116 115 115 117 117 110 110 118 118 118 118 115 115 116 116 117 117 119 119 109 109 115 115 118 118 110 110 119 119 120 120 112 112 110 110 117 117 109 109 112 112 109 109 119 119 121 121 111 111 120 120 111 111 112 112 120 120 121 121 106 106 111 111 110 110 108 108 122 122 123 123 113 113 107 107 122 122 124 124 110 110 113 113 122 122 108 108 124 124 125 125 110 110 114 114 115 115 125 125 110 110 125 125 115 115 111 111 106 106 107 107 123 123 107 107 105 105 126 126 128 128 127 127 129 129 130 130 32 32 131 131 133 133 132 132 134 134 132 132 133 133 130 130 129 129 131 131 133 133 131 131 129 129 133 133 127 127 134 134 135 135 134 134 127 127 129 129 136 136 133 133 127 127 133 133 136 136 128 128 137 137 135 135 32 32 31 31 129 129 138 138 32 32 130 130 129 129 31 31 136 136 139 139 140 140 136 136 139 139 136 136 31 31 140 140 141 141 136 136 141 141 126 126 136 136 127 127 136 136 126 126 135 135 127 127 128 128 134 134 135 135 97 97 97 97 98 98 134 134 137 137 97 97 135 135 134 134 98 98 132 132 142 142 143 143 132 132 142 142 132 132 98 98 143 143 144 144 132 132 132 132 144 144 131 131 131 131 145 145 130 130 145 145 131 131 144 144 146 146 138 138 147 147 147 147 130 130 145 145 130 130 147 147 138 138 148 148 150 150 149 149 151 151 150 150 148 148 152 152 151 151 148 148 153 153 151 151 152 152 154 154 153 153 152 152 155 155 153 153 154 154 156 156 155 155 154 154 157 157 155 155 156 156 158 158 157 157 156 156 158 158 156 156 159 159 160 160 158 158 161 161 161 161 158 158 159 159 149 149 150 150 162 162 163 163 149 149 162 162 161 161 164 164 160 160 165 165 164 164 161 161 106 106 166 166 105 105 167 167 105 105 166 166 167 167 166 166 168 168 169 169 168 168 166 166 170 170 172 172 171 171 171 171 172 172 173 173 174 174 170 170 171 171 174 174 171 171 175 175 173 173 172 172 69 69 175 175 176 176 174 174 177 177 179 179 178 178 180 180 182 182 181 181 179 179 183 183 182 182 182 182 184 184 179 179 185 185 186 186 183 183 183 183 186 186 182 182 186 186 181 181 182 182 184 184 187 187 179 179 187 187 188 188 179 179 188 188 189 189 179 179 189 189 178 178 179 179 190 190 192 192 191 191 193 193 195 195 194 194 196 196 191 191 192 192 197 197 193 193 198 198 190 190 194 194 199 199 192 192 190 190 200 200 195 195 199 199 194 194 199 199 200 200 190 190 198 198 201 201 197 197 194 194 198 198 193 193 202 202 197 197 201 201 203 203 205 205 204 204 206 206 208 208 207 207 203 203 206 206 205 205 208 208 210 210 209 209 211 211 206 206 207 207 209 209 207 207 208 208 209 209 210 210 212 212 213 213 214 214 212 212 213 213 212 212 210 210 215 215 212 212 214 214 216 216 204 204 205 205 211 211 205 205 206 206 217 217 219 219 218 218 220 220 222 222 221 221 223 223 220 220 224 224 225 225 221 221 222 222 223 223 224 224 226 226 221 221 224 224 220 220 226 226 218 218 219 219 218 218 226 226 224 224 176 176 228 228 227 227 171 171 173 173 229 229 230 230 232 232 231 231 176 176 175 175 228 228 173 173 69 69 232 232 228 228 171 171 229 229 232 232 229 229 173 173 75 75 232 232 69 69 171 171 228 228 175 175 228 228 229 229 233 233 229 229 232 232 230 230 73 73 231 231 75 75 75 75 231 231 232 232 233 233 227 227 228 228 230 230 233 233 229 229 234 234 236 236 235 235 237 237 239 239 238 238 240 240 237 237 238 238 240 240 238 238 227 227 241 241 240 240 227 227 242 242 244 244 243 243 245 245 243 243 244 244 246 246 245 245 247 247 244 244 247 247 245 245 247 247 248 248 246 246 249 249 246 246 248 248 248 248 250 250 249 249 251 251 249 249 250 250 250 250 252 252 251 251 252 252 250 250 253 253 253 253 254 254 252 252 255 255 252 252 254 254 255 255 256 256 252 252 257 257 244 244 242 242 258 258 254 254 253 253 258 258 96 96 254 254 252 252 259 259 251 251 259 259 252 252 256 256 251 251 260 260 249 249 260 260 251 251 259 259 249 249 261 261 246 246 261 261 249 249 260 260 246 246 262 262 245 245 262 262 246 246 261 261 245 245 263 263 243 243 263 263 245 245 262 262 264 264 265 265 243 243 264 264 243 243 263 263 265 265 237 237 243 243 242 242 243 243 237 237 242 242 237 237 257 257 96 96 266 266 254 254 256 256 255 255 266 266 254 254 266 266 255 255 267 267 269 269 268 268 270 270 272 272 271 271 272 272 270 270 268 268 239 239 271 271 273 273 273 273 271 271 272 272 274 274 267 267 268 268 274 274 268 268 270 270 275 275 268 268 269 269 276 276 278 278 277 277 277 277 279 279 276 276 279 279 277 277 280 280 281 281 276 276 279 279 280 280 283 283 282 282 283 283 280 280 277 277 284 284 285 285 282 282 284 284 282 282 283 283 282 282 285 285 286 286 287 287 286 286 285 285 287 287 167 167 288 288 289 289 291 291 290 290 286 286 287 287 288 288 291 291 288 288 167 167 290 290 292 292 289 289 167 167 290 290 291 291 293 293 289 289 292 292 294 294 296 296 295 295 296 296 298 298 297 297 297 297 295 295 296 296 297 297 298 298 299 299 300 300 299 299 301 301 301 301 299 299 298 298 302 302 304 304 303 303 305 305 304 304 306 306 307 307 303 303 304 304 302 302 306 306 304 304 302 302 308 308 306 306 303 303 308 308 302 302 114 114 125 125 308 308 116 116 114 114 308 308 125 125 306 306 308 308 116 116 308 308 303 303 309 309 311 311 310 310 312 312 310 310 311 311 311 311 309 309 313 313 314 314 315 315 313 313 315 315 314 314 316 316 313 313 317 317 311 311 317 317 313 313 315 315 316 316 318 318 315 315 318 318 316 316 319 319 318 318 319 319 320 320 310 310 312 312 321 321 309 309 310 310 322 322 313 313 309 309 323 323 314 314 313 313 324 324 322 322 323 323 309 309 316 316 314 314 325 325 323 323 324 324 313 313 319 319 316 316 326 326 324 324 325 325 314 314 326 326 327 327 319 319 325 325 326 326 316 316 315 315 318 318 328 328 317 317 315 315 329 329 320 320 328 328 318 318 328 328 329 329 315 315 329 329 311 311 317 317 326 326 330 330 327 327 330 330 325 325 331 331 322 322 310 310 332 332 326 326 325 325 330 330 332 332 331 331 323 323 324 324 331 331 325 325 322 322 332 332 323 323 324 324 323 323 331 331 310 310 321 321 332 332 321 321 333 333 332 332 331 331 332 332 334 334 330 330 331 331 335 335 333 333 334 334 332 332 335 335 336 336 330 330 334 334 335 335 331 331 336 336 327 327 330 330 337 337 339 339 338 338 340 340 337 337 338 338 337 337 340 340 341 341 342 342 343 343 339 339 337 337 342 342 339 339 341 341 342 342 337 337 342 342 341 341 344 344 343 343 338 338 339 339 344 344 341 341 340 340 345 345 278 278 281 281 281 281 193 193 345 345 269 269 278 278 345 345 276 276 281 281 278 278 346 346 348 348 347 347 349 349 347 347 348 348 350 350 352 352 351 351 353 353 351 351 352 352 350 350 351 351 354 354 306 306 350 350 354 354 355 355 357 357 356 356 358 358 359 359 357 357 359 359 356 356 357 357 360 360 355 355 356 356 292 292 361 361 293 293 361 361 169 169 293 293 169 169 200 200 293 293 362 362 364 364 363 363 365 365 363 363 364 364 103 103 365 365 364 364 366 366 364 364 362 362 103 103 364 364 366 366 104 104 103 103 366 366 367 367 36 36 368 368 369 369 74 74 370 370 371 371 74 74 369 369 71 71 372 372 370 370 71 71 370 370 74 74 37 37 370 370 368 368 37 37 368 368 36 36 372 372 368 368 370 370 39 39 36 36 367 367 124 124 373 373 125 125 374 374 305 305 335 335 334 334 374 374 335 335 375 375 374 374 334 334 333 333 375 375 334 334 305 305 336 336 335 335 376 376 333 333 321 321 377 377 379 379 378 378 327 327 336 336 380 380 380 380 382 382 381 381 383 383 379 379 384 384 377 377 384 384 379 379 385 385 386 386 383 383 379 379 383 383 386 386 387 387 388 388 385 385 386 386 385 385 388 388 389 389 390 390 387 387 388 388 387 387 390 390 381 381 391 391 389 389 390 390 389 389 391 391 391 391 381 381 382 382 378 378 392 392 377 377 336 336 354 354 380 380 354 354 393 393 382 382 380 380 354 354 382 382 394 394 391 391 393 393 382 382 393 393 391 391 391 391 394 394 390 390 392 392 321 321 377 377 377 377 321 321 384 384 321 321 312 312 384 384 384 384 312 312 383 383 383 383 311 311 385 385 311 311 383 383 312 312 385 385 329 329 387 387 329 329 385 385 311 311 387 387 328 328 389 389 328 328 387 387 329 329 389 389 320 320 381 381 320 320 389 389 328 328 327 327 380 380 319 319 319 319 381 381 320 320 381 381 319 319 380 380 390 390 395 395 388 388 395 395 390 390 394 394 386 386 388 388 396 396 397 397 388 388 395 395 379 379 386 386 398 398 397 397 396 396 388 388 398 398 378 378 379 379 396 396 398 398 386 386 399 399 401 401 400 400 402 402 401 401 403 403 404 404 406 406 405 405 407 407 405 405 406 406 406 406 408 408 407 407 402 402 407 407 408 408 402 402 403 403 407 407 407 407 409 409 405 405 409 409 407 407 403 403 410 410 411 411 405 405 410 410 405 405 409 409 411 411 412 412 405 405 405 405 412 412 404 404 413 413 400 400 408 408 400 400 401 401 402 402 402 402 408 408 400 400 414 414 416 416 415 415 417 417 415 415 416 416 416 416 418 418 417 417 419 419 417 417 418 418 420 420 421 421 419 419 419 419 421 421 417 417 415 415 417 417 343 343 422 422 417 417 421 421 343 343 342 342 415 415 422 422 343 343 417 417 342 342 423 423 415 415 423 423 424 424 415 415 414 414 415 415 424 424 412 412 411 411 418 418 420 420 419 419 411 411 418 418 411 411 419 419 425 425 427 427 426 426 428 428 429 429 427 427 428 428 427 427 425 425 430 430 400 400 429 429 428 428 430 430 429 429 400 400 413 413 429 429 425 425 426 426 431 431 432 432 425 425 431 431 433 433 435 435 434 434 435 435 437 437 436 436 436 436 438 438 435 435 437 437 439 439 436 436 439 439 440 440 436 436 440 440 441 441 436 436 441 441 442 442 436 436 442 442 443 443 436 436 444 444 436 436 443 443 438 438 445 445 435 435 445 445 446 446 435 435 446 446 447 447 435 435 447 447 448 448 435 435 448 448 434 434 435 435 449 449 451 451 450 450 452 452 346 346 347 347 453 453 455 455 454 454 453 453 457 457 456 456 456 456 458 458 453 453 457 457 459 459 456 456 459 459 460 460 456 456 460 460 461 461 456 456 456 456 461 461 462 462 463 463 462 462 461 461 464 464 465 465 458 458 453 453 458 458 465 465 465 465 455 455 453 453 466 466 454 454 455 455 28 28 24 24 25 25 21 21 24 24 28 28 467 467 469 469 468 468 470 470 472 472 471 471 44 44 473 473 471 471 474 474 476 476 475 475 477 477 451 451 475 475 478 478 480 480 479 479 481 481 479 479 480 480 480 480 478 478 482 482 452 452 477 477 475 475 451 451 449 449 474 474 449 449 484 484 483 483 475 475 451 451 474 474 483 483 474 474 449 449 484 484 485 485 483 483 483 483 485 485 481 481 481 481 486 486 479 479 486 486 481 481 485 485 487 487 26 26 479 479 487 487 479 479 486 486 478 478 479 479 27 27 27 27 488 488 478 478 26 26 27 27 479 479 488 488 489 489 478 478 478 478 489 489 482 482 480 480 482 482 490 490 474 474 483 483 476 476 483 483 481 481 490 490 481 481 480 480 490 490 491 491 490 490 482 482 452 452 475 475 476 476 490 490 476 476 483 483 303 303 307 307 492 492 493 493 495 495 494 494 496 496 494 494 495 495 497 497 498 498 493 493 495 495 493 493 498 498 499 499 118 118 496 496 346 346 498 498 348 348 476 476 500 500 498 498 452 452 476 476 346 346 476 476 498 498 346 346 497 497 348 348 498 498 498 498 500 500 495 495 496 496 495 495 499 499 118 118 116 116 496 496 303 303 492 492 116 116 492 492 494 494 116 116 496 496 116 116 494 494 494 494 492 492 493 493 501 501 502 502 493 493 501 501 493 493 492 492 497 497 493 493 503 503 348 348 497 497 503 503 502 502 503 503 493 493 504 504 506 506 505 505 507 507 509 509 508 508 510 510 508 508 509 509 506 506 504 504 507 507 509 509 507 507 504 504 511 511 510 510 509 509 504 504 512 512 509 509 513 513 372 372 511 511 512 512 504 504 273 273 176 176 505 505 506 506 273 273 272 272 512 512 505 505 273 273 504 504 272 272 514 514 512 512 512 512 514 514 509 509 511 511 509 509 513 513 372 372 71 71 511 511 511 511 71 71 510 510 68 68 69 69 510 510 68 68 510 510 71 71 510 510 69 69 508 508 508 508 172 172 507 507 172 172 508 508 69 69 506 506 507 507 174 174 170 170 507 507 172 172 176 176 506 506 174 174 170 170 174 174 507 507 502 502 515 515 503 503 516 516 502 502 501 501 348 348 515 515 349 349 503 503 515 515 348 348 501 501 307 307 516 516 307 307 501 501 492 492 347 347 517 517 452 452 518 518 451 451 517 517 519 519 518 518 517 517 477 477 452 452 517 517 451 451 477 477 517 517 520 520 517 517 347 347 519 519 517 517 520 520 521 521 451 451 518 518 392 392 521 521 518 518 522 522 521 521 392 392 523 523 525 525 524 524 525 525 523 523 526 526 527 527 526 526 523 523 528 528 527 527 529 529 523 523 530 530 527 527 529 529 527 527 530 530 529 529 531 531 528 528 530 530 532 532 529 529 531 531 529 529 532 532 532 532 533 533 531 531 534 534 531 531 533 533 533 533 535 535 534 534 536 536 534 534 535 535 535 535 537 537 536 536 538 538 536 536 537 537 538 538 539 539 536 536 524 524 540 540 523 523 541 541 524 524 525 525 523 523 540 540 530 530 530 530 542 542 532 532 542 542 530 530 540 540 533 533 532 532 543 543 544 544 532 532 542 542 535 535 533 533 545 545 544 544 543 543 532 532 545 545 546 546 535 535 543 543 545 545 533 533 547 547 537 537 546 546 535 535 546 546 537 537 547 547 548 548 537 537 536 536 549 549 534 534 549 549 536 536 539 539 534 534 550 550 531 531 550 550 534 534 549 549 531 531 551 551 528 528 551 551 531 531 550 550 527 527 552 552 526 526 552 552 527 527 528 528 553 553 554 554 526 526 553 553 526 526 552 552 554 554 555 555 526 526 555 555 556 556 525 525 525 525 526 526 555 555 557 557 541 541 556 556 525 525 556 556 541 541 548 548 558 558 537 537 558 558 559 559 537 537 539 539 538 538 559 559 537 537 559 559 538 538 560 560 376 376 520 520 376 376 518 518 519 519 520 520 347 347 560 560 519 519 520 520 376 376 349 349 560 560 347 347 336 336 561 561 354 354 305 305 306 306 561 561 306 306 354 354 561 561 305 305 561 561 336 336 351 351 562 562 354 354 563 563 564 564 522 522 521 521 522 522 564 564 522 522 392 392 565 565 555 555 340 340 566 566 554 554 340 340 555 555 35 35 39 39 53 53 39 39 54 54 53 53 239 239 237 237 265 265 271 271 239 239 265 265 241 241 567 567 240 240 568 568 570 570 569 569 571 571 569 569 570 570 258 258 572 572 568 568 570 570 568 568 572 572 570 570 573 573 571 571 574 574 571 571 573 573 572 572 575 575 570 570 573 573 570 570 575 575 573 573 576 576 574 574 577 577 574 574 576 576 575 575 578 578 573 573 576 576 573 573 578 578 576 576 579 579 577 577 580 580 577 577 579 579 578 578 581 581 576 576 579 579 576 576 581 581 579 579 582 582 580 580 583 583 580 580 582 582 581 581 584 584 579 579 582 582 579 579 584 584 582 582 585 585 583 583 567 567 583 583 585 585 584 584 586 586 582 582 585 585 582 582 586 586 567 567 587 587 583 583 572 572 253 253 575 575 253 253 572 572 258 258 575 575 250 250 578 578 250 250 575 575 253 253 578 578 248 248 581 581 248 248 578 578 250 250 584 584 581 581 244 244 247 247 581 581 248 248 586 586 584 584 257 257 247 247 244 244 581 581 257 257 237 237 586 586 244 244 257 257 584 584 237 237 240 240 586 586 585 585 586 586 240 240 585 585 240 240 567 567 583 583 588 588 580 580 588 588 583 583 587 587 580 580 589 589 577 577 589 589 580 580 588 588 571 571 574 574 590 590 574 574 577 577 591 591 591 591 577 577 589 589 590 590 592 592 571 571 591 591 590 590 574 574 571 571 592 592 569 569 593 593 73 73 569 569 593 593 569 569 592 592 568 568 569 569 95 95 568 568 95 95 258 258 73 73 95 95 569 569 96 96 258 258 95 95 587 587 567 567 241 241 594 594 595 595 65 65 596 596 598 598 597 597 597 597 600 600 599 599 600 600 597 597 601 601 601 601 602 602 600 600 603 603 600 600 602 602 604 604 603 603 605 605 602 602 605 605 603 603 605 605 606 606 604 604 606 606 605 605 607 607 607 607 608 608 606 606 609 609 606 606 608 608 594 594 609 609 595 595 608 608 595 595 609 609 594 594 610 610 609 609 597 597 598 598 601 601 602 602 601 601 611 611 612 612 601 601 598 598 605 605 602 602 613 613 612 612 611 611 601 601 607 607 605 605 614 614 611 611 613 613 602 602 614 614 615 615 607 607 613 613 614 614 605 605 607 607 615 615 608 608 616 616 595 595 617 617 617 617 608 608 615 615 608 608 617 617 595 595 616 616 67 67 595 595 609 609 618 618 606 606 618 618 609 609 610 610 606 606 619 619 604 604 619 619 606 606 618 618 604 604 620 620 603 603 620 620 604 604 619 619 603 603 621 621 600 600 621 621 603 603 620 620 600 600 622 622 599 599 622 622 600 600 621 621 623 623 236 236 599 599 623 623 599 599 622 622 236 236 234 234 599 599 596 596 597 597 234 234 599 599 234 234 597 597 67 67 65 65 595 595 610 610 594 594 65 65 624 624 625 625 588 588 587 587 241 241 624 624 592 592 590 590 626 626 588 588 587 587 624 624 241 241 233 233 624 624 625 625 624 624 230 230 626 626 625 625 231 231 233 233 230 230 624 624 231 231 73 73 626 626 230 230 231 231 625 625 73 73 593 593 626 626 592 592 626 626 593 593 626 626 590 590 625 625 591 591 589 589 625 625 591 591 625 625 590 590 589 589 588 588 625 625 241 241 227 227 233 233 627 627 629 629 628 628 630 630 632 632 631 631 633 633 631 631 632 632 628 628 634 634 630 630 632 632 630 630 634 634 632 632 635 635 633 633 636 636 633 633 635 635 634 634 637 637 632 632 635 635 632 632 637 637 633 633 636 636 638 638 634 634 628 628 639 639 639 639 640 640 634 634 629 629 639 639 628 628 634 634 640 640 637 637 287 287 637 637 641 641 641 641 637 637 640 640 638 638 642 642 633 633 643 643 638 638 636 636 631 631 633 633 644 644 644 644 645 645 631 631 642 642 644 644 633 633 645 645 399 399 631 631 399 399 646 646 631 631 627 627 628 628 646 646 631 631 646 646 630 630 628 628 630 630 646 646 647 647 234 234 648 648 647 647 648 648 284 284 648 648 234 234 287 287 637 637 287 287 234 234 234 234 235 235 637 637 637 637 235 235 635 635 636 636 635 635 235 235 643 643 636 636 649 649 235 235 649 649 636 636 162 162 650 650 163 163 651 651 653 653 652 652 654 654 650 650 162 162 655 655 650 650 654 654 656 656 650 650 655 655 657 657 656 656 655 655 652 652 656 656 657 657 651 651 652 652 657 657 375 375 659 659 658 658 658 658 659 659 660 660 660 660 659 659 515 515 661 661 375 375 658 658 374 374 375 375 661 661 662 662 658 658 660 660 661 661 658 658 662 662 560 560 659 659 376 376 515 515 659 659 560 560 349 349 515 515 560 560 661 661 305 305 374 374 304 304 305 305 661 661 662 662 304 304 661 661 307 307 304 304 662 662 333 333 376 376 659 659 375 375 333 333 659 659 660 660 515 515 502 502 516 516 660 660 502 502 662 662 660 660 516 516 307 307 662 662 516 516 125 125 373 373 350 350 352 352 350 350 373 373 663 663 553 553 664 664 665 665 666 666 664 664 663 663 664 664 666 666 664 664 667 667 665 665 668 668 665 665 667 667 667 667 551 551 668 668 669 669 668 668 551 551 551 551 670 670 669 669 671 671 669 669 670 670 670 670 672 672 671 671 673 673 671 671 672 672 672 672 674 674 673 673 674 674 672 672 675 675 673 673 674 674 428 428 664 664 552 552 667 667 552 552 664 664 553 553 667 667 528 528 551 551 528 528 667 667 552 552 670 670 551 551 550 550 672 672 670 670 549 549 549 549 539 539 672 672 550 550 549 549 670 670 675 675 672 672 539 539 539 539 559 559 675 675 671 671 673 673 425 425 430 430 428 428 674 674 425 425 432 432 671 671 428 428 425 425 673 673 671 671 432 432 669 669 665 665 668 668 676 676 668 668 669 669 677 677 677 677 669 669 432 432 666 666 665 665 678 678 677 677 676 676 668 668 678 678 344 344 666 666 676 676 678 678 665 665 344 344 340 340 666 666 553 553 663 663 554 554 663 663 666 666 340 340 340 340 554 554 663 663 559 559 399 399 675 675 399 399 400 400 675 675 430 430 674 674 400 400 675 675 400 400 674 674 521 521 564 564 451 451 450 450 451 451 564 564 392 392 679 679 321 321 518 518 376 376 679 679 376 376 321 321 679 679 518 518 679 679 392 392 676 676 681 681 680 680 678 678 676 676 680 680 678 678 680 680 682 682 431 431 681 681 432 432 424 424 423 423 678 678 682 682 424 424 678 678 677 677 432 432 681 681 676 676 677 677 681 681 283 283 267 267 284 284 277 277 267 267 283 283 278 278 267 267 277 277 269 269 267 267 278 278 683 683 685 685 684 684 686 686 688 688 687 687 689 689 687 687 688 688 690 690 689 689 688 688 691 691 689 689 690 690 685 685 691 691 690 690 692 692 691 691 685 685 683 683 692 692 685 685 693 693 167 167 168 168 292 292 693 693 168 168 361 361 168 168 169 169 292 292 168 168 361 361 694 694 696 696 695 695 697 697 699 699 698 698 700 700 702 702 701 701 703 703 698 698 704 704 705 705 706 706 697 697 698 698 708 708 707 707 708 708 698 698 699 699 709 709 711 711 710 710 711 711 709 709 707 707 711 711 707 707 708 708 702 702 700 700 709 709 707 707 709 709 700 700 712 712 714 714 713 713 712 712 710 710 711 711 715 715 714 714 716 716 710 710 712 712 713 713 715 715 713 713 714 714 717 717 716 716 718 718 718 718 716 716 714 714 699 699 697 697 719 719 706 706 719 719 697 697 720 720 703 703 721 721 707 707 704 704 698 698 704 704 721 721 703 703 701 701 723 723 722 722 723 723 701 701 702 702 722 722 724 724 695 695 724 724 722 722 723 723 725 725 695 695 696 696 694 694 695 695 724 724 726 726 725 725 696 696 727 727 729 729 728 728 729 729 731 731 730 730 730 730 732 732 729 729 731 731 733 733 730 730 733 733 734 734 730 730 734 734 735 735 730 730 735 735 736 736 730 730 736 736 737 737 730 730 737 737 738 738 730 730 739 739 730 730 738 738 732 732 740 740 729 729 740 740 741 741 729 729 741 741 742 742 729 729 742 742 743 743 729 729 743 743 744 744 729 729 744 744 745 745 729 729 745 745 746 746 729 729 746 746 747 747 729 729 747 747 728 728 729 729 748 748 750 750 749 749 751 751 750 750 748 748 752 752 751 751 748 748 753 753 751 751 752 752 749 749 750 750 653 653 651 651 749 749 653 653 752 752 687 687 753 753 686 686 687 687 752 752 100 100 101 101 754 754 755 755 756 756 353 353 757 757 759 759 758 758 760 760 762 762 761 761 763 763 761 761 762 762 759 759 757 757 760 760 762 762 760 760 757 757 762 762 764 764 763 763 765 765 763 763 764 764 757 757 766 766 762 762 764 764 762 762 766 766 764 764 767 767 765 765 768 768 765 765 767 767 766 766 769 769 764 764 767 767 764 764 769 769 767 767 770 770 768 768 771 771 768 768 770 770 769 769 772 772 767 767 770 770 767 767 772 772 770 770 773 773 771 771 774 774 771 771 773 773 772 772 775 775 770 770 773 773 770 770 775 775 773 773 756 756 774 774 755 755 774 774 756 756 775 775 776 776 773 773 756 756 773 773 776 776 774 774 755 755 777 777 766 766 757 757 778 778 779 779 758 758 759 759 769 769 766 766 780 780 758 758 778 778 757 757 772 772 769 769 781 781 778 778 780 780 766 766 775 775 772 772 782 782 780 780 781 781 769 769 776 776 775 775 783 783 781 781 782 782 772 772 562 562 776 776 783 783 782 782 783 783 775 775 562 562 351 351 776 776 774 774 777 777 771 771 784 784 777 777 755 755 771 771 785 785 768 768 785 785 771 771 777 777 768 768 786 786 765 765 786 786 768 768 785 785 765 765 787 787 763 763 787 787 765 765 786 786 761 761 763 763 788 788 789 789 763 763 787 787 788 788 563 563 761 761 789 789 788 788 763 763 563 563 522 522 761 761 779 779 759 759 565 565 761 761 522 522 760 760 759 759 760 760 522 522 522 522 565 565 759 759 351 351 353 353 776 776 784 784 755 755 353 353 776 776 353 353 756 756 790 790 791 791 340 340 467 467 468 468 792 792 793 793 795 795 794 794 796 796 794 794 795 795 792 792 797 797 793 793 795 795 793 793 797 797 795 795 791 791 796 796 790 790 796 796 791 791 797 797 798 798 795 795 791 791 795 795 798 798 799 799 800 800 790 790 468 468 801 801 792 792 792 792 801 801 797 797 798 798 797 797 802 802 803 803 797 797 801 801 804 804 798 798 802 802 803 803 802 802 797 797 804 804 566 566 798 798 790 790 800 800 796 796 794 794 796 796 805 805 806 806 796 796 800 800 805 805 807 807 794 794 806 806 805 805 796 796 807 807 66 66 794 794 66 66 64 64 473 473 64 64 808 808 471 471 467 467 792 792 473 473 793 793 794 794 473 473 471 471 473 473 64 64 66 66 473 473 794 794 793 793 473 473 792 792 808 808 470 470 471 471 566 566 340 340 798 798 799 799 790 790 340 340 798 798 340 340 791 791 238 238 273 273 505 505 239 239 273 273 238 238 227 227 505 505 176 176 238 238 505 505 227 227 125 125 350 350 306 306 809 809 810 810 40 40 40 40 810 810 25 25 811 811 813 813 812 812 811 811 812 812 814 814 814 814 812 812 815 815 814 814 815 815 816 816 817 817 811 811 814 814 817 817 814 814 818 818 818 818 814 814 816 816 818 818 816 816 819 819 820 820 813 813 343 343 821 821 813 813 820 820 812 812 813 813 821 821 822 822 812 812 821 821 815 815 812 812 822 822 163 163 815 815 822 822 823 823 338 338 817 817 818 818 823 823 817 817 824 824 823 823 818 818 819 819 824 824 818 818 825 825 824 824 819 819 826 826 825 825 819 819 811 811 343 343 813 813 338 338 343 343 811 811 817 817 338 338 811 811 816 816 815 815 163 163 826 826 816 816 163 163 816 816 826 826 819 819 827 827 829 829 828 828 830 830 832 832 831 831 833 833 832 832 830 830 834 834 835 835 831 831 834 834 831 831 832 832 828 828 836 836 827 827 837 837 828 828 829 829 831 831 835 835 836 836 827 827 836 836 835 835 838 838 837 837 829 829 19 19 839 839 20 20 15 15 840 840 17 17 841 841 842 842 840 840 843 843 17 17 840 840 842 842 843 843 840 840 844 844 840 840 15 15 841 841 840 840 844 844 845 845 846 846 85 85 847 847 86 86 848 848 849 849 851 851 850 850 852 852 850 850 851 851 847 847 848 848 849 849 851 851 849 849 848 848 851 851 846 846 852 852 845 845 852 852 846 846 848 848 853 853 851 851 846 846 851 851 853 853 852 852 845 845 854 854 399 399 86 86 847 847 853 853 848 848 86 86 86 86 85 85 853 853 850 850 852 852 855 855 856 856 854 854 845 845 855 855 401 401 850 850 854 854 855 855 852 852 850 850 401 401 849 849 399 399 847 847 401 401 847 847 849 849 401 401 856 856 845 845 85 85 853 853 85 85 846 846 165 165 684 684 164 164 683 683 684 684 165 165 857 857 393 393 858 858 857 857 858 858 859 859 860 860 857 857 859 859 860 860 859 859 861 861 862 862 860 860 861 861 862 862 861 861 863 863 864 864 862 862 863 863 864 864 863 863 865 865 866 866 864 864 865 865 866 866 865 865 867 867 378 378 866 866 867 867 378 378 867 867 868 868 858 858 393 393 354 354 562 562 858 858 354 354 868 868 392 392 378 378 392 392 868 868 565 565 783 783 858 858 562 562 859 859 858 858 783 783 869 869 859 859 783 783 861 861 859 859 869 869 870 870 861 861 869 869 863 863 861 861 870 870 871 871 863 863 870 870 865 865 863 863 871 871 872 872 865 865 871 871 867 867 865 865 872 872 873 873 867 867 872 872 868 868 867 867 873 873 779 779 868 868 873 873 565 565 868 868 779 779 371 371 874 874 74 74 266 266 96 96 874 874 96 96 74 74 874 874 266 266 874 874 371 371 558 558 646 646 559 559 646 646 399 399 559 559 12 12 876 876 875 875 877 877 878 878 622 622 878 878 880 880 879 879 880 880 878 878 877 877 877 877 881 881 880 880 882 882 880 880 881 881 883 883 882 882 884 884 881 881 884 884 882 882 884 884 885 885 883 883 885 885 884 884 886 886 886 886 887 887 885 885 888 888 885 885 887 887 875 875 888 888 889 889 887 887 889 889 888 888 888 888 875 875 890 890 881 881 877 877 621 621 623 623 622 622 878 878 884 884 881 881 620 620 622 622 621 621 877 877 886 886 884 884 619 619 621 621 620 620 881 881 887 887 886 886 618 618 620 620 619 619 884 884 618 618 610 610 887 887 619 619 618 618 886 886 889 889 887 887 610 610 610 610 65 65 889 889 885 885 888 888 891 891 892 892 890 890 875 875 883 883 885 885 893 893 890 890 891 891 888 888 882 882 883 883 894 894 891 891 893 893 885 885 894 894 895 895 882 882 893 893 894 894 883 883 882 882 895 895 880 880 880 880 896 896 879 879 896 896 880 880 895 895 897 897 898 898 879 879 897 897 879 879 896 896 898 898 235 235 879 879 236 236 623 623 235 235 879 879 235 235 878 878 878 878 235 235 623 623 65 65 13 13 889 889 13 13 12 12 889 889 892 892 875 875 876 876 875 875 889 889 12 12 899 899 901 901 900 900 902 902 901 901 899 899 903 903 900 900 904 904 899 899 900 900 903 903 905 905 902 902 899 899 906 906 902 902 905 905 907 907 899 899 903 903 905 905 899 899 907 907 908 908 906 906 905 905 909 909 906 906 908 908 908 908 905 905 907 907 900 900 901 901 87 87 88 88 900 900 87 87 900 900 88 88 904 904 908 908 898 898 909 909 235 235 898 898 908 908 910 910 87 87 901 901 902 902 910 910 901 901 911 911 910 910 902 902 906 906 911 911 902 902 912 912 911 911 906 906 909 909 912 912 906 906 898 898 912 912 909 909 913 913 904 904 88 88 903 903 904 904 913 913 907 907 903 903 913 913 235 235 907 907 913 913 908 908 907 907 235 235</p>
				</triangles>
			</mesh>
		</geometry>
	</library_geometries>
	<library_visual_scenes>
		<visual_scene id="VisualSceneNode" name="base1d_med">
			<node id="J2.dae" name="J2.dae">
				<instance_geometry url="#base2_M1KShape0">
					<bind_material>
						<technique_common>
							<instance_material symbol="blinn20.material" target="#blinn20.material"/>
						</technique_common>
					</bind_material>
				</instance_geometry>
			</node>
		</visual_scene>
	</library_visual_scenes>
	<scene>
		<instance_visual_scene url="#VisualSceneNode"/>
	</scene>
</COLLADA>
