<?xml version="1.0" encoding="UTF-8"?>
<COLLADA xmlns="http://www.collada.org/2005/11/COLLADASchema" version="1.4.1">
	<asset>
		<contributor>
			<author>DENSO WAVE</author>
		</contributor>
		<unit/>
		<up_axis>Y_UP</up_axis>
	</asset>
	<library_materials>
		<material id="blinn20.material" name="blinn20">
			<instance_effect url="#blinn20.effect"/>
		</material>
	</library_materials>
	<library_effects>
		<effect id="blinn20.effect">
			<profile_COMMON>
				<technique sid="common">
					<phong>
						<emission>
							<color>0.04 0.04 0.04 1</color>
						</emission>
						<diffuse>
							<color>1 1 1 1</color>
						</diffuse>
						<specular>
							<color>0.2 0.2 0.2 1</color>
						</specular>
					</phong>
				</technique>
			</profile_COMMON>
		</effect>
	</library_effects>
	<library_geometries>
		<geometry id="base2_M1KShape0" name="base2_M1KShape0">
			<mesh>
				<source id="base2_M1KShape0.positions">
					<float_array id="base2_M1KShape0.positions-array" count="3084">-0.0508511 0.0655865 -0.050851 -0.0511888 0.0664394 -0.0512567 -0.0667423 0.0664433 -0.0282223 -0.0662629 0.0655864 -0.027992 -0.0279923 0.0655866 -0.066263 -0.0281536 0.0664397 -0.0667658 0 0.0655867 -0.071914 4.65438e-05 0.0664391 -0.07244 0.027992 0.0655868 -0.066263 0.02824 0.0664397 -0.0667295 0.050851 0.0655869 -0.050851 0.0512567 0.0664396 -0.0511885 0.066263 0.065587 -0.027992 0.0667746 0.0664761 -0.028154 -0.0502828 0.0650174 -0.0500731 -0.0653853 0.0650145 -0.0275601 -0.0277555 0.0650173 -0.0653289 -0.000150837 0.06501 -0.0709454 0.0274954 0.0650216 -0.0654479 0.0500548 0.0650099 -0.0502766 0.0653678 0.0650199 -0.027707 -0.0719143 0.0655864 0 -0.0725 0.0670006 0 -0.0705 0.0650006 0 0.071914 0.065587 0 0.0725 0.0670012 0 0.0705 0.0650012 0 -0.12884 -0.0642448 0.108 -0.0619938 -0.0637621 0.04401 -0.128002 -0.0634375 0.044156 -0.0890943 -0.0649989 0.108 -0.0950141 -0.0641416 0.0439979 -0.0500335 -0.0636959 0.0573936 -0.0487017 -0.064155 0.108 -0.0548215 -0.0540185 -0.065 -0.0469014 -0.0456246 -0.0643132 -0.0508976 -0.0499683 -0.065581 -0.0578968 -0.0508782 -0.085713 -0.051692 -0.0427366 -0.0858927 -0.141107 -0.0305483 0.00103003 -0.142995 -0.0298812 0.000954628 -0.14128 -0.0293605 0.00488895 -0.140568 -0.0314811 0.00421911 -0.141476 -0.0260412 0.0071823 -0.143 -0.0259455 0.00667602 -0.140906 -0.0265058 0.00860792 -0.142999 -0.0288331 0.00442082 -0.0466541 -0.044423 -0.0650725 -0.0641938 0.0564563 0.0419509 -0.0672319 0.0558958 0.043984 -0.066372 0.0563876 0.0373516 -0.0616131 0.0582357 0.04021 -0.0635461 0.0581731 0.0363243 -0.0597236 0.0609965 0.03892 -0.0614347 0.0608918 0.0353911 -0.0586064 0.0650037 0.0383608 -0.0701129 0.0557878 0.0374623 -0.060505 0.0649834 0.0324786 -0.00514503 -0.0514364 0.0730814 -0.0083041 -0.0499907 0.0766323 0.00798534 -0.0518547 0.0685328 0.025383 -0.0510032 0.061731 -0.0024922 -0.048169 0.074917 -0.115003 0.0426431 -0.0940321 -0.116814 0.0435946 -0.087836 -0.118414 0.0430153 -0.088071 -0.14076 -0.0305492 -0.0139456 -0.140067 -0.0316627 -0.0167986 -0.142994 -0.029855 -0.013808 -0.0469997 -0.0339993 -0.067 -0.0483177 -0.0308173 -0.067 -0.0483177 -0.0371813 -0.067 -0.0546817 -0.0308173 -0.067 -0.0514997 -0.0384993 -0.067 -0.0514997 -0.0294993 -0.067 -0.0546817 -0.0371813 -0.067 -0.0559997 -0.0339993 -0.067 -0.125998 0.0320294 -0.0962207 -0.125192 0.0339145 -0.0961289 -0.127237 0.0348224 -0.0895 -0.128011 0.0330249 -0.089487 -0.122992 0.0311183 -0.102485 -0.122159 0.0330084 -0.102254 -0.118353 0.0303619 -0.107612 -0.117683 0.0322466 -0.107122 -0.130682 0.0291824 -0.067 -0.132 0.0260004 -0.067 -0.1275 0.0215004 -0.067 -0.124318 0.0228184 -0.067 -0.1275 0.0305004 -0.067 -0.124318 0.0291824 -0.067 -0.123 0.0260004 -0.067 -0.130682 0.0228184 -0.067 -0.0730221 -0.0394902 -0.111619 -0.0672857 -0.0380076 -0.110582 -0.0728671 -0.0377796 -0.112312 -0.0677897 -0.0397639 -0.109996 -0.0623511 -0.0384262 -0.107576 -0.0630895 -0.0402234 -0.107181 -0.0582863 -0.0390321 -0.103453 -0.0594748 -0.0407934 -0.103682 -0.05502 -0.0399045 -0.097848 -0.0560928 -0.0415566 -0.098354 -0.0899985 -0.0376048 -0.113822 -0.0900028 -0.0388577 -0.11349 -0.107131 -0.0377797 -0.112313 -0.106981 -0.0394904 -0.111618 -0.0825048 -0.0490332 -0.102982 -0.0755727 -0.0497215 -0.100719 -0.0819719 -0.0444871 -0.108203 -0.0904426 -0.0494267 -0.103 -0.0900019 -0.0444042 -0.108717 -0.0974992 -0.0490328 -0.102982 -0.0980311 -0.0444872 -0.108203 -0.104832 -0.0493297 -0.10109 -0.120801 -0.0548592 -0.065 -0.118436 -0.0509655 -0.088069 -0.122357 -0.0543669 -0.065 -0.116768 -0.0515961 -0.087828 -0.126805 -0.042811 -0.089358 -0.132592 -0.0458141 -0.065 -0.125453 -0.0487999 -0.07695 -0.133395 -0.0440064 -0.065 -0.127532 -0.0411034 -0.089343 -0.124767 -0.0419085 -0.095991 -0.122603 -0.0392086 -0.102213 -0.125534 -0.0401047 -0.0960739 -0.121802 -0.0410242 -0.101995 -0.118068 -0.0384653 -0.107243 -0.117422 -0.0402792 -0.106773 -0.1275 0.0305004 -0.067 -0.124318 0.0291824 -0.067 -0.12608 0.0302704 -0.096261 -0.1275 0.0215004 -0.093002 -0.126436 0.021628 -0.096375 -0.1275 0.0215004 -0.067 -0.124181 0.0230984 -0.101495 -0.124318 0.0228184 -0.067 -0.123024 0.0255357 -0.102906 -0.123 0.0260004 -0.067 -0.123821 0.0283706 -0.101728 -0.1275 0.0305004 -0.091664 -0.130682 0.0228184 -0.067 -0.131018 0.0230353 -0.080543 -0.129856 0.0300141 -0.083706 -0.131247 0.0288053 -0.07876 -0.130682 0.0291824 -0.067 -0.131886 0.0272486 -0.076373 -0.132 0.0260004 -0.067 -0.131738 0.0244137 -0.077426 -0.131991 0.025719 -0.076093 -0.129662 0.0219442 -0.085663 -0.113101 0.0298986 -0.110915 -0.112664 0.0317393 -0.110263 -0.107209 0.029663 -0.112763 -0.107052 0.0314441 -0.11204 -0.113764 0.01402 -0.111248 -0.123843 -0.00404515 -0.102645 -0.126794 -0.00405021 -0.09649 -0.123515 -0.0221066 -0.102428 -0.119168 -0.0221066 -0.107395 -0.113658 -0.0221066 -0.111029 -0.119427 -0.00404514 -0.107692 -0.113829 -0.00404511 -0.111383 -0.119328 0.01402 -0.107578 -0.123718 0.01402 -0.102562 -0.107333 -0.00406478 -0.113472 -0.126106 -0.029721 -0.096269 -0.126436 0.021628 -0.096375 -0.124181 0.0230984 -0.101495 -0.123024 0.0255357 -0.102906 -0.123821 0.0283706 -0.101728 -0.12608 0.0302704 -0.096261 -0.11293 -0.0380108 -0.110488 -0.123953 -0.0313865 -0.101149 -0.123 -0.0339577 -0.102201 -0.123778 -0.0363848 -0.100855 -0.125654 -0.0381035 -0.096125 -0.0625948 -0.0496231 -0.0945749 -0.0551407 -0.0418867 -0.0959822 -0.0644582 -0.0497241 -0.095869 -0.05964 -0.0502031 -0.090605 -0.0625221 -0.0509558 -0.0917003 -0.0599633 -0.0518735 -0.085487 -0.125804 -0.0604411 -0.01249 -0.125352 -0.0597192 -0.020962 -0.127398 -0.0599073 -0.012527 -0.126901 -0.0592158 -0.021004 -0.0890897 0.057 0.108 -0.0486876 0.0561573 0.108 -0.128061 0.0554319 0.0440559 -0.061539 0.0559373 0.051637 -0.0497104 0.0557685 0.063171 -0.128897 0.0562434 0.108 -0.0483177 -0.0308173 -0.067 -0.0478432 -0.0311211 -0.0745561 -0.0514997 -0.0294993 -0.067 -0.0514997 -0.0384993 -0.086621 -0.0491666 -0.0380296 -0.078217 -0.0514997 -0.0384993 -0.067 -0.0477907 -0.0368638 -0.072984 -0.0483177 -0.0371813 -0.067 -0.04712 -0.0352101 -0.0703676 -0.0469997 -0.0339993 -0.067 -0.0471864 -0.032563 -0.071286 -0.0492035 -0.0299698 -0.0801631 -0.0514997 -0.0294993 -0.08847 -0.0454164 -0.0841808 0.045417 -0.0443411 -0.0849515 0.0446061 -0.0578142 -0.0849985 0.0245759 -0.0591812 -0.0841808 0.0250009 -0.0250004 -0.0841807 0.059182 -0.0242498 -0.0849847 0.0579654 3.06591e-05 -0.0837825 0.0646447 0.000223525 -0.084992 0.0628005 0.0251916 -0.0837846 0.059551 0.0246544 -0.0849946 0.0577713 0.045417 -0.0841805 0.045417 0.0445676 -0.0849958 0.044234 0.059182 -0.0841804 0.0250009 0.0578615 -0.0849968 0.0243518 -0.0460015 -0.0828489 0.0460248 -0.0599436 -0.0828999 0.0253375 -0.0252473 -0.0828616 0.0600085 0.04603 -0.0828171 0.0460589 0.0599963 -0.0828201 0.0253598 1.90809e-05 -0.0820439 0.06519 0.0253742 -0.0820739 0.0600612 -0.0642286 -0.0841808 0 -0.0621692 -0.0849993 0 -0.0651643 -0.082172 0 0.06423 -0.0841804 0 0.062171 -0.0849989 0 0.065165 -0.0821716 0 -0.0318136 0.0378793 -0.0591276 -0.0352256 0.0178713 -0.0591031 -0.0312589 0.0180008 -0.060207 -0.0360004 0.0376793 -0.0579415 -0.0391553 0.0177962 -0.0596451 -0.0401847 0.037692 -0.0586074 -0.0425693 0.0177813 -0.061666 -0.0436972 0.0370292 -0.0609947 -0.0451871 0.0173869 -0.0653422 -0.0460708 0.0361661 -0.0651163 -0.0579108 0.0429576 -0.085721 -0.0516498 0.0351361 -0.086417 -0.054842 0.0460844 -0.065 -0.0463747 0.0376746 -0.0644003 -0.0566585 0.0467781 -0.065 -0.0599006 0.0438713 -0.085497 -0.0511278 0.0336615 -0.086377 -0.12585 0.0524406 -0.012485 -0.127374 0.0519544 -0.0125231 -0.125396 0.0517183 -0.020964 -0.126875 0.05126 -0.021006 -0.0447445 -0.00926366 -0.065009 -0.0455023 -0.0100493 -0.0672081 -0.0461741 -0.0377878 -0.0651163 -0.123633 0.0495131 -0.0430511 -0.125396 0.0517183 -0.020964 -0.125074 0.0490872 -0.043052 -0.120844 0.0468589 -0.065 -0.126875 0.05126 -0.021006 -0.122333 0.0464101 -0.065 -0.0545579 0.03186 -0.0979724 -0.054721 0.0338992 -0.0961204 -0.142999 0.0288342 0.00442016 -0.142996 0.029882 0.000954628 -0.14128 0.0293614 0.00488895 -0.143 0.0259463 0.00667602 -0.140906 0.0265066 0.00860792 -0.140572 0.0314773 0.00422984 -0.141107 0.0305491 0.00103003 -0.141476 0.026042 0.0071823 -0.143 0.0130134 0.00998402 -0.141769 0.0131023 0.010539 -0.143 4.25e-07 0.0110869 -0.141851 3.95e-07 0.0116439 -0.143 -0.0130125 0.00998402 -0.141769 -0.0131015 0.010539 -0.1414 0.0133912 0.011931 -0.141565 3.62e-07 0.013039 -0.1414 -0.0133905 0.011931 -0.142996 0.029882 0.000954628 -0.142998 0.0133942 -0.0227402 -0.142994 0.0298558 -0.013808 -0.142999 0.000258038 -0.0238782 -0.142999 -0.0288331 0.00442082 -0.142997 -0.0131087 -0.0228137 -0.143 -0.0259455 0.00667602 -0.14296 -0.0258483 -0.0195162 -0.142994 -0.029855 -0.013808 -0.142876 -0.0287868 -0.0174212 -0.142995 -0.0298812 0.000954628 -0.143 -0.0130125 0.00998402 -0.143 4.25e-07 0.0110869 -0.143 0.0130134 0.00998402 -0.143 0.0259463 0.00667602 -0.142999 0.0288342 0.00442016 -0.14296 0.0258492 -0.0195162 -0.142876 0.0287874 -0.017422 -0.0625551 0.0416484 -0.0945883 -0.0624909 0.0429477 -0.0917535 -0.0644807 0.0417739 -0.095869 -0.1275 0.0305004 -0.091664 -0.140077 -0.0265058 -0.021457 -0.13917 -0.0262803 -0.033571 -0.140322 -0.013395 -0.024756 -0.136367 -0.0262803 -0.054768 -0.132059 -0.0262803 -0.0757101 -0.136922 -0.00403989 -0.0548611 -0.132605 -0.00403987 -0.075843 -0.13973 -0.0040399 -0.0336241 -0.136663 0.0182061 -0.054817 -0.13235 0.0182061 -0.075781 -0.139469 0.0182061 -0.033599 -0.131018 0.0230353 -0.080543 -0.129662 0.0219442 -0.085663 -0.140322 0.0133958 -0.024756 -0.140404 3.75e-07 -0.025856 -0.140077 0.0265066 -0.021457 -0.137469 0.0381084 -0.04303 -0.13937 0.0398313 -0.0208721 -0.139667 0.0404347 -0.012181 -0.140068 0.0317083 -0.0165882 -0.133945 0.0359505 -0.065 -0.129856 0.0300141 -0.083706 -0.1275 0.0215004 -0.093002 -0.1275 -0.0294996 -0.091837 -0.129807 -0.0300062 -0.083851 -0.131188 -0.0312384 -0.0784391 -0.131848 -0.0327645 -0.075334 -0.131997 -0.0341529 -0.074272 -0.131761 -0.0355107 -0.075021 -0.136899 -0.046165 -0.043012 -0.13878 -0.0478895 -0.020836 -0.139068 -0.0484922 -0.012166 -0.131032 -0.0369294 -0.077717 -0.129661 -0.0380466 -0.082638 -0.1275 -0.0384996 -0.090061 -0.131247 0.0288053 -0.07876 -0.131886 0.0272486 -0.076373 -0.131738 0.0244137 -0.077426 -0.131991 0.025719 -0.076093 -0.0556985 0.0335557 -0.098553 -0.0559796 0.02557 -0.101363 -0.0562821 0.0140601 -0.102562 -0.0551886 0.0235024 -0.100235 -0.0661706 -0.00404733 -0.111383 -0.0726652 -0.00406463 -0.113472 -0.0663419 -0.022151 -0.111027 -0.060832 -0.022151 -0.107394 -0.0564857 -0.022151 -0.102427 -0.0605721 -0.0040473 -0.107692 -0.056156 -0.00404729 -0.102645 -0.0606715 0.0140601 -0.107578 -0.0662362 0.0140601 -0.111247 -0.0532057 -0.00410124 -0.09649 -0.0727847 0.0296632 -0.112762 -0.0670804 0.0298986 -0.110995 -0.0620465 0.0303275 -0.107926 -0.057905 0.0309426 -0.10373 -0.053577 0.0220088 -0.096371 -0.0539167 -0.0302035 -0.096262 -0.0553449 -0.0317296 -0.09969 -0.0559923 -0.0337352 -0.100575 -0.0555742 -0.0358168 -0.099642 -0.0543102 -0.0375137 -0.096136 -0.053898 0.0298084 -0.096268 -0.0554857 0.027963 -0.100443 -0.0751704 0.0413597 -0.101071 -0.0729447 0.0314443 -0.112039 -0.069681 0.0369765 -0.105293 -0.0592324 0.0327999 -0.104079 -0.0674698 0.0317317 -0.110327 -0.0659083 0.0372517 -0.103113 -0.0626659 0.0322085 -0.107403 -0.140706 0.0260903 -0.020197 -0.140661 0.0293787 -0.017831 -0.14296 0.0258492 -0.0195162 -0.14076 0.03055 -0.0139456 -0.142994 0.0298558 -0.013808 -0.142876 0.0287874 -0.017422 -0.104829 0.0413604 -0.10107 -0.0969173 0.041499 -0.102449 -0.109922 0.0420398 -0.0983536 -0.0900033 0.0409688 -0.103594 -0.0829296 0.0414927 -0.102439 -0.0709423 0.0419831 -0.0987327 -0.0672065 -0.0603371 -0.026174 -0.0583913 -0.0609468 -0.036836 -0.0610133 -0.0589154 -0.038279 -0.0642951 -0.0623543 -0.025247 -0.0564202 -0.0638922 -0.0359811 -0.062153 -0.0653265 -0.024704 -0.0709182 -0.0615972 -0.013109 -0.067818 -0.0636 -0.012737 -0.0656066 -0.0665991 -0.012545 -0.0524399 -0.0573499 -0.0491421 -0.0551016 -0.0564652 -0.051539 -0.0501578 -0.0593864 -0.047286 -0.0484623 -0.0623164 -0.046128 -0.0475604 -0.0658815 -0.045825 -0.0720759 -0.0626787 0.000630975 -0.0758849 -0.0619878 0.000692964 -0.0689128 -0.0646752 0.000481009 -0.066704 -0.0676898 0.000262976 -0.0657576 -0.0714347 0 -0.0640279 -0.0580674 -0.040153 -0.0705589 -0.0595472 -0.0274031 -0.0745571 -0.0608666 -0.0136631 -0.055385 -0.0674931 -0.035827 -0.0611047 -0.0689811 -0.024638 -0.0646016 -0.0703077 -0.012586 -0.0442923 -0.0451458 -0.0605866 -0.0341043 -0.0513594 -0.057357 -0.0321645 -0.0444559 -0.0588 -0.0366858 -0.0474733 -0.0572451 -0.126901 -0.0592158 -0.021004 -0.125352 -0.0597192 -0.020962 -0.125099 -0.0570454 -0.043052 -0.12359 -0.0575135 -0.0430511 0.059585 0.0533005 0.02857 0.044938 0.0533005 0.048467 0.058611 0.0650011 0.028103 -0.0183308 0.0415308 -0.064356 -0.0184914 0.0297464 -0.06492 0.060867 0.0297467 0.029185 0.045905 0.0297466 0.04951 0.060339 0.0415311 0.028931 0.045507 0.0415311 0.04908 0.067347 0.0297467 0.00479198 0.066762 0.0415312 0.00474995 0.064117 0.0297467 -0.021108 0.06356 0.0415312 -0.020924 0.031628 0.0297466 -0.059634 0.031353 0.041531 -0.0591161 0.065928 0.0533005 0.00469095 0.062766 0.0533005 -0.020663 0.030961 0.0533004 -0.058378 -0.0181019 0.0533002 -0.063552 0.025539 0.0412881 0.061867 -0.0338639 0.0433881 -0.057581 -0.017806 0.0650008 -0.062514 -0.0401971 0.0650007 -0.051099 -0.0414814 0.0539322 -0.051371 -0.0442488 0.0562905 -0.048737 0.030455 0.065001 -0.057424 -0.0474625 0.0575428 -0.045454 -0.0561422 0.0650007 -0.032758 -0.0571156 0.0595899 -0.032128 -0.0642636 0.0650007 -0.00985199 -0.0630862 0.0613953 -0.017082 -0.0652049 0.0628839 -0.00105608 -0.0631238 0.0649991 0.0148264 0.022811 0.065001 0.060866 0.027299 0.018001 0.062103 0.049723 0.018001 0.046177 0.063607 0.018001 0.0235839 0.067808 0.0180009 -0.002599 0.044544 0.0180009 -0.051191 0.061187 0.0180009 -0.029294 0.0215134 0.0180008 -0.064336 -0.0047915 0.0180008 -0.0676891 0.061741 0.0650011 -0.020325 -0.0120475 -0.0509991 0.07534 -0.0232636 -0.0509992 0.072664 -0.0368495 -0.0510015 0.069671 -0.0373756 -0.0510035 0.0853786 -0.0361029 -0.0510624 0.0675355 -0.138554 0.041686 -0.020958 -0.131126 0.0448799 -0.043072 -0.133098 0.0378413 -0.065 -0.136613 0.0400087 -0.043055 -0.00982568 0.0523638 0.0708135 -0.0097997 0.0650009 0.069361 -0.0018478 0.0497759 0.071336 -0.00142901 0.0650009 0.069525 0.003342 0.0469268 0.07071 0.00665519 0.0650009 0.067348 0.0091436 0.0430003 0.068975 -0.0148463 0.0522262 0.069846 -0.0097997 0.0650009 0.069361 -0.00982568 0.0523638 0.0708135 -0.0145538 0.0650008 0.0684699 -0.0110931 0.0470076 0.0726279 -0.00356691 0.0466839 0.0724221 -0.0123382 0.0435001 0.077091 -0.00401199 0.0438898 0.0744975 -0.0535734 0.0649926 0.0449651 -0.0454279 0.0650007 0.053257 -0.0432026 0.0643766 0.05519 -0.0293326 0.0522262 0.065104 -0.0256902 0.0650008 0.065115 -0.0360499 0.0650007 0.060003 -0.038647 0.063218 0.058661 -0.0350902 0.0603678 0.061269 -0.0534686 -0.0643792 0.048487 -0.0535674 -0.0732188 0.037975 -0.0493578 -0.0694054 0.044791 -0.0429551 -0.0731168 0.049671 -0.0473312 -0.064274 0.054494 -0.0510594 -0.06636 0.046314 -0.0451771 -0.066253 0.052059 -0.0436453 -0.0693003 0.050369 -0.0588303 -0.0643855 0.041762 -0.0561947 -0.0663678 0.039881 -0.054352 -0.0694114 0.038555 -0.127374 0.0519544 -0.0125231 -0.12585 0.0524406 -0.012485 -0.128004 0.0541491 0.015684 -0.129849 0.0547333 0.0440401 -0.0408095 -0.0552316 0.0638506 -0.0454215 -0.0619369 0.060338 -0.0475688 -0.0627292 0.064794 -0.0413085 -0.0538318 0.0698444 -0.0372953 -0.0554977 0.0607241 -0.0420889 -0.0628712 0.057081 -0.0325084 -0.0566939 0.0593622 -0.0382689 -0.0652124 0.055496 -0.0295039 -0.0605195 0.059383 -0.0346597 -0.0686408 0.056054 0.00665519 0.0650009 0.067348 0.0091436 0.0430003 0.068975 0.00183149 0.012975 0.074923 -0.00377274 0.0415111 0.0755603 -0.0550059 0.048513 -0.051132 -0.0539378 0.0470929 -0.057431 -0.0516301 0.0482981 -0.051714 -0.0461513 0.0527681 -0.048612 -0.0510688 0.046829 -0.05401 -0.049244 0.0508841 -0.0484806 -0.0476897 0.0480732 -0.051689 -0.0443205 0.050537 -0.050724 -0.0523947 0.0493533 -0.048812 -0.0484276 0.0541022 -0.045826 -0.046132 -0.0634967 0.057984 -0.0382776 -0.0718359 0.053445 -0.0404454 -0.0680373 0.053536 -0.0454215 -0.0619369 0.060338 -0.0432472 -0.0651377 0.055154 -0.0420889 -0.0628712 0.057081 -0.0473312 -0.064274 0.054494 -0.0451771 -0.066253 0.052059 -0.0539689 -0.0549692 -0.057902 -0.0567145 -0.0547786 -0.065 -0.0697773 -0.0499803 -0.09821 -0.142113 -0.00404328 0.047888 -0.142486 -0.00404331 0.108 -0.141508 -0.0272233 0.047896 -0.141821 0.0191428 0.047892 -0.140593 0.0421685 0.0439477 -0.13997 -0.0502298 0.0439447 -0.140386 -0.0503215 0.108 -0.14101 0.042259 0.108 -0.0368109 0.0430068 0.0853668 -0.036048 0.0430066 0.0738794 -0.0174437 0.0430161 0.0782992 0.0026613 9.11e-07 0.074716 0.0148912 0.00763767 0.068127 0.027718 1.001e-06 0.062094 -0.0365116 0.0419896 0.0880924 -0.0158911 0.0419863 0.0803885 -0.0174127 0.0394305 0.0823404 -0.0368196 0.0395124 0.0895659 -0.0337512 0.0438034 0.0700188 -0.015941 0.0441756 0.0749959 -0.0306446 0.0457617 0.0678921 -0.0153972 0.046188 0.0724379 -0.0150189 0.048941 0.070658 -0.0321399 0.048316 0.0654181 -0.0159514 8.44e-07 0.08397 -0.0354241 7.73e-07 0.091243 -0.0102592 0.0403543 0.0789846 -0.0357534 0.0198322 0.090794 -0.00401199 0.0438898 0.0744975 0.0091436 0.0430003 0.068975 -0.00377274 0.0415111 0.0755603 -0.00866958 0.0426475 0.0773968 -0.0474767 0.0548839 0.070103 -0.0471312 0.0551291 0.108 -0.0481427 0.0558071 0.0874829 -0.0418368 0.0475895 0.074304 -0.0403859 0.0454592 0.0917365 -0.0390688 0.0430877 0.0913306 -0.039027 0.0430773 0.108 -0.0406609 0.0456511 0.0738971 -0.039658 -0.0508604 0.0913598 -0.0396611 -0.0510733 0.108 -0.0380563 -0.025276 0.093609 -0.0378995 0.0212291 0.093599 -0.037522 7.65e-07 0.0941129 -0.0375135 -0.00404719 0.108 -0.0388395 0.0438044 0.0883315 -0.0390688 0.0430877 0.0913306 -0.0373192 0.0211663 0.091822 -0.036944 7.67e-07 0.092334 -0.0401577 0.0469985 0.069853 -0.0453412 0.0540629 0.065905 -0.0357985 0.0459909 0.0674525 -0.0421637 0.0548808 0.062748 -0.0385461 0.0570713 0.061059 -0.0362869 0.0434305 0.0723079 -0.0388387 0.0449853 0.0712709 -0.0388387 0.0449853 0.0712709 -0.0387553 0.0437021 0.0758719 -0.0354459 -0.047379 0.088885 7.23973e-05 -0.0308517 0.075063 -0.0103312 -0.0473789 0.0789329 0.002028 -0.0151517 0.074811 -0.0358965 -0.0238226 0.090795 -0.0373093 -0.0475684 0.089451 -0.0374756 -0.0252229 0.091831 -0.0587312 0.0564888 0.049282 -0.0563383 0.0582653 0.047276 -0.0545782 0.0610286 0.045802 0.00932876 -0.0417978 0.0694719 0.0182284 -0.0432442 0.065215 0.026383 -0.037999 0.0618889 -0.130832 0.0554339 0.108 -0.140043 0.0436986 0.0439516 -0.135862 0.0497719 0.075873 -0.140556 0.0436466 0.108 -0.017441 -0.0605195 0.063974 -0.0176799 -0.0568048 0.06485 -0.0308784 -0.0537605 0.062149 -0.0322682 -0.0517372 0.0649459 -0.0182535 -0.0537605 0.066954 -0.00475614 -0.0549392 0.0681917 -0.0190809 -0.0517281 0.069989 -0.00447635 -0.0605392 0.0661782 -0.0665611 0.0550259 -0.017443 -0.068643 0.0564343 -0.00078702 -0.0717464 0.0545508 -0.000627995 -0.0695391 0.0531205 -0.018021 -0.0642911 0.0578661 -0.0171111 -0.0663518 0.0592987 -0.000927031 -0.060353 0.0532982 -0.033053 -0.0630298 0.0513702 -0.034322 -0.0582811 0.0561155 -0.0322911 -0.0695224 0.055608 0.017139 -0.0731444 0.0550013 0.018056 -0.0664844 0.0574803 0.016304 -0.0643158 0.0603579 0.0156339 -0.0523947 0.0493533 -0.048812 -0.049244 0.0508841 -0.0484806 -0.0753017 0.053896 -0.000513971 -0.0728646 0.0523957 -0.018797 -0.0660328 0.0505761 -0.035951 0.06158 -0.0490209 -0.026014 0.058089 -0.0379989 -0.03412 0.047257 -0.0490209 -0.0472571 -0.0606033 -0.0711579 -0.025602 -0.0465077 -0.0711578 -0.046508 -0.025356 -0.082765 -0.0600194 6.4075e-07 -0.0655107 -0.0660696 -0.0258179 -0.0600908 -0.0611171 0.0467161 -0.0655956 -0.0467157 0.0608994 -0.0650584 -0.0257252 0.0257176 -0.0655445 -0.0608766 0.026014 -0.049021 -0.0615801 3.94881e-07 -0.0490211 -0.066832 -0.0260135 -0.0490212 -0.0615801 0.067278 -0.0379989 0 -0.0441878 -0.064527 -0.049176 -0.0412996 -0.0619415 -0.051789 -0.0318729 -0.0379992 -0.059249 0.0025287 -0.0379991 -0.067321 0.0599976 -0.0828184 -0.025359 0.0460282 -0.0828148 -0.0460621 0.0253244 -0.0828148 -0.0600099 -7.39843e-06 -0.0828234 -0.0651138 -0.0460649 -0.0828269 -0.0460144 -0.0600011 -0.0827988 -0.0253283 0.034511 -0.037999 -0.057752 -0.037038 -0.0499755 0.0880871 -0.0393453 -0.0517873 0.0883113 -0.0405895 -0.0529579 0.090514 -0.0405895 -0.0529579 0.090514 -0.0413085 -0.0538318 0.0698444 -0.0393299 -0.0516908 0.0706277 -0.0368495 -0.0510015 0.069671 -0.0373756 -0.0510035 0.0853786 -0.0481835 -0.0637637 0.084762 -0.0471251 -0.0630438 0.108 -0.0385476 -0.0525851 0.0648531 -0.0408139 -0.0533258 0.067784 0.0145679 -0.0167735 0.06811 0.059182 -0.0841804 -0.025001 0.044607 -0.0849513 -0.044342 0.0578585 -0.0849982 -0.02435 0.045417 -0.0841805 -0.045417 0.0246536 -0.0849845 -0.0577971 0.025001 -0.0841806 -0.059182 0.000223406 -0.084992 -0.0628005 3.94881e-07 -0.0841806 -0.064229 -0.0242331 -0.0849948 -0.0579473 -0.0250004 -0.0841807 -0.059182 -0.0442359 -0.084996 -0.0445642 -0.0454164 -0.0841808 -0.045417 -0.0578181 -0.084997 -0.0245749 -0.0591812 -0.0841808 -0.025001 -0.0563782 -0.0464993 -0.090851 0.0258331 -0.0600882 0.0611145 0.0608024 -0.0668086 0.0257106 -0.0256013 -0.0711576 0.060604 7.10487e-05 -0.0602557 0.06633 0.0467235 -0.065616 0.0467061 0.047257 -0.0490208 0.047257 0.06158 -0.0490207 0.026014 0.064376 -0.0379989 0.019557 0.056131 -0.0379989 0.03709 0.043236 -0.0379989 0.05155 0.0161519 -0.0553052 0.064677 -0.0587787 -0.0730598 0.029286 -0.0625873 -0.0727045 0.019945 -0.0649336 -0.0721603 0.0101259 0.0083405 -0.0582196 0.066071 -0.0018478 0.0497759 0.071336 0.003342 0.0469268 0.07071 0.049475 0.00402417 0.046668 0.063638 0.00402423 0.0239379 -0.00554281 -0.0240281 -0.067504 0.063376 -0.0240278 0.023839 0.049271 -0.0240279 0.046476 0.063599 -0.0100028 0.023923 0.049444 -0.0100028 0.04664 0.067686 -0.0240278 -0.00248104 0.067925 -0.0100028 -0.00248998 0.061022 -0.0240279 -0.029345 0.061237 -0.0100028 -0.029449 0.044198 -0.0240279 -0.051324 0.044353 -0.0100029 -0.051505 0.020946 -0.024028 -0.0643901 0.0210198 -0.010003 -0.064617 -0.0055624 -0.0100031 -0.067742 0.067967 0.00402425 -0.00249106 0.061274 0.00402422 -0.029467 0.044381 0.00402415 -0.051537 0.0210327 0.00402406 -0.064657 -0.00556581 0.00402395 -0.067784 -0.0311391 -0.0101051 -0.060396 -0.0514999 0.0215007 -0.067 -0.0546819 0.0228187 -0.067 -0.053577 0.0220088 -0.096371 -0.0514999 0.0305007 -0.088291 -0.053898 0.0298084 -0.096268 -0.0514999 0.0305007 -0.067 -0.0554857 0.027963 -0.100443 -0.0546819 0.0291827 -0.067 -0.0559796 0.02557 -0.101363 -0.0559999 0.0260007 -0.067 -0.0551886 0.0235024 -0.100235 -0.0514999 0.0215007 -0.089681 -0.0483179 0.0228187 -0.067 -0.0469999 0.0260007 -0.067 -0.0514999 0.0305007 -0.067 -0.0546819 0.0291827 -0.067 -0.0514999 0.0215007 -0.067 -0.0546819 0.0228187 -0.067 -0.0559999 0.0260007 -0.067 -0.0483179 0.0291827 -0.067 -0.116814 0.0435946 -0.087836 -0.120844 0.0468589 -0.065 -0.118414 0.0430153 -0.088071 -0.122333 0.0464101 -0.065 -0.089997 0.0294847 -0.114273 -0.0813095 -0.00406471 -0.114608 -0.0986901 -0.00406478 -0.114608 -0.0899998 -0.00406474 -0.114986 -0.120589 0.0382737 -0.0953529 -0.117757 0.0377133 -0.099803 -0.110101 0.0369764 -0.10542 -0.136086 -0.0479836 -0.043034 -0.138008 -0.0496597 -0.020919 -0.130866 -0.0528206 -0.043061 -0.0698308 -0.0449567 -0.105128 -0.0661127 -0.0452236 -0.103001 -0.127398 -0.0599073 -0.012527 -0.138336 -0.0501794 -0.012194 -0.0546817 -0.0371813 -0.067 -0.0543102 -0.0375137 -0.096136 -0.0539167 -0.0302035 -0.096262 -0.0553449 -0.0317296 -0.09969 -0.0546817 -0.0308173 -0.067 -0.0559923 -0.0337352 -0.100575 -0.0559997 -0.0339993 -0.067 -0.0555742 -0.0358168 -0.099642 -0.0890943 -0.0649989 0.108 -0.0375135 -0.00404719 0.108 -0.0396611 -0.0510733 0.108 -0.128897 0.0562434 0.108 -0.0890897 0.057 0.108 -0.14101 0.042259 0.108 -0.139976 -0.0516007 0.108 -0.130847 -0.063366 0.108 -0.130832 0.0554339 0.108 -0.140386 -0.0503215 0.108 -0.142486 -0.00404331 0.108 -0.039027 0.0430773 0.108 -0.140556 0.0436466 0.108 -0.0486876 0.0561573 0.108 -0.0471312 0.0551291 0.108 -0.12884 -0.0642448 0.108 -0.0487017 -0.064155 0.108 -0.0471251 -0.0630438 0.108 -0.0368109 0.0430068 0.0853668 -0.0406609 0.0456511 0.0738971 -0.036048 0.0430066 0.0738794 -0.0403859 0.0454592 0.0917365 -0.10987 -0.0500331 -0.0983931 -0.117582 -0.0456825 -0.099672 -0.115656 -0.0500825 -0.094285 -0.120378 -0.0462303 -0.0952811 -0.113074 -0.0503871 -0.0958102 -0.112516 -0.0397826 -0.109857 -0.110029 -0.0449611 -0.105217 -0.1275 -0.0294996 -0.067 -0.124318 -0.0308176 -0.067 -0.126106 -0.029721 -0.096269 -0.1275 -0.0384996 -0.090061 -0.125654 -0.0381035 -0.096125 -0.1275 -0.0384996 -0.067 -0.123778 -0.0363848 -0.100855 -0.124318 -0.0371816 -0.067 -0.123 -0.0339996 -0.067 -0.123953 -0.0313865 -0.101149 -0.123 -0.0339577 -0.102201 -0.1275 -0.0294996 -0.091837 -0.0483179 0.0291827 -0.067 -0.0478806 0.0288665 -0.075192 -0.0492407 0.0219879 -0.08165 -0.0478682 0.0231745 -0.076158 -0.0483179 0.0228187 -0.067 -0.0469998 0.0259958 -0.07178 -0.0469999 0.0260007 -0.067 -0.0471877 0.0273952 -0.072446 -0.0471865 0.0246479 -0.072953 -0.0492581 0.0300287 -0.08036 -0.138889 0.0422089 -0.012209 -0.0915413 -0.0595388 -0.029399 -0.0915413 -0.0625205 0.00725198 -0.0749509 -0.0627093 0.012239 -0.0722795 -0.0632505 0.023439 -0.0915414 -0.0552115 -0.0659161 -0.067938 -0.0636039 0.0340949 -0.125804 -0.0604411 -0.01249 -0.0372944 0.0407386 -0.056875 -0.0510688 0.046829 -0.05401 -0.0476897 0.0480732 -0.051689 -0.134488 0.0488779 0.015687 -0.0385476 -0.0525851 0.0648531 -0.0342543 -0.0542299 0.060972 -0.0354179 -0.0521647 0.063871 -0.0439929 0.0608565 0.056078 -0.0407879 0.0596563 0.05903 -0.0454618 0.0580887 0.057852 -0.0434476 0.0569983 0.060756 -0.047428 0.0563127 0.06029 -0.0461491 0.0555396 0.063548 -0.0421637 0.0548808 0.062748 -0.0453412 0.0540629 0.065905 -0.0454618 0.0580887 0.057852 -0.047428 0.0563127 0.06029 -0.0505954 -0.0503947 -0.063068 -0.0516756 -0.0562655 -0.05207 -0.0461075 -0.0609165 -0.04894 -0.0524399 -0.0573499 -0.0491421 -0.0487468 -0.0580567 -0.049964 -0.0501578 -0.0593864 -0.047286 -0.05113 -0.0547286 -0.054319 -0.0477001 -0.0560153 -0.051926 -0.0442372 -0.0585219 -0.050993 -0.0899966 0.0308078 -0.113927 -0.125686 0.0408538 -0.076986 -0.05113 -0.0547286 -0.054319 -0.0407467 -0.0458776 -0.0581021 -0.0477001 -0.0560153 -0.051926 -0.129868 -0.0626705 0.044035 -0.127996 -0.0621329 0.0156749 -0.134205 -0.0568035 0.015682 -0.139467 -0.0516572 0.0439549 -0.0980495 0.036504 -0.108415 -0.0819523 0.036504 -0.108415 -0.0900013 0.0364218 -0.10893 -0.140951 0.0131716 -0.023467 -0.140706 -0.0260895 -0.020197 -0.140951 -0.0131708 -0.023467 -0.14296 -0.0258483 -0.0195162 -0.142998 0.0133942 -0.0227402 -0.141033 3.89e-07 -0.0245571 -0.142999 0.000258038 -0.0238782 -0.142997 -0.0131087 -0.0228137 -0.0438417 -0.0375391 -0.0611891 -0.0403252 -0.0375472 -0.058803 -0.0361408 -0.0377048 -0.0580781 -0.140661 -0.0293779 -0.017831 -0.142876 -0.0287868 -0.0174212 -0.0561695 0.0385636 -0.090933 -0.0596549 0.0422767 -0.090611 -0.130847 -0.063366 0.108 -0.0514997 -0.0384993 -0.086621 -0.0478682 0.0231745 -0.076158 -0.0487713 -0.00406651 -0.081284 -0.0471865 0.0246479 -0.072953 -0.0477907 -0.0368638 -0.072984 -0.04712 -0.0352101 -0.0703676 -0.0469998 0.0259958 -0.07178 -0.0471877 0.0273952 -0.072446 -0.0478806 0.0288665 -0.075192 -0.0492581 0.0300287 -0.08036 -0.0514999 0.0305007 -0.088291 -0.0514999 0.0215007 -0.089681 -0.0492407 0.0219879 -0.08165 -0.0471864 -0.032563 -0.071286 -0.0478432 -0.0311211 -0.0745561 -0.0514997 -0.0294993 -0.08847 -0.0492035 -0.0299698 -0.0801631 -0.0491666 -0.0380296 -0.078217 -0.0635341 -0.0689285 0.020394 -0.0617086 -0.0662266 0.030825 -0.0596784 -0.0692651 0.029762 -0.0656855 -0.0658991 0.021206 -0.0645603 -0.0642415 0.032334 -0.0687107 -0.0639087 0.022262 -0.0658909 -0.068403 0.0105349 -0.0680966 -0.065383 0.0110739 -0.0712282 -0.0633878 0.011656 -0.135571 -0.0576894 0.075862 -0.139976 -0.0516007 0.108 -0.0424747 -0.00936733 -0.06157 -0.0391251 -0.00959947 -0.059568 -0.035183 -0.00987496 -0.059132 -0.0503467 0.0424698 -0.063031 -0.130682 -0.0371816 -0.067 -0.131032 -0.0369294 -0.077717 -0.129807 -0.0300062 -0.083851 -0.131188 -0.0312384 -0.0784391 -0.130682 -0.0308176 -0.067 -0.131848 -0.0327645 -0.075334 -0.132 -0.0339996 -0.067 -0.131761 -0.0355107 -0.075021 -0.131997 -0.0341529 -0.074272 -0.129661 -0.0380466 -0.082638 -0.123 -0.0339996 -0.067 -0.124318 -0.0308176 -0.067 -0.124318 -0.0371816 -0.067 -0.130682 -0.0308176 -0.067 -0.1275 -0.0384996 -0.067 -0.1275 -0.0294996 -0.067 -0.130682 -0.0371816 -0.067 -0.132 -0.0339996 -0.067 -0.0405895 -0.0529579 0.090514 -0.039658 -0.0508604 0.0913598 -0.0231946 -0.0499588 0.083137 -0.0915206 0.0545212 0.00724298 -0.0915206 0.0515382 -0.029416 -0.0915206 0.0472092 -0.065941 0.0036071 -0.0559373 0.067487 0.0109841 -0.0538186 0.066724 -0.064895 0.0577883 0.0247059 -0.0626738 0.0606085 0.024249 -0.0586064 0.0650037 0.0383608 -0.060505 0.0649834 0.0324786 -0.0649598 0.0650006 0.027442 -0.0274418 0.0650008 0.06496 -9.96217e-05 0.0650603 0.0710587 -0.00142901 0.0650009 0.069525 0.00665519 0.0650009 0.067348 0.0274967 0.065022 0.0654483 0.0653685 0.0650202 0.0277064 0.058611 0.0650011 0.028103 0.0500562 0.0650099 0.0502752 0.022811 0.065001 0.060866 0.061741 0.0650011 -0.020325 0.030455 0.065001 -0.057424 -0.017806 0.0650008 -0.062514 -0.0401971 0.0650007 -0.051099 -0.0561422 0.0650007 -0.032758 -0.0642636 0.0650007 -0.00985199 -0.0631238 0.0649991 0.0148264 -0.0668026 0.0680006 -0.02822 -0.0725001 0.0680006 0 -0.0512653 0.0680007 -0.0512651 -0.0282203 0.0680008 -0.066803 0 0.0680009 -0.0725 0.02822 0.068001 -0.066803 0.051265 0.0680011 -0.0512651 0.066803 0.0680012 -0.02822 0.0725 0.0680012 0 0.0667747 0.0664761 0.0281537 0.066803 0.0680012 0.0282199 0.0512566 0.0664396 0.0511885 0.051265 0.0680011 0.051265 0.0282402 0.0664397 0.0667294 0.02822 0.068001 0.066803 4.6365e-05 0.0664391 0.0724399 0 0.0680009 0.0725 -0.0281534 0.0664397 0.0667658 -0.0282203 0.0680008 0.066803 -0.0511887 0.0664394 0.0512567 -0.0512653 0.0680007 0.051265 -0.0667423 0.0664433 0.0282222 -0.0668026 0.0680006 0.0282199 0.051265 0.0680011 0.051265 0.02822 0.068001 0.066803 0.066803 0.0680012 0.0282199 -0.0668026 0.0680006 -0.02822 0.0725 0.0680012 0 -0.0725001 0.0680006 0 0.066803 0.0680012 -0.02822 0.051265 0.0680011 -0.0512651 0.02822 0.068001 -0.066803 0 0.0680009 -0.0725 -0.0282203 0.0680008 -0.066803 -0.0512653 0.0680007 -0.0512651 -0.0668026 0.0680006 0.0282199 -0.0512653 0.0680007 0.051265 -0.0282203 0.0680008 0.066803 0 0.0680009 0.0725 -0.028012 0.0653313 0.0659918 0 0.0655867 0.071914 0.027992 0.0655868 0.066263 0.050851 0.0655869 0.050851 0.066263 0.065587 0.027992 -0.0507765 0.0653182 0.0505764 -0.0660185 0.0653092 0.0278175 -0.0498511 0.0650007 0.049851</float_array>
					<technique_common>
						<accessor count="1028" source="#base2_M1KShape0.positions-array" stride="3">
							<param name="X" type="float"/>
							<param name="Y" type="float"/>
							<param name="Z" type="float"/>
						</accessor>
					</technique_common>
				</source>
				<source id="base2_M1KShape0.normals">
					<float_array id="base2_M1KShape0.normals-array" count="3084">-0.499998 -0.707108 -0.500001 -0.689555 -0.198891 -0.696388 -0.901742 -0.203134 -0.381573 -0.651163 -0.7072 -0.27542 -0.275417 -0.707199 -0.651165 -0.377258 -0.198649 -0.904553 3e-06 -0.707107 -0.707107 0.004961 -0.199092 -0.979968 0.275422 -0.707198 -0.651164 0.386229 -0.199171 -0.900643 0.500002 -0.707106 -0.499999 0.696373 -0.198987 -0.689543 0.651165 -0.707198 -0.275418 0.907096 -0.185364 -0.377913 -0.049454 -0.997053 -0.058643 -0.064333 -0.997306 -0.035253 -0.023396 -0.997121 -0.07213 0.00417 -0.998974 -0.045086 0.042699 -0.995792 -0.081087 0.033775 -0.99903 -0.028245 0.091909 -0.994965 -0.039961 -0.707105 -0.707108 -0 -1 -4e-06 -0 4e-06 -1 0 0.707106 -0.707108 -0 1 4e-06 0 4e-06 -1 0 0.000307 -0.999916 -0.012968 0.000307 -0.999916 -0.012968 0.000393 -0.999917 -0.012891 0.000307 -0.999916 -0.012968 0.000307 -0.999916 -0.012968 -0.001851 -0.999918 -0.012653 0.013797 -0.999824 -0.012726 0.657625 -0.730369 -0.184637 0.791374 -0.574323 -0.209477 0.721429 -0.661965 -0.203328 0.718892 -0.655593 -0.231068 0.8742 -0.391942 -0.286628 -0.687848 -0.725648 -0.017324 0.141307 -0.989936 0.007683 -0.697156 -0.602404 0.388695 -0.998386 -0.053083 -0.020182 -0.691772 -0.271453 0.669152 0.046568 -0.321143 0.945885 -0.998824 -0.044256 -0.019826 0.106218 -0.80759 0.5801 0.972376 -0.098874 -0.211444 -0.282417 0.943064 0.175701 0.022767 0.999402 -0.026011 -0.330578 0.943066 0.036665 -0.541033 0.765376 0.348544 -0.638326 0.764054 0.093604 -0.729746 0.489484 0.477364 -0.861614 0.492891 0.121164 -0.824465 0.103936 0.556287 0.019146 0.999336 -0.031015 -0.994177 0.087035 0.063534 -0.015814 -0.951617 0.30688 0.240931 -0.695929 0.676488 0.283934 -0.620028 0.731401 0.380476 -0.044746 0.923708 0.436395 -0.077012 0.896453 -0.0837 0.974794 -0.20681 -0.026817 0.987101 -0.157836 -0.560254 0.79398 -0.236032 -0.688044 -0.725451 -0.017779 -0.997924 -0.053272 -0.036198 0.18392 -0.982939 0.001943 0 -1e-06 -1 0 -1e-06 -1 0 -1e-06 -1 0 -1e-06 -1 0 -1e-06 -1 0 -1e-06 -1 0 -1e-06 -1 0 -1e-06 -1 -0.951006 0.053349 -0.304536 -0.66372 0.67775 -0.316433 -0.699872 0.654215 -0.286675 -0.957763 0.055038 -0.282244 -0.826277 0.04314 -0.561609 -0.567396 0.660711 -0.491449 -0.632781 0.0506 -0.772676 -0.409719 0.678828 -0.609362 0 -1e-06 -1 0 -1e-06 -1 0 -1e-06 -1 0 -1e-06 -1 0 -1e-06 -1 0 -1e-06 -1 0 -1e-06 -1 0 -1e-06 -1 0.118433 -0.643816 -0.755959 0.408703 -0.053179 -0.911117 0.172946 -0.087309 -0.981054 0.289806 -0.597193 -0.747912 0.6178 -0.035123 -0.785551 0.453627 -0.577809 -0.678498 0.789695 -0.03859 -0.612284 0.562545 -0.636249 -0.527949 0.935935 -0.06703 -0.345736 0.654285 -0.644672 -0.39536 4.3e-05 -0.083037 -0.996547 -9.1e-05 -0.587673 -0.809099 -0.172228 -0.087293 -0.981182 -0.120637 -0.643821 -0.755607 0.077026 -0.809811 -0.581612 0.046797 -0.963148 -0.26487 0.075935 -0.706998 -0.703128 -0.00023 -0.970248 -0.242114 3e-06 -0.694707 -0.719293 -0.077058 -0.809855 -0.581547 -0.075925 -0.70699 -0.703136 -0.15208 -0.813359 -0.561532 -0.030797 -0.990366 -0.135004 -0.582847 -0.776915 -0.238101 -0.541441 -0.819156 -0.189274 -0.026767 -0.987104 -0.157824 -0.71468 -0.637753 -0.287234 -0.706852 -0.674594 -0.212798 -0.63467 -0.736657 -0.233518 -0.976895 -0.073348 -0.200739 -0.956964 -0.06851 -0.282003 -0.677499 -0.664404 -0.315537 -0.825911 -0.055996 -0.561013 -0.950558 -0.066935 -0.303247 -0.577944 -0.648565 -0.495322 -0.632744 -0.064112 -0.771703 -0.417445 -0.668765 -0.615218 0.000235 -1 0 -0.707074 -0.707139 0 -0.315509 -0.948923 0 0.000227 1 0 -0.235686 0.971829 0 0.000227 1 0 -0.752538 0.658549 0 -0.707081 0.707132 0 -0.994781 0.102035 0 -1 1.8e-05 0 -0.840077 -0.542468 0 0.000235 -1 0 0.70708 0.707134 0 0.764323 0.644833 0 0.507129 -0.86187 0 0.80007 -0.599906 0 0.707076 -0.707137 0 0.961965 -0.273173 0 1 4e-06 0 0.936483 0.350713 0 0.998104 0.061559 0 0.471108 0.882075 0 -0.415704 0.050229 -0.908112 -0.27798 0.648885 -0.708291 -0.173141 0.074771 -0.982055 -0.116457 0.653123 -0.748243 -0.433327 0.023375 -0.900934 -0.834123 -0.006732 -0.551538 -0.95228 -0.006741 -0.305151 -0.833575 -0.036839 -0.551176 -0.657014 -0.036837 -0.752978 -0.433151 -0.036838 -0.900568 -0.657446 -0.006732 -0.753472 -0.433436 -0.006731 -0.901159 -0.657281 0.023374 -0.753283 -0.833914 0.023374 -0.5514 -0.173403 -0.006762 -0.984828 -0.951134 -0.049533 -0.304779 -0.951682 0.036049 -0.304963 -0.858268 0.038494 -0.511756 -0.817962 0.042561 -0.573696 -0.849791 0.047273 -0.524995 -0.951086 0.050448 -0.304779 -0.416521 -0.063354 -0.906916 -0.861505 -0.052301 -0.505048 -0.830623 -0.056598 -0.553952 -0.86457 -0.060635 -0.498841 -0.950371 -0.063509 -0.304568 0.481322 -0.674224 -0.560134 0.709903 -0.62294 -0.328609 0.382109 -0.71042 -0.591013 0.632983 -0.643429 -0.430501 0.025953 -0.986931 -0.159042 0.03004 -0.987381 -0.155486 -0.309244 -0.946014 -0.097081 -0.309244 -0.946014 -0.097081 -0.309244 -0.946014 -0.097081 -0.309244 -0.946014 -0.097081 -0.000327 0.999918 -0.012779 0.007928 0.999891 -0.012479 -0.000332 0.999919 -0.012764 -0.000327 0.999918 -0.012779 -0.000327 0.999918 -0.012779 -0.000327 0.999918 -0.012779 -0.70708 -0.707134 0 -0.785347 -0.619056 0 0.000235 -1 0 0.000227 1 0 -0.501817 0.864974 0 0.000227 1 0 -0.790998 0.611819 0 -0.707076 0.707137 0 -0.964581 0.263788 0 -1 -4e-06 -0 -0.94883 -0.315786 0 -0.495923 -0.868367 0 0.000235 -1 0 -0.485395 -0.727174 0.485396 -0.099328 -0.991379 0.085447 -0.003574 -0.999992 0.00157 -0.63213 -0.727272 0.267369 -0.267378 -0.727249 0.632154 -0.023266 -0.998769 0.043818 0.000855 -0.585158 0.810919 -0.002371 -0.999669 0.025635 0.316393 -0.585897 0.74607 0.004977 -0.999866 0.01559 0.485448 -0.727104 0.485448 0.00772 -0.999927 0.009255 0.632242 -0.727158 0.267416 0.008162 -0.999956 0.004565 -0.70183 -0.119493 0.70225 -0.913024 -0.134216 0.385192 -0.385638 -0.116509 0.915265 0.702948 -0.097766 0.70449 0.916398 -0.099196 0.387782 0.000954 -0.055983 0.998431 0.389452 -0.056229 0.919329 -0.686439 -0.727187 0 4e-06 -1 0 -0.998342 -0.057558 0 0.686622 -0.727014 -0 4e-06 -1 0 0.998343 -0.057551 0 -0.47382 0.051748 -0.8791 -0.06327 0.021336 -0.997768 -0.460711 0.017896 -0.88737 -0.059837 0.096802 -0.993503 0.329223 0.024028 -0.943947 0.301495 0.283304 -0.910406 0.669943 0.028212 -0.741876 0.654996 0.355929 -0.666555 0.947222 0.032069 -0.31897 0.971101 0.066001 -0.22936 0.718985 0.656231 -0.228959 0.718985 0.656231 -0.228959 0.718985 0.656231 -0.228959 0.737721 0.636733 -0.224364 0.033338 0.990285 -0.135 0.030096 0.987378 -0.155497 0.960693 0.056105 -0.271883 -0.2959 0.950305 -0.096765 -0.2959 0.950305 -0.096765 -0.2959 0.950305 -0.096765 -0.2959 0.950305 -0.096765 0.933088 -0.019008 -0.359145 0.978065 -0.01675 -0.207626 0.963249 -0.066533 -0.260241 -0.033728 0.993016 -0.11306 -0.0354 0.995225 -0.090964 -0.509466 0.848006 -0.146049 -0.030881 0.990364 -0.135005 -0.528418 0.842454 -0.1051 -0.519049 0.833859 -0.187795 0.936908 0.054681 -0.345273 0.693264 0.638994 -0.333275 0.106038 0.807637 0.580068 0.141262 0.989942 0.007709 -0.697159 0.602416 0.388671 0.046565 0.321143 0.945885 -0.998824 0.044249 -0.019825 -0.998385 0.053286 -0.019694 -0.687845 0.725651 -0.017324 -0.691772 0.271449 0.669154 0.033754 0.167351 0.985319 -0.789623 0.112151 0.603256 0.029251 1e-06 0.999572 -0.824817 -3e-06 0.5654 0.033755 -0.16735 0.985319 -0.789623 -0.112157 0.603255 -0.999691 0.023321 -0.008648 -0.999989 -4e-06 -0.004648 -0.99969 -0.023329 -0.008648 -1 -4e-06 -0 -1 -4e-06 -0 -1 -4e-06 -0 -1 -4e-06 -0 -1 -4e-06 -0 -1 -4e-06 -0 -1 -4e-06 -0 -1 -4e-06 -0 -1 -4e-06 -0 -1 -4e-06 -0 -1 -4e-06 -0 -1 -4e-06 -0 -1 -4e-06 -0 -1 -4e-06 -0 -1 -4e-06 -0 -1 -4e-06 -0 -1 -4e-06 -0 -1 -4e-06 -0 0.474808 0.695057 -0.539864 0.026237 0.986873 -0.159352 0.367476 0.729059 -0.577437 -0.955842 0.050828 -0.289452 -0.997502 -0.044185 -0.055107 -0.994463 -0.04381 -0.095524 -0.997565 -0.022335 -0.066066 -0.98511 -0.04381 -0.166249 -0.970735 -0.043809 -0.236125 -0.986034 -0.006744 -0.166405 -0.971645 -0.006744 -0.236347 -0.995396 -0.006744 -0.095613 -0.985603 0.030335 -0.166332 -0.97122 0.030335 -0.236244 -0.99496 0.030335 -0.095572 -0.966923 0.038382 -0.252163 -0.962381 0.036564 -0.269232 -0.997566 0.022316 -0.066066 -0.997567 -1e-05 -0.069714 -0.997503 0.04417 -0.055107 -0.989839 0.063509 -0.127223 -0.996374 0.066381 -0.053221 -0.997434 0.067387 -0.024188 -0.997943 0.053426 -0.035429 -0.977848 0.059912 -0.200558 -0.963541 0.050014 -0.262845 -0.955218 0.035826 -0.293726 -0.955761 -0.049174 -0.290005 -0.963406 -0.050016 -0.263337 -0.968052 -0.052068 -0.245285 -0.970466 -0.054613 -0.234975 -0.971173 -0.056929 -0.231479 -0.970435 -0.059189 -0.233991 -0.988877 -0.076947 -0.127283 -0.995391 -0.07982 -0.053153 -0.996436 -0.080825 -0.024163 -0.968069 -0.061551 -0.243011 -0.963662 -0.063415 -0.25949 -0.956579 -0.064173 -0.284321 -0.968006 0.047997 -0.246295 -0.970123 0.045405 -0.238327 -0.969472 0.04068 -0.241802 -0.970468 0.042857 -0.237392 0.64085 0.65938 -0.393102 0.85877 0.042621 -0.510585 0.833918 0.023438 -0.551391 0.886116 0.039171 -0.461806 0.433444 -0.006743 -0.901155 0.17348 -0.006773 -0.984814 0.433159 -0.036918 -0.900561 0.65702 -0.036916 -0.752969 0.833578 -0.036916 -0.551167 0.657453 -0.006742 -0.753466 0.834128 -0.006742 -0.55153 0.657287 0.023436 -0.753276 0.433335 0.023436 -0.900928 0.952276 -0.006831 -0.305161 0.173495 0.049438 -0.983593 0.408549 0.049833 -0.911375 0.616494 0.050548 -0.785735 0.787951 0.051574 -0.613574 0.951657 0.036685 -0.304964 0.951092 -0.050336 -0.30478 0.893274 -0.052877 -0.446392 0.872113 -0.056224 -0.486064 0.891819 -0.059688 -0.448438 0.950435 -0.06252 -0.304574 0.951124 0.049683 -0.304787 0.879668 0.046602 -0.4733 0.143153 0.824752 -0.547075 0.115349 0.659579 -0.742731 0.231923 0.76671 -0.598638 0.54319 0.650823 -0.530447 0.28553 0.618813 -0.731808 0.322314 0.769213 -0.551747 0.445701 0.602139 -0.662404 -0.68278 0.254627 -0.684818 -0.694258 0.582542 -0.422671 0.205308 0.314398 -0.926824 -0.688043 0.725428 -0.018769 0.183636 0.982992 0.002073 0.132645 0.807126 -0.575285 -0.146613 0.82489 -0.545949 -0.016738 0.97355 -0.227859 -0.066775 0.964779 -0.254447 -3.2e-05 0.809219 -0.587507 0.018506 0.968196 -0.249507 0.025225 0.983424 -0.179559 -0.335615 -0.913673 -0.229269 -0.546117 -0.709811 -0.444887 -0.290742 -0.907118 -0.304312 -0.616531 -0.719327 -0.32009 -0.733685 -0.428296 -0.527512 -0.817915 -0.439621 -0.371145 -0.358906 -0.921988 -0.145346 -0.663319 -0.725382 -0.183927 -0.877736 -0.434824 -0.201267 -0.228972 -0.902813 -0.364005 0.034902 -0.991973 -0.121539 -0.45575 -0.699224 -0.550798 -0.625762 -0.406553 -0.665686 -0.719215 -0.050346 -0.692961 -0.367068 -0.927893 -0.065389 0.014118 -0.997496 -0.069307 -0.683096 -0.728504 -0.0516 -0.903611 -0.427353 -0.029256 -0.998605 -0.052805 -2e-06 0.022363 -0.993408 -0.112426 0.013999 -0.994934 -0.099552 0.01126 -0.996362 -0.084471 -0.838179 -0.054853 -0.54263 -0.92584 -0.055883 -0.373762 -0.980008 -0.054753 -0.191274 0.619723 -0.470546 -0.628116 -0.508879 -0.036843 -0.860049 -0.479512 -0.04089 -0.876582 -0.107837 -0.206941 -0.972392 -0.551669 -0.827427 -0.105003 -0.035349 -0.995227 -0.090962 -0.531903 -0.833983 -0.146805 -0.03366 -0.993018 -0.11306 0.898712 0.081418 0.430916 0.677931 0.081435 0.730601 0.896962 0.102442 0.430075 -0.273442 0.060267 -0.959999 -0.273731 0.039097 -0.961011 0.901016 0.039102 0.43202 0.67967 0.03911 0.732474 0.900066 0.060272 0.431565 0.678953 0.060285 0.731702 0.996687 0.039111 0.071308 0.995636 0.060286 0.071233 0.949127 0.039102 -0.312457 0.948126 0.060272 -0.312128 0.468183 0.0391 -0.882766 0.46769 0.06027 -0.881835 0.994137 0.081436 0.071126 0.9467 0.081418 -0.311658 0.466986 0.081416 -0.880509 -0.273031 0.081413 -0.958554 0.380389 0.059834 0.922889 -0.505433 0.063618 -0.860517 -0.272498 0.102437 -0.956688 -0.615329 0.102458 -0.781583 -0.626452 0.082567 -0.775074 -0.670184 0.086802 -0.737102 0.466078 0.10244 -0.878793 -0.719928 0.089047 -0.688313 -0.859182 0.102435 -0.501312 -0.867778 0.092712 -0.488228 -0.983192 0.102457 -0.151115 -0.960575 0.095972 -0.260931 -0.995 0.098654 -0.015548 -0.971741 0.035602 0.233349 0.349091 0.10244 0.931473 0.401624 0.018002 0.915628 0.733128 0.018006 0.679852 0.937303 0.018004 0.34805 0.99909 0.018007 -0.038661 0.655688 0.018004 -0.754817 0.902288 0.018005 -0.430758 0.317785 0.018002 -0.947992 -0.071463 0.018002 -0.997281 0.944856 0.102442 -0.311051 4e-06 -1 0 4e-06 -1 0 0.007399 -0.999958 0.005436 0.006245 -0.999981 0.000233 0.071642 -0.995786 0.057257 -0.724175 0.684747 -0.081803 -0.609064 0.779111 -0.148414 -0.693045 0.688873 -0.21247 -0.710381 0.688068 -0.148061 0.158356 0.11486 0.980679 0.158356 0.11486 0.980679 0.158356 0.11486 0.980679 0.158356 0.11486 0.980679 0.158356 0.11486 0.980679 0.158356 0.11486 0.980679 0.158356 0.11486 0.980679 -0.181181 0.108427 0.977454 -0.181181 0.108427 0.977454 -0.162532 0.064541 0.98459 -0.181181 0.108427 0.977454 0.015364 0.590569 0.806841 0.19277 0.413906 0.889675 -0.023626 0.935157 0.353446 0.269806 0.679513 0.682252 -0.761954 0.103873 0.639247 -0.642451 0.141331 0.753182 -0.610474 0.138232 0.77988 -0.409559 0.077458 0.908989 -0.363326 0.141332 0.92088 -0.509831 0.141331 0.848586 -0.545304 0.132474 0.827704 -0.493501 0.118277 0.861665 -0.255306 -0.936906 0.2388 -0.814627 -0.053594 0.577504 -0.664206 -0.4376 0.606084 -0.653189 -0.053548 0.755299 -0.216015 -0.937451 0.27299 -0.495301 -0.739927 0.455175 -0.431123 -0.739924 0.516377 -0.583873 -0.435465 0.685174 -0.289152 -0.936549 0.198161 -0.552613 -0.738699 0.385931 -0.736331 -0.434613 0.518583 -0.543671 0.833885 -0.095177 -0.035854 0.995947 -0.082482 -0.33563 0.939895 -0.062849 -0.640254 0.767314 -0.036106 0.681527 -0.579987 0.446247 0.548556 -0.722401 0.420978 0.765696 -0.642733 -0.02457 0.853907 -0.520275 -0.012482 0.364189 -0.509766 0.779426 0.221901 -0.623637 0.749558 -0.222918 -0.38222 0.896781 -0.155805 -0.386435 0.909062 -0.44444 -0.047971 0.894523 -0.525217 -0.051568 0.849404 0.419907 0.070738 0.904806 0.419907 0.070738 0.904806 0.419907 0.070738 0.904806 0.420028 0.071171 0.904716 0.034992 0.992019 -0.121132 0.618153 0.767873 -0.168099 0.065161 0.883443 -0.463986 -0.457736 0.449128 -0.767308 0.197893 0.901612 -0.384622 -0.327467 0.700978 -0.633557 -0.140829 0.787683 -0.599769 -0.416909 0.498237 -0.760228 -0.334412 0.913922 -0.230033 -0.701026 0.443775 -0.558236 0.150706 -0.914869 0.374569 -0.572784 -0.074809 0.816286 -0.337714 -0.470474 0.815232 0.388446 -0.867989 0.309361 -0.072235 -0.743514 0.664808 0.061468 -0.782272 0.619896 -0.34794 -0.925241 0.151216 -0.577655 -0.727472 0.370269 0.64422 -0.745815 -0.169532 0.033289 -0.990287 -0.134998 0.11984 -0.930397 -0.34641 -0.999903 -0.006743 -0.012222 -0.999977 -0.006743 -0.0002 -0.998895 -0.045377 -0.01221 -0.999416 0.0319 -0.012216 -0.997435 0.070298 -0.013464 -0.996404 -0.083733 -0.01297 -0.996476 -0.083873 -0.000199 -0.997517 0.070427 -0.0002 0.007971 0.999968 -3.5e-05 0.034437 0.999374 0.008081 -0.009291 0.998493 0.054091 0.491143 2e-06 0.871079 0.448756 0.013277 0.893556 0.407619 1e-06 0.913152 0.29209 0.735265 0.611612 0.237942 0.73401 0.636092 0.388973 0.074079 0.918266 0.302348 0.105963 0.94729 -0.106448 0.922276 0.371586 -0.097949 0.882086 0.460793 -0.281945 0.724249 0.629262 -0.152141 0.681583 0.71575 -0.189997 0.406109 0.893855 -0.199614 0.41834 0.886085 0.392922 0.052292 0.918084 0.392922 0.052292 0.918084 0.432396 0.114437 0.894392 0.392922 0.052292 0.918084 0.408483 0.304687 0.860411 0.408783 0.303866 0.860559 0.408783 0.303866 0.860559 0.246324 0.569672 0.78409 0.745129 0.666568 -0.021666 0.758687 0.651456 -0.000549 0.450863 0.892522 -0.011283 0.819254 0.573385 -0.00724 0.819577 0.572912 -0.008126 0.962061 0.271152 0.030246 0.988011 0.154383 -0.000745 0.771139 0.635152 0.043901 0.99354 -0.091012 0.067789 0.982919 -0.184021 -0.002554 0.999108 -0.042124 -0.003076 0.999369 0.035385 -0.003079 0.999996 4e-06 -0.002977 0.999977 -0.006742 -0.0002 0.580914 0.809268 0.087318 0.993503 0.101651 0.051173 0.806142 0.057146 0.588957 0.807305 -4.2e-05 0.590134 0.669696 0.603021 0.433443 0.524893 0.754187 0.394575 0.332228 0.584843 0.739989 0.210318 0.670731 0.711257 -0.146514 0.447695 0.882101 0.281426 0.941365 0.186092 0.536295 0.792948 0.289173 0.533951 0.70428 0.467852 0.500735 0.865601 -2.7e-05 0.392399 -0.046624 0.918613 0.392399 -0.046624 0.918613 0.392399 -0.046624 0.918613 0.392399 -0.046624 0.918613 0.392399 -0.046624 0.918613 0.392399 -0.046624 0.918613 0.806019 -0.057528 0.589087 -0.253044 0.943913 0.212124 -0.492263 0.766512 0.412475 -0.667821 0.490367 0.55996 0.449984 -0.068677 0.890392 0.410941 -0.050592 0.910257 0.391868 -0.037999 0.919236 -0.684108 0.72938 -0.000559 -0.813682 0.581191 -0.01178 -0.764231 0.644821 -0.012539 -0.846143 0.532956 -0.000192 -0.262731 -0.047879 0.963681 -0.238744 -0.419689 0.875707 -0.307003 -0.723837 0.617907 -0.168163 -0.92583 0.338467 -0.181476 -0.723857 0.665655 0.058233 -0.603257 0.795418 -0.098813 -0.926748 0.362456 -0.066971 -0.047766 0.996611 -0.629021 0.741516 -0.233423 -0.66114 0.748378 -0.053152 -0.360501 0.930441 -0.065718 -0.3488 0.920339 -0.176959 -0.833991 0.484776 -0.263535 -0.877833 0.477445 -0.03815 -0.556482 0.728437 -0.399633 -0.300003 0.912613 -0.277733 -0.748311 0.466102 -0.471996 -0.345928 0.937469 0.038531 0.016854 0.998508 -0.051944 -0.649647 0.750506 0.121243 -0.866091 0.462986 0.188493 -0.224097 0.907386 -0.355572 -0.422084 0.726536 -0.542209 0.007348 0.997478 -0.070601 0.007151 0.995789 -0.091391 0.017495 0.993837 -0.109462 0.920157 -0.042898 -0.389193 0.861157 -0.038002 -0.506917 0.706456 -0.042887 -0.706456 -0.919724 -0.052707 -0.389011 -0.706124 -0.052692 -0.706125 -0.387879 -0.083234 -0.917945 4e-06 -0.050193 -0.99874 -0.389106 -0.047808 -0.919951 0.706214 -0.050228 -0.706214 0.919877 -0.050002 -0.389008 0.389066 -0.050219 -0.91984 0.389194 -0.0429 -0.920156 0 -0.04289 -0.99908 -0.389193 -0.042903 -0.920157 0.999278 -0.037996 -0 -0.667795 -0.04976 -0.74268 -0.623249 -0.048618 -0.78051 -0.474183 -0.03801 -0.879606 0.036847 -0.037999 -0.998598 0.916854 -0.096825 -0.387303 0.703653 -0.094035 -0.704293 0.387399 -0.09385 -0.917123 -0.00014 -0.108556 -0.99409 -0.703246 -0.109922 -0.702398 -0.914568 -0.123871 -0.384996 0.513397 -0.038004 -0.857309 0.307815 -0.725866 0.615116 0.554164 -0.829698 0.067117 0.80095 -0.59612 -0.055857 0.543559 -0.839276 -0.012623 0.544523 -0.838677 -0.010794 0.541613 -0.840598 0.007029 0.545282 -0.838232 -0.005913 0.547468 -0.836767 -0.009938 0.467154 -0.884083 -0.012854 0.782592 -0.622535 -0.000544 0.404975 -0.76659 0.498333 0.731165 -0.668883 0.134137 0.446742 -0.024707 0.894322 0.632292 -0.727106 -0.267438 0.085435 -0.991381 -0.099321 0.002843 -0.999995 -0.001591 0.485506 -0.727027 -0.485506 0.015151 -0.998786 -0.046869 0.267428 -0.72713 -0.632269 -0.002371 -0.999668 -0.02564 0 -0.727059 -0.686575 -0.006792 -0.999862 -0.015195 -0.267412 -0.727165 -0.632235 -0.008 -0.999928 -0.008988 -0.485453 -0.727097 -0.485453 -0.009849 -0.999939 -0.005107 -0.632181 -0.727221 -0.26739 0.722036 -0.582125 -0.373891 0.389356 -0.047792 0.919847 0.919481 -0.050769 0.389841 -0.389011 -0.052692 0.919725 0.000975 -0.047342 0.998878 0.706142 -0.050247 0.706285 0.706457 -0.042875 0.706456 0.920157 -0.042885 0.389194 0.956234 -0.038006 0.290123 0.833197 -0.038001 0.551668 0.642543 -0.037998 0.765307 0.241293 -0.045667 0.969377 -0.893431 -0.053535 0.445999 -0.951506 -0.053381 0.302962 -0.986851 -0.053133 0.152648 0.123855 -0.04695 0.991189 0.28453 0.294783 0.91222 0.28453 0.294783 0.91222 0.72778 0.004032 0.685798 0.935964 0.004031 0.352074 -0.081306 -0.024032 -0.996399 0.935701 -0.024021 0.351975 0.727576 -0.024029 0.685606 0.935924 -0.009994 0.352059 0.72775 -0.009998 0.68577 0.999059 -0.024028 -0.036112 0.999297 -0.009997 -0.03612 0.900945 -0.024021 -0.433267 0.90116 -0.009994 -0.433371 0.651963 -0.024029 -0.75787 0.652119 -0.009998 -0.758051 0.309252 -0.024023 -0.950677 0.309325 -0.009997 -0.950904 -0.081325 -0.010001 -0.996637 0.999339 0.004033 -0.036122 0.901198 0.004031 -0.433389 0.652146 0.004031 -0.758083 0.309338 0.004029 -0.950944 -0.081329 0.004028 -0.996679 -0.458577 -0.010102 -0.888597 -0.000235 1 0 0.70708 0.707134 0 0.462369 0.886688 0 -0.000228 -1 0 0.533738 -0.84565 0 -0.000228 -1 0 0.896822 -0.442391 0 0.707076 -0.707137 0 0.995526 0.094493 0 1 4e-06 0 0.827431 0.561567 0 -0.000235 1 0 0 -1e-06 -1 0 -1e-06 -1 0 -1e-06 -1 0 -1e-06 -1 0 -1e-06 -1 0 -1e-06 -1 0 -1e-06 -1 0 -1e-06 -1 -0.294327 0.937377 -0.186269 -0.294327 0.937377 -0.186269 -0.294327 0.937377 -0.186269 -0.294327 0.937377 -0.186269 2.9e-05 0.04914 -0.998792 0.086912 -0.006774 -0.996193 -0.086912 -0.006775 -0.996193 0 -0.006774 -0.999977 -0.568565 0.742595 -0.35396 -0.44508 0.762158 -0.470126 -0.222697 0.762192 -0.60784 -0.724366 -0.673402 -0.147728 -0.738027 -0.669915 -0.080813 -0.626864 -0.764837 -0.148548 0.235959 -0.756154 -0.610373 0.328317 -0.75842 -0.563034 -0.567399 -0.817953 -0.094922 -0.750532 -0.658613 -0.054146 0.70708 0.707134 0 0.625043 0.78059 0 0.537924 -0.842993 0 0.860669 -0.509165 0 0.707076 -0.707137 0 0.998331 -0.057743 0 1 4e-06 0 0.913028 0.407897 0 -0 0 1 -0 0 1 -0 0 1 -0 0 1 -0 0 1 -0 0 1 -0 0 1 -0 0 1 -0 0 1 -0 0 1 -0 0 1 -0 0 1 -0 0 1 -0 0 1 -0 0 1 -0 0 1 -0 0 1 -0 0 1 0.55403 0.832467 -0.007033 0.551937 0.833655 -0.019601 0.547952 0.836444 -0.010481 0.547927 0.836521 -0.002914 -0.066532 -0.965254 -0.252702 -0.457256 -0.749856 -0.478155 -0.469629 -0.766599 -0.437921 -0.584314 -0.727715 -0.359176 -0.031473 -0.984105 -0.174774 -0.283263 -0.639891 -0.714354 -0.22919 -0.75177 -0.618315 0.000235 -1 0 -0.707074 -0.707139 0 -0.309659 -0.950848 0 0.000227 1 0 -0.410823 0.911715 0 0.000227 1 0 -0.84138 0.540444 0 -0.707081 0.707132 0 -1 1.8e-05 0 -0.804548 -0.593888 0 -0.999959 -0.009097 0 0.000235 -1 0 -0.70708 -0.707134 0 -0.783565 -0.62131 0 -0.491401 0.870933 0 -0.78874 0.614727 0 -0.707076 0.707137 0 -0.999999 0.001061 0 -1 -4e-06 -0 -0.951558 -0.30747 0 -0.954271 0.298942 0 -0.487119 -0.873335 0 -0.742318 0.667777 -0.055115 -0.001538 -0.995046 -0.099399 -0.001538 -0.998028 -0.062748 0.015052 -0.998217 -0.057761 0.017724 -0.998758 -0.046561 -0.001538 -0.990719 -0.135916 0.022065 -0.999112 -0.035905 -0.035801 -0.995949 -0.08249 -0.161503 0.329856 -0.930114 0.328639 0.795495 -0.509102 -0.004896 0.668152 -0.744008 -0.695636 0.716688 -0.049487 0.444081 -0.82414 0.351548 0.030833 -0.676744 0.735573 0.147047 -0.882946 0.445852 -0.630121 0.488776 0.603361 -0.303305 0.514678 0.801943 -0.538122 0.754725 0.375252 -0.04221 0.763566 0.644349 -0.324936 0.93286 0.15553 0.176874 0.915564 0.36119 0.051856 0.814263 0.578176 0.369117 0.885713 0.281539 -0.38489 0.766979 0.513423 -0.188426 0.944328 0.269705 0.71668 -0.669188 -0.196359 0.074052 -0.875079 -0.478281 -0.452806 -0.423797 -0.784451 -0.343734 -0.909221 -0.234871 -0.185374 -0.692213 -0.697479 -0.58432 -0.708304 -0.396075 0.222203 -0.887159 -0.404444 -0.120216 -0.768949 -0.627906 -0.403395 -0.470281 -0.784926 1.3e-05 0.596769 -0.802413 -0.616452 0.75228 -0.232513 0.359209 -0.769552 -0.527976 0.275016 -0.367553 -0.888409 0.021262 -0.63697 -0.770595 -0.667511 -0.743718 -0.03623 -0.350241 -0.934533 -0.063089 -0.715136 -0.697258 -0.049114 -0.828231 -0.560254 -0.01221 -0.074054 0.719786 -0.690235 0.073998 0.719768 -0.69026 -3.7e-05 0.708243 -0.705969 -0.683666 0.128258 -0.718436 -0.682844 -0.252235 -0.68564 -0.683668 -0.128263 -0.718433 0.205374 -0.314759 -0.926687 0.150299 0.160791 -0.975478 -0.684226 -3e-06 -0.72927 0.140913 0.000372 -0.990022 0.11981 -0.161291 -0.979607 0.723618 -0.057972 -0.687761 0.37317 -0.051475 -0.926334 -0.044825 -0.046723 -0.997902 -0.694235 -0.582554 -0.422691 0.134249 -0.80702 -0.575062 0.701595 0.60878 -0.37034 0.58008 0.70339 -0.410791 -0.708621 -0.70559 -0.000559 0.95992 -0.064159 -0.27283 0.970612 0.038632 -0.237531 0.967054 -0.00676 -0.254483 0.973056 0.041088 -0.22688 0.971912 -0.061425 -0.227187 0.974086 -0.05867 -0.218437 0.973853 0.043335 -0.223006 0.973235 0.045665 -0.225229 0.970949 0.048114 -0.234399 0.966514 0.050052 -0.251685 0.959179 0.050841 -0.278193 0.958554 0.035846 -0.282648 0.966023 0.036656 -0.255842 0.97366 -0.054259 -0.221455 0.971256 -0.051853 -0.23232 0.9591 -0.049154 -0.278768 0.966691 -0.049936 -0.251027 0.967523 -0.063371 -0.244711 -0.856328 -0.44811 0.25671 -0.607449 -0.739283 0.29063 -0.804657 -0.443288 0.394997 -0.650655 -0.737964 0.179043 -0.325888 -0.934599 0.142558 -0.355159 -0.931701 0.076123 -0.890327 -0.440915 0.113631 -0.67639 -0.733913 0.062194 -0.368538 -0.929601 0.0046 -0.783046 -0.621837 -0.012572 -0.860022 -0.510256 -0.000193 0.686612 -0.02359 -0.726641 0.315388 -0.022992 -0.948684 -0.099418 -0.017658 -0.994889 0.695722 0.691007 -0.196162 0.70708 0.707134 0 0.769296 0.638892 0 0.501155 -0.865357 0 0.800021 -0.599971 0 0.707076 -0.707137 0 0.962104 -0.272682 0 1 4e-06 0 0.942503 0.334199 0 0.999441 0.033442 0 0.471829 0.88169 0 0 -1e-06 -1 0 -1e-06 -1 0 -1e-06 -1 0 -1e-06 -1 0 -1e-06 -1 0 -1e-06 -1 0 -1e-06 -1 0 -1e-06 -1 0.836601 -0.54774 -0.008955 0.838013 -0.545588 -0.008298 0.247783 -0.74002 0.625279 -0.001524 0.998028 -0.062757 -0.001524 0.995045 -0.099416 -0.001524 0.990716 -0.135941 0.093175 -0.372563 0.923317 0.275558 -0.263339 0.924511 -0.652087 0.755093 0.067951 -0.872739 0.474592 0.114411 5e-06 -1 0 5e-06 -1 0 5e-06 -1 0 5e-06 -1 0 0.013998 -0.97947 0.201101 5e-06 -1 0 5e-06 -1 0 0.038041 -0.995597 0.085676 0.089444 -0.994954 0.045465 5e-06 -1 0 0.029293 -0.999034 0.032745 5e-06 -1 0 5e-06 -1 0 5e-06 -1 0 5e-06 -1 0 5e-06 -1 0 5e-06 -1 0 5e-06 -1 0 5e-06 -1 0 -0.921004 -1e-05 -0.389552 -1 -1e-05 0 -0.707107 -9e-06 -0.707107 -0.389552 -7e-06 -0.921004 0 -5e-06 -1 0.389552 -3e-06 -0.921004 0.707107 -1e-06 -0.707107 0.921004 -0 -0.389552 1 0 0 0.906207 -0.185473 0.379984 0.921004 -0 0.389552 0.693118 -0.198991 0.692813 0.707107 -1e-06 0.707107 0.381898 -0.199185 0.902485 0.389552 -3e-06 0.921004 0.000176 -0.199098 0.979979 0 -5e-06 1 -0.381572 -0.198641 0.902743 -0.389552 -7e-06 0.921004 -0.692823 -0.1989 0.693134 -0.707107 -9e-06 0.707107 -0.902582 -0.203036 0.379635 -0.921004 -1e-05 0.389552 -4e-06 1 -0 -4e-06 1 -0 -4e-06 1 -0 -4e-06 1 -0 -4e-06 1 -0 -4e-06 1 -0 -4e-06 1 -0 -4e-06 1 -0 -4e-06 1 -0 -4e-06 1 -0 -4e-06 1 -0 -4e-06 1 -0 -4e-06 1 -0 -4e-06 1 -0 -4e-06 1 -0 -4e-06 1 -0 -0.235382 -0.822294 0.5181 3e-06 -0.707107 0.707107 0.275422 -0.707198 0.651164 0.500002 -0.707106 0.499999 0.651165 -0.707198 0.275418 -0.408286 -0.823362 0.394181 -0.515704 -0.833515 0.198249 5e-06 -1 -0</float_array>
					<technique_common>
						<accessor count="1028" source="#base2_M1KShape0.normals-array" stride="3">
							<param name="X" type="float"/>
							<param name="Y" type="float"/>
							<param name="Z" type="float"/>
						</accessor>
					</technique_common>
				</source>
				<vertices id="base2_M1KShape0.vertices">
					<input semantic="POSITION" source="#base2_M1KShape0.positions"/>
				</vertices>
				<triangles count="1639" material="blinn20.material">
					<input offset="0" semantic="VERTEX" source="#base2_M1KShape0.vertices" set="0"/>
					<input offset="1" semantic="NORMAL" source="#base2_M1KShape0.normals" set="0"/>
					<p>0 0 2 2 1 1 3 3 2 2 0 0 4 4 1 1 5 5 0 0 1 1 4 4 6 6 5 5 7 7 4 4 5 5 6 6 8 8 7 7 9 9 6 6 7 7 8 8 10 10 9 9 11 11 8 8 9 9 10 10 12 12 11 11 13 13 10 10 11 11 12 12 14 14 3 3 0 0 15 15 3 3 14 14 16 16 0 0 4 4 14 14 0 0 16 16 17 17 4 4 6 6 16 16 4 4 17 17 18 18 6 6 8 8 17 17 6 6 18 18 19 19 8 8 10 10 18 18 8 8 19 19 20 20 10 10 12 12 19 19 10 10 20 20 21 21 22 22 2 2 3 3 21 21 2 2 15 15 21 21 3 3 21 21 15 15 23 23 24 24 13 13 25 25 12 12 13 13 24 24 20 20 12 12 24 24 26 26 20 20 24 24 27 27 29 29 28 28 27 27 28 28 30 30 31 31 28 28 29 29 32 32 30 30 28 28 30 30 32 32 33 33 34 34 36 36 35 35 37 37 38 38 36 36 38 38 35 35 36 36 37 37 36 36 34 34 39 39 41 41 40 40 42 42 41 41 39 39 43 43 44 44 41 41 45 45 43 43 41 41 46 46 40 40 41 41 44 44 46 46 41 41 45 45 41 41 42 42 35 35 38 38 47 47 48 48 50 50 49 49 51 51 50 50 48 48 52 52 50 50 51 51 53 53 52 52 51 51 54 54 52 52 53 53 55 55 54 54 53 53 56 56 49 49 50 50 57 57 54 54 55 55 58 58 60 60 59 59 61 61 59 59 60 60 62 62 59 59 61 61 63 63 65 65 64 64 40 40 66 66 39 39 42 42 39 39 67 67 67 67 39 39 66 66 68 68 66 66 40 40 69 69 71 71 70 70 71 71 73 73 72 72 72 72 74 74 71 71 75 75 76 76 73 73 72 72 73 73 76 76 74 74 70 70 71 71 77 77 79 79 78 78 80 80 79 79 77 77 81 81 78 78 82 82 77 77 78 78 81 81 83 83 82 82 84 84 81 81 82 82 83 83 85 85 87 87 86 86 85 85 89 89 88 88 88 88 87 87 85 85 90 90 91 91 89 89 88 88 89 89 91 91 92 92 86 86 87 87 93 93 95 95 94 94 96 96 93 93 94 94 96 96 94 94 97 97 98 98 96 96 97 97 98 98 97 97 99 99 100 100 98 98 99 99 100 100 99 99 101 101 102 102 100 100 101 101 103 103 95 95 104 104 105 105 103 103 104 104 95 95 93 93 104 104 105 105 104 104 106 106 107 107 109 109 108 108 110 110 109 109 107 107 111 111 109 109 110 110 112 112 111 111 110 110 113 113 111 111 112 112 114 114 113 113 112 112 104 104 93 93 109 109 111 111 104 104 109 109 113 113 104 104 111 111 104 104 113 113 106 106 93 93 108 108 109 109 106 106 113 113 114 114 115 115 117 117 116 116 118 118 115 115 116 116 119 119 121 121 120 120 116 116 117 117 121 121 117 117 120 120 121 121 116 116 121 121 119 119 119 119 120 120 122 122 123 123 119 119 122 122 124 124 126 126 125 125 127 127 124 124 125 125 127 127 125 125 128 128 129 129 127 127 128 128 130 130 132 132 131 131 133 133 135 135 134 134 136 136 134 134 137 137 138 138 136 136 139 139 135 135 137 137 134 134 138 138 139 139 140 140 137 137 139 139 136 136 140 140 131 131 132 132 131 131 140 140 139 139 141 141 132 132 130 130 142 142 135 135 143 143 141 141 130 130 144 144 144 144 130 130 145 145 146 146 148 148 147 147 146 146 145 145 130 130 143 143 149 149 142 142 145 145 146 146 147 147 150 150 147 147 148 148 151 151 143 143 135 135 150 150 148 148 149 149 142 142 149 149 148 148 133 133 151 151 135 135 152 152 84 84 153 153 83 83 84 84 152 152 154 154 153 153 155 155 152 152 153 153 154 154 152 152 156 156 83 83 157 157 159 159 158 158 160 160 162 162 161 161 163 163 161 161 162 162 159 159 157 157 160 160 162 162 160 160 157 157 162 162 164 164 163 163 156 156 163 163 164 164 157 157 165 165 162 162 164 164 162 162 165 165 163 163 156 156 166 166 157 157 158 158 165 165 167 167 158 158 159 159 168 168 169 169 165 165 168 168 165 165 158 158 164 164 165 165 170 170 77 77 81 81 171 171 169 169 170 170 165 165 172 172 77 77 171 171 81 81 83 83 170 170 170 170 171 171 81 81 164 164 170 170 83 83 164 164 83 83 156 156 163 163 166 166 161 161 154 154 166 166 156 156 105 105 173 173 161 161 105 105 161 161 166 166 160 160 161 161 128 128 174 174 159 159 175 175 173 173 128 128 161 161 175 175 125 125 176 176 167 167 159 159 174 174 128 128 125 125 160 160 175 175 159 159 125 125 160 160 125 125 159 159 177 177 176 176 126 126 126 126 176 176 125 125 154 154 156 156 152 152 102 102 179 179 178 178 102 102 178 178 180 180 181 181 183 183 182 182 37 37 183 183 181 181 181 181 182 182 178 178 184 184 186 186 185 185 187 187 185 185 186 186 188 188 189 189 49 49 49 49 190 190 188 188 49 49 189 189 191 191 192 192 191 191 189 189 193 193 188 188 190 190 194 194 196 196 195 195 197 197 199 199 198 198 198 198 199 199 200 200 201 201 203 203 202 202 201 201 200 200 199 199 195 195 204 204 194 194 200 200 201 201 202 202 205 205 195 195 196 196 202 202 203 203 204 204 194 194 204 204 203 203 206 206 205 205 196 196 207 207 209 209 208 208 210 210 209 209 207 207 211 211 208 208 212 212 207 207 208 208 211 211 213 213 212 212 214 214 211 211 212 212 213 213 215 215 214 214 216 216 213 213 214 214 215 215 217 217 216 216 218 218 215 215 216 216 217 217 219 219 218 218 220 220 217 217 218 218 219 219 221 221 210 210 207 207 222 222 210 210 221 221 223 223 207 207 211 211 221 221 207 207 223 223 223 223 211 211 213 213 224 224 215 215 217 217 225 225 217 217 219 219 224 224 217 217 225 225 213 213 226 226 223 223 227 227 226 226 213 213 215 215 227 227 213 213 224 224 227 227 215 215 228 228 229 229 209 209 210 210 228 228 209 209 222 222 228 228 210 210 228 228 222 222 230 230 231 231 220 220 232 232 219 219 220 220 231 231 225 225 219 219 231 231 233 233 225 225 231 231 234 234 236 236 235 235 237 237 234 234 235 235 237 237 235 235 238 238 239 239 237 237 238 238 239 239 238 238 240 240 241 241 239 239 240 240 241 241 240 240 242 242 243 243 241 241 242 242 244 244 246 246 245 245 247 247 245 245 246 246 244 244 248 248 246 246 249 249 248 248 244 244 243 243 245 245 247 247 250 250 245 245 243 243 251 251 253 253 252 252 254 254 252 252 253 253 255 255 257 257 256 256 255 255 256 256 242 242 258 258 260 260 259 259 258 258 261 261 260 260 262 262 259 259 260 260 263 263 260 260 261 261 264 264 265 265 245 245 250 250 264 264 245 245 266 266 268 268 267 267 269 269 268 268 266 266 270 270 271 271 268 268 272 272 267 267 268 268 271 271 272 272 268 268 273 273 268 268 269 269 270 270 268 268 273 273 274 274 275 275 269 269 276 276 275 275 274 274 277 277 275 275 276 276 278 278 277 277 276 276 279 279 277 277 278 278 44 44 279 279 278 278 280 280 270 270 275 275 277 277 280 280 275 275 281 281 280 280 277 277 279 279 281 281 277 277 282 282 281 281 279 279 45 45 282 282 279 279 273 273 269 269 275 275 270 270 273 273 275 275 43 43 279 279 44 44 45 45 279 279 43 43 283 283 285 285 284 284 286 286 288 288 287 287 287 287 289 289 286 286 290 290 291 291 288 288 292 292 291 291 290 290 287 287 288 288 293 293 293 293 288 288 291 291 289 289 294 294 286 286 294 294 295 295 286 286 284 284 286 286 296 296 296 296 297 297 284 284 295 295 296 296 286 286 297 297 298 298 284 284 298 298 283 283 284 284 299 299 284 284 285 285 300 300 299 299 285 285 301 301 303 303 302 302 80 80 77 77 304 304 305 305 307 307 306 306 308 308 310 310 309 309 311 311 309 309 310 310 306 306 312 312 308 308 310 310 308 308 312 312 310 310 313 313 311 311 314 314 311 311 313 313 312 312 315 315 310 310 313 313 310 310 315 315 316 316 317 317 314 314 306 306 307 307 312 312 315 315 312 312 318 318 319 319 312 312 307 307 318 318 320 320 315 315 319 319 318 318 312 312 321 321 315 315 322 322 323 323 322 322 324 324 325 325 313 313 321 321 315 315 320 320 322 322 324 324 322 322 320 320 315 315 321 321 313 313 304 304 326 326 80 80 317 317 327 327 314 314 327 327 168 168 314 314 311 311 314 314 158 158 311 311 158 158 309 309 168 168 158 158 314 314 167 167 328 328 309 309 167 167 309 309 158 158 328 328 329 329 309 309 329 329 330 330 309 309 330 330 331 331 309 309 309 309 331 331 308 308 332 332 333 333 122 122 334 334 335 335 306 306 306 306 308 308 334 334 331 331 332 332 308 308 332 332 122 122 308 308 334 334 308 308 122 122 335 335 336 336 67 67 335 335 67 67 306 306 305 305 306 306 67 67 123 123 122 122 337 337 337 337 338 338 123 123 333 333 337 337 122 122 338 338 339 339 123 123 339 339 177 177 123 123 123 123 177 177 126 126 172 172 304 304 77 77 326 326 340 340 80 80 341 341 325 325 340 340 316 316 314 314 342 342 313 313 325 325 314 314 314 314 325 325 343 343 80 80 340 340 325 325 341 341 343 343 325 325 343 343 342 342 314 314 303 303 301 301 344 344 265 265 344 344 301 301 264 264 344 344 265 265 345 345 347 347 346 346 348 348 350 350 349 349 351 351 353 353 352 352 354 354 352 352 353 353 350 350 348 348 351 351 353 353 351 351 348 348 353 353 355 355 354 354 346 346 354 354 355 355 348 348 356 356 353 353 355 355 353 353 356 356 354 354 346 346 357 357 348 348 349 349 356 356 95 95 349 349 350 350 358 358 359 359 356 356 358 358 356 356 349 349 359 359 360 360 356 356 355 355 356 356 360 360 346 346 355 355 361 361 354 354 357 357 352 352 362 362 357 357 346 346 363 363 364 364 352 352 363 363 352 352 357 357 364 364 365 365 352 352 101 101 99 99 365 365 366 366 367 367 101 101 352 352 99 99 351 351 366 366 101 101 365 365 352 352 365 365 99 99 351 351 97 97 350 350 97 97 351 351 99 99 95 95 350 350 94 94 94 94 350 350 97 97 368 368 369 369 264 264 360 360 361 361 355 355 345 345 361 361 369 369 362 362 346 346 347 347 346 346 361 361 345 345 264 264 369 369 361 361 370 370 372 372 371 371 303 303 344 344 373 373 374 374 371 371 372 372 375 375 374 374 372 372 376 376 374 374 375 375 373 373 376 376 375 375 375 375 372 372 370 370 303 303 375 375 370 370 375 375 303 303 373 373 377 377 378 378 320 320 379 379 378 378 377 377 380 380 324 324 378 378 381 381 380 380 378 378 324 324 320 320 378 378 382 382 378 378 379 379 381 381 378 378 382 382 383 383 385 385 384 384 386 386 384 384 387 387 370 370 387 387 388 388 389 389 391 391 390 390 389 389 390 390 392 392 392 392 390 390 393 393 392 392 393 393 394 394 395 395 389 389 392 392 395 395 392 392 396 396 396 396 392 392 394 394 396 396 394 394 397 397 398 398 391 391 399 399 400 400 391 391 398 398 390 390 391 391 400 400 401 401 390 390 400 400 393 393 390 390 401 401 402 402 393 393 401 401 403 403 404 404 395 395 396 396 403 403 395 395 405 405 403 403 396 396 397 397 405 405 396 396 406 406 405 405 397 397 407 407 406 406 397 397 408 408 399 399 391 391 389 389 408 408 391 391 409 409 408 408 389 389 395 395 409 409 389 389 410 410 409 409 395 395 404 404 410 410 395 395 411 411 393 393 402 402 412 412 393 393 411 411 394 394 393 393 412 412 413 413 394 394 412 412 397 397 394 394 413 413 407 407 397 397 413 413 35 35 47 47 414 414 415 415 417 417 416 416 418 418 420 420 419 419 117 117 115 115 420 420 421 421 419 419 420 420 421 421 420 420 115 115 422 422 424 424 423 423 425 425 426 426 234 234 427 427 429 429 428 428 430 430 428 428 429 429 431 431 432 432 427 427 429 429 427 427 432 432 433 433 434 434 431 431 432 432 431 431 434 434 435 435 436 436 433 433 434 434 433 433 436 436 426 426 425 425 435 435 436 436 435 435 425 425 429 429 422 422 430 430 423 423 430 430 422 422 432 432 437 437 429 429 422 422 429 429 437 437 434 434 438 438 432 432 437 437 432 432 438 438 436 436 439 439 434 434 438 438 434 434 439 439 425 425 440 440 436 436 439 439 436 436 440 440 430 430 423 423 441 441 236 236 234 234 426 426 440 440 425 425 442 442 443 443 440 440 444 444 234 234 442 442 425 425 445 445 446 446 444 444 443 443 447 447 440 440 442 442 445 445 440 440 444 444 440 440 445 445 439 439 440 440 447 447 446 446 448 448 444 444 449 449 444 444 450 450 451 451 449 449 452 452 448 448 450 450 444 444 452 452 453 453 451 451 450 450 452 452 449 449 451 451 453 453 454 454 439 439 447 447 438 438 430 430 441 441 428 428 455 455 441 441 423 423 456 456 457 457 428 428 456 456 428 428 441 441 428 428 457 457 427 427 427 427 458 458 431 431 458 458 427 427 457 457 431 431 459 459 433 433 459 459 431 431 458 458 435 435 433 433 460 460 461 461 433 433 459 459 460 460 462 462 435 435 461 461 460 460 433 433 426 426 435 435 463 463 236 236 426 426 463 463 462 462 463 463 435 435 438 438 464 464 437 437 464 464 438 438 447 447 455 455 423 423 424 424 422 422 437 437 424 424 424 424 437 437 464 464 465 465 467 467 466 466 468 468 467 467 465 465 469 469 466 466 467 467 262 262 471 471 470 470 263 263 472 472 471 471 473 473 470 470 471 471 472 472 473 473 471 471 260 260 471 471 262 262 263 263 471 471 260 260 474 474 476 476 475 475 475 475 478 478 477 477 478 478 475 475 476 476 479 479 477 477 480 480 480 480 477 477 478 478 481 481 483 483 482 482 484 484 481 481 482 482 485 485 486 486 483 483 487 487 486 486 485 485 476 476 483 483 486 486 488 488 486 486 487 487 489 489 491 491 490 490 492 492 481 481 493 493 494 494 495 495 493 493 484 484 493 493 481 481 494 494 490 490 491 491 492 492 493 493 496 496 496 496 493 493 495 495 495 495 494 494 491 491 28 28 497 497 32 32 498 498 500 500 499 499 501 501 32 32 497 497 502 502 501 501 497 497 503 503 501 501 502 502 499 499 503 503 502 502 504 504 503 503 499 499 500 500 504 504 499 499 505 505 497 497 28 28 506 506 497 497 505 505 502 502 497 497 506 506 507 507 502 502 506 506 499 499 502 502 507 507 498 498 499 499 507 507 508 508 510 510 509 509 511 511 190 190 510 510 190 190 509 509 510 510 511 511 510 510 508 508 512 512 514 514 513 513 515 515 514 514 512 512 516 516 513 513 517 517 512 512 513 513 516 516 518 518 517 517 519 519 516 516 517 517 518 518 520 520 519 519 521 521 518 518 519 519 520 520 522 522 523 523 455 455 524 524 456 456 525 525 525 525 456 456 523 523 441 441 455 455 523 523 441 441 523 523 456 456 526 526 528 528 527 527 446 446 445 445 529 529 448 448 446 446 529 529 530 530 527 527 528 528 531 531 530 530 528 528 532 532 530 530 531 531 529 529 532 532 531 531 533 533 532 532 529 529 445 445 533 533 529 529 534 534 528 528 526 526 531 531 528 528 534 534 529 529 531 531 535 535 448 448 529 529 535 535 32 32 536 536 514 514 537 537 521 521 538 538 500 500 537 537 538 538 539 539 514 514 536 536 540 540 539 539 536 536 541 541 539 539 540 540 538 538 541 541 540 540 519 519 541 541 538 538 521 521 519 519 538 538 542 542 536 536 32 32 543 543 536 536 542 542 540 540 536 536 543 543 504 504 540 540 543 543 538 538 540 540 504 504 500 500 538 538 504 504 544 544 399 399 545 545 34 34 544 544 545 545 180 180 182 182 546 546 182 182 108 108 546 546 180 180 546 546 108 108 281 281 547 547 280 280 547 547 549 549 548 548 550 550 280 280 547 547 551 551 323 323 271 271 324 324 271 271 323 323 271 271 270 270 551 551 280 280 550 550 270 270 551 551 270 270 550 550 549 549 547 547 282 282 552 552 553 553 549 549 547 547 548 548 550 550 553 553 548 548 549 549 551 551 550 550 554 554 554 554 550 550 548 548 282 282 45 45 549 549 281 281 282 282 547 547 45 45 42 42 549 549 552 552 42 42 336 336 42 42 552 552 549 549 67 67 336 336 42 42 555 555 557 557 556 556 558 558 559 559 524 524 560 560 456 456 559 559 456 456 524 524 559 559 560 560 559 559 558 558 561 561 563 563 562 562 564 564 563 563 561 561 555 555 562 562 557 557 561 561 562 562 555 555 556 556 557 557 565 565 566 566 568 568 567 567 566 566 565 565 557 557 492 492 570 570 569 569 565 565 566 566 567 567 570 570 567 567 568 568 481 481 492 492 569 569 568 568 569 569 570 570 568 568 566 566 485 485 485 485 483 483 569 569 569 569 568 568 485 485 481 481 569 569 483 483 487 487 485 485 566 566 557 557 487 487 566 566 525 525 571 571 524 524 525 525 573 573 572 572 572 572 571 571 525 525 573 573 563 563 572 572 572 572 563 563 574 574 564 564 574 574 563 563 558 558 524 524 571 571 575 575 577 577 576 576 487 487 578 578 488 488 573 573 525 525 578 578 525 525 488 488 578 578 487 487 557 557 562 562 578 578 487 487 562 562 578 578 562 562 563 563 573 573 578 578 563 563 579 579 581 581 580 580 192 192 189 189 581 581 189 189 580 580 581 581 192 192 581 581 579 579 579 579 583 583 582 582 584 584 583 583 580 580 585 585 584 584 580 580 586 586 582 582 583 583 580 580 583 583 579 579 587 587 589 589 588 588 584 584 585 585 590 590 585 585 592 592 591 591 592 592 588 588 589 589 590 590 585 585 591 591 589 589 591 591 592 592 564 564 593 593 584 584 564 564 561 561 593 593 583 583 594 594 593 593 555 555 593 593 561 561 595 595 596 596 574 574 564 564 584 584 595 595 590 590 591 591 595 595 574 574 564 564 595 595 595 595 584 584 590 590 591 591 596 596 595 595 572 572 574 574 596 596 579 579 582 582 597 597 598 598 579 579 597 597 598 598 597 597 599 599 600 600 598 598 599 599 600 600 599 599 570 570 601 601 600 600 570 570 601 601 570 570 492 492 496 496 601 601 492 492 556 556 565 565 602 602 602 602 565 565 603 603 570 570 599 599 567 567 565 565 567 567 599 599 599 599 603 603 565 565 603 603 599 599 597 597 603 603 597 597 586 586 582 582 586 586 597 597 604 604 586 586 605 605 602 602 604 604 605 605 602 602 605 605 556 556 606 606 608 608 607 607 609 609 571 571 607 607 610 610 611 611 607 607 558 558 571 571 609 609 610 610 607 607 572 572 572 572 607 607 571 571 611 611 606 606 607 607 62 62 607 607 608 608 610 610 612 612 611 611 589 589 612 612 591 591 589 589 587 587 612 612 610 610 572 572 612 612 591 591 612 612 596 596 572 572 596 596 612 612 587 587 611 611 612 612 49 49 191 191 613 613 48 48 49 49 613 613 48 48 613 613 614 614 51 51 48 48 614 614 51 51 614 614 615 615 53 53 51 51 615 615 53 53 615 615 489 489 55 55 53 53 489 489 61 61 616 616 62 62 616 616 61 61 617 617 618 618 607 607 616 616 617 617 618 618 616 616 607 607 62 62 616 616 618 618 617 617 61 61 193 193 511 511 619 619 190 190 511 511 193 193 62 62 608 608 59 59 58 58 59 59 465 465 620 620 621 621 511 511 622 622 619 619 621 621 619 619 511 511 621 621 622 622 621 621 620 620 623 623 624 624 520 520 625 625 627 627 626 626 628 628 58 58 627 627 629 629 466 466 626 626 629 629 626 626 627 627 469 469 626 626 466 466 624 624 627 627 518 518 623 623 630 630 624 624 624 624 628 628 627 627 629 629 627 627 58 58 58 58 465 465 629 629 466 466 629 629 465 465 628 628 624 624 630 630 518 518 520 520 624 624 625 625 518 518 627 627 551 551 622 622 620 620 554 554 622 622 551 551 631 631 633 633 632 632 634 634 633 633 631 631 635 635 632 632 636 636 631 631 632 632 635 635 637 637 634 634 631 631 638 638 634 634 637 637 639 639 631 631 635 635 637 637 631 631 639 639 640 640 633 633 641 641 642 642 633 633 640 640 632 632 633 633 642 642 643 643 632 632 642 642 636 636 632 632 643 643 454 454 636 636 643 643 644 644 526 526 638 638 637 637 644 644 638 638 645 645 644 644 637 637 639 639 645 645 637 637 535 535 645 645 639 639 448 448 535 535 639 639 646 646 641 641 633 633 634 634 646 646 633 633 647 647 646 646 634 634 638 638 647 647 634 634 648 648 647 647 638 638 526 526 648 648 638 638 453 453 636 636 454 454 452 452 636 636 453 453 635 635 636 636 452 452 450 450 635 635 452 452 639 639 635 635 450 450 448 448 639 639 450 450 649 649 651 651 650 650 652 652 411 411 653 653 654 654 656 656 655 655 654 654 653 653 656 656 657 657 651 651 658 658 649 649 658 658 651 651 659 659 660 660 657 657 651 651 657 657 660 660 655 655 661 661 659 659 660 660 659 659 661 661 656 656 662 662 655 655 661 661 655 655 662 662 650 650 663 663 649 649 412 412 411 411 652 652 402 402 664 664 653 653 402 402 653 653 411 411 653 653 664 664 656 656 665 665 415 415 656 656 665 665 656 656 664 664 656 656 415 415 662 662 416 416 666 666 662 662 416 416 662 662 415 415 666 666 667 667 662 662 661 661 662 662 667 667 661 661 667 667 660 660 663 663 233 233 649 649 233 233 668 668 658 658 649 649 233 233 658 658 658 658 668 668 657 657 657 657 669 669 659 659 669 669 657 657 668 668 659 659 670 670 655 655 670 670 659 659 669 669 655 655 671 671 654 654 671 671 655 655 670 670 653 653 672 672 652 652 672 672 653 653 654 654 673 673 230 230 652 652 673 673 652 652 672 672 230 230 407 407 652 652 412 412 652 652 413 413 407 407 413 413 652 652 660 660 674 674 651 651 674 674 660 660 667 667 674 674 650 650 651 651 611 611 675 675 606 606 468 468 675 675 676 676 611 611 587 587 676 676 676 676 587 587 677 677 611 611 676 676 675 675 678 678 679 679 676 676 680 680 681 681 676 676 680 680 676 676 679 679 676 676 681 681 682 682 32 32 683 683 33 33 514 514 684 684 683 683 684 684 33 33 683 683 514 514 683 683 32 32 680 680 686 686 685 685 467 467 680 680 685 685 467 467 685 685 469 469 680 680 515 515 686 686 618 618 687 687 607 607 560 560 558 558 687 687 609 609 607 607 687 687 558 558 609 609 687 687 560 560 687 687 618 618 688 688 690 690 689 689 688 688 689 689 691 691 691 691 689 689 692 692 691 691 692 692 693 693 693 693 692 692 694 694 693 693 694 694 695 695 695 695 694 694 696 696 695 695 696 696 697 697 697 697 696 696 698 698 697 697 698 698 699 699 699 699 698 698 700 700 699 699 700 700 701 701 668 668 688 688 691 691 668 668 691 691 669 669 669 669 691 691 693 693 669 669 693 693 670 670 670 670 693 693 695 695 670 670 695 695 671 671 671 671 695 695 697 697 671 671 697 697 654 654 654 654 697 697 699 699 654 654 699 699 672 672 672 672 699 699 701 701 672 672 701 701 673 673 231 231 232 232 690 690 688 688 231 231 690 690 668 668 231 231 688 688 231 231 668 668 233 233 228 228 700 700 229 229 701 701 700 700 228 228 673 673 701 701 228 228 230 230 673 673 228 228 181 181 702 702 37 37 178 178 702 702 181 181 179 179 38 38 702 702 38 38 37 37 702 702 179 179 702 702 178 178 61 61 703 703 618 618 225 225 233 233 704 704 226 226 706 706 705 705 227 227 703 703 226 226 706 706 226 226 703 703 703 703 227 227 707 707 707 707 708 708 703 703 704 704 709 709 707 707 708 708 707 707 709 709 521 521 537 537 705 705 233 233 663 663 704 704 663 663 710 710 709 709 709 709 704 704 663 663 710 710 711 711 709 709 712 712 708 708 711 711 709 709 711 711 708 708 713 713 703 703 61 61 537 537 500 500 223 223 537 537 223 223 705 705 226 226 705 705 223 223 707 707 227 227 224 224 224 224 225 225 707 707 704 704 707 707 225 225 223 223 500 500 221 221 498 498 714 714 221 221 498 498 221 221 500 500 221 221 714 714 222 222 222 222 715 715 230 230 715 715 222 222 714 714 407 407 230 230 716 716 716 716 230 230 715 715 712 712 618 618 708 708 713 713 717 717 703 703 717 717 706 706 703 703 705 705 706 706 630 630 630 630 623 623 705 705 520 520 521 521 623 623 705 705 623 623 521 521 708 708 618 618 703 703 718 718 486 486 719 719 576 576 719 719 575 575 575 575 719 719 486 486 720 720 721 721 457 457 667 667 666 666 722 722 723 723 725 725 724 724 726 726 724 724 725 725 727 727 728 728 723 723 725 725 723 723 728 728 729 729 730 730 727 727 728 728 727 727 730 730 731 731 732 732 729 729 730 730 729 729 732 732 733 733 734 734 731 731 732 732 731 731 734 734 722 722 735 735 733 733 734 734 733 733 735 735 725 725 721 721 726 726 720 720 726 726 721 721 728 728 736 736 725 725 721 721 725 725 736 736 730 730 737 737 728 728 736 736 728 728 737 737 732 732 738 738 730 730 737 737 730 730 738 738 734 734 739 739 732 732 738 738 732 732 739 739 735 735 740 740 734 734 739 739 734 734 740 740 457 457 456 456 720 720 735 735 722 722 741 741 735 735 741 741 740 740 666 666 741 741 722 722 236 236 463 463 740 740 236 236 740 740 741 741 462 462 739 739 463 463 740 740 463 463 739 739 739 739 462 462 738 738 456 456 560 560 720 720 618 618 724 724 560 560 618 618 712 712 724 724 720 720 560 560 726 726 726 726 560 560 724 724 712 712 711 711 724 724 724 724 711 711 723 723 723 723 710 710 727 727 710 710 723 723 711 711 727 727 663 663 729 729 663 663 727 727 710 710 729 729 650 650 731 731 650 650 729 729 663 663 731 731 674 674 733 733 674 674 731 731 650 650 674 674 667 667 733 733 722 722 733 733 667 667 738 738 460 460 737 737 460 460 738 738 462 462 736 736 737 737 459 459 461 461 737 737 460 460 721 721 736 736 458 458 461 461 459 459 737 737 458 458 457 457 721 721 459 459 458 458 736 736 742 742 744 744 743 743 745 745 747 747 746 746 748 748 746 746 749 749 750 750 748 748 751 751 747 747 749 749 746 746 750 750 751 751 752 752 749 749 751 751 748 748 752 752 743 743 744 744 743 743 752 752 751 751 753 753 744 744 742 742 754 754 756 756 755 755 754 754 758 758 757 757 757 757 756 756 754 754 759 759 760 760 758 758 757 757 758 758 760 760 761 761 755 755 756 756 762 762 764 764 763 763 765 765 763 763 764 764 101 101 38 38 179 179 545 545 37 37 34 34 183 183 37 37 545 545 358 358 767 767 766 766 105 105 768 768 103 103 166 166 154 154 768 768 349 349 95 95 767 767 166 166 768 768 105 105 767 767 103 103 769 769 769 769 103 103 768 768 103 103 767 767 95 95 769 769 768 768 766 766 769 769 766 766 767 767 154 154 766 766 768 768 349 349 767 767 358 358 63 63 770 770 78 78 385 385 84 84 771 771 771 771 78 78 770 770 82 82 78 78 771 771 84 84 82 82 771 771 771 771 770 770 63 63 385 385 771 771 63 63 385 385 772 772 84 84 383 383 155 155 772 772 153 153 84 84 772 772 155 155 153 153 772 772 383 383 772 772 385 385 65 65 63 63 78 78 79 79 65 65 78 78 334 334 120 120 773 773 122 122 120 120 334 334 335 335 773 773 774 774 334 334 773 773 335 335 178 178 182 182 180 180 773 773 775 775 774 774 120 120 775 775 773 773 420 420 418 418 775 775 117 117 420 420 775 775 418 418 774 774 775 775 117 117 775 775 120 120 93 93 776 776 108 108 102 102 180 180 100 100 777 777 108 108 776 776 180 180 108 108 777 777 100 100 180 180 777 777 96 96 776 776 93 93 98 98 776 776 96 96 777 777 776 776 98 98 100 100 777 777 98 98 778 778 779 779 774 774 418 418 778 778 774 774 774 774 779 779 336 336 335 335 774 774 336 336 199 199 781 781 780 780 206 206 196 196 782 782 783 783 782 782 784 784 784 784 786 786 785 785 196 196 784 784 782 782 786 786 780 780 787 787 783 783 784 784 785 785 787 787 785 785 786 786 787 787 780 780 781 781 197 197 781 781 199 199 788 788 790 790 789 789 791 791 793 793 792 792 794 794 795 795 789 789 791 791 796 796 793 793 797 797 794 794 798 798 798 798 789 789 792 792 798 798 792 792 793 793 799 799 792 792 789 789 789 789 798 798 794 794 800 800 793 793 796 796 792 792 799 799 801 801 802 802 801 801 799 799 795 795 803 803 789 789 803 803 788 788 789 789 788 788 804 804 790 790 805 805 790 790 804 804 593 593 806 806 605 605 605 605 807 807 593 593 605 605 806 806 808 808 807 807 809 809 593 593 810 810 811 811 129 129 812 812 124 124 813 813 127 127 129 129 811 811 124 124 127 127 811 811 813 813 124 124 811 811 812 812 811 811 810 810 813 813 811 811 812 812 119 119 123 123 126 126 124 124 119 119 126 126 116 116 119 119 124 124 812 812 116 116 124 124 810 810 814 814 812 812 129 129 128 128 173 173 815 815 129 129 173 173 815 815 173 173 105 105 106 106 815 815 105 105 118 118 812 812 814 814 116 116 812 812 118 118 129 129 816 816 810 810 106 106 114 114 816 816 114 114 810 810 816 816 815 815 816 816 129 129 106 106 816 816 815 815 817 817 819 819 818 818 820 820 822 822 821 821 823 823 821 821 824 824 824 824 825 825 823 823 822 822 824 824 821 821 826 826 827 827 818 818 826 826 818 818 819 819 823 823 825 825 827 827 818 818 827 827 825 825 828 828 819 819 817 817 810 810 114 114 112 112 110 110 810 810 112 112 108 108 110 110 107 107 359 359 371 371 374 374 358 358 371 371 359 359 360 360 374 374 376 376 359 359 374 374 360 360 361 361 376 376 373 373 360 360 376 376 361 361 264 264 373 373 344 344 361 361 373 373 264 264 322 322 470 470 473 473 321 321 322 322 473 473 321 321 473 473 472 472 325 325 321 321 472 472 302 302 303 303 388 388 303 303 370 370 388 388 829 829 747 747 830 830 753 753 742 742 831 831 831 831 742 742 832 832 833 833 835 835 834 834 833 833 832 832 742 742 830 830 836 836 829 829 832 832 833 833 837 837 836 836 834 834 835 835 834 834 837 837 833 833 838 838 830 830 747 747 835 835 829 829 836 836 745 745 838 838 747 747 323 323 470 470 322 322 839 839 470 470 323 323 267 267 272 272 380 380 381 381 267 267 380 380 324 324 380 380 272 272 271 271 324 324 272 272 840 840 410 410 841 841 842 842 843 843 841 841 115 115 118 118 844 844 404 404 842 842 841 841 843 843 845 845 841 841 845 845 28 28 841 841 28 28 31 31 841 841 31 31 29 29 841 841 840 840 841 841 846 846 846 846 419 419 840 840 29 29 846 846 841 841 419 419 421 421 840 840 115 115 844 844 421 421 840 840 421 421 844 844 118 118 814 814 844 844 814 814 810 810 844 844 810 810 110 110 844 844 110 110 108 108 844 844 108 108 182 182 844 844 182 182 183 183 844 844 183 183 545 545 844 844 545 545 399 399 844 844 399 399 408 408 844 844 844 844 408 408 840 840 409 409 410 410 840 840 409 409 840 840 408 408 404 404 841 841 410 410 847 847 442 442 237 237 237 237 239 239 847 847 234 234 237 237 442 442 243 243 247 247 241 241 241 241 527 527 848 848 247 247 527 527 241 241 239 239 848 848 849 849 241 241 848 848 239 239 847 847 849 849 533 533 239 239 849 849 847 847 442 442 533 533 445 445 847 847 533 533 442 442 839 839 850 850 508 508 620 620 511 511 850 850 511 511 508 508 850 850 620 620 850 850 839 839 686 686 512 512 851 851 852 852 516 516 518 518 852 852 853 853 516 516 851 851 516 516 853 853 686 686 515 515 512 512 512 512 516 516 851 851 853 853 852 852 626 626 625 625 852 852 518 518 626 626 469 469 853 853 625 625 626 626 852 852 469 469 851 851 853 853 854 854 855 855 491 491 856 856 855 855 854 854 857 857 855 855 856 856 858 858 857 857 856 856 859 859 857 857 858 858 192 192 859 859 858 858 601 601 496 496 855 855 857 857 601 601 855 855 860 860 601 601 857 857 859 859 860 860 857 857 861 861 860 860 859 859 579 579 861 861 859 859 495 495 491 491 855 855 496 496 495 495 855 855 579 579 859 859 192 192 491 491 489 489 615 615 854 854 491 491 615 615 854 854 615 615 614 614 862 862 854 854 614 614 862 862 614 614 613 613 863 863 862 862 613 613 863 863 613 613 191 191 192 192 863 863 191 191 79 79 325 325 472 472 80 80 325 325 79 79 34 34 864 864 544 544 35 35 544 544 864 864 35 35 864 864 34 34 544 544 865 865 399 399 664 664 402 402 866 866 665 665 664 664 866 866 867 867 399 399 865 865 868 868 867 867 865 865 869 869 867 867 868 868 866 866 869 869 868 868 401 401 869 869 866 866 402 402 401 401 866 866 870 870 865 865 544 544 871 871 865 865 870 870 868 868 865 865 871 871 872 872 868 868 871 871 866 866 868 868 872 872 665 665 866 866 872 872 155 155 873 873 154 154 371 371 358 358 873 873 766 766 154 154 873 873 358 358 766 766 873 873 79 79 874 874 65 65 472 472 263 263 874 874 263 263 65 65 874 874 472 472 874 874 79 79 544 544 35 35 414 414 875 875 544 544 414 414 875 875 414 414 876 876 877 877 875 875 876 876 877 877 876 876 417 417 872 872 877 877 417 417 872 872 417 417 415 415 665 665 872 872 415 415 878 878 879 879 29 29 778 778 846 846 879 879 846 846 29 29 879 879 778 778 879 879 878 878 878 878 880 880 778 778 881 881 779 779 880 880 779 779 778 778 880 880 881 881 880 880 878 878 552 552 779 779 881 881 336 336 779 779 552 552 383 383 882 882 155 155 370 370 371 371 883 883 873 873 155 155 882 882 884 884 873 873 882 882 883 883 873 873 884 884 873 873 883 883 371 371 384 384 882 882 383 383 386 386 882 882 384 384 884 884 882 882 386 386 387 387 884 884 386 386 883 883 884 884 387 387 370 370 883 883 387 387 377 377 885 885 379 379 320 320 885 885 377 377 886 886 888 888 887 887 305 305 886 886 887 887 889 889 379 379 885 885 890 890 889 889 885 885 891 891 889 889 890 890 887 887 891 891 890 890 892 892 891 891 887 887 888 888 892 892 887 887 318 318 885 885 320 320 319 319 885 885 318 318 890 890 885 885 319 319 307 307 890 890 319 319 887 887 890 890 307 307 305 305 887 887 307 307 414 414 257 257 893 893 47 47 257 257 414 414 876 876 893 893 894 894 414 414 893 893 876 876 417 417 894 894 895 895 876 876 894 894 417 417 416 416 895 895 666 666 417 417 895 895 416 416 886 886 896 896 888 888 305 305 896 896 886 886 66 66 68 68 896 896 67 67 66 66 896 896 897 897 888 888 896 896 68 68 897 897 896 896 67 67 896 896 305 305 301 301 898 898 265 265 244 244 245 245 898 898 245 245 265 265 898 898 899 899 898 898 301 301 244 244 898 898 899 899 899 899 301 301 302 302 899 899 302 302 249 249 244 244 899 899 249 249 508 508 262 262 470 470 839 839 508 508 470 470 27 27 900 900 878 878 29 29 27 27 878 878 38 38 101 101 901 901 902 902 904 904 903 903 905 905 906 906 257 257 357 357 362 362 903 903 904 904 907 907 242 242 242 242 256 256 904 904 903 903 904 904 256 256 243 243 242 242 908 908 908 908 909 909 243 243 907 907 908 908 242 242 909 909 910 910 243 243 243 243 910 910 250 250 250 250 911 911 264 264 911 911 250 250 910 910 368 368 264 264 911 911 362 362 912 912 903 903 902 902 903 903 913 913 912 912 913 913 903 903 257 257 47 47 905 905 256 256 257 257 914 914 914 914 915 915 256 256 906 906 914 914 257 257 256 256 915 915 903 903 357 357 903 903 916 916 917 917 903 903 915 915 363 363 357 357 916 916 917 917 916 916 903 903 47 47 38 38 918 918 367 367 901 901 101 101 905 905 47 47 918 918 901 901 918 918 38 38 919 919 921 921 920 920 919 919 920 920 922 922 922 922 920 920 923 923 922 922 923 923 924 924 925 925 919 919 922 922 925 925 922 922 926 926 926 926 922 922 924 924 926 926 924 924 927 927 507 507 921 921 498 498 506 506 921 921 507 507 920 920 921 921 506 506 505 505 920 920 506 506 923 923 920 920 505 505 28 28 923 923 505 505 406 406 407 407 925 925 926 926 406 406 925 925 405 405 406 406 926 926 927 927 405 405 926 926 403 403 405 405 927 927 404 404 403 403 927 927 714 714 498 498 921 921 919 919 714 714 921 921 715 715 714 714 919 919 925 925 715 715 919 919 716 716 715 715 925 925 407 407 716 716 925 925 845 845 923 923 28 28 843 843 923 923 845 845 924 924 923 923 843 843 842 842 924 924 843 843 927 927 924 924 842 842 404 404 927 927 842 842 208 208 209 209 212 212 209 209 229 229 690 690 690 690 232 232 209 209 229 229 700 700 690 690 700 700 698 698 690 690 698 698 696 696 690 690 696 696 694 694 690 690 694 694 692 692 690 690 689 689 690 690 692 692 232 232 220 220 209 209 220 220 218 218 209 209 218 218 216 216 209 209 216 216 214 214 209 209 214 214 212 212 209 209 900 900 928 928 878 878 929 929 881 881 928 928 881 881 878 878 928 928 929 929 928 928 900 900 552 552 929 929 553 553 881 881 929 929 552 552 240 240 930 930 242 242 238 238 930 930 240 240 931 931 930 930 238 238 235 235 931 931 238 238 932 932 931 931 235 235 236 236 932 932 235 235 893 893 257 257 930 930 931 931 893 893 930 930 894 894 893 893 931 931 932 932 894 894 931 931 895 895 894 894 932 932 666 666 895 895 932 932 255 255 242 242 930 930 257 257 255 255 930 930 741 741 932 932 236 236 666 666 932 932 741 741 246 246 527 527 933 933 527 527 247 247 933 933 246 246 933 933 247 247 527 527 248 248 526 526 246 246 248 248 527 527 839 839 551 551 620 620 323 323 551 551 839 839 179 179 102 102 101 101 934 934 822 822 935 935 828 828 817 817 936 936 936 936 817 817 937 937 938 938 940 940 939 939 938 938 937 937 817 817 940 940 934 934 941 941 937 937 938 938 939 939 942 942 939 939 940 940 943 943 935 935 822 822 942 942 940 940 941 941 935 935 941 941 934 934 820 820 943 943 822 822 944 944 946 946 945 945 946 946 948 948 947 947 947 947 949 949 946 946 950 950 951 951 948 948 947 947 948 948 951 951 949 949 945 945 946 946 684 684 952 952 588 588 684 684 514 514 515 515 515 515 952 952 684 684 953 953 588 588 952 952 675 675 954 954 606 606 468 468 954 954 675 675 59 59 608 608 954 954 465 465 59 59 954 954 608 608 606 606 954 954 465 465 954 954 468 468 56 56 641 641 955 955 955 955 647 647 956 956 956 956 957 957 258 258 646 646 647 647 955 955 956 956 648 648 957 957 648 648 956 956 647 647 526 526 248 248 957 957 526 526 957 957 648 648 248 248 249 249 957 957 249 249 302 302 957 957 302 302 388 388 957 957 388 388 387 387 957 957 387 387 384 384 957 957 384 384 385 385 957 957 385 385 63 63 957 957 64 64 261 261 63 63 957 957 63 63 261 261 258 258 259 259 956 956 261 261 258 258 957 957 259 259 509 509 956 956 956 956 509 509 955 955 190 190 49 49 955 955 190 190 955 955 509 509 49 49 56 56 955 955 646 646 955 955 641 641 628 628 630 630 958 958 60 60 958 958 959 959 628 628 958 958 58 58 958 958 717 717 959 959 630 630 706 706 958 958 717 717 958 958 706 706 61 61 60 60 713 713 713 713 959 959 717 717 959 959 713 713 60 60 60 60 58 58 958 958 960 960 50 50 52 52 54 54 960 960 52 52 961 961 960 960 54 54 57 57 961 961 54 54 640 640 641 641 50 50 960 960 640 640 50 50 642 642 640 640 960 960 961 961 642 642 960 960 643 643 642 642 961 961 454 454 643 643 961 961 641 641 56 56 50 50 454 454 961 961 57 57 962 962 964 964 963 963 965 965 967 967 966 966 967 967 968 968 966 966 966 966 968 968 969 969 970 970 972 972 971 971 973 973 969 969 968 968 20 20 26 26 974 974 969 969 973 973 972 972 971 971 972 972 973 973 18 18 19 19 975 975 970 970 971 971 26 26 974 974 26 26 971 971 16 16 17 17 976 976 20 20 974 974 19 19 975 975 19 19 974 974 14 14 16 16 977 977 18 18 975 975 17 17 976 976 17 17 975 975 15 15 14 14 978 978 976 976 977 977 16 16 23 23 15 15 979 979 977 977 978 978 14 14 964 964 23 23 980 980 978 978 979 979 15 15 980 980 963 963 964 964 979 979 980 980 23 23 22 22 982 982 981 981 2 2 22 22 981 981 2 2 981 981 983 983 1 1 2 2 983 983 1 1 983 983 984 984 5 5 1 1 984 984 5 5 984 984 985 985 7 7 5 5 985 985 7 7 985 985 986 986 9 9 7 7 986 986 9 9 986 986 987 987 11 11 9 9 987 987 11 11 987 987 988 988 13 13 11 11 988 988 13 13 988 988 989 989 25 25 13 13 989 989 990 990 989 989 991 991 25 25 989 989 990 990 992 992 991 991 993 993 990 990 991 991 992 992 994 994 993 993 995 995 992 992 993 993 994 994 996 996 995 995 997 997 994 994 995 995 996 996 998 998 997 997 999 999 996 996 997 997 998 998 1000 1000 999 999 1001 1001 998 998 999 999 1000 1000 1002 1002 1001 1001 1003 1003 1000 1000 1001 1001 1002 1002 22 22 1003 1003 982 982 1002 1002 1003 1003 22 22 1004 1004 1006 1006 1005 1005 1006 1006 1008 1008 1007 1007 1007 1007 1009 1009 1006 1006 1008 1008 1010 1010 1007 1007 1010 1010 1011 1011 1007 1007 1011 1011 1012 1012 1007 1007 1012 1012 1013 1013 1007 1007 1013 1013 1014 1014 1007 1007 1015 1015 1007 1007 1014 1014 1009 1009 1016 1016 1006 1006 1016 1016 1017 1017 1006 1006 1017 1017 1018 1018 1006 1006 1018 1018 1019 1019 1006 1006 1019 1019 1005 1005 1006 1006 1020 1020 966 966 1021 1021 1021 1021 966 966 969 969 1021 1021 969 969 1022 1022 1022 1022 969 969 972 972 1022 1022 972 972 1023 1023 1023 1023 972 972 970 970 1023 1023 970 970 1024 1024 1002 1002 1026 1026 1025 1025 1002 1002 1025 1025 1000 1000 1000 1000 1025 1025 1020 1020 1000 1000 1020 1020 998 998 998 998 1020 1020 1021 1021 998 998 1021 1021 996 996 996 996 1021 1021 1022 1022 996 996 1022 1022 994 994 994 994 1022 1022 1023 1023 994 994 1023 1023 992 992 992 992 1023 1023 1024 1024 992 992 1024 1024 990 990 964 964 1026 1026 23 23 1025 1025 1026 1026 964 964 1027 1027 1025 1025 964 964 1020 1020 1025 1025 1027 1027 965 965 1020 1020 1027 1027 966 966 1020 1020 965 965 21 21 23 23 1026 1026 1002 1002 21 21 1026 1026 21 21 1002 1002 22 22 24 24 970 970 26 26 1024 1024 970 970 24 24 990 990 1024 1024 24 24 25 25 990 990 24 24</p>
				</triangles>
			</mesh>
		</geometry>
	</library_geometries>
	<library_visual_scenes>
		<visual_scene id="VisualSceneNode" name="base1d_med">
			<node id="J3.dae" name="J3.dae">
				<instance_geometry url="#base2_M1KShape0">
					<bind_material>
						<technique_common>
							<instance_material symbol="blinn20.material" target="#blinn20.material"/>
						</technique_common>
					</bind_material>
				</instance_geometry>
			</node>
		</visual_scene>
	</library_visual_scenes>
	<scene>
		<instance_visual_scene url="#VisualSceneNode"/>
	</scene>
</COLLADA>
