<?xml version="1.0" encoding="UTF-8"?>
<COLLADA xmlns="http://www.collada.org/2005/11/COLLADASchema" version="1.4.1">
	<asset>
		<contributor>
			<author>DENSO WAVE</author>
		</contributor>
		<unit/>
		<up_axis>Y_UP</up_axis>
	</asset>
	<library_materials>
		<material id="blinn20.material" name="blinn20">
			<instance_effect url="#blinn20.effect"/>
		</material>
		<material id="blinn21.material" name="blinn21">
			<instance_effect url="#blinn21.effect"/>
		</material>
	</library_materials>
	<library_effects>
		<effect id="blinn20.effect">
			<profile_COMMON>
				<technique sid="common">
					<phong>
						<emission>
							<color>0.04 0.04 0.04 1</color>
						</emission>
						<diffuse>
							<color>1 1 1 1</color>
						</diffuse>
						<specular>
							<color>0.2 0.2 0.2 1</color>
						</specular>
					</phong>
				</technique>
			</profile_COMMON>
		</effect>
		<effect id="blinn21.effect">
			<profile_COMMON>
				<technique sid="common">
					<phong>
						<emission>
							<color>0.04 0.04 0.04 1</color>
						</emission>
						<diffuse>
							<color>0.4 0.4 0.4 1</color>
						</diffuse>
						<specular>
							<color>0.2 0.2 0.2 1</color>
						</specular>
					</phong>
				</technique>
			</profile_COMMON>
		</effect>
	</library_effects>
	<library_geometries>
		<geometry id="base2_M1KShape0" name="base2_M1KShape0">
			<mesh>
				<source id="base2_M1KShape0.positions">
					<float_array id="base2_M1KShape0.positions-array" count="447">-0.0142301 0.0289964 0.0520001 -0.0147958 0.0290009 0.0393025 -0.00153383 0.0290111 0.052 0.00143748 0.0289945 0.052 0.0147941 0.0290014 0.0393108 0.0142302 0.0289966 0.0520001 -0.0376754 0.0290008 -0.010504 0.0208296 0.0290011 0.033084 -0.0386617 0.0290008 0.00580406 0.0386619 0.0290012 0.00580406 -0.0329308 0.0290008 0.021103 -0.0208294 0.0290009 0.033084 0.0296254 0.0290011 -0.02551 2.00234e-07 0.029001 -0.0390949 -0.0296251 0.0290009 -0.02551 -0.0312155 -0.00906646 0.0522026 -0.0324997 -5.944e-05 0.0518 -0.0322998 1.026e-06 0.052 -0.0312207 0.00897971 0.0522106 0.0325001 -5.9214e-05 0.0518 0.0312161 -0.00906533 0.0522025 0.0323002 1.051e-06 0.052 0.0312212 0.00897946 0.0522106 0.0202468 0.0287144 0.0342368 -0.020864 0.0286258 0.0338084 2.99886e-07 -0.027999 0.052 0.000866299 -0.0282743 0.052 -0.0014139 -0.028999 0.052 -0.000865701 -0.0282743 0.052 0.0014145 -0.028999 0.052 -0.039015 -0.0289992 0.00589699 -0.0370077 -0.0289104 0.0138181 -0.02026 -0.028999 0.0342212 -0.0380803 -0.0289043 -0.010586 -0.0299132 -0.0289991 -0.025732 -0.0235004 -0.028909 -0.0317739 -3.20096e-06 -0.0289983 -0.0395554 0.0299137 -0.0289989 -0.025732 0.0234346 -0.0289082 -0.0318355 0.0381294 -0.0289976 -0.0105987 0.0369849 -0.0289047 0.0139101 0.0390155 -0.0289988 0.00589699 0.0332108 -0.0289988 0.0213401 0.0208909 -0.0289958 0.0335043 0.0224133 -0.0236993 0.03473 0.0146717 -0.0289989 0.040735 0.0218878 -0.0239947 0.0522088 0.0276498 -0.0170603 0.0521975 0.0142283 -0.0289958 0.0520001 0.0279317 -0.0168525 0.0305228 0.0312738 -0.0090601 0.0267462 0.0312161 -0.00906533 0.0522025 0.0312212 0.00897946 0.0522106 0.0317599 0.00706575 0.027773 0.0325001 -5.9214e-05 0.0518 0.0324737 -0.00131077 0.026598 0.0275838 0.0171502 0.0522174 0.0285568 0.0157764 0.0301406 0.0218591 0.0240146 0.0522198 0.0229545 0.0231838 0.0345063 0.0142302 0.0289966 0.0520001 -0.0380176 -0.014346 0.014299 -0.0313459 -0.0150525 0.028109 0.0383395 -2.281e-05 0.014419 0.0347971 -4.6512e-05 0.026286 0.0380203 0.0143001 0.014299 -0.0391469 0.0142998 -0.010882 -0.03802 0.0142998 0.014299 -0.0394754 -2.3121e-05 -0.010973 -0.0383391 -2.3116e-05 0.01442 -0.0241552 0.0142999 -0.032666 -0.0243579 -2.306e-05 -0.03294 9.96515e-08 0.0143 -0.0406129 2.00234e-07 -2.2963e-05 -0.0409539 0.0241555 0.0143001 -0.032666 0.0243583 -2.2866e-05 -0.03294 0.0391472 0.0143001 -0.010882 0.0394758 -2.2805e-05 -0.010973 -0.0391445 -0.014346 -0.0108809 -0.0241537 -0.0143459 -0.032664 2.00234e-07 -0.0143458 -0.040611 0.0241542 -0.0143457 -0.032664 0.039145 -0.0143457 -0.0108809 0.0380182 -0.0143457 0.014299 -0.0347967 -5.0262e-05 0.026286 0.0313819 0.0149686 0.028081 0.0313479 -0.0150497 0.028108 -0.0313832 0.0149656 0.02808 -0.0391275 0.0286853 0.0058766 -3.43658e-07 0.0285716 -0.0395891 -0.0300014 0.0285594 -0.0258337 0.0300124 0.0285919 -0.0258194 0.0391531 0.0286729 0.00584233 0.0381345 0.0287969 -0.0106322 0.0333526 0.0286433 0.0213383 -0.022432 -0.0236803 0.034763 -0.0173498 -0.028999 0.036251 -0.0229349 0.0232032 0.0344718 -0.027825 0.0183019 0.029399 -0.0277597 -0.0184014 0.029454 -0.0285472 0.0157957 0.0302365 -0.031344 0.00930035 0.02674 -0.0279386 -0.0168424 0.0304457 -0.0312735 -0.00906134 0.0267462 -0.0146711 -0.028999 0.040735 -0.0313832 0.0149656 0.02808 -0.0313459 -0.0150525 0.028109 -0.0347967 -5.0262e-05 0.026286 -0.0317593 0.00706476 0.027773 -0.0324733 -0.0013117 0.026598 0.0277603 -0.0184012 0.029454 0.0220312 -0.0262375 0.033175 0.0278252 0.0183021 0.029399 0.0313443 0.00930051 0.02674 0.0313479 -0.0150497 0.028108 0.0347971 -4.6512e-05 0.026286 0.0313819 0.0149686 0.028081 0.0173504 -0.0289989 0.036251 -0.0296353 0.0290593 -0.0255187 -6.51926e-09 0.0290595 -0.0391083 0.0296326 0.029058 -0.0255196 0.0329395 0.0290527 0.0211087 0.0376756 0.0290012 -0.010504 -0.0142277 -0.0289959 0.0520001 -0.0218873 -0.0239947 0.0522088 -0.0142301 0.0289964 0.0520001 -0.0218588 0.0240146 0.0522199 -0.0275836 0.0171499 0.0522174 -0.0312207 0.00897971 0.0522106 -0.0312155 -0.00906646 0.0522026 -0.0276493 -0.0170605 0.0521975 -0.0324997 -5.944e-05 0.0518 0.0142283 -0.0289958 0.0520001 0.0146717 -0.0289989 0.040735 0.0014145 -0.028999 0.052 -0.0014139 -0.028999 0.052 -0.0146711 -0.028999 0.040735 -0.0142277 -0.0289959 0.0520001 0.0381294 -0.0289976 -0.0105987 -0.02026 -0.028999 0.0342212 0.0390155 -0.0289988 0.00589699 -0.0173498 -0.028999 0.036251 0.0173504 -0.0289989 0.036251 -0.039015 -0.0289992 0.00589699 0.0332108 -0.0289988 0.0213401 0.0208909 -0.0289958 0.0335043 -0.0299132 -0.0289991 -0.025732 -3.20096e-06 -0.0289983 -0.0395554 0.0299137 -0.0289989 -0.025732</float_array>
					<technique_common>
						<accessor count="149" source="#base2_M1KShape0.positions-array" stride="3">
							<param name="X" type="float"/>
							<param name="Y" type="float"/>
							<param name="Z" type="float"/>
						</accessor>
					</technique_common>
				</source>
				<source id="base2_M1KShape0.normals">
					<float_array id="base2_M1KShape0.normals-array" count="447">3e-06 1 -0 -0.13334 0.990803 0.023027 -5e-06 1 -0 -5e-06 1 -0 0.150027 0.988359 0.025275 -1.1e-05 1 -0 -5e-06 1 -0 -5e-06 1 -0 -5e-06 1 -0 0.000194 1 -0.000142 -5e-06 1 -0 -5e-06 1 -0 -5e-06 1 -0 -5e-06 1 -0 -5e-06 1 -0 -0.679997 -0.197863 0.706013 -0.707106 -0.001306 0.707107 -0.707107 0 0.707107 -0.68066 0.195634 0.705995 0.707106 -0.001302 0.707107 0.680056 -0.197573 0.706037 0.707107 1e-06 0.707107 0.680661 0.19563 0.705996 0.531785 0.179645 0.827607 -0.530105 0.126049 0.838511 0 0 1 0 0 1 0 0 1 0 0 1 0 0 1 -0.856425 -0.499782 0.129439 -0.929006 -0.133299 0.345223 -0.512081 -0.203582 0.834462 -0.948011 -0.179002 -0.263123 -0.656534 -0.500004 -0.564765 -0.58999 -0.141003 -0.795003 -0.000194 -0.170767 -0.985311 0.656541 -0.499986 -0.564772 0.588372 -0.139836 -0.796408 0.956251 -0.124109 -0.264917 0.926103 -0.14937 0.346441 0.856272 -0.50005 0.129413 0.728715 -0.500388 0.467532 0.523129 -0.140981 0.840512 0.715396 -0.693973 0.081303 0.451425 -0.892309 0 0.67403 -0.738704 0 0.851034 -0.52511 0 0.441557 -0.897233 0 0.871301 -0.485752 0.069859 0.963908 -0.260174 0.056481 0.960318 -0.278909 0 0.961044 0.276397 0 0.976148 0.217108 0 0.999998 -0.001853 0 0.999191 -0.040209 0 0.849308 0.527898 0 0.884014 0.465678 0.040776 0.672849 0.73978 0 0.728018 0.681677 0.072843 0.444914 0.895573 -1e-06 -0.935424 -0.047837 0.350277 -0.742873 -0.049953 0.667566 0.936496 -8e-05 0.350677 0.797858 -0.000158 0.602846 0.935432 0.047673 0.350278 -0.96256 0.047678 -0.266842 -0.935431 0.047665 0.35028 -0.963656 -8.7e-05 -0.267145 -0.936496 -8.7e-05 0.350678 -0.595204 0.047675 -0.802159 -0.595881 -8.6e-05 -0.803073 -1e-06 0.047661 -0.998864 -1e-06 -8.3e-05 -1 0.595202 0.047679 -0.80216 0.59588 -8.1e-05 -0.803073 0.96256 0.047686 -0.266843 0.963656 -8e-05 -0.267147 -0.962553 -0.047851 -0.266839 -0.595199 -0.047844 -0.802153 -1e-06 -0.047825 -0.998856 0.595198 -0.047839 -0.802154 0.962552 -0.047843 -0.266841 0.935425 -0.04783 0.350276 -0.797856 -0.000176 0.602848 0.743595 0.049663 0.666784 0.742901 -0.049939 0.667536 -0.743621 0.049648 0.666756 -0.981817 0.120534 0.14665 -0.000211 0.097182 -0.995267 -0.754648 0.096758 -0.648957 0.754076 0.099037 -0.649278 0.983272 0.108121 0.146582 0.953847 0.145252 -0.262825 0.838145 0.103904 0.53546 -0.702935 -0.710535 0.031965 -0.607683 -0.49786 0.618754 -0.713352 0.700562 0.018484 -0.828358 0.25122 0.500712 -0.827641 -0.253729 0.500632 -0.868193 0.495636 -0.024205 -0.939701 0.185352 0.287413 -0.860708 -0.508734 0.019288 -0.961711 -0.271339 0.038558 -0.451466 -0.892288 0.000143 -0.823915 0.143862 0.548149 -0.822953 -0.144453 0.549438 -0.994893 -0.001243 0.100932 -0.972175 0.231769 -0.034043 -0.999128 -0.041747 0.000511 0.827639 -0.253718 0.50064 0.678666 -0.281898 0.678194 0.828354 0.251222 0.500716 0.939699 0.185359 0.287417 0.822965 -0.14441 0.549431 0.994888 -0.001146 0.100977 0.823874 0.143872 0.548209 0.607689 -0.497852 0.618755 -0.095612 0.993673 -0.058922 -0.058643 0.993233 -0.100249 0.075823 0.99599 -0.047494 0.051274 0.998361 0.025431 5.1e-05 1 -1.5e-05 -0.441551 -0.897236 -3e-06 -0.674486 -0.738287 0.001497 -0.444537 0.89576 -5e-06 -0.673564 0.739126 0.002027 -0.849719 0.527234 0.0015 -0.961124 0.276115 0.000662 -0.960316 -0.278914 0.000226 -0.85128 -0.524711 0.000972 -0.999998 -0.00186 0 5e-06 -1 0 5e-06 -1 0 5e-06 -1 0 5e-06 -1 0 5e-06 -1 0 5e-06 -1 0 5e-06 -1 0 5e-06 -1 0 5e-06 -1 0 5e-06 -1 0 5e-06 -1 0 5e-06 -1 0 5e-06 -1 0 5e-06 -1 0 5e-06 -1 0 5e-06 -1 0 5e-06 -1 0</float_array>
					<technique_common>
						<accessor count="149" source="#base2_M1KShape0.normals-array" stride="3">
							<param name="X" type="float"/>
							<param name="Y" type="float"/>
							<param name="Z" type="float"/>
						</accessor>
					</technique_common>
				</source>
				<vertices id="base2_M1KShape0.vertices">
					<input semantic="POSITION" source="#base2_M1KShape0.positions"/>
				</vertices>
				<triangles count="199" material="blinn20.material">
					<input offset="0" semantic="VERTEX" source="#base2_M1KShape0.vertices" set="0"/>
					<input offset="1" semantic="NORMAL" source="#base2_M1KShape0.normals" set="0"/>
					<p>0 0 2 2 1 1 3 3 4 4 2 2 3 3 5 5 4 4 6 6 8 8 7 7 4 4 1 1 2 2 7 7 9 9 6 6 8 8 10 10 7 7 10 10 11 11 7 7 11 11 1 1 7 7 4 4 7 7 1 1 9 9 12 12 6 6 12 12 13 13 6 6 14 14 6 6 13 13 15 15 17 17 16 16 18 18 16 16 17 17 19 19 21 21 20 20 19 19 22 22 21 21 7 7 4 4 23 23 24 24 1 1 11 11 25 25 27 27 26 26 28 28 27 27 25 25 29 29 26 26 27 27 30 30 32 32 31 31 33 33 30 30 31 31 34 34 30 30 33 33 35 35 34 34 33 33 36 36 34 34 35 35 37 37 36 36 38 38 39 39 37 37 38 38 40 40 41 41 39 39 42 42 41 41 40 40 43 43 42 42 40 40 44 44 46 46 45 45 46 46 44 44 47 47 48 48 45 45 46 46 49 49 50 50 47 47 49 49 47 47 44 44 47 47 50 50 51 51 52 52 54 54 53 53 55 55 51 51 50 50 56 56 52 52 57 57 54 54 51 51 53 53 55 55 53 53 51 51 58 58 56 56 59 59 53 53 57 57 52 52 59 59 4 4 58 58 57 57 59 59 56 56 60 60 58 58 4 4 61 61 31 31 62 62 63 63 65 65 64 64 66 66 68 68 67 67 69 69 67 67 68 68 70 70 71 71 66 66 68 68 66 66 71 71 72 72 73 73 70 70 71 71 70 70 73 73 74 74 75 75 72 72 73 73 72 72 75 75 76 76 77 77 74 74 75 75 74 74 77 77 65 65 63 63 76 76 77 77 76 76 63 63 68 68 78 78 69 69 61 61 69 69 78 78 71 71 79 79 68 68 78 78 68 68 79 79 73 73 80 80 71 71 79 79 71 71 80 80 75 75 81 81 73 73 80 80 73 73 81 81 77 77 82 82 75 75 81 81 75 75 82 82 63 63 83 83 77 77 82 82 77 77 83 83 69 69 61 61 84 84 63 63 64 64 83 83 85 85 64 64 65 65 86 86 43 43 83 83 86 86 83 83 64 64 43 43 40 40 83 83 40 40 39 39 83 83 82 82 83 83 39 39 82 82 39 39 81 81 69 69 84 84 67 67 62 62 84 84 61 61 87 87 24 24 67 67 87 87 67 67 84 84 24 24 88 88 67 67 67 67 88 88 66 66 72 72 70 70 89 89 70 70 66 66 90 90 90 90 66 66 88 88 72 72 89 89 74 74 90 90 89 89 70 70 74 74 91 91 76 76 91 91 74 74 89 89 65 65 76 76 92 92 93 93 76 76 91 91 85 85 65 65 94 94 93 93 92 92 76 76 23 23 85 85 94 94 92 92 94 94 65 65 81 81 38 38 80 80 38 38 81 81 39 39 80 80 36 36 79 79 36 36 80 80 38 38 79 79 35 35 78 78 35 35 79 79 36 36 61 61 78 78 31 31 33 33 78 78 35 35 32 32 62 62 31 31 33 33 31 31 78 78 95 95 32 32 96 96 97 97 24 24 98 98 95 95 99 99 32 32 98 98 100 100 97 97 100 100 98 98 101 101 102 102 103 103 99 99 102 102 99 99 95 95 104 104 95 95 96 96 98 98 24 24 105 105 98 98 105 105 101 101 106 106 103 103 107 107 108 108 101 101 107 107 107 107 101 101 105 105 99 99 103 103 106 106 108 108 107 107 109 109 109 109 107 107 103 103 99 99 106 106 32 32 101 101 108 108 100 100 97 97 1 1 24 24 59 59 23 23 4 4 44 44 111 111 110 110 59 59 112 112 23 23 110 110 49 49 44 44 49 49 110 110 50 50 57 57 113 113 112 112 57 57 112 112 59 59 110 110 111 111 114 114 113 113 57 57 53 53 110 110 114 114 50 50 43 43 114 114 111 111 115 115 116 116 113 113 53 53 55 55 115 115 55 55 50 50 115 115 115 115 50 50 114 114 53 53 115 115 113 113 112 112 113 113 116 116 112 112 116 116 23 23 43 43 111 111 117 117 45 45 117 117 44 44 44 44 117 117 111 111 90 90 88 88 118 118 89 89 90 90 118 118 89 89 118 118 119 119 91 91 89 89 119 119 91 91 119 119 120 120 93 93 91 91 120 120 92 92 93 93 9 9 94 94 92 92 121 121 121 121 92 92 9 9 11 11 88 88 24 24 121 121 23 23 94 94 23 23 121 121 7 7 8 8 88 88 11 11 118 118 88 88 8 8 93 93 120 120 122 122 9 9 93 93 122 122 123 123 124 124 104 104 125 125 1 1 126 126 126 126 97 97 127 127 97 97 126 126 1 1 127 127 100 100 128 128 100 100 127 127 97 97 109 109 129 129 108 108 108 108 128 128 100 100 130 130 129 129 103 103 128 128 108 108 131 131 131 131 108 108 129 129 103 103 102 102 130 130 109 109 103 103 129 129 124 124 130 130 95 95 95 95 104 104 124 124 102 102 95 95 130 130 132 132 134 134 133 133 135 135 136 136 134 134 135 135 137 137 136 136 138 138 140 140 139 139 141 141 142 142 134 134 141 141 134 134 136 136 133 133 134 134 142 142 139 139 143 143 138 138 140 140 144 144 139 139 144 144 145 145 139 139 142 142 141 141 145 145 139 139 145 145 141 141 143 143 146 146 138 138 146 146 147 147 138 138 148 148 138 138 147 147</p>
				</triangles>
			</mesh>
		</geometry>
		<geometry id="base2_M1KShape1" name="base2_M1KShape1">
			<mesh>
				<source id="base2_M1KShape1.positions">
					<float_array id="base2_M1KShape1.positions-array" count="459">0.010218 -0.0241861 0.074 0.010218 -0.0241861 0.068 2.99886e-07 -0.026249 0.068 2.99886e-07 -0.026249 0.074 0.0185618 -0.0185605 0.074 0.0185618 -0.0185605 0.068 0.0241874 -0.0102166 0.074 0.0241874 -0.0102166 0.068 0.0262502 1.1e-06 0.074 0.0262502 1.1e-06 0.068 0.0241873 0.0102188 0.074 0.0241873 0.0102188 0.068 0.0185617 0.0185626 0.074 0.0185617 0.0185626 0.068 0.0102178 0.0241882 0.074 0.0102178 0.0241882 0.068 9.96515e-08 0.026251 0.074 9.96515e-08 0.026251 0.068 -0.0126504 0.0299469 0.068 -0.0102176 0.0241881 0.068 -0.0229808 0.0229819 0.068 9.96515e-08 0.032501 0.068 0.0126506 0.029947 0.068 0.0102178 0.0241882 0.068 9.96515e-08 0.026251 0.068 0.0229811 0.022982 0.068 0.0299461 0.0126516 0.068 0.0241873 0.0102188 0.068 0.0185617 0.0185626 0.068 0.0325002 1.1e-06 0.068 0.0299462 -0.0126494 0.068 0.0241874 -0.0102166 0.068 0.0262502 1.1e-06 0.068 0.0229812 -0.0229799 0.068 0.0126508 -0.0299449 0.068 0.010218 -0.0241861 0.068 0.0185618 -0.0185605 0.068 2.99886e-07 -0.032499 0.068 -0.0126502 -0.029945 0.068 -0.0102174 -0.0241862 0.068 2.99886e-07 -0.026249 0.068 -0.0229807 -0.02298 0.068 -0.0299457 -0.0126496 0.068 -0.0241869 -0.0102168 0.068 -0.0185613 -0.0185606 0.068 -0.0324998 9e-07 0.068 -0.0299458 0.0126514 0.068 -0.024187 0.0102186 0.068 -0.0262498 9e-07 0.068 -0.0185614 0.0185625 0.068 -0.0102176 0.0241881 0.074 -0.0102176 0.0241881 0.068 -0.0185614 0.0185625 0.074 -0.0185614 0.0185625 0.068 -0.024187 0.0102186 0.074 -0.024187 0.0102186 0.068 -0.0262498 9e-07 0.074 -0.0262498 9e-07 0.068 -0.0241869 -0.0102168 0.074 -0.0241869 -0.0102168 0.068 -0.0185613 -0.0185606 0.074 -0.0185613 -0.0185606 0.068 -0.0102174 -0.0241862 0.074 -0.0102174 -0.0241862 0.068 0.0162501 0.0233208 0.05818 0.0229811 0.022982 0.068 0.00507823 0.0300741 0.0591871 -0.0274217 -0.00507721 0.060249 -0.0162497 -0.0162491 0.06 -0.0299457 -0.0126496 0.052 -0.0324998 9e-07 0.052 -0.0050778 -0.0274209 0.059751 -0.0229807 -0.02298 0.052 -0.0126502 -0.029945 0.052 2.99886e-07 -0.032499 0.052 2.99886e-07 -0.032499 0.068 0.0126508 -0.0299449 0.068 0.0229812 -0.0229799 0.068 0.0126508 -0.0299449 0.052 0.0299462 -0.0126494 0.068 0.0229812 -0.0229799 0.052 0.0299462 -0.0126493 0.052 0.0325002 1.135e-06 0.052 0.027422 0.0130327 0.060708 0.0325002 1.135e-06 0.0625 0.0325002 1.1e-06 0.068 0.0299461 0.0126516 0.068 0.0126506 0.029947 0.068 9.96515e-08 0.032501 0.068 -0.0185613 -0.0185606 0.074 -0.0241869 -0.0102168 0.074 -0.0102174 -0.0241862 0.074 0.0102178 0.0241882 0.074 2.99886e-07 -0.026249 0.074 9.96515e-08 0.026251 0.074 0.010218 -0.0241861 0.074 0.0185618 -0.0185605 0.074 0.0241874 -0.0102166 0.074 0.0262502 1.1e-06 0.074 0.0241873 0.0102188 0.074 0.0185617 0.0185626 0.074 -0.0102176 0.0241881 0.074 -0.0185614 0.0185625 0.074 -0.024187 0.0102186 0.074 -0.0262498 9e-07 0.074 -0.0126502 -0.029945 0.068 0.0229811 0.0229821 0.052 0.0299461 0.0126516 0.052 0.0126506 0.0299471 0.052 9.96515e-08 0.032501 0.052 -0.0126504 0.0299469 0.068 -0.0229808 0.0229819 0.068 -0.0126504 0.029947 0.052 -0.0299458 0.0126514 0.068 -0.0229809 0.0229819 0.052 -0.0324998 9e-07 0.068 -0.0299458 0.0126514 0.052 -0.0229807 -0.02298 0.068 -0.0299457 -0.0126496 0.068 0.00143748 0.0289945 0.052 0.000795514 0.0308685 0.0519988 0.00141043 0.0302298 0.0624989 -0.000780872 0.0308765 0.0625005 -0.0010606 0.0305617 0.052 -0.00153383 0.0290111 0.052 -0.00145642 0.0288924 0.0625025 4.11402e-05 0.0279092 0.0519999 0.000574969 0.0279931 0.0625002 -0.0010604 -0.0305597 0.052 2.99886e-07 -0.032499 0.052 2.99886e-07 -0.030999 0.052 0.0015003 -0.029499 0.052 0.001061 -0.0305597 0.052 0.0126508 -0.0299449 0.052 0.0014145 -0.028999 0.052 0.0299462 -0.0126493 0.052 0.0325002 1.135e-06 0.052 0.0323002 1.051e-06 0.052 0.0229811 0.0229821 0.052 0.0126506 0.0299471 0.052 0.00143748 0.0289945 0.052 9.96515e-08 0.032501 0.052 0.000795514 0.0308685 0.0519988 -0.0010606 0.0305617 0.052 -0.00153383 0.0290111 0.052 -0.0126504 0.029947 0.052 -0.0299458 0.0126514 0.052 -0.0324998 9e-07 0.052 -0.0322998 1.026e-06 0.052 -0.0229807 -0.02298 0.052 -0.0126502 -0.029945 0.052 -0.0014139 -0.028999 0.052 -0.0014997 -0.029499 0.052</float_array>
					<technique_common>
						<accessor count="153" source="#base2_M1KShape1.positions-array" stride="3">
							<param name="X" type="float"/>
							<param name="Y" type="float"/>
							<param name="Z" type="float"/>
						</accessor>
					</technique_common>
				</source>
				<source id="base2_M1KShape1.normals">
					<float_array id="base2_M1KShape1.normals-array" count="459">0.389556 -0.921003 -0 0.389556 -0.921003 -0 4e-06 -1 -0 4e-06 -1 -0 0.707109 -0.707104 -0 0.707109 -0.707104 -0 0.921006 -0.389549 -0 0.921006 -0.389549 -0 1 4e-06 -0 1 4e-06 -0 0.921003 0.389556 0 0.921003 0.389556 0 0.707104 0.707109 0 0.707104 0.707109 0 0.389549 0.921006 0 0.389549 0.921006 0 -4e-06 1 -0 -4e-06 1 -0 -0 0 1 -0 0 1 -0 0 1 -0 0 1 -0 0 1 -0 0 1 -0 0 1 -0 0 1 -0 0 1 -0 0 1 -0 0 1 -0 0 1 -0 0 1 -0 0 1 -0 0 1 -0 0 1 -0 0 1 -0 0 1 -0 0 1 -0 0 1 -0 0 1 -0 0 1 -0 0 1 -0 0 1 -0 0 1 -0 0 1 -0 0 1 -0 0 1 -0 0 1 -0 0 1 -0 0 1 -0 0 1 -0.389556 0.921003 -0 -0.389556 0.921003 -0 -0.707109 0.707104 0 -0.707109 0.707104 0 -0.921006 0.389549 0 -0.921006 0.389549 0 -1 -4e-06 -0 -1 -4e-06 -0 -0.921003 -0.389556 -0 -0.921003 -0.389556 -0 -0.707104 -0.707109 -0 -0.707104 -0.707109 -0 -0.389549 -0.921006 -0 -0.389549 -0.921006 -0 0.572538 0.819878 0 0.707101 0.707113 0 0.165238 0.986254 0 -0.983522 -0.18079 0 -0.70711 -0.707104 0 -0.920998 -0.389568 0 -1 2.9e-05 0 -0.180773 -0.983525 0 -0.707108 -0.707106 0 -0.389549 -0.921006 -0 -9e-06 -1 0 -9e-06 -1 0 0.389558 -0.921002 0 0.707109 -0.707104 -0 0.389558 -0.921002 0 0.921005 -0.389552 0 0.707109 -0.707104 -0 0.921005 -0.389551 0 1 1.5e-05 0 0.902879 0.429895 0 1 1.5e-05 0 1 1.4e-05 0 0.921004 0.389552 0 0.38956 0.921001 0 -3.6e-05 1 0 -0 0 1 -0 0 1 -0 0 1 -0 0 1 -0 0 1 -0 0 1 -0 0 1 -0 0 1 -0 0 1 -0 0 1 -0 0 1 -0 0 1 -0 0 1 -0 0 1 -0 0 1 -0 0 1 -0.38956 -0.921001 0 0.707108 0.707106 0 0.920998 0.389568 0 0.389549 0.921006 0 9e-06 1 0 -0.389558 0.921002 0 -0.707109 0.707104 0 -0.389558 0.921002 0 -0.921005 0.389551 0 -0.707109 0.707104 0 -1 -1.5e-05 0 -0.921005 0.389551 0 -0.7071 -0.707113 0 -0.921004 -0.389553 0 -0.953149 0.302501 -0 -0.50367 -0.863896 0 -0.889513 -0.45691 0 0.496824 -0.867851 -0 0.707107 -0.707107 -0 0.961061 0.276335 0 0.923657 0.383219 0 -0.014015 0.999902 0 -0.355502 0.934675 0 -0 0 -1 -0 0 -1 -0 0 -1 -0 0 -1 -0 0 -1 -0 0 -1 -0 0 -1 -0 0 -1 -0 0 -1 -0 0 -1 -0 0 -1 -0 0 -1 -0 0 -1 -0 0 -1 -0 0 -1 -0 0 -1 -0 0 -1 -0 0 -1 -0 0 -1 -0 0 -1 -0 0 -1 -0 0 -1 -0 0 -1 -0 0 -1 -0 0 -1</float_array>
					<technique_common>
						<accessor count="153" source="#base2_M1KShape1.normals-array" stride="3">
							<param name="X" type="float"/>
							<param name="Y" type="float"/>
							<param name="Z" type="float"/>
						</accessor>
					</technique_common>
				</source>
				<vertices id="base2_M1KShape1.vertices">
					<input semantic="POSITION" source="#base2_M1KShape1.positions"/>
				</vertices>
				<triangles count="150" material="blinn21.material">
					<input offset="0" semantic="VERTEX" source="#base2_M1KShape1.vertices" set="0"/>
					<input offset="1" semantic="NORMAL" source="#base2_M1KShape1.normals" set="0"/>
					<p>0 0 2 2 1 1 3 3 2 2 0 0 4 4 1 1 5 5 0 0 1 1 4 4 6 6 5 5 7 7 4 4 5 5 6 6 8 8 7 7 9 9 6 6 7 7 8 8 10 10 9 9 11 11 8 8 9 9 10 10 12 12 11 11 13 13 10 10 11 11 12 12 14 14 13 13 15 15 12 12 13 13 14 14 16 16 15 15 17 17 14 14 15 15 16 16 18 18 20 20 19 19 18 18 19 19 21 21 22 22 21 21 23 23 24 24 21 21 19 19 22 22 23 23 25 25 24 24 23 23 21 21 26 26 25 25 27 27 28 28 25 25 23 23 26 26 27 27 29 29 28 28 27 27 25 25 30 30 29 29 31 31 32 32 29 29 27 27 30 30 31 31 33 33 32 32 31 31 29 29 34 34 33 33 35 35 36 36 33 33 31 31 34 34 35 35 37 37 36 36 35 35 33 33 38 38 37 37 39 39 40 40 37 37 35 35 38 38 39 39 41 41 40 40 39 39 37 37 42 42 41 41 43 43 44 44 41 41 39 39 42 42 43 43 45 45 44 44 43 43 41 41 46 46 45 45 47 47 48 48 45 45 43 43 46 46 47 47 20 20 48 48 47 47 45 45 49 49 19 19 20 20 49 49 20 20 47 47 50 50 17 17 51 51 16 16 17 17 50 50 52 52 51 51 53 53 50 50 51 51 52 52 54 54 53 53 55 55 52 52 53 53 54 54 56 56 55 55 57 57 54 54 55 55 56 56 58 58 57 57 59 59 56 56 57 57 58 58 60 60 59 59 61 61 58 58 59 59 60 60 62 62 61 61 63 63 60 60 61 61 62 62 3 3 63 63 2 2 62 62 63 63 3 3 64 64 66 66 65 65 67 67 69 69 68 68 70 70 69 69 67 67 68 68 72 72 71 71 72 72 68 68 69 69 73 73 74 74 71 71 73 73 71 71 72 72 75 75 74 74 76 76 75 75 71 71 74 74 76 76 78 78 77 77 78 78 76 76 74 74 77 77 80 80 79 79 80 80 77 77 78 78 81 81 82 82 79 79 81 81 79 79 80 80 83 83 65 65 84 84 85 85 79 79 84 84 82 82 84 84 79 79 83 83 64 64 65 65 85 85 84 84 86 86 86 86 84 84 65 65 87 87 65 65 66 66 88 88 87 87 66 66 89 89 91 91 90 90 91 91 93 93 92 92 92 92 94 94 91 91 93 93 95 95 92 92 95 95 96 96 92 92 96 96 97 97 92 92 97 97 98 98 92 92 98 98 99 99 92 92 100 100 92 92 99 99 94 94 101 101 91 91 101 101 102 102 91 91 102 102 103 103 91 91 103 103 104 104 91 91 104 104 90 90 91 91 71 71 105 105 68 68 106 106 64 64 107 107 82 82 107 107 84 84 66 66 64 64 108 108 84 84 107 107 83 83 83 83 107 107 64 64 108 108 109 109 66 66 106 106 108 108 64 64 88 88 109 109 110 110 88 88 66 66 109 109 110 110 112 112 111 111 112 112 110 110 109 109 111 111 114 114 113 113 114 114 111 111 112 112 113 113 116 116 115 115 116 116 113 113 114 114 70 70 67 67 115 115 70 70 115 115 116 116 68 68 117 117 67 67 117 117 68 68 105 105 115 115 67 67 118 118 118 118 67 67 117 117 75 75 105 105 71 71 119 119 121 121 120 120 120 120 121 121 122 122 120 120 122 122 123 123 124 124 122 122 125 125 123 123 122 122 124 124 126 126 124 124 125 125 121 121 119 119 127 127 119 119 126 126 127 127 125 125 127 127 126 126 128 128 130 130 129 129 131 131 133 133 132 132 131 131 134 134 133 133 129 129 132 132 133 133 135 135 137 137 136 136 138 138 140 140 139 139 141 141 139 139 142 142 140 140 142 142 139 139 142 142 143 143 141 141 144 144 145 145 143 143 141 141 143 143 145 145 146 146 148 148 147 147 149 149 151 151 150 150 151 151 152 152 150 150 129 129 150 150 128 128 132 132 129 129 130 130 152 152 128 128 150 150</p>
				</triangles>
			</mesh>
		</geometry>
	</library_geometries>
	<library_visual_scenes>
		<visual_scene id="VisualSceneNode" name="base1d_med">
			<node id="J5.dae" name="J5.dae">
				<instance_geometry url="#base2_M1KShape0">
					<bind_material>
						<technique_common>
							<instance_material symbol="blinn20.material" target="#blinn20.material"/>
						</technique_common>
					</bind_material>
				</instance_geometry>
				<instance_geometry url="#base2_M1KShape1">
					<bind_material>
						<technique_common>
							<instance_material symbol="blinn21.material" target="#blinn21.material"/>
						</technique_common>
					</bind_material>
				</instance_geometry>
			</node>
		</visual_scene>
	</library_visual_scenes>
	<scene>
		<instance_visual_scene url="#VisualSceneNode"/>
	</scene>
</COLLADA>
