<?xml version="1.0" encoding="UTF-8"?>
<COLLADA xmlns="http://www.collada.org/2005/11/COLLADASchema" version="1.4.1">
	<asset>
		<contributor>
			<author>DENSO WAVE</author>
		</contributor>
		<unit/>
		<up_axis>Y_UP</up_axis>
	</asset>
	<library_materials>
		<material id="blinn20.material" name="blinn20">
			<instance_effect url="#blinn20.effect"/>
		</material>
	</library_materials>
	<library_effects>
		<effect id="blinn20.effect">
			<profile_COMMON>
				<technique sid="common">
					<phong>
						<emission>
							<color>0.04 0.04 0.04 1</color>
						</emission>
						<diffuse>
							<color>0.4 0.4 0.4 1</color>
						</diffuse>
						<specular>
							<color>0.2 0.2 0.2 1</color>
						</specular>
					</phong>
				</technique>
			</profile_COMMON>
		</effect>
	</library_effects>
	<library_geometries>
		<geometry id="base2_M1KShape0" name="base2_M1KShape0">
			<mesh>
				<source id="base2_M1KShape0.positions">
					<float_array id="base2_M1KShape0.positions-array" count="570">0.0134585 -0.0123363 -0.00800002 0.0099367 -0.0134572 -0.00800002 0.00881578 -0.00993536 -0.00800002 0.0123376 -0.00881444 -0.00800002 0.0123376 -0.00881444 -0.00800002 0.0119297 -0.00864547 0 0.0136371 -0.0111358 0 0.0134585 -0.0123363 -0.00800002 0.00881578 -0.00993536 -0.00800002 0.00936936 -0.00936808 0 0.00863717 -0.0111359 0 0.0099367 -0.0134572 -0.00800002 0.00936947 -0.0129036 0 0.0123377 -0.0134572 0 -0.0111367 -0.0086359 0 -0.0111367 -0.0086359 -0.00800002 -0.0134581 -0.00993534 -0.00800002 -0.013627 -0.0103433 0 -0.00881534 -0.00993534 0 -0.00864637 -0.0103433 -0.00800002 0.0123376 0.0134594 -0.00800002 0.0119296 0.0136284 0 0.0136371 0.011138 0 0.0134584 0.00993751 -0.00800002 0.00881571 0.0123384 -0.00800002 0.00936928 0.0129057 0 0.00863709 0.0111379 0 0.00993661 0.00881662 -0.00800002 0.00936939 0.00937017 0 0.0123376 0.00881668 0 0.00881571 0.0123384 -0.00800002 0.0123376 0.0134594 -0.00800002 0.0134584 0.00993751 -0.00800002 0.00993661 0.00881662 -0.00800002 -0.0123373 -0.0134572 -0.00800002 -0.0129045 -0.0129037 0 -0.0099361 -0.0134572 0 -0.0093689 -0.0129037 -0.00800002 2.00234e-07 -0.00999898 0 -0.00532959 -0.00865444 0 -0.00235377 -0.00988689 -0.00600004 -0.0086552 -0.00532885 -0.00600004 -0.0092139 -0.00389144 0 -0.0099998 1.01e-06 0 -0.0099998 1.01e-06 -0.00600004 -0.0086552 0.00533087 0 -0.0092139 0.00389346 -0.00600004 -0.00532959 0.00865645 -0.00600004 -0.0038922 0.00921515 0 2.00234e-07 0.010001 0 2.00234e-07 0.010001 -0.00600004 0.0038926 0.00921515 -0.00600004 -0.00235377 -0.00988689 -0.00600004 2.00234e-07 0.010001 -0.00600004 -0.00532959 0.00865645 -0.00600004 -0.0092139 0.00389346 -0.00600004 -0.0099998 1.01e-06 -0.00600004 -0.0086552 -0.00532885 -0.00600004 0.00532989 -0.00865448 -0.00600004 0.00921434 -0.00389144 -0.00600004 0.0100002 1.01e-06 -0.00600004 0.00865571 0.0053307 -0.00600004 0.00532984 0.00865653 1.90735e-06 0.0038926 0.00921515 -0.00600004 0.00865571 0.0053307 -0.00600004 0.00921434 0.00389346 0 0.0100002 1.01e-06 0 0.0100002 1.01e-06 -0.00600004 0.00865571 -0.00532868 0 0.00921434 -0.00389144 -0.00600004 0.00532989 -0.00865448 -0.00600004 0.0038926 -0.00921313 0 0.00121559 0.0180623 -0.00700063 -0.00121108 0.0134385 -0.00700068 -0.00231345 0.0169545 -0.00700176 0.00231263 0.0145442 -0.00700206 0.00120007 0.0133698 -3.71933e-05 -0.00239277 0.0145667 -2.41399e-05 -0.00121108 0.0134385 -0.00700068 -0.00231345 0.0169545 -0.00700176 -0.001204 0.0181232 -8.33869e-05 0.00121559 0.0180623 -0.00700063 0.00239051 0.0169386 -4.02331e-05 0.00231263 0.0145442 -0.00700206 -0.0077848 0.0184293 0 -0.0077848 0.0184293 -0.00600004 9.96515e-08 0.020001 -0.00600004 9.96515e-08 0.020001 0 -0.014142 0.0141431 0 -0.014142 0.0141431 -0.00600004 -0.0184281 0.00778581 0 -0.0184281 0.00778581 -0.00600004 -0.0199998 9e-07 0 -0.0199998 9e-07 -0.00600004 -0.0184281 -0.00778399 0 -0.0184281 -0.00778399 -0.00600004 -0.0141419 -0.0141412 0 -0.0141419 -0.0141412 -0.00600004 -0.0077846 -0.0184273 0 -0.0077846 -0.0184273 -0.00600004 2.99886e-07 -0.019999 0 2.99886e-07 -0.019999 -0.00600004 0.00778501 0.0184293 0 0.0141423 0.0141432 0 0.011137 0.013638 0 0.0184285 0.00778599 0 0.0136371 0.011138 0 0.0129048 0.00937024 0 0.0129048 0.0129058 0 0.0100002 1.01e-06 0 0.00921434 0.00389346 0 0.00532984 0.00865653 1.90735e-06 0.0111371 0.00863801 0 0.0184285 -0.00778381 0 0.00865571 -0.00532868 0 0.0200002 1.1e-06 0 0.00778519 -0.0184273 0 0.0111372 -0.0136358 0 0.0141424 -0.0141411 0 0.0111371 -0.00863582 0 0.0129049 -0.00936801 0 0.00936933 -0.00936811 0 2.99886e-07 -0.019999 0 0.0038926 -0.00921313 0 0.0136371 -0.0111358 0 0.00936943 -0.0129036 0 0.0129049 -0.0129036 0 0.00863717 -0.0111359 0 -0.0077846 -0.0184273 0 -0.00532959 -0.00865444 0 2.00234e-07 -0.00999898 0 0.00936935 0.00937021 0 0.00239051 0.0169386 -4.02331e-05 9.96515e-08 0.020001 0 0.00863709 0.0111379 0 0.00936925 0.0129057 0 -0.0077848 0.0184293 0 -0.001204 0.0181232 -8.33869e-05 2.00234e-07 0.010001 0 0.00120007 0.0133698 -3.71933e-05 -0.0038922 0.00921515 0 -0.00239277 0.0145667 -2.41399e-05 -0.00881545 0.0123384 -1.43051e-06 -0.0086552 0.00533087 0 -0.00993625 0.0088166 0 -0.0134581 0.00993741 0 -0.0184281 0.00778581 0 -0.0099998 1.01e-06 0 -0.0092139 -0.00389144 0 -0.0199998 9e-07 0 -0.0184281 -0.00778399 0 -0.013627 -0.0103433 0 -0.0141419 -0.0141412 0 -0.0129045 -0.0129037 0 -0.00881534 -0.00993534 0 -0.0111367 -0.0086359 0 -0.0099361 -0.0134572 0 -0.014142 0.0141431 0 -0.0123373 0.0134592 0 0.00778519 -0.0184273 0 0.00778519 -0.0184273 -0.00600004 0.0141424 -0.0141411 0 0.0141424 -0.0141411 -0.00600004 0.0184285 -0.00778381 0 0.0184285 -0.00778381 -0.00600004 0.0200002 1.1e-06 0 0.0200002 1.1e-06 -0.00600004 0.0184285 0.00778599 0 0.0184285 0.00778599 -0.00600004 0.0141423 0.0141432 0 0.0141423 0.0141432 -0.00600004 0.00778501 0.0184293 0 0.00778501 0.0184293 -0.00600004 -0.0111367 -0.0086359 -0.00800002 -0.00864637 -0.0103433 -0.00800002 -0.0134581 -0.00993534 -0.00800002 -0.0093689 -0.0129037 -0.00800002 -0.0123373 -0.0134572 -0.00800002 -0.0103442 0.00864762 -0.00800002 -0.0119293 0.0136281 -0.00800002 -0.00864647 0.0119305 -0.00800002 -0.013627 0.0103453 -0.00800002 -0.0123373 0.0134592 0 -0.0119293 0.0136281 -0.00800002 -0.013627 0.0103453 -0.00800002 -0.0134581 0.00993741 0 -0.00881545 0.0123384 -1.43051e-06 -0.00864647 0.0119305 -0.00800002 -0.00993625 0.0088166 0 -0.0103442 0.00864762 -0.00800002</float_array>
					<technique_common>
						<accessor count="190" source="#base2_M1KShape0.positions-array" stride="3">
							<param name="X" type="float"/>
							<param name="Y" type="float"/>
							<param name="Z" type="float"/>
						</accessor>
					</technique_common>
				</source>
				<source id="base2_M1KShape0.normals">
					<float_array id="base2_M1KShape0.normals-array" count="570">-0 0 1 -0 0 1 -0 0 1 -0 0 1 -0.459319 -0.888271 1e-06 -0.303255 -0.95291 1e-06 -1 0 0 -0.888252 0.459356 1e-06 0.888266 -0.459329 -1e-06 0.707121 -0.707093 -1e-06 1 4e-05 0 0.459346 0.888258 -1e-06 0.707061 0.707153 -1e-06 -0.459402 0.888229 1e-06 -0 -1 0 -0 -1 0 0.888239 -0.459381 -0 0.9529 -0.303286 -0 -0.888239 -0.459381 -0 -0.9529 -0.303286 -0 -0.459363 -0.888249 0 -0.303268 -0.952905 0 -1 0 0 -0.888253 0.459355 1e-06 0.888257 -0.459346 0 0.707121 -0.707093 -0 1 4e-05 0 0.459346 0.888257 -1e-06 0.707059 0.707154 -1e-06 -0.459418 0.88822 1e-06 -0 0 1 -0 0 1 -0 0 1 -0 0 1 0.459387 0.888236 -0 0.707107 0.707107 0 -0.459387 0.888236 -0 -0.707107 0.707107 0 0 1 -0 0.524689 0.851294 0 0.231904 0.972739 -0 0.851291 0.524694 0 0.921004 0.389552 -0 1 0 0 1 0 0 0.851291 -0.524694 -0 0.921004 -0.389552 -0 0.524689 -0.851294 -0 0.389552 -0.921004 -0 -0 -1 0 -0 -1 0 -0 0 1 -0 0 1 -0 0 1 -0 0 1 -0 0 1 -0 0 1 -0 0 1 -0 0 1 -0 0 1 -0 0 1 -0 0 1 -0.524677 -0.851302 -0 -0.389552 -0.921004 0 -0.851301 -0.524678 0 -0.921004 -0.389552 0 -1 0 0 -1 0 0 -0.851301 0.524678 0 -0.921004 0.389552 0 -0.524681 0.851299 0 -0.389552 0.921004 0 -0 0 1 -0 0 1 -0 0 1 -0 0 1 -0.449912 0.893073 1e-06 0.895938 0.44418 -1e-06 0.463396 0.886151 -1e-06 0.887755 -0.460317 1e-06 0.452406 -0.891812 1e-06 -0.46503 -0.885295 -1e-06 -0.895458 -0.445145 -1e-06 -0.887079 0.461618 1e-06 -0.389557 0.921002 -0 -0.389557 0.921002 -0 -5e-06 1 0 -5e-06 1 0 -0.70711 0.707103 -0 -0.70711 0.707103 -0 -0.921007 0.389547 -0 -0.921007 0.389547 -0 -1 -5e-06 0 -1 -5e-06 0 -0.921002 -0.389557 0 -0.921002 -0.389557 0 -0.707103 -0.70711 0 -0.707103 -0.70711 0 -0.389547 -0.921007 0 -0.389547 -0.921007 0 5e-06 -1 -0 5e-06 -1 -0 -0 0 1 -0 0 1 -0 0 1 -0 0 1 -0 0 1 -0 0 1 -0 0 1 -0 0 1 -0 0 1 -0 0 1 -0 0 1 -0 0 1 -0 0 1 -0 0 1 -0 0 1 -0 0 1 -0 0 1 -0 0 1 -0 0 1 -0 0 1 -0 0 1 -0 0 1 -0 0 1 -0 0 1 -0 0 1 -0 0 1 -0 0 1 -0 0 1 -0 0 1 -0 0 1 -0 0 1 -0 0 1 -0 0 1 -0 0 1 -0 0 1 -0 0 1 -0 0 1 -0 0 1 -0 0 1 -0 0 1 -0 0 1 -0 0 1 -0 0 1 -0 0 1 -0 0 1 -0 0 1 -0 0 1 -0 0 1 -0 0 1 -0 0 1 -0 0 1 -0 0 1 -0 0 1 -0 0 1 -0 0 1 -0 0 1 -0 0 1 0.389557 -0.921002 -0 0.389557 -0.921002 -0 0.70711 -0.707103 -0 0.70711 -0.707103 -0 0.921007 -0.389547 -0 0.921007 -0.389547 -0 1 5e-06 0 1 5e-06 0 0.921002 0.389557 0 0.921002 0.389557 0 0.707103 0.70711 0 0.707103 0.70711 0 0.389547 0.921007 -0 0.389547 0.921007 -0 -0 0 1 -0 0 1 -0 0 1 -0 0 1 -0 0 1 -0 0 1 -0 0 1 -0 0 1 -0 0 1 0.459363 -0.888249 0 0.303267 -0.952906 0 0.952904 0.303271 0 0.888246 0.459367 0 -0.88824 -0.459379 -0 -0.9529 -0.303283 -0 -0.459374 0.888243 -0 -0.303277 0.952903 -0</float_array>
					<technique_common>
						<accessor count="190" source="#base2_M1KShape0.normals-array" stride="3">
							<param name="X" type="float"/>
							<param name="Y" type="float"/>
							<param name="Z" type="float"/>
						</accessor>
					</technique_common>
				</source>
				<vertices id="base2_M1KShape0.vertices">
					<input semantic="POSITION" source="#base2_M1KShape0.positions"/>
				</vertices>
				<triangles count="188" material="blinn20.material">
					<input offset="0" semantic="VERTEX" source="#base2_M1KShape0.vertices" set="0"/>
					<input offset="1" semantic="NORMAL" source="#base2_M1KShape0.normals" set="0"/>
					<p>0 0 2 2 1 1 0 0 3 3 2 2 4 4 6 6 5 5 7 7 6 6 4 4 8 8 5 5 9 9 4 4 5 5 8 8 8 8 9 9 10 10 11 11 10 10 12 12 8 8 10 10 11 11 11 11 12 12 13 13 11 11 13 13 7 7 7 7 13 13 6 6 14 14 16 16 15 15 17 17 16 16 14 14 18 18 15 15 19 19 14 14 15 15 18 18 20 20 22 22 21 21 23 23 22 22 20 20 24 24 21 21 25 25 20 20 21 21 24 24 24 24 25 25 26 26 27 27 26 26 28 28 24 24 26 26 27 27 27 27 28 28 29 29 27 27 29 29 23 23 23 23 29 29 22 22 30 30 32 32 31 31 32 32 30 30 33 33 34 34 17 17 35 35 16 16 17 17 34 34 34 34 35 35 36 36 34 34 36 36 37 37 19 19 36 36 18 18 37 37 36 36 19 19 38 38 40 40 39 39 39 39 40 40 41 41 39 39 41 41 42 42 43 43 41 41 44 44 42 42 41 41 43 43 45 45 44 44 46 46 43 43 44 44 45 45 45 45 46 46 47 47 45 45 47 47 48 48 49 49 47 47 50 50 48 48 47 47 49 49 51 51 53 53 52 52 53 53 54 54 52 52 54 54 55 55 52 52 55 55 56 56 52 52 56 56 57 57 52 52 52 52 58 58 51 51 58 58 59 59 51 51 59 59 60 60 51 51 60 60 61 61 51 51 62 62 50 50 63 63 49 49 50 50 62 62 62 62 63 63 64 64 62 62 64 64 65 65 66 66 64 64 67 67 65 65 64 64 66 66 68 68 67 67 69 69 66 66 67 67 68 68 68 68 69 69 70 70 68 68 70 70 71 71 38 38 70 70 40 40 71 71 70 70 38 38 72 72 74 74 73 73 73 73 75 75 72 72 76 76 78 78 77 77 77 77 78 78 79 79 77 77 79 79 80 80 80 80 79 79 81 81 80 80 81 81 82 82 82 82 81 81 83 83 82 82 83 83 76 76 76 76 83 83 78 78 84 84 86 86 85 85 87 87 86 86 84 84 88 88 85 85 89 89 84 84 85 85 88 88 90 90 89 89 91 91 88 88 89 89 90 90 92 92 91 91 93 93 90 90 91 91 92 92 94 94 93 93 95 95 92 92 93 93 94 94 96 96 95 95 97 97 94 94 95 95 96 96 98 98 97 97 99 99 96 96 97 97 98 98 100 100 99 99 101 101 98 98 99 99 100 100 102 102 104 104 103 103 105 105 103 103 106 106 106 106 107 107 105 105 108 108 106 106 103 103 105 105 107 107 109 109 110 110 112 112 111 111 113 113 115 115 114 114 115 115 105 105 109 109 112 112 110 110 107 107 109 109 107 107 110 110 109 109 114 114 115 115 116 116 118 118 117 117 119 119 120 120 114 114 121 121 119 119 114 114 113 113 114 114 120 120 116 116 123 123 122 122 120 120 124 124 113 113 117 117 125 125 116 116 126 126 117 117 118 118 116 116 125 125 123 123 121 121 114 114 127 127 127 127 123 123 125 125 123 123 127 127 114 114 126 126 118 118 124 124 113 113 124 124 118 118 128 128 122 122 129 129 130 130 122 122 123 123 130 130 129 129 122 122 131 131 111 111 112 112 102 102 133 133 132 132 131 131 134 134 111 111 135 135 104 104 102 102 136 136 137 137 133 133 137 137 132 132 133 133 102 102 132 132 135 135 111 111 139 139 138 138 139 139 111 111 135 135 139 139 135 135 132 132 134 134 135 135 111 111 140 140 138 138 141 141 136 136 142 142 141 141 139 139 141 141 138 138 137 137 136 136 141 141 140 140 142 142 143 143 142 142 140 140 141 141 144 144 143 143 142 142 145 145 146 146 144 144 147 147 149 149 148 148 149 149 147 147 144 144 149 149 144 144 146 146 143 143 144 144 147 147 150 150 152 152 151 151 150 150 148 148 149 149 153 153 151 151 152 152 150 150 151 151 148 148 154 154 129 129 155 155 155 155 148 148 151 151 148 148 155 155 129 129 156 156 128 128 154 154 129 129 154 154 128 128 153 153 152 152 156 156 128 128 156 156 152 152 146 146 145 145 157 157 136 136 157 157 158 158 158 158 157 157 145 145 142 142 136 136 158 158 108 108 103 103 104 104 159 159 101 101 160 160 100 100 101 101 159 159 161 161 160 160 162 162 159 159 160 160 161 161 163 163 162 162 164 164 161 161 162 162 163 163 165 165 164 164 166 166 163 163 164 164 165 165 167 167 166 166 168 168 165 165 166 166 167 167 169 169 168 168 170 170 167 167 168 168 169 169 171 171 170 170 172 172 169 169 170 170 171 171 87 87 172 172 86 86 171 171 172 172 87 87 173 173 175 175 174 174 176 176 174 174 175 175 175 175 177 177 176 176 178 178 180 180 179 179 179 179 181 181 178 178 182 182 184 184 183 183 185 185 184 184 182 182 186 186 183 183 187 187 182 182 183 183 186 186 188 188 187 187 189 189 186 186 187 187 188 188 185 185 189 189 184 184 188 188 189 189 185 185</p>
				</triangles>
			</mesh>
		</geometry>
	</library_geometries>
	<library_visual_scenes>
		<visual_scene id="VisualSceneNode" name="base1d_med">
			<node id="J6.dae" name="J6.dae">
				<instance_geometry url="#base2_M1KShape0">
					<bind_material>
						<technique_common>
							<instance_material symbol="blinn20.material" target="#blinn20.material"/>
						</technique_common>
					</bind_material>
				</instance_geometry>
			</node>
		</visual_scene>
	</library_visual_scenes>
	<scene>
		<instance_visual_scene url="#VisualSceneNode"/>
	</scene>
</COLLADA>
